# 3ds Max Wavefront OBJ Exporter v0.99 - (c)2007 guruware
# File Created: 19.08.2021 20:01:17

mtllib ?????\??.mtl

#
# object Object002
#

v  0.0028 -6.3820 -0.9754
v  0.9933 -5.1695 -0.0560
v  0.0028 -5.1701 -0.2466
v  2.3479 -3.4285 1.5796
v  0.0028 -3.0592 1.0230
v  3.5507 1.1642 4.7733
v  3.5324 1.7635 5.1639
v  0.0028 2.2807 4.2906
v  3.3903 -1.5947 2.8787
v  0.0028 -1.2705 2.0988
v  2.1520 4.3240 6.4410
v  1.4113 5.7762 7.2077
v  0.0028 4.0431 5.4066
v  0.0027 6.0768 6.7409
v  0.6916 6.5014 7.4843
v  0.0027 6.6725 7.2120
v  3.0242 2.5781 5.6096
v  3.8561 0.0146 4.0239
v  0.0028 0.5182 3.1746
v  0.3472 7.1387 7.7937
v  0.0027 7.2242 7.6576
v  2.7137 3.7604 6.2637
v  0.0027 8.2457 8.5632
v  -0.9877 -5.1695 -0.0560
v  -2.3424 -3.4285 1.5796
v  -3.5452 1.1642 4.7733
v  -3.5269 1.7635 5.1639
v  -3.3847 -1.5947 2.8786
v  -2.1465 4.3240 6.4410
v  -1.4058 5.7762 7.2077
v  -0.6861 6.5014 7.4843
v  -3.0187 2.5781 5.6096
v  -3.8506 0.0146 4.0239
v  -0.3417 7.1387 7.7937
v  -2.7082 3.7604 6.2637
# 35 vertices

vn 0.0000 -0.4252 0.9051
vn -0.1678 -0.4319 0.8862
vn -0.2300 -0.3987 0.8878
vn 0.0000 -0.4393 0.8984
vn -0.2417 -0.4741 0.8467
vn -0.2359 -0.4686 0.8513
vn 0.0000 -0.4510 0.8925
vn -0.2016 -0.4138 0.8878
vn -0.2590 -0.4700 0.8438
vn -0.2953 -0.4801 0.8260
vn -0.0000 -0.4605 0.8877
vn 0.0000 -0.4933 0.8698
vn -0.3718 -0.5583 0.7416
vn -0.0000 -0.5311 0.8473
vn -0.2448 -0.4741 0.8458
vn -0.2109 -0.4580 0.8635
vn 0.0000 -0.4346 0.9006
vn -0.3705 -0.5097 0.7765
vn -0.0000 -0.5537 0.8327
vn -0.2609 -0.4475 0.8553
vn 0.0000 -0.5713 0.8207
vn 0.1678 -0.4319 0.8862
vn 0.2300 -0.3987 0.8878
vn 0.2417 -0.4741 0.8467
vn 0.2359 -0.4686 0.8513
vn 0.2016 -0.4138 0.8878
vn 0.2590 -0.4700 0.8438
vn 0.2953 -0.4801 0.8260
vn 0.3718 -0.5583 0.7416
vn 0.2448 -0.4741 0.8458
vn 0.2109 -0.4580 0.8635
vn 0.3705 -0.5097 0.7765
vn 0.2609 -0.4475 0.8553
# 33 vertex normals

vt 0.2328 0.0060 0.0000
vt 0.2894 0.0909 0.0000
vt 0.2330 0.0855 0.0000
vt 0.3705 0.2223 0.0000
vt 0.2333 0.2241 0.0000
vt 0.4414 0.5367 0.0000
vt 0.4407 0.5770 0.0000
vt 0.2341 0.5759 0.0000
vt 0.4298 0.3483 0.0000
vt 0.2336 0.3415 0.0000
vt 0.3618 0.7378 0.0000
vt 0.3196 0.8302 0.0000
vt 0.2344 0.6930 0.0000
vt 0.2347 0.8292 0.0000
vt 0.2776 0.8731 0.0000
vt 0.2348 0.8713 0.0000
vt 0.4124 0.6295 0.0000
vt 0.4574 0.4592 0.0000
vt 0.2338 0.4587 0.0000
vt 0.2562 0.9122 0.0000
vt 0.2349 0.9110 0.0000
vt 0.3945 0.7055 0.0000
vt 0.2351 0.9876 0.0000
vt 0.1766 0.0912 0.0000
vt 0.0961 0.2229 0.0000
vt 0.0266 0.5376 0.0000
vt 0.0275 0.5779 0.0000
vt 0.0374 0.3492 0.0000
vt 0.1072 0.7384 0.0000
vt 0.1498 0.8306 0.0000
vt 0.1920 0.8733 0.0000
vt 0.0560 0.6303 0.0000
vt 0.0103 0.4602 0.0000
vt 0.2135 0.9123 0.0000
vt 0.0743 0.7063 0.0000
# 35 texture coords

o Object002
g Object002
usemtl Material__25
s 1
f 1/1/1 2/2/2 3/3/1 
f 2/2/2 4/4/3 5/5/4 
f 6/6/5 7/7/6 8/8/7 
f 2/2/2 5/5/4 3/3/1 
f 4/4/3 9/9/8 10/10/1 5/5/4 
f 11/11/9 12/12/10 13/13/11 
f 13/13/11 12/12/10 14/14/12 
f 12/12/10 15/15/13 16/16/14 14/14/12 
f 7/7/6 17/17/15 8/8/7 
f 9/9/8 18/18/16 19/19/17 10/10/1 
f 15/15/13 20/20/18 21/21/19 16/16/14 
f 17/17/15 22/22/20 13/13/11 8/8/7 
f 8/8/7 19/19/17 18/18/16 6/6/5 
f 13/13/11 22/22/20 11/11/9 
f 20/20/18 23/23/21 21/21/19 
f 1/1/1 3/3/1 24/24/22 
f 24/24/22 5/5/4 25/25/23 
f 26/26/24 8/8/7 27/27/25 
f 24/24/22 3/3/1 5/5/4 
f 25/25/23 5/5/4 10/10/1 28/28/26 
f 29/29/27 13/13/11 30/30/28 
f 13/13/11 14/14/12 30/30/28 
f 30/30/28 14/14/12 16/16/14 31/31/29 
f 27/27/25 8/8/7 32/32/30 
f 28/28/26 10/10/1 19/19/17 33/33/31 
f 31/31/29 16/16/14 21/21/19 34/34/32 
f 32/32/30 8/8/7 13/13/11 35/35/33 
f 8/8/7 26/26/24 33/33/31 19/19/17 
f 13/13/11 29/29/27 35/35/33 
f 34/34/32 21/21/19 23/23/21 
# 12 polygons - 18 triangles

