# 3ds Max Wavefront OBJ Exporter v0.99 - (c)2007 guruware
# File Created: 20.08.2021 11:06:33

mtllib ?????\??.mtl

#
# object Object001
#

v  -3.0209 0.2650 -0.1751
v  -2.1283 2.4201 -0.1751
v  -0.6876 0.5252 -1.9200
v  -0.9834 -0.1541 -1.6990
v  0.0268 3.3127 -0.1751
v  0.0268 0.8066 -2.0116
v  2.1818 2.4201 -0.1751
v  0.7411 0.5252 -1.9200
v  3.0744 0.2650 -0.1751
v  1.0370 -0.1541 -1.6990
v  2.1818 -1.8900 -0.1751
v  0.7411 -0.8333 -1.4780
v  0.0268 -2.7827 -0.1751
v  0.0268 -1.1147 -1.3865
v  -2.1283 -1.8900 -0.1751
v  -0.6876 -0.8333 -1.4780
v  0.0268 -0.1341 -3.0092
v  -0.4733 -0.6095 -2.8545
v  0.5268 -0.6095 -2.8545
v  0.0268 -1.0850 -2.6998
v  0.3777 -1.1805 -4.2883
v  -0.1223 -1.4961 -3.9733
v  0.8778 -1.4961 -3.9733
v  0.3777 -1.8117 -3.6584
v  0.1534 -2.6015 -4.8447
v  0.6535 -2.4458 -5.3199
v  1.1160 -5.2725 -6.5745
v  0.6160 -5.4282 -6.0993
v  1.1535 -2.6015 -4.8447
v  1.6161 -5.4282 -6.0993
v  0.6535 -2.7573 -4.3696
v  1.1160 -5.5839 -5.6242
v  0.5431 -13.9246 -8.7535
v  0.1398 -16.8526 -8.9667
v  -0.3602 -17.0083 -8.4915
v  0.0431 -14.0803 -8.2784
v  1.0431 -14.0803 -8.2784
v  0.6398 -17.0083 -8.4915
v  0.5431 -14.2361 -7.8032
v  0.1398 -17.1640 -8.0164
v  1.1208 -8.2837 -7.6381
v  0.9469 -11.0874 -8.3329
v  0.4469 -11.2431 -7.8577
v  0.6208 -8.4395 -7.1630
v  1.6208 -8.4395 -7.1630
v  1.4469 -11.2431 -7.8577
v  1.1208 -8.5952 -6.6878
v  0.9469 -11.3989 -7.3826
v  -0.0895 -19.7805 -8.4066
v  -0.0895 -23.0261 -7.5538
v  -0.5896 -23.1818 -7.0787
v  -0.5896 -19.9363 -7.9315
v  0.4105 -19.9363 -7.9315
v  0.4105 -23.1818 -7.0787
v  -0.0895 -20.0920 -7.4563
v  -0.0895 -23.3376 -6.6035
v  -0.0895 -25.7521 -6.7594
v  -0.5896 -25.7526 -6.2842
v  0.4105 -25.7526 -6.2842
v  -0.0895 -25.7532 -5.8091
v  0.2440 -19.9369 -7.8120
v  -0.1089 -19.8769 -8.0187
v  0.4995 -17.7822 -8.6384
v  0.8179 -17.9456 -8.4318
v  -0.1089 -19.8769 -7.6054
v  0.4995 -17.7822 -8.2251
v  1.2988 -16.5864 -8.6384
v  2.3269 -15.8054 -8.6384
v  2.4882 -16.1249 -8.4318
v  1.5639 -16.8269 -8.4318
v  1.2988 -16.5864 -8.2251
v  2.3269 -15.8054 -8.2251
v  3.6242 -15.5331 -8.6384
v  3.7009 -15.8827 -8.4318
v  3.6242 -15.5331 -8.2251
v  6.3412 -23.3243 -4.7661
v  7.1143 -22.0193 -5.4755
v  5.9136 -21.3869 -5.3564
v  7.9291 -20.2416 -6.6734
v  8.0266 -18.5033 -7.9253
v  5.3415 -19.4532 -6.1460
v  7.6529 -17.0123 -8.8545
v  4.6731 -17.6483 -7.0686
v  6.8657 -15.7539 -9.5302
v  3.8396 -15.3039 -8.9723
v  3.6082 -15.5500 -8.5384
v  5.6927 -15.0852 -9.8824
v  4.4954 -14.9928 -9.4870
v  5.4263 -22.0193 -4.2525
v  4.0341 -20.2416 -3.8516
v  2.8141 -18.5033 -4.1490
v  2.0476 -17.0123 -4.7935
v  1.6509 -15.7539 -5.7522
v  3.1508 -15.2521 -8.4165
v  1.6816 -15.0852 -6.9764
v  2.4304 -14.9928 -7.9910
v  0.5999 -13.6333 -8.0536
v  1.0048 -13.5732 -8.1106
v  0.5279 -11.4785 -7.7329
v  0.1500 -11.6420 -7.6972
v  0.7482 -13.5732 -8.4346
v  0.2713 -11.4785 -8.0569
v  -0.0987 -10.2828 -7.2367
v  -0.9046 -9.5018 -6.5984
v  -1.1594 -9.8213 -6.6602
v  -0.4349 -10.5233 -7.2341
v  -0.3553 -10.2828 -7.5607
v  -1.1612 -9.5018 -6.9224
v  -1.9217 -9.2295 -5.7929
v  -2.1101 -9.5791 -5.9073
v  -2.1783 -9.2295 -6.1169
v  -6.4557 -17.0207 -7.1416
v  -6.6214 -15.7157 -6.1055
v  -5.7540 -15.0833 -6.9444
v  -6.5163 -13.9380 -4.6606
v  -5.8155 -12.1996 -3.6186
v  -4.8153 -13.1496 -6.6806
v  -4.9457 -10.7087 -3.1222
v  -3.7185 -11.3446 -6.3723
v  -3.9090 -9.4503 -3.0813
v  -1.8831 -9.0002 -5.3974
v  -1.9712 -9.2464 -5.8812
v  -2.7709 -8.7816 -3.5334
v  -2.0777 -8.6892 -4.5868
v  -6.0574 -15.7157 -8.1123
v  -5.2150 -13.9380 -9.2909
v  -4.0739 -12.1997 -9.8152
v  -3.0729 -10.7087 -9.7858
v  -2.1667 -9.4503 -9.2807
v  -1.6883 -8.9485 -6.2608
v  -1.4307 -8.7816 -8.3018
v  -1.3878 -8.6892 -7.0416
v  -0.0895 -27.9017 -6.1103
v  -0.5896 -27.9022 -5.6351
v  0.4105 -27.9022 -5.6351
v  -0.0895 -27.9028 -5.1600
v  -0.0895 -30.8191 -5.3997
v  -0.5896 -30.8197 -4.9246
v  0.4105 -30.8197 -4.9246
v  -0.0895 -30.8202 -4.4494
# 140 vertices

vn -0.5051 0.0112 -0.8630
vn -0.3491 0.3593 -0.8655
vn -0.5062 0.3010 -0.8082
vn -0.6989 -0.1712 -0.6945
vn -0.0000 0.4978 -0.8673
vn -0.0000 0.5599 -0.8286
vn 0.3491 0.3593 -0.8655
vn 0.5062 0.3010 -0.8082
vn 0.5051 0.0112 -0.8630
vn 0.6989 -0.1712 -0.6945
vn 0.3613 -0.3493 -0.8645
vn 0.4415 -0.5948 -0.6718
vn 0.0000 -0.4986 -0.8668
vn -0.0000 -0.8032 -0.5956
vn -0.3613 -0.3493 -0.8645
vn -0.4415 -0.5948 -0.6718
vn -0.0231 0.5769 -0.8165
vn -0.9051 -0.1016 -0.4129
vn 0.9823 0.0254 -0.1858
vn -0.1014 -0.9717 0.2136
vn 0.0294 0.6324 -0.7741
vn -0.9633 -0.1488 -0.2233
vn 0.9740 0.1975 0.1108
vn -0.0104 -0.6077 0.7941
vn -0.9821 -0.1411 -0.1246
vn 0.0019 0.4345 -0.9007
vn 0.0330 0.3008 -0.9531
vn -0.9964 -0.0725 -0.0440
vn 0.9820 0.1870 0.0263
vn 0.9972 0.0737 0.0096
vn 0.0221 -0.4119 0.9110
vn 0.0280 -0.2893 0.9568
vn -0.0178 0.0874 -0.9960
vn -0.0295 -0.0299 -0.9991
vn -0.9960 0.0781 -0.0427
vn -0.9911 0.1329 0.0126
vn 0.9892 -0.1398 -0.0443
vn 0.9882 -0.1362 -0.0702
vn 0.0164 -0.0796 0.9967
vn 0.0054 0.0715 0.9974
vn 0.0103 0.2272 -0.9738
vn 0.0059 0.1504 -0.9886
vn -0.9951 0.0983 0.0050
vn -0.9995 0.0302 -0.0117
vn 0.9992 -0.0270 -0.0281
vn 0.9942 -0.0980 -0.0435
vn 0.0149 -0.2234 0.9746
vn 0.0263 -0.1493 0.9884
vn -0.0235 -0.1732 -0.9846
vn 0.0000 -0.2156 -0.9765
vn -0.9999 -0.0085 -0.0089
vn -0.9996 0.0268 -0.0132
vn 0.9985 -0.0522 -0.0160
vn 0.9999 -0.0085 -0.0089
vn -0.0078 0.1876 0.9822
vn 0.0000 0.2374 0.9714
vn 0.0000 -0.2320 -0.9727
vn -1.0000 0.0007 0.0013
vn 1.0000 0.0007 0.0013
vn -0.0000 0.2448 0.9696
vn 0.9593 -0.2380 0.1518
vn -0.6501 0.0075 -0.7598
vn -0.5526 0.1663 -0.8167
vn 0.8967 -0.4356 -0.0780
vn -0.4631 0.3302 0.8225
vn -0.5302 0.3358 0.7785
vn -0.4376 0.4094 -0.8006
vn -0.2555 0.5605 -0.7878
vn 0.4043 -0.9146 0.0028
vn 0.7270 -0.6866 0.0022
vn -0.4329 0.4117 0.8019
vn -0.2524 0.5594 0.7895
vn -0.1116 0.5270 -0.8425
vn 0.1959 -0.9806 0.0018
vn -0.1094 0.5258 0.8436
vn 0.4661 0.3062 0.8301
vn 0.2374 0.3203 0.9171
vn 0.4703 0.3683 0.8020
vn 0.1879 0.4580 0.8688
vn 0.2693 0.4746 0.8380
vn 0.4502 0.4279 0.7837
vn 0.2798 0.4992 0.8201
vn 0.4210 0.5312 0.7352
vn 0.2140 0.5668 0.7956
vn 0.2718 0.5863 0.7631
vn 0.4626 0.5975 0.6550
vn 0.2013 0.5941 0.7788
vn 0.2324 0.5781 0.7822
vn 0.6832 0.3527 0.6394
vn 0.6569 0.5126 0.5530
vn 0.5821 0.5106 0.6328
vn 0.5587 0.5346 0.6340
vn 0.5701 0.6202 0.5388
vn 0.5058 0.5983 0.6215
vn 0.5587 0.6403 0.5270
vn 0.5266 0.6091 0.5930
vn -0.7747 -0.2537 0.5792
vn 0.9293 0.1668 0.3294
vn 0.9175 0.2561 0.3044
vn -0.7546 -0.3828 0.5329
vn -0.1214 0.1071 -0.9868
vn -0.1097 0.1815 -0.9773
vn 0.8275 0.4241 0.3681
vn 0.6637 0.5754 0.4779
vn -0.3560 -0.8996 0.2528
vn -0.6202 -0.6510 0.4376
vn -0.1480 0.3308 -0.9320
vn -0.2470 0.5144 -0.8212
vn 0.5319 0.5940 0.6035
vn -0.2375 -0.9713 0.0091
vn -0.3884 0.4391 -0.8101
vn -0.8827 0.3438 -0.3204
vn -0.7178 0.3494 -0.6023
vn -0.8616 0.4143 -0.2934
vn -0.6366 0.5002 -0.5869
vn -0.6947 0.5245 -0.4921
vn -0.8303 0.4764 -0.2892
vn -0.6922 0.5514 -0.4656
vn -0.7667 0.5839 -0.2668
vn -0.6056 0.6218 -0.4966
vn -0.6413 0.6399 -0.4234
vn -0.7444 0.6490 -0.1571
vn -0.5945 0.6427 -0.4832
vn -0.6203 0.6303 -0.4668
vn -0.9248 0.3773 0.0485
vn -0.8357 0.5410 0.0950
vn -0.8330 0.5523 -0.0337
vn -0.8140 0.5783 -0.0545
vn -0.7516 0.6584 0.0397
vn -0.7585 0.6457 -0.0880
vn -0.7383 0.6738 0.0293
vn -0.7559 0.6529 -0.0478
vn 0.0000 -0.2167 -0.9762
vn -0.9999 0.0050 0.0106
vn 0.9999 0.0050 0.0106
vn 0.0000 0.2130 0.9771
vn 0.0000 -0.1934 -0.9811
vn -0.9945 0.0202 0.1027
vn 0.9945 0.0202 0.1027
vn 0.0000 0.1934 0.9811
# 140 vertex normals

vt 0.8011 0.6518 0.0000
vt 0.7698 0.7300 0.0000
vt 0.7236 0.6696 0.0000
vt 0.7408 0.6409 0.0000
vt 0.6904 0.7621 0.0000
vt 0.6904 0.6791 0.0000
vt 0.6111 0.7300 0.0000
vt 0.6573 0.6696 0.0000
vt 0.5798 0.6518 0.0000
vt 0.6401 0.6409 0.0000
vt 0.6160 0.5788 0.0000
vt 0.6532 0.6079 0.0000
vt 0.6905 0.5530 0.0000
vt 0.6905 0.5946 0.0000
vt 0.7650 0.5788 0.0000
vt 0.7278 0.6079 0.0000
vt 0.6905 0.6356 0.0000
vt 0.6946 0.6342 0.0000
vt 0.6863 0.6342 0.0000
vt 0.6905 0.6326 0.0000
vt 0.9354 0.8096 0.0000
vt 0.9151 0.8096 0.0000
vt 0.9151 0.7654 0.0000
vt 0.9354 0.7654 0.0000
vt 0.9966 0.8096 0.0000
vt 0.9764 0.8096 0.0000
vt 0.9764 0.7654 0.0000
vt 0.9966 0.7654 0.0000
vt 0.9560 0.8096 0.0000
vt 0.9560 0.7654 0.0000
vt 0.9354 0.7223 0.0000
vt 0.9151 0.7223 0.0000
vt 0.9151 0.6301 0.0000
vt 0.9354 0.6301 0.0000
vt 0.9966 0.7223 0.0000
vt 0.9764 0.7223 0.0000
vt 0.9764 0.6301 0.0000
vt 0.9966 0.6301 0.0000
vt 0.9560 0.7223 0.0000
vt 0.9560 0.6301 0.0000
vt 0.9151 0.3633 0.0000
vt 0.9151 0.2752 0.0000
vt 0.9354 0.2752 0.0000
vt 0.9354 0.3633 0.0000
vt 0.9764 0.3633 0.0000
vt 0.9764 0.2752 0.0000
vt 0.9966 0.2752 0.0000
vt 0.9966 0.3633 0.0000
vt 0.9560 0.3633 0.0000
vt 0.9560 0.2752 0.0000
vt 0.9151 0.5354 0.0000
vt 0.9151 0.4494 0.0000
vt 0.9354 0.4494 0.0000
vt 0.9354 0.5354 0.0000
vt 0.9764 0.5354 0.0000
vt 0.9764 0.4494 0.0000
vt 0.9966 0.4494 0.0000
vt 0.9966 0.5354 0.0000
vt 0.9560 0.5354 0.0000
vt 0.9560 0.4494 0.0000
vt 0.9151 0.1878 0.0000
vt 0.9151 0.0964 0.0000
vt 0.9354 0.0964 0.0000
vt 0.9354 0.1878 0.0000
vt 0.9764 0.1878 0.0000
vt 0.9764 0.0964 0.0000
vt 0.9966 0.0964 0.0000
vt 0.9966 0.1878 0.0000
vt 0.9560 0.1878 0.0000
vt 0.9560 0.0964 0.0000
vt 0.9151 0.0043 0.0000
vt 0.9354 0.0043 0.0000
vt 0.9764 0.0043 0.0000
vt 0.9966 0.0043 0.0000
vt 0.9560 0.0043 0.0000
vt 0.9064 0.9483 0.0000
vt 0.8801 0.9487 0.0000
vt 0.8784 0.8086 0.0000
vt 0.9047 0.8083 0.0000
vt 0.8589 0.9489 0.0000
vt 0.8572 0.8089 0.0000
vt 0.8330 0.9492 0.0000
vt 0.8313 0.8092 0.0000
vt 0.8773 0.7172 0.0000
vt 0.8763 0.6369 0.0000
vt 0.9027 0.6366 0.0000
vt 0.9036 0.7168 0.0000
vt 0.8561 0.7174 0.0000
vt 0.8551 0.6372 0.0000
vt 0.8302 0.7177 0.0000
vt 0.8292 0.6375 0.0000
vt 0.8753 0.5554 0.0000
vt 0.9017 0.5551 0.0000
vt 0.8542 0.5557 0.0000
vt 0.8283 0.5560 0.0000
vt 0.7262 0.0278 0.0000
vt 0.7805 0.0930 0.0000
vt 0.7262 0.1354 0.0000
vt 0.8523 0.1887 0.0000
vt 0.8951 0.2863 0.0000
vt 0.7262 0.2496 0.0000
vt 0.9076 0.3787 0.0000
vt 0.7262 0.3604 0.0000
vt 0.8952 0.4586 0.0000
vt 0.7499 0.5238 0.0000
vt 0.7262 0.5069 0.0000
vt 0.8566 0.5195 0.0000
vt 0.7935 0.5372 0.0000
vt 0.6719 0.0930 0.0000
vt 0.6002 0.1887 0.0000
vt 0.5573 0.2863 0.0000
vt 0.5448 0.3787 0.0000
vt 0.5573 0.4586 0.0000
vt 0.7025 0.5238 0.0000
vt 0.5959 0.5195 0.0000
vt 0.6589 0.5372 0.0000
vt 0.8306 0.9488 0.0000
vt 0.8568 0.9488 0.0000
vt 0.8568 0.8063 0.0000
vt 0.8306 0.8063 0.0000
vt 0.8806 0.9488 0.0000
vt 0.8806 0.8063 0.0000
vt 0.9040 0.9488 0.0000
vt 0.9040 0.8063 0.0000
vt 0.8568 0.7151 0.0000
vt 0.8568 0.6364 0.0000
vt 0.8306 0.6364 0.0000
vt 0.8306 0.7151 0.0000
vt 0.8806 0.7151 0.0000
vt 0.8806 0.6364 0.0000
vt 0.9040 0.7151 0.0000
vt 0.9040 0.6364 0.0000
vt 0.8568 0.5555 0.0000
vt 0.8306 0.5555 0.0000
vt 0.8806 0.5555 0.0000
vt 0.9040 0.5555 0.0000
vt 0.9372 0.0726 0.0000
vt 0.9193 0.0738 0.0000
vt 0.9185 0.0465 0.0000
vt 0.9363 0.0454 0.0000
vt 0.9912 0.0733 0.0000
vt 0.9732 0.0724 0.0000
vt 0.9721 0.0452 0.0000
vt 0.9900 0.0461 0.0000
vt 0.9552 0.0714 0.0000
vt 0.9542 0.0443 0.0000
vt 0.9169 0.0099 0.0000
vt 0.9348 0.0089 0.0000
vt 0.9709 0.0086 0.0000
vt 0.9889 0.0095 0.0000
vt 0.9528 0.0078 0.0000
# 151 texture coords

o Object001
g Object001
usemtl Material__25
s 8
f 1/1/1 2/2/2 3/3/3 4/4/4 
f 2/2/2 5/5/5 6/6/6 3/3/3 
f 5/5/5 7/7/7 8/8/8 6/6/6 
f 7/7/7 9/9/9 10/10/10 8/8/8 
f 9/9/9 11/11/11 12/12/12 10/10/10 
f 11/11/11 13/13/13 14/14/14 12/12/12 
f 13/13/13 15/15/15 16/16/16 14/14/14 
f 15/15/15 1/1/1 4/4/4 16/16/16 
s off
f 4/4/4 3/3/3 17/17/17 18/18/18 
f 3/3/3 6/6/6 17/17/17 
f 6/6/6 8/8/8 17/17/17 
f 8/8/8 10/10/10 19/19/19 17/17/17 
f 10/10/10 12/12/12 20/20/20 19/19/19 
f 12/12/12 14/14/14 20/20/20 
f 14/14/14 16/16/16 20/20/20 
f 16/16/16 4/4/4 18/18/18 20/20/20 
f 18/21/18 17/22/17 21/23/21 22/24/22 
f 17/25/17 19/26/19 23/27/23 21/28/21 
f 19/26/19 20/29/20 24/30/24 23/27/23 
f 20/29/20 18/21/18 22/24/22 24/30/24 
f 25/31/25 26/32/26 27/33/27 28/34/28 
f 26/35/26 29/36/29 30/37/30 27/38/27 
f 29/36/29 31/39/31 32/40/32 30/37/30 
f 31/39/31 25/31/25 28/34/28 32/40/32 
f 33/41/33 34/42/34 35/43/35 36/44/36 
f 37/45/37 38/46/38 34/47/34 33/48/33 
f 39/49/39 40/50/40 38/46/38 37/45/37 
f 36/44/36 35/43/35 40/50/40 39/49/39 
f 41/51/41 42/52/42 43/53/43 44/54/44 
f 45/55/45 46/56/46 42/57/42 41/58/41 
f 47/59/47 48/60/48 46/56/46 45/55/45 
f 44/54/44 43/53/43 48/60/48 47/59/47 
f 49/61/49 50/62/50 51/63/51 52/64/52 
f 53/65/53 54/66/54 50/67/50 49/68/49 
f 55/69/55 56/70/56 54/66/54 53/65/53 
f 52/64/52 51/63/51 56/70/56 55/69/55 
f 27/33/27 41/51/41 44/54/44 28/34/28 
f 30/37/30 45/55/45 41/58/41 27/38/27 
f 32/40/32 47/59/47 45/55/45 30/37/30 
f 28/34/28 44/54/44 47/59/47 32/40/32 
f 42/52/42 33/41/33 36/44/36 43/53/43 
f 46/56/46 37/45/37 33/48/33 42/57/42 
f 48/60/48 39/49/39 37/45/37 46/56/46 
f 43/53/43 36/44/36 39/49/39 48/60/48 
f 34/42/34 49/61/49 52/64/52 35/43/35 
f 38/46/38 53/65/53 49/68/49 34/47/34 
f 40/50/40 55/69/55 53/65/53 38/46/38 
f 35/43/35 52/64/52 55/69/55 40/50/40 
f 50/62/50 57/71/57 58/72/58 51/63/51 
f 54/66/54 59/73/59 57/74/57 50/67/50 
f 56/70/56 60/75/60 59/73/59 54/66/54 
f 51/63/51 58/72/58 60/75/60 56/70/56 
f 21/23/21 26/32/26 25/31/25 22/24/22 
f 23/27/23 29/36/29 26/35/26 21/28/21 
f 24/30/24 31/39/31 29/36/29 23/27/23 
f 22/24/22 25/31/25 31/39/31 24/30/24 
s 8
f 61/76/61 62/77/62 63/78/63 64/79/64 
f 62/77/62 65/80/65 66/81/66 63/78/63 
f 65/80/65 61/82/61 64/83/64 66/81/66 
f 67/84/67 68/85/68 69/86/69 70/87/70 
f 71/88/71 72/89/72 68/85/68 67/84/67 
f 70/90/70 69/91/69 72/89/72 71/88/71 
f 68/85/68 73/92/73 74/93/74 69/86/69 
f 72/89/72 75/94/75 73/92/73 68/85/68 
f 69/91/69 74/95/74 75/94/75 72/89/72 
f 63/78/63 67/84/67 70/87/70 64/79/64 
f 66/81/66 71/88/71 67/84/67 63/78/63 
f 64/83/64 70/90/70 71/88/71 66/81/66 
s 1
f 76/96/76 77/97/77 78/98/78 
f 79/99/79 80/100/80 81/101/81 78/98/78 
f 77/97/77 79/99/79 78/98/78 
f 80/100/80 82/102/82 83/103/83 81/101/81 
f 82/102/82 84/104/84 83/103/83 
f 85/105/85 86/106/86 83/103/83 
f 83/103/83 84/104/84 87/107/87 
f 83/103/83 87/107/87 88/108/88 
f 83/103/83 88/108/88 85/105/85 
f 76/96/76 78/98/78 89/109/89 
f 90/110/90 78/98/78 81/101/81 91/111/91 
f 89/109/89 78/98/78 90/110/90 
f 91/111/91 81/101/81 83/103/83 92/112/92 
f 92/112/92 83/103/83 93/113/93 
f 94/114/94 83/103/83 86/106/86 
f 83/103/83 95/115/95 93/113/93 
f 83/103/83 96/116/96 95/115/95 
f 83/103/83 94/114/94 96/116/96 
s 8
f 97/117/97 98/118/98 99/119/99 100/120/100 
f 98/118/98 101/121/101 102/122/102 99/119/99 
f 101/121/101 97/123/97 100/124/100 102/122/102 
f 103/125/103 104/126/104 105/127/105 106/128/106 
f 107/129/107 108/130/108 104/126/104 103/125/103 
f 106/131/106 105/132/105 108/130/108 107/129/107 
f 104/126/104 109/133/109 110/134/110 105/127/105 
f 108/130/108 111/135/111 109/133/109 104/126/104 
f 105/132/105 110/136/110 111/135/111 108/130/108 
f 99/119/99 103/125/103 106/128/106 100/120/100 
f 102/122/102 107/129/107 103/125/103 99/119/99 
f 100/124/100 106/131/106 107/129/107 102/122/102 
s 1
f 112/96/112 113/97/113 114/98/114 
f 115/99/115 116/100/116 117/101/117 114/98/114 
f 113/97/113 115/99/115 114/98/114 
f 116/100/116 118/102/118 119/103/119 117/101/117 
f 118/102/118 120/104/120 119/103/119 
f 121/105/121 122/106/122 119/103/119 
f 119/103/119 120/104/120 123/107/123 
f 119/103/119 123/107/123 124/108/124 
f 119/103/119 124/108/124 121/105/121 
f 112/96/112 114/98/114 125/109/125 
f 126/110/126 114/98/114 117/101/117 127/111/127 
f 125/109/125 114/98/114 126/110/126 
f 127/111/127 117/101/117 119/103/119 128/112/128 
f 128/112/128 119/103/119 129/113/129 
f 130/114/130 119/103/119 122/106/122 
f 119/103/119 131/115/131 129/113/129 
f 119/103/119 132/116/132 131/115/131 
f 119/103/119 130/114/130 132/116/132 
s off
f 58/137/58 57/138/57 133/139/133 134/140/134 
f 57/141/57 59/142/59 135/143/135 133/144/133 
f 59/142/59 60/145/60 136/146/136 135/143/135 
f 60/145/60 58/137/58 134/140/134 136/146/136 
f 134/140/134 133/139/133 137/147/137 138/148/138 
f 133/144/133 135/143/135 139/149/139 137/150/137 
f 135/143/135 136/146/136 140/151/140 139/149/139 
f 136/146/136 134/140/134 138/148/138 140/151/140 
# 92 polygons - 32 triangles

