# 3ds Max Wavefront OBJ Exporter v0.99 - (c)2007 guruware
# File Created: 06.08.2021 09:10:12

mtllib petal5.mtl

#
# object Object029
#

v  5.7531 251.3359 -6.6448
v  7.9567 256.2033 -8.0981
v  0.5031 255.6897 -7.9779
v  0.4289 250.2404 -6.2216
v  0.4402 248.1392 -6.7591
v  0.4971 250.9696 -8.2277
v  2.3493 251.4084 -8.1847
v  3.9529 249.0162 -6.6801
v  2.7104 339.6500 -67.3736
v  2.7777 341.3806 -69.2618
v  9.0539 341.7459 -68.5476
v  12.9075 340.2239 -66.0408
v  2.5711 336.0969 -63.4657
v  -10.7543 337.1918 -62.8483
v  -7.5462 340.1561 -66.8004
v  0.4157 247.2632 -6.0953
v  -3.0883 248.1169 -6.2769
v  -3.0639 248.9929 -6.9407
v  16.8008 302.0380 -27.9544
v  17.1026 309.0067 -31.6606
v  1.4767 308.6031 -32.7253
v  1.3341 301.7017 -29.0218
v  1.4632 299.3028 -33.1661
v  1.6002 305.6815 -36.7445
v  22.3854 307.3866 -33.7194
v  22.0324 300.7396 -30.0353
v  1.3309 292.7773 -29.7410
v  -18.7433 294.0729 -28.1309
v  -19.2533 300.6030 -31.5685
v  2.0657 322.4468 -49.3584
v  1.8969 317.0129 -44.7233
v  -18.4163 319.0768 -43.8851
v  -17.4370 324.3114 -48.6411
v  16.5700 326.7457 -45.6433
v  15.7836 331.6865 -50.7474
v  2.1587 331.5072 -51.3537
v  1.9802 326.4152 -46.3960
v  2.2424 327.6233 -54.2530
v  20.3728 329.5427 -52.1904
v  21.4854 324.4403 -47.1956
v  12.4627 275.0306 -15.2560
v  13.8958 281.9131 -18.1683
v  0.9431 281.6840 -18.9715
v  0.8196 274.9055 -15.8381
v  0.9306 272.7825 -19.4076
v  1.0638 279.4111 -22.8490
v  18.2796 280.7285 -20.0301
v  16.3999 273.9710 -16.8663
v  0.7991 266.1216 -16.0206
v  -12.7870 267.0053 -14.9192
v  -14.6610 273.8682 -18.0198
v  17.2146 315.2884 -35.8080
v  16.9999 321.5807 -40.7865
v  1.8082 321.1264 -41.6525
v  1.6311 314.9076 -36.8400
v  1.7552 311.9707 -40.8802
v  22.1181 319.2109 -42.3799
v  22.4829 313.6706 -37.8641
v  -19.3233 307.2485 -35.2683
v  -19.1103 313.5329 -39.4087
v  2.4333 332.4995 -59.6078
v  -15.9682 329.4223 -53.5399
v  -13.2235 334.1451 -58.9207
v  14.5423 336.0677 -56.5216
v  13.2194 338.6724 -60.7984
v  2.5237 339.5848 -61.7080
v  2.3553 336.1172 -56.9071
v  15.8301 337.2798 -61.8610
v  18.0169 334.2486 -57.7606
v  1.1967 286.0459 -26.2809
v  -16.2877 280.6140 -21.3138
v  -17.7225 287.3643 -24.5952
v  15.1919 288.6646 -21.3128
v  16.1888 295.4780 -24.6038
v  1.2032 295.1479 -25.6454
v  1.0713 288.3752 -22.2566
v  21.2584 294.2054 -26.6454
v  19.9673 287.4891 -23.1956
v  9.0346 260.9333 -9.8244
v  10.8525 268.0200 -12.4713
v  0.6988 268.0143 -12.7999
v  0.5840 261.0134 -9.9514
v  0.6676 259.4608 -12.6337
v  14.2853 267.0950 -13.9138
v  11.8885 260.2180 -10.9719
v  0.6108 256.6304 -11.1651
v  -1.3509 251.3962 -8.3221
v  -8.7582 254.9945 -9.4711
v  -7.8549 260.8774 -10.4516
v  -6.9215 256.1541 -8.6506
v  -3.5281 341.7042 -69.0149
v  3.9284 248.1401 -6.0164
v  -13.9802 315.1852 -36.9664
v  -14.1789 308.9030 -32.8223
v  -9.8278 335.9871 -57.4266
v  -11.4721 331.5963 -51.7596
v  -13.0754 288.5709 -22.3625
v  -12.0297 281.8273 -19.1311
v  -12.6218 326.6491 -46.7273
v  -13.4009 321.4800 -41.9155
v  2.6818 341.7694 -66.3116
v  -6.4405 340.6674 -65.7809
v  -8.2113 338.6014 -61.5943
v  -14.1634 301.9354 -29.1043
v  -13.8125 295.3787 -25.7179
v  -10.8329 274.9535 -16.1211
v  -9.4518 267.9527 -13.2253
v  9.8359 255.0561 -8.7806
v  2.8434 343.1633 -71.0961
v  2.7615 342.7682 -68.6415
v  0.3913 246.3871 -5.4315
v  0.4046 248.2920 -5.6615
v  -10.6308 260.1434 -11.8081
v  11.7405 340.7277 -65.1057
v  -5.5143 249.8501 -7.0832
v  -4.8481 251.3008 -7.0385
v  6.4120 249.8896 -6.6403
v  0.5539 253.8000 -9.6964
# 118 vertices

vn 0.1399 0.1617 0.9769
vn 0.2254 0.2439 0.9432
vn -0.0361 0.3265 0.9445
vn -0.0364 0.2896 0.9564
vn 0.0328 -0.5439 -0.8385
vn 0.0344 -0.4608 -0.8868
vn 0.1392 -0.4572 -0.8784
vn 0.1790 -0.5262 -0.8313
vn 0.0274 -0.7387 -0.6734
vn 0.0278 -0.7273 -0.6857
vn 0.5752 0.4039 -0.7114
vn 0.7548 0.1712 -0.6332
vn 0.0275 -0.7359 -0.6766
vn -0.8413 0.0655 -0.5366
vn -0.7076 0.1682 -0.6863
vn 0.0314 -0.6042 -0.7962
vn -0.5589 -0.7649 0.3202
vn -0.1136 -0.5265 -0.8426
vn 0.1848 0.4443 0.8766
vn 0.1916 0.4976 0.8460
vn -0.0336 0.5104 0.8593
vn -0.0344 0.4657 0.8843
vn 0.0341 -0.4773 -0.8781
vn 0.0333 -0.5197 -0.8537
vn 0.9921 -0.0897 -0.0872
vn 0.9893 -0.1248 -0.0751
vn 0.0343 -0.4612 -0.8866
vn -0.9751 -0.1790 -0.1307
vn -0.9808 -0.1245 -0.1502
vn 0.0297 -0.6682 -0.7434
vn 0.0309 -0.6276 -0.7779
vn -0.9719 -0.0522 -0.2294
vn -0.9612 -0.0350 -0.2737
vn 0.2299 0.6978 0.6784
vn 0.2372 0.7591 0.6063
vn -0.0276 0.7347 0.6778
vn -0.0294 0.6830 0.7298
vn 0.0283 -0.7136 -0.6999
vn 0.9651 0.0384 -0.2592
vn 0.9791 -0.0322 -0.2008
vn 0.1946 0.3356 0.9217
vn 0.1954 0.3656 0.9100
vn -0.0349 0.4304 0.9019
vn -0.0352 0.4118 0.9106
vn 0.0344 -0.4573 -0.8887
vn 0.0343 -0.4604 -0.8871
vn 0.9633 -0.2669 -0.0303
vn 0.9587 -0.2843 -0.0081
vn 0.0345 -0.4535 -0.8906
vn -0.9447 -0.3153 -0.0896
vn -0.9556 -0.2835 -0.0806
vn 0.1971 0.5757 0.7935
vn 0.2167 0.6463 0.7317
vn -0.0306 0.6404 0.7674
vn -0.0321 0.5800 0.8140
vn 0.0321 -0.5784 -0.8151
vn 0.9866 -0.0500 -0.1554
vn 0.9931 -0.0534 -0.1042
vn -0.9826 -0.0900 -0.1625
vn -0.9823 -0.0549 -0.1793
vn 0.0274 -0.7356 -0.6768
vn -0.9432 0.0351 -0.3304
vn -0.8919 0.0586 -0.4484
vn 0.2749 0.8267 0.4910
vn 0.2964 0.8754 0.3819
vn -0.0215 0.8633 0.5043
vn -0.0253 0.7907 0.6117
vn 0.8781 0.0688 -0.4736
vn 0.9223 0.0620 -0.3815
vn 0.0344 -0.4586 -0.8880
vn -0.9584 -0.2661 -0.1031
vn -0.9707 -0.2221 -0.0916
vn 0.1819 0.3960 0.9001
vn 0.1860 0.4191 0.8887
vn -0.0346 0.4530 0.8908
vn -0.0347 0.4444 0.8952
vn 0.9822 -0.1793 -0.0562
vn 0.9747 -0.2226 -0.0177
vn 0.2038 0.2956 0.9333
vn 0.2070 0.3077 0.9287
vn -0.0355 0.3905 0.9199
vn -0.0358 0.3626 0.9313
vn 0.0344 -0.4572 -0.8887
vn 0.9485 -0.3162 -0.0181
vn 0.9380 -0.3466 -0.0008
vn 0.0344 -0.4589 -0.8878
vn -0.0708 -0.4572 -0.8865
vn -0.8937 -0.4471 -0.0376
vn -0.2733 0.2963 0.9151
vn -0.2952 0.2449 0.9235
vn -0.5236 0.4006 -0.7519
vn 0.5365 -0.7627 0.3611
vn -0.2575 0.5754 0.7763
vn -0.2555 0.4976 0.8289
vn -0.3137 0.8250 0.4700
vn -0.2845 0.7578 0.5872
vn -0.2495 0.3964 0.8835
vn -0.2634 0.3661 0.8925
vn -0.2823 0.6969 0.6593
vn -0.2727 0.6456 0.7133
vn -0.0182 0.9122 0.4094
vn -0.2515 0.9655 0.0675
vn -0.3275 0.8736 0.3601
vn -0.2509 0.4445 0.8599
vn -0.2528 0.4194 0.8719
vn -0.2634 0.3362 0.9042
vn -0.2761 0.3084 0.9103
vn 0.8940 -0.4472 0.0292
vn 0.0310 0.4630 -0.8858
vn -0.0132 0.9610 0.2763
vn -0.0125 -0.9266 0.3759
vn -0.0369 0.1998 0.9791
vn -0.9355 -0.3459 -0.0715
vn 0.2409 0.9668 0.0847
vn -0.7511 -0.6424 0.1519
vn -0.2125 0.1621 0.9636
vn 0.7386 -0.6414 0.2076
vn 0.0344 -0.4609 -0.8868
# 118 vertex normals

vt 0.7510 0.2435 0.0000
vt 0.7589 0.2666 0.0000
vt 0.7307 0.2652 0.0000
vt 0.7306 0.2395 0.0000
vt 0.9031 0.9807 0.0000
vt 0.9030 0.9678 0.0000
vt 0.9108 0.9659 0.0000
vt 0.9178 0.9770 0.0000
vt 0.9025 0.4897 0.0000
vt 0.9025 0.4767 0.0000
vt 0.9288 0.4810 0.0000
vt 0.9455 0.4982 0.0000
vt 0.9025 0.5169 0.0000
vt 0.8460 0.5273 0.0000
vt 0.8595 0.4982 0.0000
vt 0.9031 0.9849 0.0000
vt 0.8879 0.9817 0.0000
vt 0.8884 0.9771 0.0000
vt 0.7910 0.4661 0.0000
vt 0.7911 0.4947 0.0000
vt 0.7317 0.4939 0.0000
vt 0.7316 0.4646 0.0000
vt 0.9027 0.7416 0.0000
vt 0.9026 0.7103 0.0000
vt 0.9945 0.7097 0.0000
vt 0.9933 0.7389 0.0000
vt 0.9027 0.7729 0.0000
vt 0.8148 0.7682 0.0000
vt 0.8120 0.7391 0.0000
vt 0.9026 0.6165 0.0000
vt 0.9026 0.6499 0.0000
vt 0.8140 0.6543 0.0000
vt 0.8188 0.6243 0.0000
vt 0.7878 0.5781 0.0000
vt 0.7841 0.6090 0.0000
vt 0.7323 0.6106 0.0000
vt 0.7322 0.5801 0.0000
vt 0.9026 0.5817 0.0000
vt 0.9808 0.5924 0.0000
vt 0.9864 0.6242 0.0000
vt 0.7755 0.3509 0.0000
vt 0.7807 0.3809 0.0000
vt 0.7312 0.3796 0.0000
vt 0.7311 0.3503 0.0000
vt 0.9029 0.8668 0.0000
vt 0.9028 0.8359 0.0000
vt 0.9794 0.8296 0.0000
vt 0.9718 0.8608 0.0000
vt 0.9029 0.8978 0.0000
vt 0.8434 0.8930 0.0000
vt 0.8338 0.8610 0.0000
vt 0.7910 0.5210 0.0000
vt 0.7892 0.5494 0.0000
vt 0.7320 0.5510 0.0000
vt 0.7319 0.5216 0.0000
vt 0.9026 0.6779 0.0000
vt 0.9912 0.6542 0.0000
vt 0.9940 0.6814 0.0000
vt 0.8108 0.7099 0.0000
vt 0.8113 0.6815 0.0000
vt 0.9025 0.5438 0.0000
vt 0.8243 0.5925 0.0000
vt 0.8355 0.5555 0.0000
vt 0.7790 0.6466 0.0000
vt 0.7738 0.6763 0.0000
vt 0.7326 0.6784 0.0000
vt 0.7325 0.6463 0.0000
vt 0.9591 0.5272 0.0000
vt 0.9696 0.5554 0.0000
vt 0.9028 0.8048 0.0000
vt 0.8261 0.8298 0.0000
vt 0.8191 0.7988 0.0000
vt 0.7855 0.4097 0.0000
vt 0.7891 0.4386 0.0000
vt 0.7314 0.4370 0.0000
vt 0.7313 0.4082 0.0000
vt 0.9907 0.7680 0.0000
vt 0.9864 0.7985 0.0000
vt 0.7630 0.2880 0.0000
vt 0.7696 0.3199 0.0000
vt 0.7309 0.3203 0.0000
vt 0.7308 0.2893 0.0000
vt 0.9030 0.9287 0.0000
vt 0.9624 0.8928 0.0000
vt 0.9520 0.9249 0.0000
vt 0.9030 0.9417 0.0000
vt 0.8953 0.9659 0.0000
vt 0.8629 0.9492 0.0000
vt 0.6985 0.2882 0.0000
vt 0.7025 0.2668 0.0000
vt 0.8762 0.4810 0.0000
vt 0.9183 0.9816 0.0000
vt 0.6728 0.5215 0.0000
vt 0.6724 0.4953 0.0000
vt 0.6859 0.6470 0.0000
vt 0.6805 0.6095 0.0000
vt 0.6771 0.4102 0.0000
vt 0.6817 0.3813 0.0000
vt 0.6765 0.5786 0.0000
vt 0.6748 0.5500 0.0000
vt 0.7328 0.7129 0.0000
vt 0.6978 0.7088 0.0000
vt 0.6914 0.6767 0.0000
vt 0.6722 0.4666 0.0000
vt 0.6739 0.4391 0.0000
vt 0.6866 0.3513 0.0000
vt 0.6922 0.3202 0.0000
vt 0.7801 0.2783 0.0000
vt 0.7702 0.2557 0.0000
vt 0.7330 0.7526 0.0000
vt 0.7329 0.7307 0.0000
vt 0.7575 0.7365 0.0000
vt 0.6653 0.6651 0.0000
vt 0.6770 0.6931 0.0000
vt 0.7306 0.2192 0.0000
vt 0.7306 0.2303 0.0000
vt 0.7166 0.2264 0.0000
vt 0.8273 0.5256 0.0000
vt 0.8276 0.4929 0.0000
vt 0.6463 0.4006 0.0000
vt 0.6401 0.4311 0.0000
vt 0.6365 0.5265 0.0000
vt 0.6397 0.5588 0.0000
vt 0.7998 0.6645 0.0000
vt 0.8121 0.6266 0.0000
vt 0.8163 0.3998 0.0000
vt 0.8094 0.3691 0.0000
vt 0.6814 0.2787 0.0000
vt 0.6707 0.3090 0.0000
vt 0.8206 0.5924 0.0000
vt 0.8244 0.5579 0.0000
vt 0.6369 0.4616 0.0000
vt 0.6358 0.4938 0.0000
vt 0.6439 0.5932 0.0000
vt 0.6526 0.6274 0.0000
vt 0.7735 0.7200 0.0000
vt 0.7677 0.7085 0.0000
vt 0.7884 0.6926 0.0000
vt 0.6616 0.3398 0.0000
vt 0.6528 0.3698 0.0000
vt 0.8262 0.4607 0.0000
vt 0.8227 0.4302 0.0000
vt 0.8004 0.3392 0.0000
vt 0.7911 0.3085 0.0000
vt 0.7066 0.2341 0.0000
vt 0.7103 0.2436 0.0000
vt 0.6911 0.2560 0.0000
vt 0.6922 0.7204 0.0000
vt 0.7083 0.7368 0.0000
vt 0.7546 0.2340 0.0000
vt 0.7445 0.2264 0.0000
vt 0.9431 0.9491 0.0000
vt 0.8775 0.9733 0.0000
vt 0.9031 0.9894 0.0000
vt 0.9030 0.9548 0.0000
vt 0.9286 0.9732 0.0000
vt 0.8539 0.9251 0.0000
vt 0.9025 0.4642 0.0000
# 158 texture coords

o Object029
g Object029
usemtl Material__23
s 4
f 1/1/1 2/2/2 3/3/3 4/4/4 
s 8
f 5/5/5 6/6/6 7/7/7 8/8/8 
s 16
f 9/9/9 10/10/10 11/11/11 12/12/12 
s 32
f 9/9/9 13/13/13 14/14/14 15/15/15 
s 64
f 16/16/16 17/17/17 18/18/18 
s 4
f 19/19/19 20/20/20 21/21/21 22/22/22 
s 8
f 23/23/23 24/24/24 25/25/25 26/26/26 
s 32
f 23/23/23 27/27/27 28/28/28 29/29/29 
f 30/30/30 31/31/31 32/32/32 33/33/33 
s 4
f 34/34/34 35/35/35 36/36/36 37/37/37 
s 8
f 30/30/30 38/38/38 39/39/39 40/40/40 
s 4
f 41/41/41 42/42/42 43/43/43 44/44/44 
s 8
f 45/45/45 46/46/46 47/47/47 48/48/48 
s 32
f 45/45/45 49/49/49 50/50/50 51/51/51 
s 4
f 52/52/52 53/53/53 54/54/54 55/55/55 
s 8
f 56/56/56 31/31/31 57/57/57 58/58/58 
s 32
f 56/56/56 24/24/24 59/59/59 60/60/60 
f 61/61/61 38/38/38 62/62/62 63/63/63 
s 4
f 64/64/64 65/65/65 66/66/66 67/67/67 
s 8
f 61/61/61 13/13/13 68/68/68 69/69/69 
s 32
f 70/70/70 46/46/46 71/71/71 72/72/72 
s 4
f 73/73/73 74/74/74 75/75/75 76/76/76 
s 8
f 70/70/70 27/27/27 77/77/77 78/78/78 
s 4
f 79/79/79 80/80/80 81/81/81 82/82/82 
s 8
f 83/83/83 49/49/49 84/84/84 85/85/85 
s 32
f 86/86/86 87/87/87 88/88/88 
s 4
f 82/82/82 89/89/89 90/90/90 3/3/3 
s 16
f 9/9/9 15/15/15 91/91/91 10/10/10 
s 64
f 8/8/8 92/92/92 16/16/16 
s 4
f 55/55/55 93/93/93 94/94/94 21/21/21 
f 67/67/67 95/95/95 96/96/96 36/36/36 
f 76/76/76 97/97/97 98/98/98 43/43/43 
f 37/37/37 99/99/99 100/100/100 54/54/54 
f 101/101/101 102/102/102 103/103/103 66/66/66 
f 22/22/22 104/104/104 105/105/105 75/75/75 
f 44/44/44 106/106/106 107/107/107 81/81/81 
s 8
f 85/108/85 79/79/79 2/2/2 108/109/108 
s 16
f 109/110/109 110/111/110 11/112/11 
s 32
f 63/113/63 95/95/95 103/103/103 14/114/14 
s 64
f 111/115/111 112/116/112 17/117/17 
s 8
f 58/118/58 52/52/52 20/20/20 25/119/25 
s 32
f 72/120/72 97/97/97 105/105/105 28/121/28 
f 60/122/60 93/93/93 100/100/100 32/123/32 
s 8
f 69/124/69 64/64/64 35/35/35 39/125/39 
f 78/126/78 73/73/73 42/42/42 47/127/47 
s 32
f 113/128/113 89/89/89 107/107/107 50/129/50 
s 8
f 40/130/40 34/34/34 53/53/53 57/131/57 
s 32
f 29/132/29 104/104/104 94/94/94 59/133/59 
f 33/134/33 99/99/99 96/96/96 62/135/62 
s 8
f 12/136/12 114/137/114 65/65/65 68/138/68 
s 32
f 51/139/51 106/106/106 98/98/98 71/140/71 
s 8
f 26/141/26 19/19/19 74/74/74 77/142/77 
f 48/143/48 41/41/41 80/80/80 84/144/84 
s 32
f 115/145/115 116/146/116 90/90/90 88/147/88 
s 16
f 15/148/15 102/102/102 101/101/101 110/111/110 91/149/91 
s 64
f 117/150/117 1/1/1 4/4/4 112/116/112 92/151/92 
s 8
f 86/86/86 108/152/108 7/7/7 
s 64
f 17/17/17 115/153/115 18/18/18 
f 16/16/16 111/154/111 17/17/17 
f 18/18/18 5/5/5 16/16/16 
s 32
f 118/155/118 6/6/6 87/87/87 
s 64
f 92/92/92 111/154/111 16/16/16 
f 8/8/8 117/156/117 92/92/92 
f 16/16/16 5/5/5 8/8/8 
f 112/116/112 4/4/4 116/146/116 115/145/115 17/117/17 
f 112/116/112 111/115/111 92/151/92 
s 4
f 2/2/2 79/79/79 82/82/82 3/3/3 
s 8
f 6/6/6 118/155/118 7/7/7 
s 32
f 87/87/87 18/18/18 115/153/115 88/88/88 
f 86/86/86 118/155/118 87/87/87 
f 88/88/88 113/157/113 83/83/83 86/86/86 
s 4
f 90/90/90 116/146/116 4/4/4 3/3/3 
s 8
f 2/2/2 1/1/1 117/150/117 108/109/108 
s 32
f 90/90/90 89/89/89 113/128/113 88/147/88 
s 8
f 108/152/108 117/156/117 8/8/8 7/7/7 
f 86/86/86 83/83/83 85/85/85 108/152/108 
f 7/7/7 118/155/118 86/86/86 
s 32
f 6/6/6 5/5/5 18/18/18 87/87/87 
f 49/49/49 83/83/83 113/157/113 50/50/50 
s 4
f 80/80/80 41/41/41 44/44/44 81/81/81 
s 8
f 49/49/49 45/45/45 48/48/48 84/84/84 
s 4
f 107/107/107 89/89/89 82/82/82 81/81/81 
s 32
f 107/107/107 106/106/106 51/139/51 50/129/50 
s 8
f 80/80/80 79/79/79 85/108/85 84/144/84 
s 4
f 42/42/42 73/73/73 76/76/76 43/43/43 
s 8
f 46/46/46 70/70/70 78/78/78 47/47/47 
s 32
f 46/46/46 45/45/45 51/51/51 71/71/71 
s 4
f 98/98/98 106/106/106 44/44/44 43/43/43 
s 8
f 42/42/42 41/41/41 48/143/48 47/127/47 
s 32
f 98/98/98 97/97/97 72/120/72 71/140/71 
f 27/27/27 70/70/70 72/72/72 28/28/28 
s 4
f 74/74/74 19/19/19 22/22/22 75/75/75 
s 8
f 27/27/27 23/23/23 26/26/26 77/77/77 
s 4
f 105/105/105 97/97/97 76/76/76 75/75/75 
s 32
f 105/105/105 104/104/104 29/132/29 28/121/28 
s 8
f 74/74/74 73/73/73 78/126/78 77/142/77 
s 4
f 20/20/20 52/52/52 55/55/55 21/21/21 
s 8
f 24/24/24 56/56/56 58/58/58 25/25/25 
s 32
f 24/24/24 23/23/23 29/29/29 59/59/59 
s 4
f 94/94/94 104/104/104 22/22/22 21/21/21 
s 8
f 20/20/20 19/19/19 26/141/26 25/119/25 
s 32
f 94/94/94 93/93/93 60/122/60 59/133/59 
f 31/31/31 56/56/56 60/60/60 32/32/32 
s 4
f 53/53/53 34/34/34 37/37/37 54/54/54 
s 8
f 31/31/31 30/30/30 40/40/40 57/57/57 
s 4
f 100/100/100 93/93/93 55/55/55 54/54/54 
s 32
f 100/100/100 99/99/99 33/134/33 32/123/32 
s 8
f 53/53/53 52/52/52 58/118/58 57/131/57 
s 4
f 35/35/35 64/64/64 67/67/67 36/36/36 
s 8
f 38/38/38 61/61/61 69/69/69 39/39/39 
s 32
f 38/38/38 30/30/30 33/33/33 62/62/62 
s 4
f 96/96/96 99/99/99 37/37/37 36/36/36 
s 8
f 35/35/35 34/34/34 40/130/40 39/125/39 
s 32
f 96/96/96 95/95/95 63/113/63 62/135/62 
f 13/13/13 61/61/61 63/63/63 14/14/14 
s 4
f 65/65/65 114/137/114 101/101/101 66/66/66 
s 8
f 13/13/13 9/9/9 12/12/12 68/68/68 
s 4
f 103/103/103 95/95/95 67/67/67 66/66/66 
s 32
f 103/103/103 102/102/102 15/148/15 14/114/14 
s 8
f 65/65/65 64/64/64 69/124/69 68/138/68 
s 16
f 10/10/10 109/158/109 11/11/11 
f 91/91/91 109/158/109 10/10/10 
f 110/111/110 101/101/101 114/137/114 12/136/12 11/112/11 
f 110/111/110 109/110/109 91/149/91 
# 104 polygons - 20 triangles

