# 3ds Max Wavefront OBJ Exporter v0.99 - (c)2007 guruware
# File Created: 06.08.2021 09:09:27

mtllib petal2.mtl

#
# object Object026
#

v  -7.3449 226.5011 12.2543
v  -10.1237 230.2025 9.3133
v  -14.0411 228.0245 12.5572
v  -9.3475 223.3663 16.1346
v  -9.0997 229.9667 7.5606
v  -7.2062 227.8174 9.7662
v  -10.3442 227.2133 10.1620
v  -11.3573 228.3427 9.0155
v  -87.3495 165.8344 49.1754
v  -80.2191 160.7723 54.6163
v  -84.7897 160.7557 52.9681
v  -89.1264 163.9646 49.6559
v  -94.3535 172.4609 45.3091
v  -93.1009 178.1506 43.4424
v  -83.6887 169.7009 48.2021
v  -8.3171 230.6546 7.1967
v  -12.0551 231.8273 6.5733
v  -11.2725 232.5151 6.2094
v  -38.8791 195.6876 44.8354
v  -49.6071 204.1317 37.3793
v  -55.1608 200.0634 40.8764
v  -44.3660 191.5135 48.4496
v  -49.8522 200.7360 33.9194
v  -35.4472 190.8765 45.2865
v  -40.6997 186.7268 48.6987
v  -55.0475 196.8384 37.0873
v  -63.9775 214.4698 26.4999
v  -58.3139 217.8723 23.4442
v  -44.6316 204.5148 30.5811
v  -69.9877 183.7529 44.0880
v  -83.9972 195.9289 37.2326
v  -79.5516 201.2253 35.0321
v  -64.9263 188.4782 42.0448
v  -61.1373 177.7357 55.1371
v  -71.1416 185.9225 48.2028
v  -76.1306 180.9505 49.8635
v  -66.7521 173.2360 56.2038
v  -57.1001 173.6861 54.9438
v  -62.9852 169.4597 56.0323
v  -75.0011 178.8271 45.8363
v  -20.4645 212.3344 28.7321
v  -28.5226 218.8681 23.3071
v  -33.7754 215.3189 26.9502
v  -24.7986 208.1747 33.1174
v  -28.7001 215.9501 20.2856
v  -17.8517 208.6846 28.9927
v  -21.9154 204.0518 33.3745
v  -33.9880 212.1451 23.6922
v  -39.3161 226.4348 14.8588
v  -32.6743 228.7603 12.0128
v  -23.4150 219.7104 16.8330
v  -49.7614 187.1494 51.2930
v  -60.5272 195.6994 43.7687
v  -66.1225 190.7272 46.3102
v  -55.7358 182.2616 53.6459
v  -60.4133 192.4575 39.9599
v  -46.1052 182.3734 51.5383
v  -51.5404 178.0613 53.4768
v  -74.8479 206.1424 32.6119
v  -69.5223 210.5620 29.7196
v  -80.0218 173.5282 47.1757
v  -91.3096 183.3826 41.8279
v  -88.0984 190.2274 39.4958
v  -72.6273 168.4937 56.3785
v  -81.0738 175.5062 50.9270
v  -85.0418 170.8588 51.4692
v  -76.8731 165.2966 55.8660
v  -69.7211 165.5298 56.0434
v  -74.7299 162.9585 55.5392
v  -39.2757 208.3480 27.1073
v  -52.1572 221.0717 20.5238
v  -45.8030 223.8059 17.6451
v  -29.2459 203.9116 37.2482
v  -39.0376 211.6452 30.4671
v  -44.3894 207.8704 34.0003
v  -33.9946 199.6951 41.2307
v  -26.1119 199.5333 37.6740
v  -30.6710 195.0127 41.6465
v  -12.1467 220.6897 19.3067
v  -17.9713 225.6685 15.6198
v  -23.2413 222.3461 19.5426
v  -16.2286 216.5048 24.1219
v  -18.1300 223.4708 13.3804
v  -10.2755 218.0553 19.5423
v  -13.9660 213.2893 24.3317
v  -15.8724 225.0948 11.9254
v  -20.5337 232.3969 7.3683
v  -12.9012 229.3278 8.4782
v  -19.6290 231.8687 9.3645
v  -23.8181 230.3415 11.6213
v  -93.4845 167.9459 47.2428
v  -6.4236 228.5053 9.4023
v  -65.9829 209.3899 34.2154
v  -71.3185 204.9762 37.0982
v  -85.5871 188.8118 43.8014
v  -89.4681 182.4204 45.2892
v  -42.7143 222.9903 21.3203
v  -48.7799 220.0654 24.3855
v  -76.7442 199.6346 39.8123
v  -81.3102 194.4179 41.8538
v  -88.1742 166.5325 51.1583
v  -91.6827 177.5435 46.1142
v  -93.4761 172.6190 46.5997
v  -54.7268 216.8398 27.5790
v  -60.2768 213.3826 30.7455
v  -30.2598 228.1080 14.8826
v  -36.5629 225.6470 18.1317
v  -7.6843 221.7709 15.8293
v  -90.9126 162.1366 50.1966
v  -89.6964 164.3553 50.9231
v  -7.5346 231.3424 6.8328
v  -8.7502 230.9211 8.1254
v  -25.8374 230.9243 9.2951
v  -80.9122 162.2291 54.8728
v  -14.2823 233.0857 6.0654
v  -14.6707 232.5593 7.4304
v  -6.0407 226.2702 11.4923
v  -13.6148 226.7188 10.4705
# 118 vertices

vn 0.3842 0.6622 0.6433
vn 0.1687 0.7309 0.6613
vn 0.1395 0.7146 0.6855
vn 0.3726 0.5700 0.7323
vn 0.0411 -0.5925 -0.8045
vn 0.1324 -0.6755 -0.7254
vn 0.0437 -0.7009 -0.7119
vn -0.0291 -0.6443 -0.7642
vn 0.2200 -0.4313 -0.8750
vn 0.1679 -0.9674 0.1894
vn -0.1263 -0.9626 0.2397
vn 0.2088 -0.4425 -0.8721
vn -0.8589 -0.1463 -0.4908
vn -0.8257 0.0641 -0.5604
vn 0.2173 -0.4341 -0.8743
vn 0.0951 -0.5479 -0.8311
vn -0.0706 -0.5123 -0.8559
vn 0.2367 0.6983 -0.6755
vn 0.1829 0.5108 0.8400
vn 0.0252 0.6412 0.7669
vn -0.0126 0.6135 0.7896
vn 0.1408 0.4758 0.8682
vn -0.0149 -0.6345 -0.7728
vn 0.7223 -0.6246 0.2969
vn 0.6978 -0.6405 0.3207
vn 0.0213 -0.6075 -0.7940
vn -0.6468 0.4799 -0.5928
vn -0.5993 0.5010 -0.6244
vn -0.0285 -0.6443 -0.7643
vn 0.1532 -0.4960 -0.8547
vn -0.7432 0.3514 -0.5693
vn -0.7229 0.3953 -0.5668
vn 0.1162 -0.5295 -0.8403
vn -0.0242 0.2993 0.9538
vn -0.1666 0.4830 0.8596
vn -0.2157 0.4352 0.8741
vn -0.0828 0.2353 0.9684
vn 0.6169 -0.7235 0.3099
vn 0.5409 -0.7724 0.3328
vn 0.1960 -0.4553 -0.8685
vn 0.2799 0.5567 0.7822
vn 0.0702 0.6719 0.7373
vn 0.0547 0.6617 0.7478
vn 0.2556 0.5426 0.8002
vn -0.0317 -0.6466 -0.7621
vn 0.8273 -0.5287 0.1897
vn 0.8116 -0.5510 0.1944
vn -0.0291 -0.6448 -0.7638
vn -0.4971 0.5450 -0.6752
vn -0.4709 0.5358 -0.7009
vn -0.0349 -0.6488 -0.7601
vn 0.0742 0.4208 0.9041
vn -0.0732 0.5656 0.8214
vn -0.1273 0.5191 0.8452
vn 0.0191 0.3535 0.9352
vn 0.0723 -0.5669 -0.8206
vn 0.6708 -0.6582 0.3417
vn 0.6484 -0.6913 0.3189
vn -0.7088 0.4421 -0.5497
vn -0.6775 0.4639 -0.5708
vn 0.2171 -0.4345 -0.8741
vn -0.8210 0.1604 -0.5479
vn -0.7966 0.2836 -0.5339
vn -0.1408 0.1234 0.9823
vn -0.2716 0.3767 0.8856
vn -0.3502 0.2870 0.8916
vn -0.1951 0.0278 0.9804
vn 0.4542 -0.8445 0.2837
vn 0.3852 -0.8928 0.2337
vn -0.0306 -0.6459 -0.7628
vn -0.5534 0.5361 -0.6375
vn -0.5189 0.5260 -0.6739
vn 0.2224 0.5379 0.8132
vn 0.0431 0.6537 0.7555
vn 0.0359 0.6487 0.7602
vn 0.2052 0.5232 0.8271
vn 0.7959 -0.5553 0.2412
vn 0.7594 -0.5965 0.2596
vn 0.3178 0.5662 0.7605
vn 0.1105 0.6974 0.7081
vn 0.0877 0.6833 0.7249
vn 0.3100 0.5590 0.7690
vn -0.0319 -0.6466 -0.7621
vn 0.8552 -0.5008 0.1340
vn 0.8367 -0.5255 0.1544
vn -0.0305 -0.6455 -0.7631
vn -0.3324 0.5647 -0.7554
vn -0.1031 -0.5818 -0.8068
vn 0.0039 0.8733 0.4872
vn -0.0193 0.8429 0.5377
vn -0.9036 -0.3317 -0.2711
vn 0.9781 0.0901 -0.1876
vn -0.1704 0.7260 0.6662
vn -0.2403 0.6714 0.7010
vn -0.4369 0.5109 0.7404
vn -0.5377 0.4295 0.7255
vn -0.0676 0.8063 0.5876
vn -0.0809 0.7847 0.6146
vn -0.3170 0.6189 0.7187
vn -0.3741 0.5737 0.7286
vn -0.4105 0.2104 0.8873
vn -0.6139 0.3494 0.7078
vn -0.7211 0.0908 0.6869
vn -0.1027 0.7730 0.6261
vn -0.1220 0.7573 0.6416
vn -0.0313 0.8389 0.5434
vn -0.0432 0.8211 0.5692
vn 0.8982 -0.4365 0.0516
vn -0.6155 -0.7874 -0.0325
vn -0.4834 0.1085 0.8686
vn 0.7177 0.4441 -0.5364
vn 0.2386 0.7660 0.5970
vn -0.4378 0.5495 -0.7116
vn -0.3920 -0.1674 0.9046
vn -0.0345 0.6597 -0.7507
vn 0.1359 0.8678 0.4779
vn 0.9814 -0.1736 -0.0820
# 117 vertex normals

vt 0.7510 0.2435 0.0000
vt 0.7306 0.2395 0.0000
vt 0.7307 0.2652 0.0000
vt 0.7589 0.2666 0.0000
vt 0.9031 0.9807 0.0000
vt 0.9178 0.9770 0.0000
vt 0.9108 0.9659 0.0000
vt 0.9030 0.9678 0.0000
vt 0.9025 0.4897 0.0000
vt 0.9455 0.4982 0.0000
vt 0.9288 0.4810 0.0000
vt 0.9025 0.4767 0.0000
vt 0.8595 0.4982 0.0000
vt 0.8460 0.5273 0.0000
vt 0.9025 0.5169 0.0000
vt 0.9031 0.9849 0.0000
vt 0.8884 0.9771 0.0000
vt 0.8879 0.9817 0.0000
vt 0.7910 0.4661 0.0000
vt 0.7316 0.4646 0.0000
vt 0.7317 0.4939 0.0000
vt 0.7911 0.4947 0.0000
vt 0.9027 0.7416 0.0000
vt 0.9933 0.7389 0.0000
vt 0.9945 0.7097 0.0000
vt 0.9026 0.7103 0.0000
vt 0.8120 0.7391 0.0000
vt 0.8148 0.7682 0.0000
vt 0.9027 0.7729 0.0000
vt 0.9026 0.6165 0.0000
vt 0.8188 0.6243 0.0000
vt 0.8140 0.6543 0.0000
vt 0.9026 0.6499 0.0000
vt 0.7878 0.5781 0.0000
vt 0.7322 0.5801 0.0000
vt 0.7323 0.6106 0.0000
vt 0.7841 0.6090 0.0000
vt 0.9864 0.6242 0.0000
vt 0.9808 0.5924 0.0000
vt 0.9026 0.5817 0.0000
vt 0.7755 0.3509 0.0000
vt 0.7311 0.3503 0.0000
vt 0.7312 0.3796 0.0000
vt 0.7807 0.3809 0.0000
vt 0.9029 0.8668 0.0000
vt 0.9718 0.8608 0.0000
vt 0.9794 0.8296 0.0000
vt 0.9028 0.8359 0.0000
vt 0.8338 0.8610 0.0000
vt 0.8434 0.8930 0.0000
vt 0.9029 0.8978 0.0000
vt 0.7910 0.5210 0.0000
vt 0.7319 0.5216 0.0000
vt 0.7320 0.5510 0.0000
vt 0.7892 0.5494 0.0000
vt 0.9026 0.6779 0.0000
vt 0.9940 0.6814 0.0000
vt 0.9912 0.6542 0.0000
vt 0.8113 0.6815 0.0000
vt 0.8108 0.7099 0.0000
vt 0.9025 0.5438 0.0000
vt 0.8355 0.5555 0.0000
vt 0.8243 0.5925 0.0000
vt 0.7790 0.6466 0.0000
vt 0.7325 0.6463 0.0000
vt 0.7326 0.6784 0.0000
vt 0.7738 0.6763 0.0000
vt 0.9696 0.5554 0.0000
vt 0.9591 0.5272 0.0000
vt 0.9028 0.8048 0.0000
vt 0.8191 0.7988 0.0000
vt 0.8261 0.8298 0.0000
vt 0.7855 0.4097 0.0000
vt 0.7313 0.4082 0.0000
vt 0.7314 0.4370 0.0000
vt 0.7891 0.4386 0.0000
vt 0.9864 0.7985 0.0000
vt 0.9907 0.7680 0.0000
vt 0.7630 0.2880 0.0000
vt 0.7308 0.2893 0.0000
vt 0.7309 0.3203 0.0000
vt 0.7696 0.3199 0.0000
vt 0.9030 0.9287 0.0000
vt 0.9520 0.9249 0.0000
vt 0.9624 0.8928 0.0000
vt 0.9030 0.9417 0.0000
vt 0.8629 0.9492 0.0000
vt 0.8953 0.9659 0.0000
vt 0.7025 0.2668 0.0000
vt 0.6985 0.2882 0.0000
vt 0.8762 0.4810 0.0000
vt 0.9183 0.9816 0.0000
vt 0.6724 0.4953 0.0000
vt 0.6728 0.5215 0.0000
vt 0.6805 0.6095 0.0000
vt 0.6859 0.6470 0.0000
vt 0.6817 0.3813 0.0000
vt 0.6771 0.4102 0.0000
vt 0.6748 0.5500 0.0000
vt 0.6765 0.5786 0.0000
vt 0.7328 0.7129 0.0000
vt 0.6914 0.6767 0.0000
vt 0.6978 0.7088 0.0000
vt 0.6739 0.4391 0.0000
vt 0.6722 0.4666 0.0000
vt 0.6922 0.3202 0.0000
vt 0.6866 0.3513 0.0000
vt 0.7801 0.2783 0.0000
vt 0.7702 0.2557 0.0000
vt 0.7330 0.7526 0.0000
vt 0.7575 0.7365 0.0000
vt 0.7329 0.7307 0.0000
vt 0.6653 0.6651 0.0000
vt 0.6770 0.6931 0.0000
vt 0.7306 0.2192 0.0000
vt 0.7166 0.2264 0.0000
vt 0.7306 0.2303 0.0000
vt 0.8273 0.5256 0.0000
vt 0.8276 0.4929 0.0000
vt 0.6463 0.4006 0.0000
vt 0.6401 0.4311 0.0000
vt 0.6365 0.5265 0.0000
vt 0.6397 0.5588 0.0000
vt 0.7998 0.6645 0.0000
vt 0.8121 0.6266 0.0000
vt 0.8163 0.3998 0.0000
vt 0.8094 0.3691 0.0000
vt 0.6814 0.2787 0.0000
vt 0.6707 0.3090 0.0000
vt 0.8206 0.5924 0.0000
vt 0.8244 0.5579 0.0000
vt 0.6369 0.4616 0.0000
vt 0.6358 0.4938 0.0000
vt 0.6439 0.5932 0.0000
vt 0.6526 0.6274 0.0000
vt 0.7735 0.7200 0.0000
vt 0.7884 0.6926 0.0000
vt 0.7677 0.7085 0.0000
vt 0.6616 0.3398 0.0000
vt 0.6528 0.3698 0.0000
vt 0.8262 0.4607 0.0000
vt 0.8227 0.4302 0.0000
vt 0.8004 0.3392 0.0000
vt 0.7911 0.3085 0.0000
vt 0.7066 0.2341 0.0000
vt 0.6911 0.2560 0.0000
vt 0.7103 0.2436 0.0000
vt 0.6922 0.7204 0.0000
vt 0.7083 0.7368 0.0000
vt 0.7546 0.2340 0.0000
vt 0.7445 0.2264 0.0000
vt 0.9431 0.9491 0.0000
vt 0.8775 0.9733 0.0000
vt 0.9031 0.9894 0.0000
vt 0.9030 0.9548 0.0000
vt 0.9286 0.9732 0.0000
vt 0.8539 0.9251 0.0000
vt 0.9025 0.4642 0.0000
# 158 texture coords

o Object026
g Object026
usemtl Material__23
s 4
f 1/1/1 2/2/2 3/3/3 4/4/4 
s 8
f 5/5/5 6/6/6 7/7/7 8/8/8 
s 16
f 9/9/9 10/10/10 11/11/11 12/12/12 
s 32
f 9/9/9 13/13/13 14/14/14 15/15/15 
s 64
f 16/16/16 17/17/17 18/18/18 
s 4
f 19/19/19 20/20/20 21/21/21 22/22/22 
s 8
f 23/23/23 24/24/24 25/25/25 26/26/26 
s 32
f 23/23/23 27/27/27 28/28/28 29/29/29 
f 30/30/30 31/31/31 32/32/32 33/33/33 
s 4
f 34/34/34 35/35/35 36/36/36 37/37/37 
s 8
f 30/30/30 38/38/38 39/39/39 40/40/40 
s 4
f 41/41/41 42/42/42 43/43/43 44/44/44 
s 8
f 45/45/45 46/46/46 47/47/47 48/48/48 
s 32
f 45/45/45 49/49/49 50/50/50 51/51/51 
s 4
f 52/52/52 53/53/53 54/54/54 55/55/55 
s 8
f 56/56/56 57/57/57 58/58/58 33/33/33 
s 32
f 56/56/56 59/59/59 60/60/60 26/26/26 
f 61/61/61 62/62/62 63/63/63 40/40/40 
s 4
f 64/64/64 65/65/65 66/66/66 67/67/67 
s 8
f 61/61/61 68/68/68 69/69/69 15/15/15 
s 32
f 70/70/70 71/71/71 72/72/72 48/48/48 
s 4
f 73/73/73 74/74/74 75/75/75 76/76/76 
s 8
f 70/70/70 77/77/77 78/78/78 29/29/29 
s 4
f 79/79/79 80/80/80 81/81/81 82/82/82 
s 8
f 83/83/83 84/84/84 85/85/85 51/51/51 
s 32
f 86/86/86 87/87/87 88/88/88 
s 4
f 80/80/80 3/3/3 89/89/89 90/90/90 
s 16
f 9/9/9 12/12/12 91/91/91 13/13/13 
s 64
f 6/6/6 16/16/16 92/92/92 
s 4
f 53/53/53 21/21/21 93/93/93 94/94/94 
f 65/65/65 36/36/36 95/95/95 96/96/96 
f 74/74/74 43/43/43 97/97/97 98/98/98 
f 35/35/35 54/54/54 99/99/99 100/100/100 
f 101/101/101 66/66/66 102/102/102 103/103/103 
f 20/20/20 75/75/75 104/104/104 105/105/105 
f 42/42/42 81/81/81 106/106/106 107/107/107 
s 8
f 84/108/84 108/109/108 4/4/4 79/79/79 
s 16
f 109/110/109 11/111/11 110/112/110 
s 32
f 62/113/62 14/114/14 102/102/102 96/96/96 
s 64
f 111/115/111 18/116/18 112/117/112 
s 8
f 57/118/57 25/119/25 22/22/22 52/52/52 
s 32
f 71/120/71 28/121/28 104/104/104 98/98/98 
f 59/122/59 32/123/32 99/99/99 94/94/94 
s 8
f 68/124/68 39/125/39 37/37/37 64/64/64 
f 77/126/77 47/127/47 44/44/44 73/73/73 
s 32
f 113/128/113 50/129/50 106/106/106 90/90/90 
s 8
f 38/130/38 58/131/58 55/55/55 34/34/34 
s 32
f 27/132/27 60/133/60 93/93/93 105/105/105 
f 31/134/31 63/135/63 95/95/95 100/100/100 
s 8
f 10/136/10 69/137/69 67/67/67 114/138/114 
s 32
f 49/139/49 72/140/72 97/97/97 107/107/107 
s 8
f 24/141/24 78/142/78 76/76/76 19/19/19 
f 46/143/46 85/144/85 82/82/82 41/41/41 
s 32
f 115/145/115 87/146/87 89/89/89 116/147/116 
s 16
f 13/148/13 91/149/91 110/112/110 101/101/101 103/103/103 
s 64
f 117/150/117 92/151/92 112/117/112 2/2/2 1/1/1 
s 8
f 86/86/86 7/7/7 108/152/108 
s 64
f 18/18/18 17/17/17 115/153/115 
f 16/16/16 18/18/18 111/154/111 
f 17/17/17 16/16/16 5/5/5 
s 32
f 118/155/8 88/88/88 8/8/8 
s 64
f 92/92/92 16/16/16 111/154/111 
f 6/6/6 92/92/92 117/156/117 
f 16/16/16 6/6/6 5/5/5 
f 112/117/112 18/116/18 115/145/115 116/147/116 2/2/2 
f 112/117/112 92/151/92 111/115/111 
s 4
f 4/4/4 3/3/3 80/80/80 79/79/79 
s 8
f 8/8/8 7/7/7 118/155/8 
s 32
f 88/88/88 87/87/87 115/153/115 17/17/17 
f 86/86/86 88/88/88 118/155/8 
f 87/87/87 86/86/86 83/83/83 113/157/113 
s 4
f 89/89/89 3/3/3 2/2/2 116/147/116 
s 8
f 4/4/4 108/109/108 117/150/117 1/1/1 
s 32
f 89/89/89 87/146/87 113/128/113 90/90/90 
s 8
f 108/152/108 7/7/7 6/6/6 117/156/117 
f 86/86/86 108/152/108 84/84/84 83/83/83 
f 7/7/7 86/86/86 118/155/8 
s 32
f 8/8/8 88/88/88 17/17/17 5/5/5 
f 51/51/51 50/50/50 113/157/113 83/83/83 
s 4
f 82/82/82 81/81/81 42/42/42 41/41/41 
s 8
f 51/51/51 85/85/85 46/46/46 45/45/45 
s 4
f 106/106/106 81/81/81 80/80/80 90/90/90 
s 32
f 106/106/106 50/129/50 49/139/49 107/107/107 
s 8
f 82/82/82 85/144/85 84/108/84 79/79/79 
s 4
f 44/44/44 43/43/43 74/74/74 73/73/73 
s 8
f 48/48/48 47/47/47 77/77/77 70/70/70 
s 32
f 48/48/48 72/72/72 49/49/49 45/45/45 
s 4
f 97/97/97 43/43/43 42/42/42 107/107/107 
s 8
f 44/44/44 47/127/47 46/143/46 41/41/41 
s 32
f 97/97/97 72/140/72 71/120/71 98/98/98 
f 29/29/29 28/28/28 71/71/71 70/70/70 
s 4
f 76/76/76 75/75/75 20/20/20 19/19/19 
s 8
f 29/29/29 78/78/78 24/24/24 23/23/23 
s 4
f 104/104/104 75/75/75 74/74/74 98/98/98 
s 32
f 104/104/104 28/121/28 27/132/27 105/105/105 
s 8
f 76/76/76 78/142/78 77/126/77 73/73/73 
s 4
f 22/22/22 21/21/21 53/53/53 52/52/52 
s 8
f 26/26/26 25/25/25 57/57/57 56/56/56 
s 32
f 26/26/26 60/60/60 27/27/27 23/23/23 
s 4
f 93/93/93 21/21/21 20/20/20 105/105/105 
s 8
f 22/22/22 25/119/25 24/141/24 19/19/19 
s 32
f 93/93/93 60/133/60 59/122/59 94/94/94 
f 33/33/33 32/32/32 59/59/59 56/56/56 
s 4
f 55/55/55 54/54/54 35/35/35 34/34/34 
s 8
f 33/33/33 58/58/58 38/38/38 30/30/30 
s 4
f 99/99/99 54/54/54 53/53/53 94/94/94 
s 32
f 99/99/99 32/123/32 31/134/31 100/100/100 
s 8
f 55/55/55 58/131/58 57/118/57 52/52/52 
s 4
f 37/37/37 36/36/36 65/65/65 64/64/64 
s 8
f 40/40/40 39/39/39 68/68/68 61/61/61 
s 32
f 40/40/40 63/63/63 31/31/31 30/30/30 
s 4
f 95/95/95 36/36/36 35/35/35 100/100/100 
s 8
f 37/37/37 39/125/39 38/130/38 34/34/34 
s 32
f 95/95/95 63/135/63 62/113/62 96/96/96 
f 15/15/15 14/14/14 62/62/62 61/61/61 
s 4
f 67/67/67 66/66/66 101/101/101 114/138/114 
s 8
f 15/15/15 69/69/69 10/10/10 9/9/9 
s 4
f 102/102/102 66/66/66 65/65/65 96/96/96 
s 32
f 102/102/102 14/114/14 13/148/13 103/103/103 
s 8
f 67/67/67 69/137/69 68/124/68 64/64/64 
s 16
f 12/12/12 11/11/11 109/158/109 
f 91/91/91 12/12/12 109/158/109 
f 110/112/110 11/111/11 10/136/10 114/138/114 101/101/101 
f 110/112/110 91/149/91 109/110/109 
# 104 polygons - 20 triangles

