# 3ds Max Wavefront OBJ Exporter v0.99 - (c)2007 guruware
# File Created: 06.08.2021 09:10:26

mtllib petal6.mtl

#
# object Object030
#

v  18.0908 247.0703 -1.6036
v  22.9756 249.3528 -1.5860
v  17.3720 253.2378 -4.6709
v  13.5392 249.3391 -3.5605
v  12.6038 247.5680 -4.2289
v  14.8431 249.4703 -5.3080
v  16.3782 248.7648 -4.4478
v  15.5410 246.2649 -2.5963
v  90.8672 306.1762 -50.9686
v  92.6787 307.1211 -52.5222
v  97.0144 303.9613 -49.1829
v  97.8278 301.0619 -45.3868
v  87.1342 304.2435 -47.7505
v  78.0677 312.8568 -52.7238
v  83.6596 312.5605 -54.7355
v  11.8173 247.0253 -3.7061
v  9.8941 249.6669 -5.2806
v  10.6806 250.2096 -5.8034
v  63.1737 276.4154 -12.1103
v  68.8395 280.9882 -14.7813
v  58.0246 289.3977 -22.3977
v  52.5099 284.7863 -19.6561
v  53.0190 281.9857 -23.6064
v  58.1854 286.2136 -26.2806
v  72.5409 276.2729 -14.5743
v  67.0276 271.9785 -11.9177
v  47.8388 277.6086 -21.0834
v  33.6954 290.4426 -27.9825
v  38.4295 295.1884 -30.7881
v  73.1976 296.6183 -36.2057
v  68.0877 293.3665 -32.4952
v  54.5304 306.7871 -40.1370
v  60.1530 309.3937 -43.6327
v  84.2686 292.4556 -26.2994
v  88.6273 295.7707 -30.8860
v  79.1571 303.3044 -37.2169
v  74.0944 300.3927 -33.1855
v  78.2794 299.6104 -40.1728
v  91.2861 291.1636 -30.4527
v  87.1141 287.5124 -25.8424
v  39.6818 260.1708 -4.6248
v  45.7628 264.1884 -6.0972
v  36.8232 271.2584 -12.3287
v  31.6319 266.6180 -10.0912
v  32.0385 264.1611 -13.4985
v  37.2836 268.6157 -16.0272
v  48.9884 260.3704 -6.0523
v  42.5549 256.7578 -4.5274
v  26.7997 259.6691 -11.0218
v  17.2263 268.3628 -15.6797
v  21.0394 274.2195 -18.7244
v  74.1751 285.0392 -17.9958
v  79.6377 289.1178 -22.1095
v  69.0173 297.2789 -29.3645
v  63.3891 293.4489 -25.5624
v  63.5507 290.2482 -29.4656
v  82.6081 283.9996 -21.6099
v  77.8665 280.3344 -17.7925
v  43.6498 299.7206 -33.6380
v  49.0554 303.7171 -36.8034
v  83.3988 302.2648 -44.5815
v  66.1131 311.5937 -47.0631
v  72.9624 312.6605 -50.4293
v  92.6365 298.7701 -36.3271
v  94.9640 300.7178 -40.5829
v  88.3003 307.3744 -45.8597
v  84.2163 305.7057 -41.8282
v  96.4825 297.9117 -40.5729
v  94.6023 295.0978 -36.1503
v  42.5279 273.0773 -18.5468
v  25.0440 279.8033 -21.8519
v  29.1812 285.2834 -24.8864
v  51.7723 268.1342 -7.8515
v  57.6669 272.2707 -9.8613
v  47.3357 280.3763 -17.1796
v  42.0335 275.7968 -14.7109
v  61.4041 267.9545 -9.6990
v  55.2885 264.0952 -7.6596
v  27.1039 252.1162 -2.3063
v  33.4582 256.1280 -3.3552
v  26.4200 261.8680 -7.9493
v  21.2314 256.9897 -5.9883
v  21.5609 255.1772 -8.5450
v  35.9790 253.1434 -3.3057
v  29.2076 249.6876 -2.2131
v  19.3217 253.2749 -7.4660
v  13.8151 250.8450 -6.1390
v  11.0730 257.6886 -10.0146
v  15.4048 261.6111 -10.0260
v  12.6696 257.7170 -8.3864
v  88.2989 311.0346 -54.9338
v  14.7545 245.7222 -2.0735
v  52.5668 302.5763 -32.2540
v  47.1711 298.5740 -29.0791
v  75.7556 312.4704 -47.4660
v  69.7476 311.0933 -43.3438
v  32.1918 284.0255 -20.7716
v  27.8045 278.7632 -17.9469
v  64.0478 308.8666 -39.6420
v  58.5794 306.2085 -36.0047
v  91.5785 308.0775 -49.8251
v  84.2941 312.5364 -53.2896
v  80.1192 312.7656 -50.3782
v  41.7250 293.8228 -26.2631
v  36.8853 289.1367 -23.5740
v  23.5451 273.2672 -15.2725
v  19.3937 267.5425 -12.6356
v  23.9530 247.2354 -1.5157
v  94.4951 308.1187 -54.0226
v  93.1778 308.3492 -51.8412
v  11.0308 246.4826 -3.1833
v  12.1991 247.9302 -3.2248
v  13.6087 262.3475 -12.5060
v  96.8880 302.3154 -44.9796
v  9.4872 252.2589 -6.8963
v  10.7475 253.0300 -6.4490
v  17.7484 245.5542 -1.4452
v  17.0824 251.3726 -6.3870
# 118 vertices

vn -0.1823 0.2335 0.9551
vn -0.0552 0.2480 0.9672
vn -0.1921 0.4657 0.8638
vn -0.2203 0.4375 0.8718
vn 0.0133 -0.6214 -0.7834
vn 0.0839 -0.5646 -0.8211
vn 0.1584 -0.6202 -0.7683
vn 0.1256 -0.6897 -0.7131
vn -0.1728 -0.7410 -0.6489
vn -0.1611 -0.7347 -0.6590
vn 0.9193 -0.1526 -0.3628
vn 0.8795 -0.4173 -0.2287
vn -0.1698 -0.7395 -0.6514
vn -0.3462 0.4242 -0.8368
vn -0.1320 0.4009 -0.9066
vn -0.0417 -0.6612 -0.7490
vn -0.9711 -0.2387 -0.0026
vn -0.0790 -0.5242 -0.8480
vn 0.0653 0.4249 0.9029
vn 0.1137 0.4588 0.8812
vn -0.0417 0.5989 0.7997
vn -0.0797 0.5679 0.8192
vn 0.0702 -0.5763 -0.8142
vn 0.0337 -0.6056 -0.7951
vn 0.6818 -0.6510 0.3336
vn 0.6543 -0.6754 0.3402
vn 0.0838 -0.5650 -0.8208
vn -0.7483 0.3784 -0.5448
vn -0.7117 0.4230 -0.5608
vn -0.1023 -0.7007 -0.7061
vn -0.0636 -0.6760 -0.7342
vn -0.6272 0.4648 -0.6249
vn -0.5919 0.4638 -0.6592
vn 0.3230 0.5658 0.7587
vn 0.3898 0.5961 0.7020
vn 0.1688 0.7386 0.6527
vn 0.1168 0.7092 0.6952
vn -0.1472 -0.7271 -0.6705
vn 0.8013 -0.5701 0.1813
vn 0.7463 -0.6230 0.2342
vn -0.0118 0.3384 0.9409
vn 0.0116 0.3607 0.9326
vn -0.1091 0.5427 0.8328
vn -0.1243 0.5292 0.8393
vn 0.0871 -0.5622 -0.8224
vn 0.0846 -0.5644 -0.8212
vn 0.5320 -0.7670 0.3588
vn 0.5100 -0.7739 0.3756
vn 0.0902 -0.5595 -0.8239
vn -0.8245 0.2548 -0.5053
vn -0.8167 0.2899 -0.4990
vn 0.1847 0.5088 0.8409
vn 0.2634 0.5425 0.7977
vn 0.0758 0.6836 0.7259
vn 0.0199 0.6454 0.7636
vn -0.0183 -0.6446 -0.7643
vn 0.7245 -0.6318 0.2756
vn 0.7095 -0.6267 0.3222
vn -0.6861 0.4514 -0.5705
vn -0.6562 0.4783 -0.5837
vn -0.1695 -0.7394 -0.6516
vn -0.5135 0.4987 -0.6983
vn -0.4187 0.4645 -0.7803
vn 0.4964 0.6064 0.6212
vn 0.5788 0.6119 0.5390
vn 0.3130 0.8009 0.5104
vn 0.2284 0.7680 0.5984
vn 0.8414 -0.5390 -0.0390
vn 0.8321 -0.5515 0.0595
vn 0.0861 -0.5631 -0.8219
vn -0.7996 0.3012 -0.5195
vn -0.7862 0.3483 -0.5105
vn 0.0247 0.3913 0.9199
vn 0.0461 0.4059 0.9127
vn -0.0904 0.5589 0.8243
vn -0.0976 0.5527 0.8276
vn 0.6086 -0.7120 0.3502
vn 0.5626 -0.7349 0.3787
vn -0.0342 0.3020 0.9527
vn -0.0228 0.3094 0.9507
vn -0.1416 0.5136 0.8463
vn -0.1638 0.4929 0.8545
vn 0.0871 -0.5621 -0.8225
vn 0.4870 -0.7961 0.3592
vn 0.4541 -0.8115 0.3679
vn 0.0856 -0.5633 -0.8218
vn 0.0104 -0.5010 -0.8654
vn -0.8849 0.1296 -0.4474
vn -0.3738 0.5719 0.7302
vn -0.4266 0.5422 0.7239
vn 0.1561 0.4672 -0.8703
vn -0.2244 -0.8420 0.4907
vn -0.1312 0.7645 0.6312
vn -0.1993 0.7109 0.6745
vn 0.1000 0.9309 0.3513
vn 0.0353 0.8858 0.4626
vn -0.2806 0.6353 0.7195
vn -0.3137 0.6200 0.7191
vn -0.0277 0.8517 0.5233
vn -0.0738 0.8166 0.5725
vn 0.3788 0.8184 0.4322
vn 0.3719 0.9272 0.0443
vn 0.1610 0.9540 0.2528
vn -0.2415 0.6711 0.7009
vn -0.2637 0.6540 0.7091
vn -0.3372 0.5974 0.7276
vn -0.3666 0.5826 0.7254
vn 0.3503 -0.8613 0.3681
vn 0.6400 0.1733 -0.7486
vn 0.4576 0.8282 0.3235
vn -0.7045 -0.6601 0.2607
vn -0.2872 0.3667 0.8849
vn -0.8430 0.2283 -0.4871
vn 0.7032 0.6579 0.2696
vn -0.9709 -0.0701 -0.2288
vn -0.4329 0.4324 0.7909
vn 0.0536 -0.8932 0.4465
# 117 vertex normals

vt 0.7510 0.2435 0.0000
vt 0.7589 0.2666 0.0000
vt 0.7307 0.2652 0.0000
vt 0.7306 0.2395 0.0000
vt 0.9031 0.9807 0.0000
vt 0.9030 0.9678 0.0000
vt 0.9108 0.9659 0.0000
vt 0.9178 0.9770 0.0000
vt 0.9025 0.4897 0.0000
vt 0.9025 0.4767 0.0000
vt 0.9288 0.4810 0.0000
vt 0.9455 0.4982 0.0000
vt 0.9025 0.5169 0.0000
vt 0.8460 0.5273 0.0000
vt 0.8595 0.4982 0.0000
vt 0.9031 0.9849 0.0000
vt 0.8879 0.9817 0.0000
vt 0.8884 0.9771 0.0000
vt 0.7910 0.4661 0.0000
vt 0.7911 0.4947 0.0000
vt 0.7317 0.4939 0.0000
vt 0.7316 0.4646 0.0000
vt 0.9027 0.7416 0.0000
vt 0.9026 0.7103 0.0000
vt 0.9945 0.7097 0.0000
vt 0.9933 0.7389 0.0000
vt 0.9027 0.7729 0.0000
vt 0.8148 0.7682 0.0000
vt 0.8120 0.7391 0.0000
vt 0.9026 0.6165 0.0000
vt 0.9026 0.6499 0.0000
vt 0.8140 0.6543 0.0000
vt 0.8188 0.6243 0.0000
vt 0.7878 0.5781 0.0000
vt 0.7841 0.6090 0.0000
vt 0.7323 0.6106 0.0000
vt 0.7322 0.5801 0.0000
vt 0.9026 0.5817 0.0000
vt 0.9808 0.5924 0.0000
vt 0.9864 0.6242 0.0000
vt 0.7755 0.3509 0.0000
vt 0.7807 0.3809 0.0000
vt 0.7312 0.3796 0.0000
vt 0.7311 0.3503 0.0000
vt 0.9029 0.8668 0.0000
vt 0.9028 0.8359 0.0000
vt 0.9794 0.8296 0.0000
vt 0.9718 0.8608 0.0000
vt 0.9029 0.8978 0.0000
vt 0.8434 0.8930 0.0000
vt 0.8338 0.8610 0.0000
vt 0.7910 0.5210 0.0000
vt 0.7892 0.5494 0.0000
vt 0.7320 0.5510 0.0000
vt 0.7319 0.5216 0.0000
vt 0.9026 0.6779 0.0000
vt 0.9912 0.6542 0.0000
vt 0.9940 0.6814 0.0000
vt 0.8108 0.7099 0.0000
vt 0.8113 0.6815 0.0000
vt 0.9025 0.5438 0.0000
vt 0.8243 0.5925 0.0000
vt 0.8355 0.5555 0.0000
vt 0.7790 0.6466 0.0000
vt 0.7738 0.6763 0.0000
vt 0.7326 0.6784 0.0000
vt 0.7325 0.6463 0.0000
vt 0.9591 0.5272 0.0000
vt 0.9696 0.5554 0.0000
vt 0.9028 0.8048 0.0000
vt 0.8261 0.8298 0.0000
vt 0.8191 0.7988 0.0000
vt 0.7855 0.4097 0.0000
vt 0.7891 0.4386 0.0000
vt 0.7314 0.4370 0.0000
vt 0.7313 0.4082 0.0000
vt 0.9907 0.7680 0.0000
vt 0.9864 0.7985 0.0000
vt 0.7630 0.2880 0.0000
vt 0.7696 0.3199 0.0000
vt 0.7309 0.3203 0.0000
vt 0.7308 0.2893 0.0000
vt 0.9030 0.9287 0.0000
vt 0.9624 0.8928 0.0000
vt 0.9520 0.9249 0.0000
vt 0.9030 0.9417 0.0000
vt 0.8953 0.9659 0.0000
vt 0.8629 0.9492 0.0000
vt 0.6985 0.2882 0.0000
vt 0.7025 0.2668 0.0000
vt 0.8762 0.4810 0.0000
vt 0.9183 0.9816 0.0000
vt 0.6728 0.5215 0.0000
vt 0.6724 0.4953 0.0000
vt 0.6859 0.6470 0.0000
vt 0.6805 0.6095 0.0000
vt 0.6771 0.4102 0.0000
vt 0.6817 0.3813 0.0000
vt 0.6765 0.5786 0.0000
vt 0.6748 0.5500 0.0000
vt 0.7328 0.7129 0.0000
vt 0.6978 0.7088 0.0000
vt 0.6914 0.6767 0.0000
vt 0.6722 0.4666 0.0000
vt 0.6739 0.4391 0.0000
vt 0.6866 0.3513 0.0000
vt 0.6922 0.3202 0.0000
vt 0.7801 0.2783 0.0000
vt 0.7702 0.2557 0.0000
vt 0.7330 0.7526 0.0000
vt 0.7329 0.7307 0.0000
vt 0.7575 0.7365 0.0000
vt 0.6653 0.6651 0.0000
vt 0.6770 0.6931 0.0000
vt 0.7306 0.2192 0.0000
vt 0.7306 0.2303 0.0000
vt 0.7166 0.2264 0.0000
vt 0.8273 0.5256 0.0000
vt 0.8276 0.4929 0.0000
vt 0.6463 0.4006 0.0000
vt 0.6401 0.4311 0.0000
vt 0.6365 0.5265 0.0000
vt 0.6397 0.5588 0.0000
vt 0.7998 0.6645 0.0000
vt 0.8121 0.6266 0.0000
vt 0.8163 0.3998 0.0000
vt 0.8094 0.3691 0.0000
vt 0.6814 0.2787 0.0000
vt 0.6707 0.3090 0.0000
vt 0.8206 0.5924 0.0000
vt 0.8244 0.5579 0.0000
vt 0.6369 0.4616 0.0000
vt 0.6358 0.4938 0.0000
vt 0.6439 0.5932 0.0000
vt 0.6526 0.6274 0.0000
vt 0.7735 0.7200 0.0000
vt 0.7677 0.7085 0.0000
vt 0.7884 0.6926 0.0000
vt 0.6616 0.3398 0.0000
vt 0.6528 0.3698 0.0000
vt 0.8262 0.4607 0.0000
vt 0.8227 0.4302 0.0000
vt 0.8004 0.3392 0.0000
vt 0.7911 0.3085 0.0000
vt 0.7066 0.2341 0.0000
vt 0.7103 0.2436 0.0000
vt 0.6911 0.2560 0.0000
vt 0.6922 0.7204 0.0000
vt 0.7083 0.7368 0.0000
vt 0.7546 0.2340 0.0000
vt 0.7445 0.2264 0.0000
vt 0.9431 0.9491 0.0000
vt 0.8775 0.9733 0.0000
vt 0.9031 0.9894 0.0000
vt 0.9030 0.9548 0.0000
vt 0.9286 0.9732 0.0000
vt 0.8539 0.9251 0.0000
vt 0.9025 0.4642 0.0000
# 158 texture coords

o Object030
g Object030
usemtl Material__23
s 4
f 1/1/1 2/2/2 3/3/3 4/4/4 
s 8
f 5/5/5 6/6/6 7/7/7 8/8/8 
s 16
f 9/9/9 10/10/10 11/11/11 12/12/12 
s 32
f 9/9/9 13/13/13 14/14/14 15/15/15 
s 64
f 16/16/16 17/17/17 18/18/18 
s 4
f 19/19/19 20/20/20 21/21/21 22/22/22 
s 8
f 23/23/23 24/24/24 25/25/25 26/26/26 
s 32
f 23/23/23 27/27/27 28/28/28 29/29/29 
f 30/30/30 31/31/31 32/32/32 33/33/33 
s 4
f 34/34/34 35/35/35 36/36/36 37/37/37 
s 8
f 30/30/30 38/38/38 39/39/39 40/40/40 
s 4
f 41/41/41 42/42/42 43/43/43 44/44/44 
s 8
f 45/45/45 46/46/46 47/47/47 48/48/48 
s 32
f 45/45/45 49/49/49 50/50/50 51/51/51 
s 4
f 52/52/52 53/53/53 54/54/54 55/55/55 
s 8
f 56/56/56 31/31/31 57/57/57 58/58/58 
s 32
f 56/56/56 24/24/24 59/59/59 60/60/60 
f 61/61/61 38/38/38 62/62/62 63/63/63 
s 4
f 64/64/64 65/65/65 66/66/66 67/67/67 
s 8
f 61/61/61 13/13/13 68/68/68 69/69/69 
s 32
f 70/70/70 46/46/46 71/71/71 72/72/72 
s 4
f 73/73/73 74/74/74 75/75/75 76/76/76 
s 8
f 70/70/70 27/27/27 77/77/77 78/78/78 
s 4
f 79/79/79 80/80/80 81/81/81 82/82/82 
s 8
f 83/83/83 49/49/49 84/84/84 85/85/85 
s 32
f 86/86/86 87/87/87 88/88/88 
s 4
f 82/82/82 89/89/89 90/90/90 3/3/3 
s 16
f 9/9/9 15/15/15 91/91/91 10/10/10 
s 64
f 8/8/8 92/92/92 16/16/16 
s 4
f 55/55/55 93/93/93 94/94/94 21/21/21 
f 67/67/67 95/95/95 96/96/96 36/36/36 
f 76/76/76 97/97/97 98/98/98 43/43/43 
f 37/37/37 99/99/99 100/100/100 54/54/54 
f 101/101/101 102/102/102 103/103/103 66/66/66 
f 22/22/22 104/104/104 105/105/105 75/75/75 
f 44/44/44 106/106/106 107/107/107 81/81/81 
s 8
f 85/108/85 79/79/79 2/2/2 108/109/108 
s 16
f 109/110/109 110/111/110 11/112/11 
s 32
f 63/113/63 95/95/95 103/103/103 14/114/14 
s 64
f 111/115/111 112/116/112 17/117/17 
s 8
f 58/118/58 52/52/52 20/20/20 25/119/25 
s 32
f 72/120/72 97/97/97 105/105/105 28/121/28 
f 60/122/60 93/93/93 100/100/100 32/123/32 
s 8
f 69/124/69 64/64/64 35/35/35 39/125/39 
f 78/126/78 73/73/73 42/42/42 47/127/47 
s 32
f 113/128/113 89/89/89 107/107/107 50/129/50 
s 8
f 40/130/40 34/34/34 53/53/53 57/131/57 
s 32
f 29/132/29 104/104/104 94/94/94 59/133/59 
f 33/134/33 99/99/99 96/96/96 62/135/62 
s 8
f 12/136/12 114/137/114 65/65/65 68/138/68 
s 32
f 51/139/51 106/106/106 98/98/98 71/140/71 
s 8
f 26/141/26 19/19/19 74/74/74 77/142/77 
f 48/143/48 41/41/41 80/80/80 84/144/84 
s 32
f 115/145/115 116/146/116 90/90/90 88/147/88 
s 16
f 15/148/15 102/102/102 101/101/101 110/111/110 91/149/91 
s 64
f 117/150/117 1/1/1 4/4/4 112/116/112 92/151/92 
s 8
f 86/86/86 108/152/108 7/7/7 
s 64
f 17/17/17 115/153/115 18/18/18 
f 16/16/16 111/154/111 17/17/17 
f 18/18/18 5/5/5 16/16/16 
s 32
f 118/155/6 6/6/6 87/87/87 
s 64
f 92/92/92 111/154/111 16/16/16 
f 8/8/8 117/156/117 92/92/92 
f 16/16/16 5/5/5 8/8/8 
f 112/116/112 4/4/4 116/146/116 115/145/115 17/117/17 
f 112/116/112 111/115/111 92/151/92 
s 4
f 2/2/2 79/79/79 82/82/82 3/3/3 
s 8
f 6/6/6 118/155/6 7/7/7 
s 32
f 87/87/87 18/18/18 115/153/115 88/88/88 
f 86/86/86 118/155/6 87/87/87 
f 88/88/88 113/157/113 83/83/83 86/86/86 
s 4
f 90/90/90 116/146/116 4/4/4 3/3/3 
s 8
f 2/2/2 1/1/1 117/150/117 108/109/108 
s 32
f 90/90/90 89/89/89 113/128/113 88/147/88 
s 8
f 108/152/108 117/156/117 8/8/8 7/7/7 
f 86/86/86 83/83/83 85/85/85 108/152/108 
f 7/7/7 118/155/6 86/86/86 
s 32
f 6/6/6 5/5/5 18/18/18 87/87/87 
f 49/49/49 83/83/83 113/157/113 50/50/50 
s 4
f 80/80/80 41/41/41 44/44/44 81/81/81 
s 8
f 49/49/49 45/45/45 48/48/48 84/84/84 
s 4
f 107/107/107 89/89/89 82/82/82 81/81/81 
s 32
f 107/107/107 106/106/106 51/139/51 50/129/50 
s 8
f 80/80/80 79/79/79 85/108/85 84/144/84 
s 4
f 42/42/42 73/73/73 76/76/76 43/43/43 
s 8
f 46/46/46 70/70/70 78/78/78 47/47/47 
s 32
f 46/46/46 45/45/45 51/51/51 71/71/71 
s 4
f 98/98/98 106/106/106 44/44/44 43/43/43 
s 8
f 42/42/42 41/41/41 48/143/48 47/127/47 
s 32
f 98/98/98 97/97/97 72/120/72 71/140/71 
f 27/27/27 70/70/70 72/72/72 28/28/28 
s 4
f 74/74/74 19/19/19 22/22/22 75/75/75 
s 8
f 27/27/27 23/23/23 26/26/26 77/77/77 
s 4
f 105/105/105 97/97/97 76/76/76 75/75/75 
s 32
f 105/105/105 104/104/104 29/132/29 28/121/28 
s 8
f 74/74/74 73/73/73 78/126/78 77/142/77 
s 4
f 20/20/20 52/52/52 55/55/55 21/21/21 
s 8
f 24/24/24 56/56/56 58/58/58 25/25/25 
s 32
f 24/24/24 23/23/23 29/29/29 59/59/59 
s 4
f 94/94/94 104/104/104 22/22/22 21/21/21 
s 8
f 20/20/20 19/19/19 26/141/26 25/119/25 
s 32
f 94/94/94 93/93/93 60/122/60 59/133/59 
f 31/31/31 56/56/56 60/60/60 32/32/32 
s 4
f 53/53/53 34/34/34 37/37/37 54/54/54 
s 8
f 31/31/31 30/30/30 40/40/40 57/57/57 
s 4
f 100/100/100 93/93/93 55/55/55 54/54/54 
s 32
f 100/100/100 99/99/99 33/134/33 32/123/32 
s 8
f 53/53/53 52/52/52 58/118/58 57/131/57 
s 4
f 35/35/35 64/64/64 67/67/67 36/36/36 
s 8
f 38/38/38 61/61/61 69/69/69 39/39/39 
s 32
f 38/38/38 30/30/30 33/33/33 62/62/62 
s 4
f 96/96/96 99/99/99 37/37/37 36/36/36 
s 8
f 35/35/35 34/34/34 40/130/40 39/125/39 
s 32
f 96/96/96 95/95/95 63/113/63 62/135/62 
f 13/13/13 61/61/61 63/63/63 14/14/14 
s 4
f 65/65/65 114/137/114 101/101/101 66/66/66 
s 8
f 13/13/13 9/9/9 12/12/12 68/68/68 
s 4
f 103/103/103 95/95/95 67/67/67 66/66/66 
s 32
f 103/103/103 102/102/102 15/148/15 14/114/14 
s 8
f 65/65/65 64/64/64 69/124/69 68/138/68 
s 16
f 10/10/10 109/158/109 11/11/11 
f 91/91/91 109/158/109 10/10/10 
f 110/111/110 101/101/101 114/137/114 12/136/12 11/112/11 
f 110/111/110 109/110/109 91/149/91 
# 104 polygons - 20 triangles

