# 3ds Max Wavefront OBJ Exporter v0.99 - (c)2007 guruware
# File Created: 06.08.2021 09:09:57

mtllib petal4.mtl

#
# object Object028
#

v  -8.9846 250.8637 -4.7309
v  -9.9752 256.0118 -5.9165
v  -15.6720 251.7967 -3.2912
v  -12.5945 247.2417 -2.6777
v  -11.8494 245.5899 -3.6326
v  -13.6502 248.0036 -4.4971
v  -12.3461 249.2970 -5.0151
v  -9.3975 248.0791 -4.6085
v  -74.8428 324.7596 -44.4603
v  -76.3038 326.3207 -45.9601
v  -71.1588 329.7593 -47.3939
v  -66.4075 330.3187 -46.6267
v  -71.8319 321.5521 -41.3503
v  -82.7654 315.6122 -35.8550
v  -83.0687 319.9095 -40.2043
v  -11.2160 244.8247 -3.1599
v  -14.4799 243.7430 -1.9325
v  -15.1133 244.5081 -2.4052
v  -31.2530 298.8589 -18.8869
v  -35.5921 304.8903 -21.1594
v  -48.3512 296.6878 -16.7945
v  -43.9159 290.7917 -14.5666
v  -44.3489 289.2098 -19.1200
v  -48.5047 294.6726 -21.3315
v  -31.4312 306.4142 -25.3390
v  -27.2866 300.6177 -23.0042
v  -40.1831 283.6414 -17.0886
v  -56.2296 274.3607 -8.2234
v  -60.9172 279.6067 -10.0406
v  -60.5940 309.3069 -30.2914
v  -56.4769 304.5165 -26.8511
v  -73.3616 295.7874 -18.4931
v  -76.7866 300.8376 -22.3755
v  -49.4534 319.8970 -30.8968
v  -54.2972 323.8358 -34.5578
v  -65.3746 316.8006 -30.4042
v  -61.2932 312.2590 -26.5778
v  -64.6902 313.9114 -34.0386
v  -50.2165 324.5417 -38.0044
v  -45.0811 320.6460 -34.5970
v  -17.6262 273.9869 -10.5827
v  -20.7100 280.4695 -12.5000
v  -31.3029 273.7497 -8.7832
v  -27.1299 268.0021 -7.0897
v  -27.4773 266.5936 -11.0230
v  -31.6952 272.2466 -13.0493
v  -17.3888 281.8736 -16.0844
v  -14.6213 275.2472 -13.7410
v  -23.2648 260.9192 -9.0566
v  -34.1236 254.6427 -3.0439
v  -39.9229 259.4397 -3.9880
v  -39.9461 310.3016 -23.9335
v  -44.8909 315.6129 -27.3965
v  -57.2017 307.5766 -23.0017
v  -52.6687 302.1368 -19.5471
v  -52.8231 300.1111 -24.1078
v  -40.3431 316.4161 -31.2208
v  -35.7968 311.8198 -28.1050
v  -65.4063 285.1879 -12.2426
v  -69.6779 290.6523 -15.0449
v  -68.8193 318.3129 -38.2984
v  -79.8191 306.0471 -26.5935
v  -81.8423 311.6260 -31.8054
v  -59.5152 327.1384 -38.8231
v  -63.4153 328.8627 -41.9720
v  -72.7540 324.2195 -38.9162
v  -69.4567 321.0041 -34.9130
v  -61.1102 329.1415 -44.2024
v  -56.3945 327.5248 -41.6148
v  -35.9124 277.9037 -15.0649
v  -45.5467 264.2816 -5.2304
v  -51.0139 269.2239 -6.5268
v  -23.9352 286.7927 -14.6211
v  -27.4853 293.0239 -16.7666
v  -39.7552 285.2048 -12.5889
v  -35.4920 279.4399 -10.6435
v  -23.6449 294.7183 -20.7838
v  -20.3125 288.4048 -18.3613
v  -11.9127 260.4952 -6.9999
v  -14.6764 267.3198 -8.7531
v  -22.9411 262.1716 -5.5122
v  -18.7721 256.2687 -4.1433
v  -19.0523 255.2448 -7.0903
v  -12.0709 268.4203 -11.5445
v  -9.7505 261.4498 -9.2594
v  -17.2516 252.8311 -6.2259
v  -15.3602 247.4139 -3.8533
v  -23.3651 246.6270 -1.6332
v  -25.6705 251.8998 -1.6967
v  -22.0947 248.4400 -1.2447
v  -81.4078 323.3561 -43.4432
v  -8.7641 247.3139 -4.1357
v  -65.3568 294.4260 -14.1384
v  -61.0734 288.9705 -11.3371
v  -79.3667 314.7360 -31.1710
v  -76.4992 309.9649 -25.9996
v  -46.9612 272.4070 -5.7452
v  -41.8285 267.2756 -4.3595
v  -73.2325 305.0407 -21.7307
v  -69.6548 300.1414 -17.8508
v  -75.4054 326.3811 -42.9871
v  -82.0149 320.8138 -39.4992
v  -80.8723 317.9562 -35.2428
v  -56.4759 283.1006 -9.1642
v  -51.9238 277.7556 -7.3463
v  -36.6024 262.1314 -3.2679
v  -31.2159 256.9865 -2.3776
v  -8.2186 256.0899 -7.4717
v  -77.7685 327.9193 -47.3964
v  -76.6994 327.3887 -45.0691
v  -10.5826 244.0596 -2.6872
v  -11.5188 245.6188 -2.5249
v  -28.0943 249.9893 -2.1884
v  -67.2050 330.0665 -45.2080
v  -17.5188 243.9626 -1.5086
v  -17.6201 245.4686 -1.4022
v  -7.8039 250.0321 -5.2534
v  -15.4509 250.4173 -5.3615
# 118 vertices

vn 0.4225 0.2165 0.8801
vn 0.4347 0.3356 0.8357
vn 0.1878 0.2801 0.9414
vn 0.2106 0.2462 0.9461
vn -0.0430 -0.4720 -0.8806
vn -0.1000 -0.4008 -0.9107
vn -0.0149 -0.3455 -0.9383
vn 0.0675 -0.3859 -0.9201
vn 0.1050 -0.6379 -0.7630
vn 0.0956 -0.6284 -0.7720
vn 0.0072 0.6402 -0.7682
vn 0.2901 0.5414 -0.7891
vn 0.1028 -0.6355 -0.7653
vn -0.9126 -0.3560 -0.2009
vn -0.9108 -0.2010 -0.3607
vn 0.0011 -0.5250 -0.8511
vn 0.0510 -0.9383 0.3421
vn -0.1685 -0.5284 -0.8321
vn 0.2745 0.4924 0.8260
vn 0.2416 0.5402 0.8061
vn 0.0666 0.4445 0.8933
vn 0.0971 0.4053 0.9090
vn -0.0885 -0.4152 -0.9054
vn -0.0593 -0.4525 -0.8898
vn 0.8022 0.4148 -0.4294
vn 0.8203 0.3824 -0.4253
vn -0.0994 -0.4009 -0.9107
vn -0.7435 -0.6451 0.1765
vn -0.7828 -0.5985 0.1704
vn 0.0490 -0.5793 -0.8136
vn 0.0183 -0.5451 -0.8381
vn -0.8467 -0.5223 0.1016
vn -0.8630 -0.5016 0.0598
vn 0.1120 0.7227 0.6820
vn 0.0631 0.7743 0.6297
vn -0.1012 0.6347 0.7661
vn -0.0599 0.5919 0.8038
vn 0.0848 -0.6172 -0.7822
vn 0.6639 0.5123 -0.5448
vn 0.7298 0.4559 -0.5094
vn 0.3545 0.4031 0.8437
vn 0.3352 0.4296 0.8385
vn 0.1208 0.3740 0.9195
vn 0.1331 0.3573 0.9244
vn -0.1019 -0.3973 -0.9120
vn -0.0998 -0.4000 -0.9110
vn 0.8830 0.2429 -0.4015
vn 0.8955 0.2262 -0.3833
vn -0.1045 -0.3940 -0.9131
vn -0.6328 -0.7539 0.1768
vn -0.6551 -0.7297 0.1958
vn 0.1880 0.6081 0.7712
vn 0.1459 0.6748 0.7234
vn -0.0272 0.5561 0.8307
vn 0.0173 0.5047 0.8631
vn -0.0177 -0.5032 -0.8640
vn 0.7592 0.4440 -0.4760
vn 0.7816 0.4457 -0.4364
vn -0.8081 -0.5656 0.1645
vn -0.8338 -0.5306 0.1527
vn 0.1027 -0.6351 -0.7656
vn -0.9024 -0.4307 0.0121
vn -0.9161 -0.3862 -0.1076
vn 0.0193 0.8453 0.5340
vn -0.0253 0.8947 0.4459
vn -0.2167 0.7394 0.6375
vn -0.1487 0.6806 0.7174
vn 0.5045 0.5067 -0.6991
vn 0.5768 0.5168 -0.6326
vn -0.1010 -0.3984 -0.9116
vn -0.6748 -0.7160 0.1788
vn -0.7035 -0.6810 0.2033
vn 0.3057 0.4496 0.8393
vn 0.2927 0.4714 0.8319
vn 0.1057 0.3940 0.9130
vn 0.1115 0.3864 0.9156
vn 0.8476 0.3302 -0.4155
vn 0.8761 0.2891 -0.3857
vn 0.3867 0.3726 0.8436
vn 0.3812 0.3846 0.8407
vn 0.1470 0.3382 0.9295
vn 0.1650 0.3129 0.9353
vn -0.1022 -0.3973 -0.9120
vn 0.8982 0.1919 -0.3954
vn 0.9104 0.1595 -0.3817
vn -0.1011 -0.3990 -0.9114
vn -0.1853 -0.4496 -0.8738
vn -0.5084 -0.8418 0.1811
vn -0.0048 0.1266 0.9919
vn 0.0063 0.0645 0.9979
vn -0.8983 0.0807 -0.4318
vn 0.9168 -0.3990 0.0137
vn -0.1784 0.3870 0.9047
vn -0.1208 0.3192 0.9400
vn -0.4450 0.5700 0.6907
vn -0.3506 0.5288 0.7730
vn -0.0469 0.2311 0.9718
vn -0.0405 0.1954 0.9799
vn -0.2965 0.4794 0.8260
vn -0.2461 0.4401 0.8636
vn -0.2696 0.7797 0.5651
vn -0.5988 0.7141 0.3626
vn -0.5156 0.6032 0.6085
vn -0.0801 0.2746 0.9582
vn -0.0653 0.2505 0.9659
vn -0.0210 0.1682 0.9855
vn -0.0154 0.1356 0.9906
vn 0.9322 0.0508 -0.3582
vn -0.5314 0.4230 -0.7340
vn -0.3354 0.8203 0.4632
vn 0.5685 -0.8030 0.1787
vn 0.2639 0.1610 0.9510
vn -0.6033 -0.7757 0.1850
vn -0.2141 0.9491 0.2312
vn -0.2237 -0.9359 0.2720
vn 0.1345 0.0335 0.9904
vn 0.9645 -0.1947 -0.1787
# 117 vertex normals

vt 0.7510 0.2435 0.0000
vt 0.7589 0.2666 0.0000
vt 0.7307 0.2652 0.0000
vt 0.7306 0.2395 0.0000
vt 0.9031 0.9807 0.0000
vt 0.9030 0.9678 0.0000
vt 0.9108 0.9659 0.0000
vt 0.9178 0.9770 0.0000
vt 0.9025 0.4897 0.0000
vt 0.9025 0.4767 0.0000
vt 0.9288 0.4810 0.0000
vt 0.9455 0.4982 0.0000
vt 0.9025 0.5169 0.0000
vt 0.8460 0.5273 0.0000
vt 0.8595 0.4982 0.0000
vt 0.9031 0.9849 0.0000
vt 0.8879 0.9817 0.0000
vt 0.8884 0.9771 0.0000
vt 0.7910 0.4661 0.0000
vt 0.7911 0.4947 0.0000
vt 0.7317 0.4939 0.0000
vt 0.7316 0.4646 0.0000
vt 0.9027 0.7416 0.0000
vt 0.9026 0.7103 0.0000
vt 0.9945 0.7097 0.0000
vt 0.9933 0.7389 0.0000
vt 0.9027 0.7729 0.0000
vt 0.8148 0.7682 0.0000
vt 0.8120 0.7391 0.0000
vt 0.9026 0.6165 0.0000
vt 0.9026 0.6499 0.0000
vt 0.8140 0.6543 0.0000
vt 0.8188 0.6243 0.0000
vt 0.7878 0.5781 0.0000
vt 0.7841 0.6090 0.0000
vt 0.7323 0.6106 0.0000
vt 0.7322 0.5801 0.0000
vt 0.9026 0.5817 0.0000
vt 0.9808 0.5924 0.0000
vt 0.9864 0.6242 0.0000
vt 0.7755 0.3509 0.0000
vt 0.7807 0.3809 0.0000
vt 0.7312 0.3796 0.0000
vt 0.7311 0.3503 0.0000
vt 0.9029 0.8668 0.0000
vt 0.9028 0.8359 0.0000
vt 0.9794 0.8296 0.0000
vt 0.9718 0.8608 0.0000
vt 0.9029 0.8978 0.0000
vt 0.8434 0.8930 0.0000
vt 0.8338 0.8610 0.0000
vt 0.7910 0.5210 0.0000
vt 0.7892 0.5494 0.0000
vt 0.7320 0.5510 0.0000
vt 0.7319 0.5216 0.0000
vt 0.9026 0.6779 0.0000
vt 0.9912 0.6542 0.0000
vt 0.9940 0.6814 0.0000
vt 0.8108 0.7099 0.0000
vt 0.8113 0.6815 0.0000
vt 0.9025 0.5438 0.0000
vt 0.8243 0.5925 0.0000
vt 0.8355 0.5555 0.0000
vt 0.7790 0.6466 0.0000
vt 0.7738 0.6763 0.0000
vt 0.7326 0.6784 0.0000
vt 0.7325 0.6463 0.0000
vt 0.9591 0.5272 0.0000
vt 0.9696 0.5554 0.0000
vt 0.9028 0.8048 0.0000
vt 0.8261 0.8298 0.0000
vt 0.8191 0.7988 0.0000
vt 0.7855 0.4097 0.0000
vt 0.7891 0.4386 0.0000
vt 0.7314 0.4370 0.0000
vt 0.7313 0.4082 0.0000
vt 0.9907 0.7680 0.0000
vt 0.9864 0.7985 0.0000
vt 0.7630 0.2880 0.0000
vt 0.7696 0.3199 0.0000
vt 0.7309 0.3203 0.0000
vt 0.7308 0.2893 0.0000
vt 0.9030 0.9287 0.0000
vt 0.9624 0.8928 0.0000
vt 0.9520 0.9249 0.0000
vt 0.9030 0.9417 0.0000
vt 0.8953 0.9659 0.0000
vt 0.8629 0.9492 0.0000
vt 0.6985 0.2882 0.0000
vt 0.7025 0.2668 0.0000
vt 0.8762 0.4810 0.0000
vt 0.9183 0.9816 0.0000
vt 0.6728 0.5215 0.0000
vt 0.6724 0.4953 0.0000
vt 0.6859 0.6470 0.0000
vt 0.6805 0.6095 0.0000
vt 0.6771 0.4102 0.0000
vt 0.6817 0.3813 0.0000
vt 0.6765 0.5786 0.0000
vt 0.6748 0.5500 0.0000
vt 0.7328 0.7129 0.0000
vt 0.6978 0.7088 0.0000
vt 0.6914 0.6767 0.0000
vt 0.6722 0.4666 0.0000
vt 0.6739 0.4391 0.0000
vt 0.6866 0.3513 0.0000
vt 0.6922 0.3202 0.0000
vt 0.7801 0.2783 0.0000
vt 0.7702 0.2557 0.0000
vt 0.7330 0.7526 0.0000
vt 0.7329 0.7307 0.0000
vt 0.7575 0.7365 0.0000
vt 0.6653 0.6651 0.0000
vt 0.6770 0.6931 0.0000
vt 0.7306 0.2192 0.0000
vt 0.7306 0.2303 0.0000
vt 0.7166 0.2264 0.0000
vt 0.8273 0.5256 0.0000
vt 0.8276 0.4929 0.0000
vt 0.6463 0.4006 0.0000
vt 0.6401 0.4311 0.0000
vt 0.6365 0.5265 0.0000
vt 0.6397 0.5588 0.0000
vt 0.7998 0.6645 0.0000
vt 0.8121 0.6266 0.0000
vt 0.8163 0.3998 0.0000
vt 0.8094 0.3691 0.0000
vt 0.6814 0.2787 0.0000
vt 0.6707 0.3090 0.0000
vt 0.8206 0.5924 0.0000
vt 0.8244 0.5579 0.0000
vt 0.6369 0.4616 0.0000
vt 0.6358 0.4938 0.0000
vt 0.6439 0.5932 0.0000
vt 0.6526 0.6274 0.0000
vt 0.7735 0.7200 0.0000
vt 0.7677 0.7085 0.0000
vt 0.7884 0.6926 0.0000
vt 0.6616 0.3398 0.0000
vt 0.6528 0.3698 0.0000
vt 0.8262 0.4607 0.0000
vt 0.8227 0.4302 0.0000
vt 0.8004 0.3392 0.0000
vt 0.7911 0.3085 0.0000
vt 0.7066 0.2341 0.0000
vt 0.7103 0.2436 0.0000
vt 0.6911 0.2560 0.0000
vt 0.6922 0.7204 0.0000
vt 0.7083 0.7368 0.0000
vt 0.7546 0.2340 0.0000
vt 0.7445 0.2264 0.0000
vt 0.9431 0.9491 0.0000
vt 0.8775 0.9733 0.0000
vt 0.9031 0.9894 0.0000
vt 0.9030 0.9548 0.0000
vt 0.9286 0.9732 0.0000
vt 0.8539 0.9251 0.0000
vt 0.9025 0.4642 0.0000
# 158 texture coords

o Object028
g Object028
usemtl Material__23
s 4
f 1/1/1 2/2/2 3/3/3 4/4/4 
s 8
f 5/5/5 6/6/6 7/7/7 8/8/8 
s 16
f 9/9/9 10/10/10 11/11/11 12/12/12 
s 32
f 9/9/9 13/13/13 14/14/14 15/15/15 
s 64
f 16/16/16 17/17/17 18/18/18 
s 4
f 19/19/19 20/20/20 21/21/21 22/22/22 
s 8
f 23/23/23 24/24/24 25/25/25 26/26/26 
s 32
f 23/23/23 27/27/27 28/28/28 29/29/29 
f 30/30/30 31/31/31 32/32/32 33/33/33 
s 4
f 34/34/34 35/35/35 36/36/36 37/37/37 
s 8
f 30/30/30 38/38/38 39/39/39 40/40/40 
s 4
f 41/41/41 42/42/42 43/43/43 44/44/44 
s 8
f 45/45/45 46/46/46 47/47/47 48/48/48 
s 32
f 45/45/45 49/49/49 50/50/50 51/51/51 
s 4
f 52/52/52 53/53/53 54/54/54 55/55/55 
s 8
f 56/56/56 31/31/31 57/57/57 58/58/58 
s 32
f 56/56/56 24/24/24 59/59/59 60/60/60 
f 61/61/61 38/38/38 62/62/62 63/63/63 
s 4
f 64/64/64 65/65/65 66/66/66 67/67/67 
s 8
f 61/61/61 13/13/13 68/68/68 69/69/69 
s 32
f 70/70/70 46/46/46 71/71/71 72/72/72 
s 4
f 73/73/73 74/74/74 75/75/75 76/76/76 
s 8
f 70/70/70 27/27/27 77/77/77 78/78/78 
s 4
f 79/79/79 80/80/80 81/81/81 82/82/82 
s 8
f 83/83/83 49/49/49 84/84/84 85/85/85 
s 32
f 86/86/86 87/87/87 88/88/88 
s 4
f 82/82/82 89/89/89 90/90/90 3/3/3 
s 16
f 9/9/9 15/15/15 91/91/91 10/10/10 
s 64
f 8/8/8 92/92/92 16/16/16 
s 4
f 55/55/55 93/93/93 94/94/94 21/21/21 
f 67/67/67 95/95/95 96/96/96 36/36/36 
f 76/76/76 97/97/97 98/98/98 43/43/43 
f 37/37/37 99/99/99 100/100/100 54/54/54 
f 101/101/101 102/102/102 103/103/103 66/66/66 
f 22/22/22 104/104/104 105/105/105 75/75/75 
f 44/44/44 106/106/106 107/107/107 81/81/81 
s 8
f 85/108/85 79/79/79 2/2/2 108/109/108 
s 16
f 109/110/109 110/111/110 11/112/11 
s 32
f 63/113/63 95/95/95 103/103/103 14/114/14 
s 64
f 111/115/111 112/116/112 17/117/17 
s 8
f 58/118/58 52/52/52 20/20/20 25/119/25 
s 32
f 72/120/72 97/97/97 105/105/105 28/121/28 
f 60/122/60 93/93/93 100/100/100 32/123/32 
s 8
f 69/124/69 64/64/64 35/35/35 39/125/39 
f 78/126/78 73/73/73 42/42/42 47/127/47 
s 32
f 113/128/113 89/89/89 107/107/107 50/129/50 
s 8
f 40/130/40 34/34/34 53/53/53 57/131/57 
s 32
f 29/132/29 104/104/104 94/94/94 59/133/59 
f 33/134/33 99/99/99 96/96/96 62/135/62 
s 8
f 12/136/12 114/137/114 65/65/65 68/138/68 
s 32
f 51/139/51 106/106/106 98/98/98 71/140/71 
s 8
f 26/141/26 19/19/19 74/74/74 77/142/77 
f 48/143/48 41/41/41 80/80/80 84/144/84 
s 32
f 115/145/115 116/146/116 90/90/90 88/147/88 
s 16
f 15/148/15 102/102/102 101/101/101 110/111/110 91/149/91 
s 64
f 117/150/117 1/1/1 4/4/4 112/116/112 92/151/92 
s 8
f 86/86/86 108/152/108 7/7/7 
s 64
f 17/17/17 115/153/115 18/18/18 
f 16/16/16 111/154/111 17/17/17 
f 18/18/18 5/5/5 16/16/16 
s 32
f 118/155/6 6/6/6 87/87/87 
s 64
f 92/92/92 111/154/111 16/16/16 
f 8/8/8 117/156/117 92/92/92 
f 16/16/16 5/5/5 8/8/8 
f 112/116/112 4/4/4 116/146/116 115/145/115 17/117/17 
f 112/116/112 111/115/111 92/151/92 
s 4
f 2/2/2 79/79/79 82/82/82 3/3/3 
s 8
f 6/6/6 118/155/6 7/7/7 
s 32
f 87/87/87 18/18/18 115/153/115 88/88/88 
f 86/86/86 118/155/6 87/87/87 
f 88/88/88 113/157/113 83/83/83 86/86/86 
s 4
f 90/90/90 116/146/116 4/4/4 3/3/3 
s 8
f 2/2/2 1/1/1 117/150/117 108/109/108 
s 32
f 90/90/90 89/89/89 113/128/113 88/147/88 
s 8
f 108/152/108 117/156/117 8/8/8 7/7/7 
f 86/86/86 83/83/83 85/85/85 108/152/108 
f 7/7/7 118/155/6 86/86/86 
s 32
f 6/6/6 5/5/5 18/18/18 87/87/87 
f 49/49/49 83/83/83 113/157/113 50/50/50 
s 4
f 80/80/80 41/41/41 44/44/44 81/81/81 
s 8
f 49/49/49 45/45/45 48/48/48 84/84/84 
s 4
f 107/107/107 89/89/89 82/82/82 81/81/81 
s 32
f 107/107/107 106/106/106 51/139/51 50/129/50 
s 8
f 80/80/80 79/79/79 85/108/85 84/144/84 
s 4
f 42/42/42 73/73/73 76/76/76 43/43/43 
s 8
f 46/46/46 70/70/70 78/78/78 47/47/47 
s 32
f 46/46/46 45/45/45 51/51/51 71/71/71 
s 4
f 98/98/98 106/106/106 44/44/44 43/43/43 
s 8
f 42/42/42 41/41/41 48/143/48 47/127/47 
s 32
f 98/98/98 97/97/97 72/120/72 71/140/71 
f 27/27/27 70/70/70 72/72/72 28/28/28 
s 4
f 74/74/74 19/19/19 22/22/22 75/75/75 
s 8
f 27/27/27 23/23/23 26/26/26 77/77/77 
s 4
f 105/105/105 97/97/97 76/76/76 75/75/75 
s 32
f 105/105/105 104/104/104 29/132/29 28/121/28 
s 8
f 74/74/74 73/73/73 78/126/78 77/142/77 
s 4
f 20/20/20 52/52/52 55/55/55 21/21/21 
s 8
f 24/24/24 56/56/56 58/58/58 25/25/25 
s 32
f 24/24/24 23/23/23 29/29/29 59/59/59 
s 4
f 94/94/94 104/104/104 22/22/22 21/21/21 
s 8
f 20/20/20 19/19/19 26/141/26 25/119/25 
s 32
f 94/94/94 93/93/93 60/122/60 59/133/59 
f 31/31/31 56/56/56 60/60/60 32/32/32 
s 4
f 53/53/53 34/34/34 37/37/37 54/54/54 
s 8
f 31/31/31 30/30/30 40/40/40 57/57/57 
s 4
f 100/100/100 93/93/93 55/55/55 54/54/54 
s 32
f 100/100/100 99/99/99 33/134/33 32/123/32 
s 8
f 53/53/53 52/52/52 58/118/58 57/131/57 
s 4
f 35/35/35 64/64/64 67/67/67 36/36/36 
s 8
f 38/38/38 61/61/61 69/69/69 39/39/39 
s 32
f 38/38/38 30/30/30 33/33/33 62/62/62 
s 4
f 96/96/96 99/99/99 37/37/37 36/36/36 
s 8
f 35/35/35 34/34/34 40/130/40 39/125/39 
s 32
f 96/96/96 95/95/95 63/113/63 62/135/62 
f 13/13/13 61/61/61 63/63/63 14/14/14 
s 4
f 65/65/65 114/137/114 101/101/101 66/66/66 
s 8
f 13/13/13 9/9/9 12/12/12 68/68/68 
s 4
f 103/103/103 95/95/95 67/67/67 66/66/66 
s 32
f 103/103/103 102/102/102 15/148/15 14/114/14 
s 8
f 65/65/65 64/64/64 69/124/69 68/138/68 
s 16
f 10/10/10 109/158/109 11/11/11 
f 91/91/91 109/158/109 10/10/10 
f 110/111/110 101/101/101 114/137/114 12/136/12 11/112/11 
f 110/111/110 109/110/109 91/149/91 
# 104 polygons - 20 triangles

