# 3ds Max Wavefront OBJ Exporter v0.99 - (c)2007 guruware
# File Created: 06.08.2021 09:09:43

mtllib petal3.mtl

#
# object Object027
#

v  -17.6607 234.3190 7.1650
v  -15.9097 238.7677 3.7352
v  -21.1249 240.2582 4.8310
v  -22.5092 233.7973 9.5249
v  -14.6868 237.6642 2.5837
v  -15.7264 234.9388 5.1292
v  -18.2862 236.7499 4.1527
v  -17.7566 238.1963 2.8189
v  -122.4547 249.1505 2.3071
v  -123.2871 240.8657 9.6070
v  -125.5639 243.9076 6.2886
v  -124.9741 249.0449 1.8566
v  -121.1937 258.7119 -3.4227
v  -116.0327 261.9336 -4.1006
v  -117.2621 249.3812 3.2509
v  -13.6009 237.5906 2.6364
v  -15.0082 241.0611 0.6593
v  -13.9224 240.9874 0.7120
v  -70.6697 236.9633 20.6242
v  -69.1914 250.1394 10.3535
v  -76.7559 251.3833 10.8535
v  -78.3059 238.0927 21.2464
v  -70.0857 247.3429 6.9198
v  -71.6883 230.9271 22.0289
v  -79.0761 231.8860 22.5699
v  -77.1781 248.4250 7.2887
v  -67.4628 266.9493 -4.2715
v  -60.4282 265.1719 -4.3908
v  -62.9829 246.1333 6.4011
v  -97.9006 249.8727 6.3325
v  -96.4175 268.2778 -4.4397
v  -89.3170 268.8990 -4.1450
v  -90.8295 249.6414 6.9705
v  -100.5153 240.2775 19.2119
v  -98.9470 252.8042 9.6760
v  -105.9718 252.7535 8.7094
v  -107.4019 240.9621 17.5039
v  -100.4011 234.3175 20.3552
v  -107.2976 235.4038 18.5787
v  -104.9477 249.8844 5.4371
v  -41.7564 234.7269 15.2384
v  -40.5965 244.7888 7.6944
v  -47.6992 246.2301 8.4881
v  -48.9565 235.1371 17.0124
v  -41.3242 242.3567 4.7146
v  -42.4898 230.1319 16.2357
v  -49.8138 229.9907 18.0783
v  -48.5146 243.6019 5.2642
v  -39.3108 257.2329 -3.5511
v  -32.4135 253.9674 -3.1744
v  -34.1450 241.0746 4.1195
v  -85.6894 238.9257 21.2090
v  -84.1407 252.2014 10.8712
v  -91.9140 252.6802 10.4363
v  -93.5762 239.7161 20.4599
v  -84.5651 249.2276 7.2878
v  -86.4578 232.7338 22.5260
v  -93.4656 233.5322 21.6768
v  -82.2009 269.0244 -3.9703
v  -74.8073 268.2773 -4.0000
v  -112.0686 249.5716 4.1470
v  -110.9174 264.4543 -4.3735
v  -103.5782 267.1118 -4.5718
v  -114.2459 241.5462 14.8817
v  -113.0225 252.2441 7.1951
v  -118.7305 251.5896 5.6818
v  -118.7864 242.0707 12.4410
v  -114.1148 237.1966 15.5277
v  -118.7536 238.7384 12.8346
v  -55.7035 244.8538 5.8221
v  -53.2600 262.9058 -4.2063
v  -46.2759 260.1511 -3.9423
v  -56.1912 235.5202 18.5071
v  -54.8351 247.5692 9.1563
v  -62.0991 248.8969 9.7943
v  -63.5298 236.1356 19.7518
v  -57.1175 230.0210 19.8034
v  -64.5222 230.2699 21.0916
v  -27.2916 234.1082 10.9718
v  -26.3870 241.6023 5.7468
v  -33.4713 243.2596 6.7992
v  -34.5208 234.3691 13.2264
v  -26.9658 239.7924 3.5245
v  -27.8498 230.8073 11.7277
v  -35.1843 230.3465 14.0716
v  -23.8961 239.2603 3.2893
v  -20.4211 247.5954 -2.0427
v  -17.9075 239.9783 1.7956
v  -20.9864 246.7787 0.0469
v  -25.5630 248.8445 0.2126
v  -124.2761 254.8855 -1.7266
v  -14.6405 234.8652 5.1820
v  -75.1043 265.3863 1.3190
v  -82.4967 266.1436 1.3368
v  -104.6124 264.7431 0.1410
v  -111.7517 262.8093 -0.6428
v  -46.3031 257.7574 0.4970
v  -53.2982 260.1837 0.4998
v  -90.4648 266.2411 1.0935
v  -97.5276 265.7478 0.6156
v  -123.3511 250.4899 3.7807
v  -116.5930 260.7692 -1.2111
v  -121.0556 258.3558 -1.9120
v  -60.4592 262.3121 0.6399
v  -67.5006 263.9800 0.8989
v  -32.4427 252.0848 0.2919
v  -39.3721 255.0526 0.3983
v  -22.3242 231.3718 9.8024
v  -127.4974 248.9842 1.4591
v  -125.6095 249.8891 2.7764
v  -12.5150 237.5170 2.6892
v  -14.0890 238.2051 3.3027
v  -25.5450 250.4557 -2.6179
v  -122.9164 242.4926 9.6700
v  -15.4375 243.5386 -0.5939
v  -16.5757 243.5686 0.4117
v  -16.6582 233.1328 7.0036
v  -20.8263 238.7283 3.0541
# 118 vertices

vn 0.4316 0.3629 0.8259
vn 0.3342 0.5301 0.7793
vn 0.2982 0.5399 0.7872
vn 0.3373 0.3205 0.8852
vn -0.0716 -0.5836 -0.8088
vn -0.0945 -0.6794 -0.7277
vn -0.1696 -0.6410 -0.7486
vn -0.1605 -0.5701 -0.8058
vn 0.1674 -0.5945 -0.7865
vn -0.6331 -0.7692 0.0867
vn -0.8335 -0.5523 0.0118
vn 0.1522 -0.5947 -0.7894
vn -0.5125 0.3680 -0.7758
vn -0.3343 0.4986 -0.7997
vn 0.1636 -0.5947 -0.7871
vn -0.0008 -0.5904 -0.8071
vn -0.0723 -0.4756 -0.8767
vn 0.8831 0.2313 -0.4082
vn 0.1458 0.4071 0.9017
vn 0.1553 0.5706 0.8064
vn 0.1071 0.5781 0.8089
vn 0.0881 0.4127 0.9066
vn -0.1429 -0.5733 -0.8068
vn -0.0516 -0.8822 0.4680
vn -0.0906 -0.8737 0.4780
vn -0.0967 -0.5801 -0.8088
vn 0.1309 0.7004 -0.7017
vn 0.1927 0.6781 -0.7092
vn -0.1602 -0.5705 -0.8055
vn 0.0765 -0.5943 -0.8006
vn -0.0572 0.6758 -0.7348
vn -0.0082 0.6956 -0.7184
vn 0.0271 -0.5921 -0.8054
vn -0.1569 0.4047 0.9009
vn -0.0950 0.5943 0.7986
vn -0.1620 0.5942 0.7878
vn -0.2420 0.3982 0.8848
vn -0.2094 -0.8810 0.4242
vn -0.3063 -0.8613 0.4053
vn 0.1343 -0.5950 -0.7924
vn 0.2539 0.3729 0.8925
vn 0.2119 0.5599 0.8010
vn 0.1926 0.5638 0.8031
vn 0.2240 0.3802 0.8974
vn -0.1644 -0.5699 -0.8051
vn 0.1356 -0.8968 0.4212
vn 0.1068 -0.9021 0.4181
vn -0.1611 -0.5705 -0.8054
vn 0.3178 0.6285 -0.7099
vn 0.3408 0.6000 -0.7238
vn -0.1683 -0.5691 -0.8048
vn -0.0001 0.4206 0.9072
vn 0.0289 0.5872 0.8089
vn -0.0424 0.5924 0.8045
vn -0.0882 0.4128 0.9065
vn -0.0306 -0.5877 -0.8085
vn -0.1315 -0.8656 0.4831
vn -0.1655 -0.8776 0.4498
vn 0.0356 0.7220 -0.6910
vn 0.0865 0.7135 -0.6953
vn 0.1632 -0.5949 -0.7871
vn -0.2658 0.5762 -0.7729
vn -0.1591 0.6622 -0.7322
vn -0.3595 0.3578 0.8618
vn -0.2398 0.5907 0.7705
vn -0.3526 0.5788 0.7354
vn -0.4594 0.3242 0.8270
vn -0.4037 -0.8608 0.3099
vn -0.4675 -0.8549 0.2249
vn -0.1630 -0.5702 -0.8052
vn 0.2556 0.6678 -0.6990
vn 0.2886 0.6316 -0.7196
vn 0.1962 0.3981 0.8961
vn 0.1779 0.5666 0.8045
vn 0.1688 0.5683 0.8053
vn 0.1717 0.4005 0.9001
vn 0.0728 -0.8887 0.4527
vn 0.0100 -0.8919 0.4521
vn 0.2905 0.3548 0.8886
vn 0.2622 0.5488 0.7937
vn 0.2339 0.5553 0.7981
vn 0.2785 0.3553 0.8923
vn -0.1645 -0.5697 -0.8052
vn 0.1981 -0.9017 0.3843
vn 0.1596 -0.9052 0.3938
vn -0.1626 -0.5699 -0.8055
vn 0.4734 0.5161 -0.7138
vn -0.1523 -0.4942 -0.8559
vn 0.3888 0.6963 0.6033
vn 0.3360 0.6968 0.6337
vn -0.7418 0.2842 -0.6074
vn 0.7870 -0.5857 0.1938
vn 0.1239 0.7306 0.6715
vn 0.0334 0.7423 0.6692
vn -0.2116 0.7635 0.6102
vn -0.3282 0.7696 0.5478
vn 0.2662 0.7096 0.6524
vn 0.2347 0.7069 0.6673
vn -0.0550 0.7579 0.6501
vn -0.1245 0.7647 0.6322
vn -0.4422 0.5624 0.6987
vn -0.4277 0.7584 0.4917
vn -0.6756 0.6282 0.3859
vn 0.2098 0.7142 0.6677
vn 0.1825 0.7178 0.6720
vn 0.3245 0.7027 0.6332
vn 0.2968 0.7017 0.6477
vn 0.3044 -0.8925 0.3330
vn -0.9151 -0.1728 -0.3643
vn -0.5553 0.5331 0.6383
vn 0.9627 -0.2254 -0.1499
vn 0.4208 0.5035 0.7546
vn 0.3769 0.5847 -0.7184
vn -0.7056 0.2925 0.6455
vn 0.7198 0.3751 -0.5842
vn 0.4655 0.6101 0.6412
vn 0.5800 -0.7707 0.2638
# 117 vertex normals

vt 0.7510 0.2435 0.0000
vt 0.7306 0.2395 0.0000
vt 0.7307 0.2652 0.0000
vt 0.7589 0.2666 0.0000
vt 0.9031 0.9807 0.0000
vt 0.9178 0.9770 0.0000
vt 0.9108 0.9659 0.0000
vt 0.9030 0.9678 0.0000
vt 0.9025 0.4897 0.0000
vt 0.9455 0.4982 0.0000
vt 0.9288 0.4810 0.0000
vt 0.9025 0.4767 0.0000
vt 0.8595 0.4982 0.0000
vt 0.8460 0.5273 0.0000
vt 0.9025 0.5169 0.0000
vt 0.9031 0.9849 0.0000
vt 0.8884 0.9771 0.0000
vt 0.8879 0.9817 0.0000
vt 0.7910 0.4661 0.0000
vt 0.7316 0.4646 0.0000
vt 0.7317 0.4939 0.0000
vt 0.7911 0.4947 0.0000
vt 0.9027 0.7416 0.0000
vt 0.9933 0.7389 0.0000
vt 0.9945 0.7097 0.0000
vt 0.9026 0.7103 0.0000
vt 0.8120 0.7391 0.0000
vt 0.8148 0.7682 0.0000
vt 0.9027 0.7729 0.0000
vt 0.9026 0.6165 0.0000
vt 0.8188 0.6243 0.0000
vt 0.8140 0.6543 0.0000
vt 0.9026 0.6499 0.0000
vt 0.7878 0.5781 0.0000
vt 0.7322 0.5801 0.0000
vt 0.7323 0.6106 0.0000
vt 0.7841 0.6090 0.0000
vt 0.9864 0.6242 0.0000
vt 0.9808 0.5924 0.0000
vt 0.9026 0.5817 0.0000
vt 0.7755 0.3509 0.0000
vt 0.7311 0.3503 0.0000
vt 0.7312 0.3796 0.0000
vt 0.7807 0.3809 0.0000
vt 0.9029 0.8668 0.0000
vt 0.9718 0.8608 0.0000
vt 0.9794 0.8296 0.0000
vt 0.9028 0.8359 0.0000
vt 0.8338 0.8610 0.0000
vt 0.8434 0.8930 0.0000
vt 0.9029 0.8978 0.0000
vt 0.7910 0.5210 0.0000
vt 0.7319 0.5216 0.0000
vt 0.7320 0.5510 0.0000
vt 0.7892 0.5494 0.0000
vt 0.9026 0.6779 0.0000
vt 0.9940 0.6814 0.0000
vt 0.9912 0.6542 0.0000
vt 0.8113 0.6815 0.0000
vt 0.8108 0.7099 0.0000
vt 0.9025 0.5438 0.0000
vt 0.8355 0.5555 0.0000
vt 0.8243 0.5925 0.0000
vt 0.7790 0.6466 0.0000
vt 0.7325 0.6463 0.0000
vt 0.7326 0.6784 0.0000
vt 0.7738 0.6763 0.0000
vt 0.9696 0.5554 0.0000
vt 0.9591 0.5272 0.0000
vt 0.9028 0.8048 0.0000
vt 0.8191 0.7988 0.0000
vt 0.8261 0.8298 0.0000
vt 0.7855 0.4097 0.0000
vt 0.7313 0.4082 0.0000
vt 0.7314 0.4370 0.0000
vt 0.7891 0.4386 0.0000
vt 0.9864 0.7985 0.0000
vt 0.9907 0.7680 0.0000
vt 0.7630 0.2880 0.0000
vt 0.7308 0.2893 0.0000
vt 0.7309 0.3203 0.0000
vt 0.7696 0.3199 0.0000
vt 0.9030 0.9287 0.0000
vt 0.9520 0.9249 0.0000
vt 0.9624 0.8928 0.0000
vt 0.9030 0.9417 0.0000
vt 0.8629 0.9492 0.0000
vt 0.8953 0.9659 0.0000
vt 0.7025 0.2668 0.0000
vt 0.6985 0.2882 0.0000
vt 0.8762 0.4810 0.0000
vt 0.9183 0.9816 0.0000
vt 0.6724 0.4953 0.0000
vt 0.6728 0.5215 0.0000
vt 0.6805 0.6095 0.0000
vt 0.6859 0.6470 0.0000
vt 0.6817 0.3813 0.0000
vt 0.6771 0.4102 0.0000
vt 0.6748 0.5500 0.0000
vt 0.6765 0.5786 0.0000
vt 0.7328 0.7129 0.0000
vt 0.6914 0.6767 0.0000
vt 0.6978 0.7088 0.0000
vt 0.6739 0.4391 0.0000
vt 0.6722 0.4666 0.0000
vt 0.6922 0.3202 0.0000
vt 0.6866 0.3513 0.0000
vt 0.7801 0.2783 0.0000
vt 0.7702 0.2557 0.0000
vt 0.7330 0.7526 0.0000
vt 0.7575 0.7365 0.0000
vt 0.7329 0.7307 0.0000
vt 0.6653 0.6651 0.0000
vt 0.6770 0.6931 0.0000
vt 0.7306 0.2192 0.0000
vt 0.7166 0.2264 0.0000
vt 0.7306 0.2303 0.0000
vt 0.8273 0.5256 0.0000
vt 0.8276 0.4929 0.0000
vt 0.6463 0.4006 0.0000
vt 0.6401 0.4311 0.0000
vt 0.6365 0.5265 0.0000
vt 0.6397 0.5588 0.0000
vt 0.7998 0.6645 0.0000
vt 0.8121 0.6266 0.0000
vt 0.8163 0.3998 0.0000
vt 0.8094 0.3691 0.0000
vt 0.6814 0.2787 0.0000
vt 0.6707 0.3090 0.0000
vt 0.8206 0.5924 0.0000
vt 0.8244 0.5579 0.0000
vt 0.6369 0.4616 0.0000
vt 0.6358 0.4938 0.0000
vt 0.6439 0.5932 0.0000
vt 0.6526 0.6274 0.0000
vt 0.7735 0.7200 0.0000
vt 0.7884 0.6926 0.0000
vt 0.7677 0.7085 0.0000
vt 0.6616 0.3398 0.0000
vt 0.6528 0.3698 0.0000
vt 0.8262 0.4607 0.0000
vt 0.8227 0.4302 0.0000
vt 0.8004 0.3392 0.0000
vt 0.7911 0.3085 0.0000
vt 0.7066 0.2341 0.0000
vt 0.6911 0.2560 0.0000
vt 0.7103 0.2436 0.0000
vt 0.6922 0.7204 0.0000
vt 0.7083 0.7368 0.0000
vt 0.7546 0.2340 0.0000
vt 0.7445 0.2264 0.0000
vt 0.9431 0.9491 0.0000
vt 0.8775 0.9733 0.0000
vt 0.9031 0.9894 0.0000
vt 0.9030 0.9548 0.0000
vt 0.9286 0.9732 0.0000
vt 0.8539 0.9251 0.0000
vt 0.9025 0.4642 0.0000
# 158 texture coords

o Object027
g Object027
usemtl Material__23
s 4
f 1/1/1 2/2/2 3/3/3 4/4/4 
s 8
f 5/5/5 6/6/6 7/7/7 8/8/8 
s 16
f 9/9/9 10/10/10 11/11/11 12/12/12 
s 32
f 9/9/9 13/13/13 14/14/14 15/15/15 
s 64
f 16/16/16 17/17/17 18/18/18 
s 4
f 19/19/19 20/20/20 21/21/21 22/22/22 
s 8
f 23/23/23 24/24/24 25/25/25 26/26/26 
s 32
f 23/23/23 27/27/27 28/28/28 29/29/29 
f 30/30/30 31/31/31 32/32/32 33/33/33 
s 4
f 34/34/34 35/35/35 36/36/36 37/37/37 
s 8
f 30/30/30 38/38/38 39/39/39 40/40/40 
s 4
f 41/41/41 42/42/42 43/43/43 44/44/44 
s 8
f 45/45/45 46/46/46 47/47/47 48/48/48 
s 32
f 45/45/45 49/49/49 50/50/50 51/51/51 
s 4
f 52/52/52 53/53/53 54/54/54 55/55/55 
s 8
f 56/56/56 57/57/57 58/58/58 33/33/33 
s 32
f 56/56/56 59/59/59 60/60/60 26/26/26 
f 61/61/61 62/62/62 63/63/63 40/40/40 
s 4
f 64/64/64 65/65/65 66/66/66 67/67/67 
s 8
f 61/61/61 68/68/68 69/69/69 15/15/15 
s 32
f 70/70/70 71/71/71 72/72/72 48/48/48 
s 4
f 73/73/73 74/74/74 75/75/75 76/76/76 
s 8
f 70/70/70 77/77/77 78/78/78 29/29/29 
s 4
f 79/79/79 80/80/80 81/81/81 82/82/82 
s 8
f 83/83/83 84/84/84 85/85/85 51/51/51 
s 32
f 86/86/86 87/87/87 88/88/88 
s 4
f 80/80/80 3/3/3 89/89/89 90/90/90 
s 16
f 9/9/9 12/12/12 91/91/91 13/13/13 
s 64
f 6/6/6 16/16/16 92/92/92 
s 4
f 53/53/53 21/21/21 93/93/93 94/94/94 
f 65/65/65 36/36/36 95/95/95 96/96/96 
f 74/74/74 43/43/43 97/97/97 98/98/98 
f 35/35/35 54/54/54 99/99/99 100/100/100 
f 101/101/101 66/66/66 102/102/102 103/103/103 
f 20/20/20 75/75/75 104/104/104 105/105/105 
f 42/42/42 81/81/81 106/106/106 107/107/107 
s 8
f 84/108/84 108/109/108 4/4/4 79/79/79 
s 16
f 109/110/109 11/111/11 110/112/110 
s 32
f 62/113/62 14/114/14 102/102/102 96/96/96 
s 64
f 111/115/111 18/116/18 112/117/112 
s 8
f 57/118/57 25/119/25 22/22/22 52/52/52 
s 32
f 71/120/71 28/121/28 104/104/104 98/98/98 
f 59/122/59 32/123/32 99/99/99 94/94/94 
s 8
f 68/124/68 39/125/39 37/37/37 64/64/64 
f 77/126/77 47/127/47 44/44/44 73/73/73 
s 32
f 113/128/113 50/129/50 106/106/106 90/90/90 
s 8
f 38/130/38 58/131/58 55/55/55 34/34/34 
s 32
f 27/132/27 60/133/60 93/93/93 105/105/105 
f 31/134/31 63/135/63 95/95/95 100/100/100 
s 8
f 10/136/10 69/137/69 67/67/67 114/138/114 
s 32
f 49/139/49 72/140/72 97/97/97 107/107/107 
s 8
f 24/141/24 78/142/78 76/76/76 19/19/19 
f 46/143/46 85/144/85 82/82/82 41/41/41 
s 32
f 115/145/115 87/146/87 89/89/89 116/147/116 
s 16
f 13/148/13 91/149/91 110/112/110 101/101/101 103/103/103 
s 64
f 117/150/117 92/151/92 112/117/112 2/2/2 1/1/1 
s 8
f 86/86/86 7/7/7 108/152/108 
s 64
f 18/18/18 17/17/17 115/153/115 
f 16/16/16 18/18/18 111/154/111 
f 17/17/17 16/16/16 5/5/5 
s 32
f 118/155/8 88/88/88 8/8/8 
s 64
f 92/92/92 16/16/16 111/154/111 
f 6/6/6 92/92/92 117/156/117 
f 16/16/16 6/6/6 5/5/5 
f 112/117/112 18/116/18 115/145/115 116/147/116 2/2/2 
f 112/117/112 92/151/92 111/115/111 
s 4
f 4/4/4 3/3/3 80/80/80 79/79/79 
s 8
f 8/8/8 7/7/7 118/155/8 
s 32
f 88/88/88 87/87/87 115/153/115 17/17/17 
f 86/86/86 88/88/88 118/155/8 
f 87/87/87 86/86/86 83/83/83 113/157/113 
s 4
f 89/89/89 3/3/3 2/2/2 116/147/116 
s 8
f 4/4/4 108/109/108 117/150/117 1/1/1 
s 32
f 89/89/89 87/146/87 113/128/113 90/90/90 
s 8
f 108/152/108 7/7/7 6/6/6 117/156/117 
f 86/86/86 108/152/108 84/84/84 83/83/83 
f 7/7/7 86/86/86 118/155/8 
s 32
f 8/8/8 88/88/88 17/17/17 5/5/5 
f 51/51/51 50/50/50 113/157/113 83/83/83 
s 4
f 82/82/82 81/81/81 42/42/42 41/41/41 
s 8
f 51/51/51 85/85/85 46/46/46 45/45/45 
s 4
f 106/106/106 81/81/81 80/80/80 90/90/90 
s 32
f 106/106/106 50/129/50 49/139/49 107/107/107 
s 8
f 82/82/82 85/144/85 84/108/84 79/79/79 
s 4
f 44/44/44 43/43/43 74/74/74 73/73/73 
s 8
f 48/48/48 47/47/47 77/77/77 70/70/70 
s 32
f 48/48/48 72/72/72 49/49/49 45/45/45 
s 4
f 97/97/97 43/43/43 42/42/42 107/107/107 
s 8
f 44/44/44 47/127/47 46/143/46 41/41/41 
s 32
f 97/97/97 72/140/72 71/120/71 98/98/98 
f 29/29/29 28/28/28 71/71/71 70/70/70 
s 4
f 76/76/76 75/75/75 20/20/20 19/19/19 
s 8
f 29/29/29 78/78/78 24/24/24 23/23/23 
s 4
f 104/104/104 75/75/75 74/74/74 98/98/98 
s 32
f 104/104/104 28/121/28 27/132/27 105/105/105 
s 8
f 76/76/76 78/142/78 77/126/77 73/73/73 
s 4
f 22/22/22 21/21/21 53/53/53 52/52/52 
s 8
f 26/26/26 25/25/25 57/57/57 56/56/56 
s 32
f 26/26/26 60/60/60 27/27/27 23/23/23 
s 4
f 93/93/93 21/21/21 20/20/20 105/105/105 
s 8
f 22/22/22 25/119/25 24/141/24 19/19/19 
s 32
f 93/93/93 60/133/60 59/122/59 94/94/94 
f 33/33/33 32/32/32 59/59/59 56/56/56 
s 4
f 55/55/55 54/54/54 35/35/35 34/34/34 
s 8
f 33/33/33 58/58/58 38/38/38 30/30/30 
s 4
f 99/99/99 54/54/54 53/53/53 94/94/94 
s 32
f 99/99/99 32/123/32 31/134/31 100/100/100 
s 8
f 55/55/55 58/131/58 57/118/57 52/52/52 
s 4
f 37/37/37 36/36/36 65/65/65 64/64/64 
s 8
f 40/40/40 39/39/39 68/68/68 61/61/61 
s 32
f 40/40/40 63/63/63 31/31/31 30/30/30 
s 4
f 95/95/95 36/36/36 35/35/35 100/100/100 
s 8
f 37/37/37 39/125/39 38/130/38 34/34/34 
s 32
f 95/95/95 63/135/63 62/113/62 96/96/96 
f 15/15/15 14/14/14 62/62/62 61/61/61 
s 4
f 67/67/67 66/66/66 101/101/101 114/138/114 
s 8
f 15/15/15 69/69/69 10/10/10 9/9/9 
s 4
f 102/102/102 66/66/66 65/65/65 96/96/96 
s 32
f 102/102/102 14/114/14 13/148/13 103/103/103 
s 8
f 67/67/67 69/137/69 68/124/68 64/64/64 
s 16
f 12/12/12 11/11/11 109/158/109 
f 91/91/91 12/12/12 109/158/109 
f 110/112/110 11/111/11 10/136/10 114/138/114 101/101/101 
f 110/112/110 91/149/91 109/110/109 
# 104 polygons - 20 triangles

