# 3ds Max Wavefront OBJ Exporter v0.99 - (c)2007 guruware
# File Created: 06.08.2021 16:15:35

mtllib Window_Left.mtl

#
# object Object037
#

v  -706.9603 -818.8920 64.9889
v  -706.9603 -741.2211 64.9889
v  -676.5798 -741.2211 64.9889
v  -676.5798 -818.8920 64.9889
v  -706.9603 -818.8920 109.6675
v  -676.5798 -818.8920 109.6675
v  -676.5798 -741.2211 109.6675
v  -706.9603 -741.2211 109.6675
v  -0.7177 -818.8920 64.9889
v  -0.7177 -741.2211 64.9889
v  -0.7177 -741.2211 109.6675
v  -0.7177 -818.8920 109.6675
v  -0.7177 818.8920 64.9891
v  -31.0983 818.8920 64.9891
v  -31.0983 818.8920 109.6677
v  -0.7177 818.8920 109.6677
v  -706.9603 818.8920 64.9891
v  -706.9603 741.2211 64.9891
v  -706.9603 741.2211 109.6677
v  -706.9603 818.8920 109.6677
v  -337.2012 818.8920 64.9891
v  -337.2012 818.8920 109.6677
v  -0.7177 741.2211 64.9891
v  -31.0983 741.2211 64.9891
v  -31.0983 -818.8920 109.6675
v  -31.0983 -741.2211 109.6675
v  -31.0983 -818.8920 64.9889
v  -676.5798 818.8920 64.9891
v  -370.4769 818.8920 64.9891
v  -370.4769 741.2211 64.9891
v  -676.5798 741.2211 64.9891
v  -370.4769 -818.8920 109.6675
v  -370.4769 -741.2211 109.6676
v  -370.4769 -818.8920 64.9889
v  -676.5798 818.8920 109.6677
v  -706.9603 -456.1232 64.9890
v  -676.5798 -456.1232 64.9890
v  -676.5798 -456.1232 109.6676
v  -706.9603 -456.1232 109.6675
v  -0.7177 -456.1232 64.9890
v  -0.7177 -456.1232 109.6675
v  -31.0983 -456.1232 109.6675
v  -31.0983 -741.2211 64.9889
v  -337.2012 -818.8920 64.9889
v  -337.2012 -741.2211 64.9890
v  -370.4769 -741.2210 64.9890
v  -706.9603 456.1232 64.9891
v  -706.9603 456.1232 109.6676
v  -0.7177 456.1232 64.9891
v  -31.0983 456.1232 64.9891
v  -676.5798 741.2211 109.6677
v  -0.7177 741.2211 109.6677
v  -31.0983 741.2211 109.6677
v  -337.2012 741.2211 109.6677
v  -370.4769 818.8920 109.6677
v  -370.4769 741.2211 109.6677
v  -31.0983 456.1232 109.6676
v  -337.2012 -741.2211 109.6676
v  -337.2012 741.2211 64.9891
v  -337.2012 -818.8920 109.6675
v  -370.4769 -456.1231 64.9890
v  -337.2012 -456.1232 64.9890
v  -337.2012 -456.1231 109.6676
v  -370.4769 -456.1232 109.6676
v  -676.5798 456.1232 64.9891
v  -676.5798 456.1232 109.6677
v  -0.7177 456.1232 109.6676
v  -706.9603 413.5142 64.9891
v  -706.9603 413.5141 109.6676
v  -0.7177 413.5142 64.9891
v  -31.0983 413.5142 64.9891
v  -370.4769 456.1232 64.9891
v  -337.2012 456.1232 64.9891
v  -337.2012 456.1232 109.6677
v  -370.4769 456.1232 109.6677
v  -31.0983 -456.1232 64.9890
v  -706.9603 -413.5142 64.9890
v  -676.5798 -413.5141 64.9890
v  -676.5798 -413.5143 109.6676
v  -706.9603 -413.5143 109.6676
v  -0.7177 -413.5141 64.9890
v  -0.7177 -413.5142 109.6676
v  -31.0983 -413.5142 109.6676
v  -370.4769 -413.5140 64.9890
v  -337.2012 -413.5142 64.9890
v  -337.2012 -413.5142 109.6676
v  -370.4769 -413.5142 109.6676
v  -31.0983 -413.5142 64.9890
v  -706.9603 -22.9612 64.9890
v  -676.5798 -22.9612 64.9890
v  -676.5798 -22.9612 109.6676
v  -706.9603 -22.9612 109.6676
v  -0.7177 -22.9612 64.9890
v  -0.7177 -22.9612 109.6676
v  -31.0983 -22.9612 109.6676
v  -370.4769 -22.9612 64.9891
v  -337.2012 -22.9612 64.9890
v  -337.2012 -22.9612 109.6676
v  -370.4769 -22.9612 109.6676
v  -676.5798 413.5142 64.9891
v  -676.5798 413.5141 109.6676
v  -0.7177 413.5141 109.6676
v  -31.0983 413.5141 109.6676
v  -370.4769 413.5143 64.9891
v  -337.2012 413.5142 64.9891
v  -337.2012 413.5141 109.6676
v  -370.4769 413.5141 109.6677
v  -706.9603 22.9612 64.9890
v  -706.9603 22.9612 109.6676
v  -0.7177 22.9612 64.9890
v  -31.0983 22.9612 64.9890
v  -31.0983 22.9612 109.6676
v  -31.0983 -22.9612 64.9890
v  -676.5798 22.9612 64.9891
v  -676.5798 22.9612 109.6676
v  -0.7177 22.9612 109.6676
v  -370.4769 22.9612 64.9891
v  -337.2012 22.9612 64.9890
v  -337.2012 22.9612 109.6676
v  -370.4769 22.9612 109.6676
# 120 vertices

vn -0.5774 -0.5773 -0.5774
vn -0.7071 0.0000 -0.7071
vn 0.3015 0.3015 -0.9045
vn 0.0000 -0.7071 -0.7071
vn -0.5773 -0.5774 0.5774
vn 0.0000 -0.7071 0.7071
vn 0.3015 0.3015 0.9045
vn -0.7071 -0.0000 0.7071
vn 0.5774 -0.5773 -0.5774
vn 0.7071 0.0000 -0.7071
vn 0.7071 -0.0000 0.7071
vn 0.5773 -0.5774 0.5774
vn 0.5774 0.5774 -0.5773
vn 0.0000 0.7071 -0.7071
vn -0.0000 0.7071 0.7071
vn 0.5774 0.5773 0.5774
vn -0.5774 0.5774 -0.5773
vn -0.5774 0.5773 0.5774
vn -0.0000 0.7071 -0.7071
vn -0.3015 -0.3015 -0.9045
vn -0.0000 -0.7071 0.7071
vn -0.3015 0.3015 0.9045
vn -0.0000 -0.7071 -0.7071
vn 0.3015 -0.3015 -0.9045
vn 0.0000 0.7071 0.7071
vn 0.3015 -0.3015 0.9045
vn -0.3015 -0.3015 0.9045
vn -0.3015 0.3015 -0.9045
vn -0.7071 0.0000 0.7071
vn 0.7071 0.0000 0.7071
# 30 vertex normals

vt 1.0000 0.0000 0.0000
vt 1.0000 0.2500 0.0000
vt 0.7500 0.2500 0.0000
vt 0.7500 0.0000 0.0000
vt 0.0000 0.0000 0.0000
vt 0.2500 0.0000 0.0000
vt 0.2500 0.2500 0.0000
vt 0.0000 0.2500 0.0000
vt 0.2500 1.0000 0.0000
vt 0.0000 1.0000 0.0000
vt 0.3750 0.0000 0.0000
vt 0.3750 1.0000 0.0000
vt 0.0000 0.7500 0.0000
vt 0.2500 0.7500 0.0000
vt 1.0000 1.0000 0.0000
vt 0.7500 1.0000 0.0000
vt 0.6250 1.0000 0.0000
vt 0.6250 0.7500 0.0000
vt 0.7500 0.7500 0.0000
vt 0.3750 0.2500 0.0000
vt 1.0000 0.3750 0.0000
vt 0.7500 0.3750 0.0000
vt 0.2500 0.3750 0.0000
vt 0.0000 0.3750 0.0000
vt 0.6250 0.0000 0.0000
vt 0.6250 0.2500 0.0000
vt 0.0000 0.6250 0.0000
vt 0.2500 0.6250 0.0000
vt 1.0000 0.7500 0.0000
vt 0.3750 0.7500 0.0000
vt 0.7500 0.6250 0.0000
vt 1.0000 0.6250 0.0000
vt 0.4375 0.0000 0.0000
vt 0.4375 1.0000 0.0000
vt 0.0000 0.5625 0.0000
vt 0.2500 0.5625 0.0000
vt 1.0000 0.4375 0.0000
vt 0.7500 0.4375 0.0000
vt 0.2500 0.4375 0.0000
vt 0.0000 0.4375 0.0000
vt 0.5625 0.0000 0.0000
vt 0.5625 1.0000 0.0000
vt 1.0000 0.4688 0.0000
vt 0.7500 0.4688 0.0000
vt 0.2500 0.4688 0.0000
vt 0.0000 0.4688 0.0000
vt 0.4688 0.0000 0.0000
vt 0.4688 1.0000 0.0000
vt 1.0000 0.5625 0.0000
vt 0.7500 0.5625 0.0000
vt 0.0000 0.5313 0.0000
vt 0.2500 0.5313 0.0000
vt 0.7500 0.5313 0.0000
vt 0.5313 0.0000 0.0000
vt 0.5313 1.0000 0.0000
vt 1.0000 0.5313 0.0000
# 56 texture coords

o Object037
g Object037
usemtl wire_255255255
s 2
f 1/1/1 2/2/2 3/3/3 4/4/4 
s 4
f 5/5/5 6/6/6 7/7/7 8/8/8 
s 8
f 1/5/1 4/6/4 6/9/6 5/10/5 
s 16
f 9/5/9 10/6/10 11/9/11 12/10/12 
s 32
f 13/5/13 14/6/14 15/9/15 16/10/16 
s 64
f 17/5/17 18/6/2 19/9/8 20/10/18 
s 32
f 14/6/14 21/11/19 22/12/15 15/9/15 
s 2
f 14/9/14 13/10/13 23/13/10 24/14/20 
s 4
f 25/4/21 12/1/12 11/2/11 26/3/22 
s 8
f 27/4/23 9/1/9 12/15/12 25/16/21 
s 2
f 28/16/19 29/17/14 30/18/20 31/19/24 
s 4
f 6/6/6 32/11/6 33/20/22 7/7/7 
s 8
f 4/6/4 34/11/4 32/12/6 6/9/6 
s 32
f 28/4/19 17/1/17 20/15/18 35/16/25 
s 2
f 2/2/2 36/21/2 37/22/24 3/3/3 
s 4
f 7/7/7 38/23/26 39/24/8 8/8/8 
s 16
f 10/6/10 40/11/10 41/12/11 11/9/11 
s 4
f 11/2/11 41/21/11 42/22/27 26/3/22 
s 64
f 2/4/2 1/1/1 5/15/5 8/16/8 
s 2
f 43/7/28 27/6/23 44/11/23 45/20/3 
f 10/8/10 9/5/9 27/6/23 43/7/28 
f 45/20/3 44/11/23 34/25/4 46/26/28 
s 64
f 18/6/2 47/11/2 48/12/8 19/9/8 
s 2
f 23/13/10 49/27/10 50/28/28 24/14/20 
f 18/29/2 17/15/17 28/16/19 31/19/24 
s 4
f 51/14/26 35/9/25 20/10/18 19/13/8 
s 16
f 23/4/10 13/1/13 16/15/16 52/16/11 
s 4
f 53/19/27 15/16/15 22/17/15 54/18/26 
f 52/29/11 16/15/16 15/16/15 53/19/27 
f 54/18/26 22/17/15 55/12/25 56/30/27 
s off
f 24/19/20 50/31/28 57/31/22 53/19/27 
f 31/14/24 30/30/20 56/30/27 51/14/26 
f 3/7/3 37/23/24 38/23/26 7/7/7 
f 43/3/28 45/26/3 58/26/7 26/3/22 
s 2
f 21/12/19 14/9/14 24/14/20 59/30/24 
s 4
f 60/25/6 25/4/21 26/3/22 58/26/7 
s 8
f 44/25/23 27/4/23 25/16/21 60/17/6 
s 32
f 21/11/19 29/25/14 55/17/25 22/12/15 
s off
f 59/18/24 24/19/20 53/19/27 54/18/26 
s 32
f 29/25/14 28/4/19 35/16/25 55/17/25 
s 2
f 29/17/14 21/12/19 59/30/24 30/18/20 
s 4
f 32/11/6 60/25/6 58/26/7 33/20/22 
s 8
f 34/11/4 44/25/23 60/17/6 32/12/6 
s 2
f 34/25/4 4/4/4 3/3/3 46/26/28 
s 4
f 55/12/25 35/9/25 51/14/26 56/30/27 
s off
f 46/20/28 3/7/3 7/7/7 33/20/22 
f 46/30/28 61/30/20 62/18/24 45/18/3 
f 58/18/7 45/18/3 62/18/24 63/18/26 
f 58/18/7 63/18/26 64/30/27 33/30/22 
f 46/30/28 33/30/22 64/30/27 61/30/20 
s 2
f 47/32/2 18/29/2 31/19/24 65/31/3 
s 4
f 66/28/7 51/14/26 19/13/8 48/27/8 
s 16
f 49/25/10 23/4/10 52/16/11 67/17/11 
s 4
f 67/32/11 52/29/11 53/19/27 57/31/22 
s 64
f 47/11/2 68/33/2 69/34/8 48/12/8 
s 2
f 49/27/10 70/35/10 71/36/20 50/28/28 
s off
f 65/28/3 31/14/24 51/14/26 66/28/7 
f 72/30/28 30/30/20 59/18/24 73/18/3 
f 73/18/3 59/18/24 54/18/26 74/18/7 
f 74/18/7 54/18/26 56/30/27 75/30/22 
f 75/30/22 56/30/27 30/30/20 72/30/28 
s 64
f 36/25/2 2/4/2 8/16/8 39/17/8 
s 2
f 40/24/10 10/8/10 43/7/28 76/23/20 
f 36/21/2 77/37/2 78/38/3 37/22/24 
s 4
f 38/23/26 79/39/7 80/40/29 39/24/8 
s 16
f 40/11/10 81/33/10 82/34/30 41/12/11 
s 4
f 41/21/11 82/37/30 83/38/22 42/22/27 
s off
f 76/22/20 43/3/28 26/3/22 42/22/27 
f 61/30/20 84/30/28 85/18/3 62/18/24 
f 63/18/26 86/18/7 87/30/22 64/30/27 
s 64
f 77/41/2 36/25/2 39/17/8 80/42/29 
s 2
f 81/40/10 40/24/10 76/23/20 88/39/28 
f 77/37/2 89/43/2 90/44/24 78/38/3 
s 4
f 79/39/7 91/45/26 92/46/8 80/40/29 
s 16
f 81/33/10 93/47/10 94/48/11 82/34/30 
s 4
f 82/37/30 94/43/11 95/44/27 83/38/22 
s off
f 78/39/3 90/45/24 91/45/26 79/39/7 
f 84/30/28 96/30/20 97/18/24 85/18/3 
f 85/18/3 97/18/24 98/18/26 86/18/7 
f 86/18/7 98/18/26 99/30/27 87/30/22 
f 87/30/22 99/30/27 96/30/20 84/30/28 
s 2
f 68/49/2 47/32/2 65/31/3 100/50/24 
s 4
f 101/36/26 66/28/7 48/27/8 69/35/8 
s 16
f 70/41/10 49/25/10 67/17/11 102/42/11 
s 4
f 102/49/11 67/32/11 57/31/22 103/50/27 
s off
f 104/30/20 72/30/28 73/18/3 105/18/24 
f 106/18/26 74/18/7 75/30/22 107/30/27 
s 64
f 68/33/2 108/47/2 109/48/8 69/34/8 
s 2
f 70/35/10 110/51/10 111/52/28 71/36/20 
s off
f 71/50/20 111/53/28 112/53/22 103/50/27 
s 64
f 89/54/2 77/41/2 80/42/29 92/55/8 
s 2
f 93/46/10 81/40/10 88/39/28 113/45/20 
s off
f 113/44/20 88/38/28 83/38/22 95/44/27 
s 2
f 89/43/2 108/56/2 114/53/3 90/44/24 
s 4
f 91/45/26 115/52/7 109/51/8 92/46/8 
s 16
f 93/47/10 110/54/10 116/55/11 94/48/11 
s 4
f 94/43/11 116/56/11 112/53/22 95/44/27 
s off
f 96/30/20 117/30/28 118/18/3 97/18/24 
f 98/18/26 119/18/7 120/30/22 99/30/27 
s 2
f 108/56/2 68/49/2 100/50/24 114/53/3 
s 4
f 115/52/7 101/36/26 69/35/8 109/51/8 
s 16
f 110/54/10 70/41/10 102/42/11 116/55/11 
s 4
f 116/56/11 102/49/11 103/50/27 112/53/22 
s off
f 114/52/3 100/36/24 101/36/26 115/52/7 
f 117/30/28 104/30/20 105/18/24 118/18/3 
f 118/18/3 105/18/24 106/18/26 119/18/7 
f 119/18/7 106/18/26 107/30/27 120/30/22 
f 120/30/22 107/30/27 104/30/20 117/30/28 
s 64
f 108/47/2 89/54/2 92/55/8 109/48/8 
s 2
f 110/51/10 93/46/10 113/45/20 111/52/28 
s off
f 119/53/7 98/44/26 95/44/27 112/53/22 
f 118/53/3 119/53/7 112/53/22 111/53/28 
f 97/44/24 118/53/3 111/53/28 113/44/20 
f 98/44/26 97/44/24 113/44/20 95/44/27 
f 105/50/24 73/31/3 50/31/28 71/50/20 
f 106/50/26 105/50/24 71/50/20 103/50/27 
f 74/31/7 106/50/26 103/50/27 57/31/22 
f 73/31/3 74/31/7 57/31/22 50/31/28 
f 86/38/7 63/22/26 42/22/27 83/38/22 
f 85/38/3 86/38/7 83/38/22 88/38/28 
f 62/22/24 85/38/3 88/38/28 76/22/20 
f 63/22/26 62/22/24 76/22/20 42/22/27 
f 38/30/26 37/30/24 61/30/20 64/30/27 
f 79/30/7 38/30/26 64/30/27 87/30/22 
f 78/30/3 79/30/7 87/30/22 84/30/28 
f 37/30/24 78/30/3 84/30/28 61/30/20 
f 66/30/7 101/30/26 107/30/27 75/30/22 
f 65/30/3 66/30/7 75/30/22 72/30/28 
f 100/30/24 65/30/3 72/30/28 104/30/20 
f 101/30/26 100/30/24 104/30/20 107/30/27 
f 90/30/24 114/30/3 117/30/28 96/30/20 
f 91/30/26 90/30/24 96/30/20 99/30/27 
f 115/30/7 91/30/26 99/30/27 120/30/22 
f 114/30/3 115/30/7 120/30/22 117/30/28 
# 134 polygons

