# 3ds Max Wavefront OBJ Exporter v0.99 - (c)2007 guruware
# File Created: 13.08.2021 19:19:16

mtllib 1.mtl

#
# object Object036
#

v  0.0657 0.7866 0.0433
v  0.1157 -0.2181 3.4069
v  2.0560 -0.2009 2.9290
v  2.5366 0.5900 0.0420
v  -4.7729 -0.0383 -0.0126
v  -3.5462 -0.1114 1.4256
v  -2.4063 0.6057 0.0263
v  -1.8326 -0.1790 2.7188
v  3.3765 -0.1536 1.8672
v  4.7335 -0.0685 0.0175
v  2.0755 0.0809 -2.9109
v  0.1383 0.1104 -3.4011
v  -3.5367 0.0270 -1.4430
v  -1.8145 0.0837 -2.7254
v  3.3888 0.0252 -1.8407
# 15 vertices

vn 0.0022 0.9988 0.0482
vn -0.0067 0.9581 0.2863
vn 0.0980 0.9555 0.2781
vn 0.1769 0.9831 0.0480
vn -0.2630 0.9637 0.0456
vn -0.2270 0.9293 0.2913
vn -0.1633 0.9855 0.0470
vn -0.1154 0.9468 0.3005
vn 0.2301 0.9337 0.2745
vn 0.2873 0.9567 0.0471
vn 0.0996 0.9778 -0.1842
vn -0.0051 0.9812 -0.1928
vn -0.2254 0.9531 -0.2020
vn -0.1137 0.9713 -0.2087
vn 0.2316 0.9557 -0.1819
# 15 vertex normals

vt 0.4626 0.3218 0.0000
vt 0.6854 0.3243 0.0000
vt 0.6544 0.4514 0.0000
vt 0.4639 0.4763 0.0000
vt 0.4616 0.0121 0.0000
vt 0.5564 0.0894 0.0000
vt 0.4610 0.1670 0.0000
vt 0.6395 0.1991 0.0000
vt 0.5844 0.5372 0.0000
vt 0.4618 0.6212 0.0000
vt 0.2733 0.4519 0.0000
vt 0.2398 0.3278 0.0000
vt 0.3664 0.0894 0.0000
vt 0.2828 0.2004 0.0000
vt 0.3420 0.5352 0.0000
# 15 texture coords

o Object036
g Object036
usemtl Material__68
s 1
f 1/1/1 2/2/2 3/3/3 4/4/4 
f 5/5/5 6/6/6 7/7/7 
f 8/8/8 2/2/2 1/1/1 7/7/7 
f 3/3/3 9/9/9 4/4/4 
f 6/6/6 8/8/8 7/7/7 
f 9/9/9 10/10/10 4/4/4 
f 1/1/1 4/4/4 11/11/11 12/12/12 
f 5/5/5 7/7/7 13/13/13 
f 14/14/14 7/7/7 1/1/1 12/12/12 
f 11/11/11 4/4/4 15/15/15 
f 13/13/13 7/7/7 14/14/14 
f 15/15/15 4/4/4 10/10/10 
# 4 polygons - 8 triangles

