# 3ds Max Wavefront OBJ Exporter v0.99 - (c)2007 guruware
# File Created: 13.08.2021 19:42:25

mtllib 3.mtl

#
# object Object048
#

v  0.0047 0.7000 -0.0477
v  -3.3766 -0.2411 0.0354
v  -2.8838 -0.2175 1.9719
v  0.0210 0.5231 2.4246
v  0.0086 -0.1642 -4.8797
v  -1.4214 -0.2007 -3.6418
v  -0.0004 0.4992 -2.5182
v  -2.7027 -0.2304 -1.9182
v  -1.8113 -0.1796 3.2840
v  0.0498 -0.1182 4.6266
v  2.9603 -0.0448 1.9457
v  3.4363 -0.0399 0.0048
v  1.4493 -0.1159 -3.6547
v  2.7454 -0.0695 -1.9427
v  1.8993 -0.0700 3.2674
# 15 vertices

vn -0.0295 0.9995 -0.0056
vn -0.2684 0.9632 -0.0123
vn -0.2595 0.9613 0.0923
vn -0.0283 0.9852 0.1693
vn -0.0296 0.9623 -0.2704
vn -0.2756 0.9328 -0.2324
vn -0.0299 0.9848 -0.1709
vn -0.2837 0.9513 -0.1208
vn -0.2553 0.9404 0.2245
vn -0.0271 0.9597 0.2799
vn 0.2031 0.9750 0.0903
vn 0.2110 0.9774 -0.0145
vn 0.2180 0.9473 -0.2346
vn 0.2259 0.9663 -0.1231
vn 0.2014 0.9539 0.2225
# 15 vertex normals

vt 0.4626 0.3218 0.0000
vt 0.6854 0.3243 0.0000
vt 0.6544 0.4514 0.0000
vt 0.4639 0.4763 0.0000
vt 0.4616 0.0121 0.0000
vt 0.5564 0.0894 0.0000
vt 0.4610 0.1670 0.0000
vt 0.6395 0.1991 0.0000
vt 0.5844 0.5372 0.0000
vt 0.4618 0.6212 0.0000
vt 0.2733 0.4519 0.0000
vt 0.2398 0.3278 0.0000
vt 0.3664 0.0894 0.0000
vt 0.2828 0.2004 0.0000
vt 0.3420 0.5352 0.0000
# 15 texture coords

o Object048
g Object048
usemtl Material__81
s 1
f 1/1/1 2/2/2 3/3/3 4/4/4 
f 5/5/5 6/6/6 7/7/7 
f 8/8/8 2/2/2 1/1/1 7/7/7 
f 3/3/3 9/9/9 4/4/4 
f 6/6/6 8/8/8 7/7/7 
f 9/9/9 10/10/10 4/4/4 
f 1/1/1 4/4/4 11/11/11 12/12/12 
f 5/5/5 7/7/7 13/13/13 
f 14/14/14 7/7/7 1/1/1 12/12/12 
f 11/11/11 4/4/4 15/15/15 
f 13/13/13 7/7/7 14/14/14 
f 15/15/15 4/4/4 10/10/10 
# 4 polygons - 8 triangles

