# 3ds Max Wavefront OBJ Exporter v0.99 - (c)2007 guruware
# File Created: 13.08.2021 19:43:16

mtllib 4.mtl

#
# object Object082
#

v  0.0111 0.5683 -0.0343
v  -2.7426 -0.1618 0.0128
v  -2.3509 -0.1595 1.5867
v  0.0118 0.4093 1.9710
v  0.0264 -0.1033 -3.9610
v  -1.1397 -0.1261 -2.9627
v  0.0156 0.4206 -2.0405
v  -2.1872 -0.1479 -1.5696
v  -1.4859 -0.1477 2.6562
v  0.0192 -0.1249 3.7540
v  2.3934 -0.0782 1.5913
v  2.7881 -0.0671 0.0183
v  1.1907 -0.0862 -2.9604
v  2.2356 -0.0721 -1.5653
v  1.5264 -0.0961 2.6592
# 15 vertices

vn -0.0171 0.9999 0.0019
vn -0.2564 0.9666 -0.0063
vn -0.2480 0.9638 0.0983
vn -0.0170 0.9841 0.1767
vn -0.0163 0.9646 -0.2632
vn -0.2628 0.9378 -0.2267
vn -0.0167 0.9864 -0.1635
vn -0.2712 0.9556 -0.1150
vn -0.2448 0.9418 0.2304
vn -0.0167 0.9578 0.2871
vn 0.2147 0.9717 0.0988
vn 0.2231 0.9748 -0.0059
vn 0.2310 0.9463 -0.2262
vn 0.2385 0.9644 -0.1145
vn 0.2120 0.9496 0.2308
# 15 vertex normals

vt 0.4626 0.3218 0.0000
vt 0.6854 0.3243 0.0000
vt 0.6544 0.4514 0.0000
vt 0.4639 0.4763 0.0000
vt 0.4616 0.0121 0.0000
vt 0.5564 0.0894 0.0000
vt 0.4610 0.1670 0.0000
vt 0.6395 0.1991 0.0000
vt 0.5844 0.5372 0.0000
vt 0.4618 0.6212 0.0000
vt 0.2733 0.4519 0.0000
vt 0.2398 0.3278 0.0000
vt 0.3664 0.0894 0.0000
vt 0.2828 0.2004 0.0000
vt 0.3420 0.5352 0.0000
# 15 texture coords

o Object082
g Object082
usemtl Material__75
s 1
f 1/1/1 2/2/2 3/3/3 4/4/4 
f 5/5/5 6/6/6 7/7/7 
f 8/8/8 2/2/2 1/1/1 7/7/7 
f 3/3/3 9/9/9 4/4/4 
f 6/6/6 8/8/8 7/7/7 
f 9/9/9 10/10/10 4/4/4 
f 1/1/1 4/4/4 11/11/11 12/12/12 
f 5/5/5 7/7/7 13/13/13 
f 14/14/14 7/7/7 1/1/1 12/12/12 
f 11/11/11 4/4/4 15/15/15 
f 13/13/13 7/7/7 14/14/14 
f 15/15/15 4/4/4 10/10/10 
# 4 polygons - 8 triangles

