# 3ds Max Wavefront OBJ Exporter v0.99 - (c)2007 guruware
# File Created: 13.08.2021 18:27:52

mtllib Object035.mtl

#
# object Object035
#

v  5.2070 -7.9485 7.7116
v  6.9972 -8.5027 4.7428
v  8.3600 -7.6317 5.9166
v  7.2552 -6.9117 8.6465
v  1.0680 -8.9427 5.2671
v  2.8690 -9.0524 4.6987
v  3.1179 -8.6625 6.5848
v  4.9984 -8.9341 4.4436
v  8.8899 -6.7596 7.2700
v  9.0250 -5.5755 9.2321
v  5.2241 -5.4092 10.3223
v  3.3414 -5.9117 9.8788
v  1.3286 -7.9607 6.8628
v  2.0749 -6.8621 8.5508
v  6.8988 -5.3484 10.0674
# 15 vertices

vn 0.1076 -0.8547 0.5078
vn 0.2264 -0.9237 0.3089
vn 0.3092 -0.8812 0.3576
vn 0.2523 -0.7798 0.5730
vn -0.1181 -0.9178 0.3790
vn 0.0428 -0.9795 0.1969
vn -0.0323 -0.9014 0.4318
vn 0.1424 -0.9586 0.2467
vn 0.4159 -0.8148 0.4039
vn 0.3419 -0.7184 0.6058
vn 0.0610 -0.7053 0.7063
vn -0.0308 -0.7414 0.6703
vn -0.2222 -0.7918 0.5690
vn -0.1310 -0.7648 0.6308
vn 0.1708 -0.6411 0.7482
# 15 vertex normals

vt 0.4626 0.3218 0.0000
vt 0.6854 0.3243 0.0000
vt 0.6544 0.4514 0.0000
vt 0.4639 0.4763 0.0000
vt 0.4616 0.0121 0.0000
vt 0.5564 0.0894 0.0000
vt 0.4610 0.1670 0.0000
vt 0.6395 0.1991 0.0000
vt 0.5844 0.5372 0.0000
vt 0.4618 0.6212 0.0000
vt 0.2733 0.4519 0.0000
vt 0.2398 0.3278 0.0000
vt 0.3664 0.0894 0.0000
vt 0.2828 0.2004 0.0000
vt 0.3420 0.5352 0.0000
# 15 texture coords

o Object035
g Object035
usemtl Material__68
s 1
f 1/1/1 2/2/2 3/3/3 4/4/4 
f 5/5/5 6/6/6 7/7/7 
f 8/8/8 2/2/2 1/1/1 7/7/7 
f 3/3/3 9/9/9 4/4/4 
f 6/6/6 8/8/8 7/7/7 
f 9/9/9 10/10/10 4/4/4 
f 1/1/1 4/4/4 11/11/11 12/12/12 
f 5/5/5 7/7/7 13/13/13 
f 14/14/14 7/7/7 1/1/1 12/12/12 
f 11/11/11 4/4/4 15/15/15 
f 13/13/13 7/7/7 14/14/14 
f 15/15/15 4/4/4 10/10/10 
# 4 polygons - 8 triangles

