# 3ds Max Wavefront OBJ Exporter v0.99 - (c)2007 guruware
# File Created: 13.08.2021 18:27:53

mtllib Object037.mtl

#
# object Object037
#

v  -1.7839 -12.6605 5.1154
v  -4.0375 -10.8830 7.1372
v  -5.1595 -12.3897 6.4556
v  -3.6310 -14.2283 4.5916
v  1.2830 -8.8363 5.3691
v  -0.3650 -9.1304 6.2502
v  -0.1077 -10.8567 5.3985
v  -2.2810 -9.8121 6.9413
v  -5.5258 -13.6937 5.4364
v  -5.4931 -15.3207 3.8172
v  -2.0236 -14.6123 2.0499
v  -0.3817 -13.4741 2.0012
v  1.1755 -10.2221 4.0860
v  0.6425 -11.8840 2.8341
v  -3.5347 -15.1049 2.6391
# 15 vertices

vn 0.4526 -0.6241 0.6369
vn 0.3164 -0.5093 0.8003
vn 0.2451 -0.5822 0.7752
vn 0.3210 -0.7338 0.5987
vn 0.6252 -0.4208 0.6573
vn 0.4563 -0.3381 0.8231
vn 0.5641 -0.5026 0.6551
vn 0.3807 -0.4226 0.8225
vn 0.1427 -0.6599 0.7377
vn 0.2306 -0.7929 0.5641
vn 0.4933 -0.7581 0.4265
vn 0.5736 -0.6916 0.4390
vn 0.7212 -0.5258 0.4509
vn 0.6542 -0.6164 0.4383
vn 0.3878 -0.8336 0.3934
# 15 vertex normals

vt 0.4626 0.3218 0.0000
vt 0.6854 0.3243 0.0000
vt 0.6544 0.4514 0.0000
vt 0.4639 0.4763 0.0000
vt 0.4616 0.0121 0.0000
vt 0.5564 0.0894 0.0000
vt 0.4610 0.1670 0.0000
vt 0.6395 0.1991 0.0000
vt 0.5844 0.5372 0.0000
vt 0.4618 0.6212 0.0000
vt 0.2733 0.4519 0.0000
vt 0.2398 0.3278 0.0000
vt 0.3664 0.0894 0.0000
vt 0.2828 0.2004 0.0000
vt 0.3420 0.5352 0.0000
# 15 texture coords

o Object037
g Object037
usemtl Material__68
s 1
f 1/1/1 2/2/2 3/3/3 4/4/4 
f 5/5/5 6/6/6 7/7/7 
f 8/8/8 2/2/2 1/1/1 7/7/7 
f 3/3/3 9/9/9 4/4/4 
f 6/6/6 8/8/8 7/7/7 
f 9/9/9 10/10/10 4/4/4 
f 1/1/1 4/4/4 11/11/11 12/12/12 
f 5/5/5 7/7/7 13/13/13 
f 14/14/14 7/7/7 1/1/1 12/12/12 
f 11/11/11 4/4/4 15/15/15 
f 13/13/13 7/7/7 14/14/14 
f 15/15/15 4/4/4 10/10/10 
# 4 polygons - 8 triangles

