# 3ds Max Wavefront OBJ Exporter v0.99 - (c)2007 guruware
# File Created: 13.08.2021 18:27:31

mtllib Object007.mtl

#
# object Object007
#

v  -12.7056 -8.3518 3.4761
v  -12.4347 -8.5781 2.7762
v  -12.0671 -8.6925 3.1750
v  -11.9617 -8.4910 3.6805
v  -12.1804 -8.0917 3.9966
v  -12.5949 -7.7284 3.9382
v  -12.9625 -7.6140 3.5395
v  -13.0679 -7.8155 3.0340
v  -12.8492 -8.2148 2.7178
v  -11.2608 -6.8478 2.5757
v  -10.3414 -5.8579 2.0084
v  -11.5512 -7.8105 2.9716
v  -11.8385 -7.7799 2.5616
v  -10.3405 -5.8571 2.0113
v  -11.9493 -7.1927 3.3647
v  -11.5810 -7.5325 3.3881
v  -10.3430 -5.8555 2.0099
v  -12.1877 -7.4217 2.5996
v  -12.2686 -7.1125 2.9862
v  -13.0189 -7.7254 2.2349
v  -11.3805 -8.7260 3.1925
v  -12.4053 -7.1358 4.2043
v  -11.4346 -8.0145 4.2941
v  -13.2541 -6.9033 3.2306
v  -12.1160 -8.6693 2.1070
v  -11.3371 -7.0604 2.4514
v  -11.3891 -6.7847 2.8285
v  -9.8705 -5.2039 1.8820
v  -9.8185 -5.4796 1.5050
v  -8.9563 -4.1920 1.3752
v  -7.5170 -2.3342 0.8539
v  -7.3435 -2.4526 0.4334
v  -8.8052 -4.3447 0.9571
v  -6.3978 -0.5236 0.8310
v  -6.2033 -0.6068 0.4113
v  -11.6939 -7.6622 2.9034
v  -12.0841 -7.4239 2.6753
v  -10.4333 -5.7055 1.6465
v  -10.0431 -5.9438 1.8746
v  -9.3856 -4.5386 1.0732
v  -7.8088 -2.5004 0.5052
v  -7.4186 -2.7387 0.7333
v  -8.9954 -4.7769 1.3013
v  -6.5808 -0.5130 0.4808
v  -6.1906 -0.7513 0.7088
# 45 vertices

vn -0.6360 -0.6621 0.3964
vn -0.1191 -0.7813 -0.6127
vn 0.3564 -0.9293 -0.0969
vn 0.4926 -0.6687 0.5569
vn 0.2098 -0.1522 0.9658
vn -0.3264 0.3176 0.8903
vn -0.8018 0.4656 0.3745
vn -0.9381 0.2050 -0.2793
vn -0.6552 -0.3115 -0.6882
vn 0.6360 0.6621 -0.3964
vn 0.3198 -0.3267 -0.8894
vn 0.9522 -0.1891 -0.2400
vn 0.4856 -0.0407 -0.8733
vn 0.7863 0.1204 0.6060
vn 0.2755 0.8608 0.4280
vn 0.8711 0.3297 0.3640
vn -0.4580 0.8807 -0.1210
vn -0.1296 0.4715 -0.8723
vn -0.1583 0.9584 -0.2376
vn -0.7530 -0.0689 -0.6544
vn 0.5224 -0.8478 0.0910
vn -0.2753 0.3901 0.8787
vn 0.4449 -0.2588 0.8574
vn -0.8429 0.5277 0.1046
vn -0.0374 -0.7222 -0.6907
vn -0.7637 0.4664 -0.4464
vn 0.1107 -0.5866 -0.8023
vn 0.1313 -0.5648 -0.8147
vn 0.1313 -0.5647 -0.8147
vn 0.1987 -0.4881 -0.8499
vn 0.3117 -0.3391 -0.8876
vn 0.3748 -0.2426 -0.8948
# 32 vertex normals

vt 0.1388 0.1376 0.0000
vt 0.1388 0.2623 0.0000
vt 0.0506 0.2258 0.0000
vt 0.0141 0.1376 0.0000
vt 0.0506 0.0495 0.0000
vt 0.1388 0.0129 0.0000
vt 0.2270 0.0495 0.0000
vt 0.2635 0.1376 0.0000
vt 0.2270 0.2258 0.0000
vt 0.0971 0.4222 0.0000
vt 0.0971 0.3393 0.0000
vt 0.1557 0.3979 0.0000
vt 0.1800 0.3393 0.0000
vt 0.1557 0.2807 0.0000
vt 0.0971 0.2564 0.0000
vt 0.0384 0.2807 0.0000
vt 0.0141 0.3393 0.0000
vt 0.0384 0.3979 0.0000
vt 0.3988 0.8000 0.0000
vt 0.5567 0.7173 0.0000
vt 0.5714 0.7649 0.0000
vt 0.7274 0.3411 0.0000
vt 0.7201 0.5192 0.0000
vt 0.6715 0.5082 0.0000
vt 0.9605 0.8552 0.0000
vt 0.8100 0.7598 0.0000
vt 0.8438 0.7232 0.0000
vt 0.7650 0.7227 0.0000
vt 0.6113 0.6969 0.0000
vt 0.7105 0.5767 0.0000
vt 0.5366 0.6716 0.0000
vt 0.6034 0.5894 0.0000
vt 0.7697 0.5247 0.0000
vt 0.8075 0.6236 0.0000
vt 0.7804 0.8000 0.0000
vt 0.6758 0.7833 0.0000
vt 0.3832 0.7583 0.0000
vt 0.7714 0.3485 0.0000
vt 0.9322 0.8895 0.0000
vt 0.9456 0.7001 0.0000
vt 0.8776 0.7000 0.0000
vt 0.8784 0.3548 0.0000
vt 0.9464 0.3549 0.0000
vt 0.8792 0.0096 0.0000
vt 0.9471 0.0098 0.0000
# 45 texture coords

o Object007
g Object007
usemtl Material__52
s 1
f 1/1/1 2/2/2 3/3/3 
f 1/1/1 3/3/3 4/4/4 
f 1/1/1 4/4/4 5/5/5 
f 1/1/1 5/5/5 6/6/6 
f 1/1/1 6/6/6 7/7/7 
f 1/1/1 7/7/7 8/8/8 
f 1/1/1 8/8/8 9/9/9 
f 1/1/1 9/9/9 2/2/2 
f 2/10/2 10/11/10 3/12/3 
f 3/12/3 10/11/10 4/13/4 
f 4/13/4 10/11/10 5/14/5 
f 5/14/5 10/11/10 6/15/6 
f 6/15/6 10/11/10 7/16/7 
f 7/16/7 10/11/10 8/17/8 
f 8/17/8 10/11/10 9/18/9 
f 9/18/9 10/11/10 2/10/2 
s 8
f 11/19/11 12/20/12 13/21/13 
f 14/22/14 15/23/15 16/24/16 
f 17/25/17 18/26/18 19/27/19 
s 1
f 20/28/20 21/29/21 22/30/22 
s 8
f 16/31/16 23/32/23 21/29/21 12/20/12 
f 19/33/19 24/34/24 22/30/22 15/23/15 
f 13/35/13 25/36/25 20/28/20 18/26/18 
s 1
f 21/29/21 23/32/23 22/30/22 
f 20/28/20 25/36/25 21/29/21 
f 22/30/22 24/34/24 20/28/20 
s 8
f 21/29/21 25/36/25 13/21/13 12/20/12 
f 22/30/22 23/32/23 16/24/16 15/23/15 
f 20/28/20 24/34/24 19/27/19 18/26/18 
f 14/37/14 16/31/16 12/20/12 
f 11/19/11 14/37/14 12/20/12 
f 17/38/17 19/33/19 15/23/15 
f 14/22/14 17/38/17 15/23/15 
f 11/39/11 13/35/13 18/26/18 
f 17/25/17 11/39/11 18/26/18 
s 1
f 26/40/26 27/41/26 28/42/26 29/43/26 
f 30/41/26 31/42/26 32/43/26 33/40/26 
f 28/42/26 30/44/26 33/45/26 29/43/26 
f 31/42/26 34/44/26 35/45/26 32/43/26 
f 36/40/27 37/41/27 38/42/28 39/43/29 
f 40/41/30 41/42/31 42/43/31 43/40/30 
f 38/42/28 40/44/30 43/45/30 39/43/29 
f 41/42/31 44/44/32 45/45/32 42/43/31 
# 14 polygons - 29 triangles

