# 3ds Max Wavefront OBJ Exporter v0.99 - (c)2007 guruware
# File Created: 13.08.2021 18:28:21

mtllib Object079.mtl

#
# object Object079
#

v  -20.8711 5.8791 -7.5937
v  -19.1344 8.3109 -9.4366
v  -19.9138 7.1545 -10.8680
v  -21.5133 4.8352 -9.7483
v  -18.5277 7.4219 -3.5659
v  -18.5097 8.1221 -5.3231
v  -19.8898 6.7670 -5.4979
v  -18.6946 8.5115 -7.4273
v  -20.6603 5.7617 -11.4814
v  -21.6501 3.7067 -11.7403
v  -21.6339 2.3440 -8.0247
v  -21.1397 2.7030 -6.1219
v  -19.3546 5.7591 -3.9265
v  -20.2982 4.0270 -4.7766
v  -21.7525 2.7074 -9.6761
# 15 vertices

vn -0.8972 0.4131 0.1560
vn -0.7979 0.6014 0.0417
vn -0.8323 0.5525 -0.0446
vn -0.9410 0.3384 0.0033
vn -0.7779 0.5018 0.3783
vn -0.6972 0.6813 0.2230
vn -0.8304 0.4719 0.2960
vn -0.7479 0.6517 0.1260
vn -0.8572 0.4895 -0.1602
vn -0.9539 0.2845 -0.0957
vn -0.9685 0.1717 0.1804
vn -0.9390 0.2068 0.2749
vn -0.8425 0.2749 0.4632
vn -0.8979 0.2323 0.3739
vn -0.9916 0.1136 0.0620
# 15 vertex normals

vt 0.4626 0.3218 0.0000
vt 0.6854 0.3243 0.0000
vt 0.6544 0.4514 0.0000
vt 0.4639 0.4763 0.0000
vt 0.4616 0.0121 0.0000
vt 0.5564 0.0894 0.0000
vt 0.4610 0.1670 0.0000
vt 0.6395 0.1991 0.0000
vt 0.5844 0.5372 0.0000
vt 0.4618 0.6212 0.0000
vt 0.2733 0.4519 0.0000
vt 0.2398 0.3278 0.0000
vt 0.3664 0.0894 0.0000
vt 0.2828 0.2004 0.0000
vt 0.3420 0.5352 0.0000
# 15 texture coords

o Object079
g Object079
usemtl Material__54
s 1
f 1/1/1 2/2/2 3/3/3 4/4/4 
f 5/5/5 6/6/6 7/7/7 
f 8/8/8 2/2/2 1/1/1 7/7/7 
f 3/3/3 9/9/9 4/4/4 
f 6/6/6 8/8/8 7/7/7 
f 9/9/9 10/10/10 4/4/4 
f 1/1/1 4/4/4 11/11/11 12/12/12 
f 5/5/5 7/7/7 13/13/13 
f 14/14/14 7/7/7 1/1/1 12/12/12 
f 11/11/11 4/4/4 15/15/15 
f 13/13/13 7/7/7 14/14/14 
f 15/15/15 4/4/4 10/10/10 
# 4 polygons - 8 triangles

