# 3ds Max Wavefront OBJ Exporter v0.99 - (c)2007 guruware
# File Created: 13.08.2021 18:27:37

mtllib Object015.mtl

#
# object Object015
#

v  -1.2912 18.2534 -1.5914
v  -1.6341 17.9483 -2.3042
v  -2.0390 17.9597 -1.8622
v  -2.0130 17.9532 -1.2633
v  -1.5715 17.9327 -0.8584
v  -0.9730 17.9102 -0.8845
v  -0.5681 17.8988 -1.3265
v  -0.5941 17.9052 -1.9254
v  -1.0356 17.9257 -2.3304
v  -1.3847 15.7984 -1.6137
v  -1.4216 14.2141 -1.6107
v  -1.8382 16.8754 -1.6302
v  -1.5574 16.8690 -2.0943
v  -1.4219 14.2141 -1.6072
v  -1.1005 16.8426 -1.1132
v  -1.6425 16.8634 -1.1243
v  -1.4187 14.2140 -1.6086
v  -1.0217 16.8478 -2.0111
v  -0.7605 16.8335 -1.5359
v  -0.5279 17.4684 -2.6764
v  -2.6296 17.5395 -1.6958
v  -0.7307 17.4551 -0.3651
v  -2.1491 17.5091 -0.3604
v  0.1849 17.4301 -1.4495
v  -1.9239 17.5239 -2.9273
v  -1.4632 15.9549 -1.8307
v  -1.2487 15.9426 -1.3701
v  -1.3470 13.3622 -1.3935
v  -1.5615 13.3745 -1.8542
v  -1.3676 11.7904 -1.3237
v  -1.2306 9.2349 -0.8446
v  -1.4332 9.0315 -1.2641
v  -1.5758 11.6283 -1.7582
v  -0.8896 7.1361 0.0382
v  -1.0851 6.8928 -0.3631
v  -1.5862 15.9565 -1.4930
v  -1.1257 15.9409 -1.7078
v  -1.2240 13.3605 -1.7313
v  -1.6845 13.3761 -1.5164
v  -1.2415 11.7015 -1.6484
v  -1.1016 9.1254 -1.1618
v  -1.5621 9.1410 -0.9470
v  -1.7019 11.7171 -1.4335
v  -0.7572 7.0067 -0.2699
v  -1.2176 7.0223 -0.0550
# 45 vertices

vn 0.0381 0.9992 0.0091
vn -0.3820 0.3727 -0.8457
vn -0.8661 0.3863 -0.3171
vn -0.8351 0.3786 0.3991
vn -0.3071 0.3541 0.8834
vn 0.4087 0.3271 0.8521
vn 0.8928 0.3135 0.3235
vn 0.8618 0.3212 -0.3927
vn 0.3337 0.3457 -0.8770
vn -0.0381 -0.9992 -0.0091
vn -0.4093 -0.3165 -0.8558
vn -0.8360 -0.5434 -0.0764
vn -0.3523 -0.6087 -0.7109
vn -0.5522 -0.3258 0.7674
vn 0.3232 -0.5950 0.7359
vn -0.4701 -0.6164 0.6317
vn 0.9233 -0.3759 0.0783
vn 0.4470 -0.5868 -0.6751
vn 0.7507 -0.6577 0.0621
vn 0.5630 0.2510 -0.7874
vn -0.9497 0.3022 -0.0816
vn 0.4170 0.2415 0.8762
vn -0.5496 0.2420 0.7996
vn 0.9779 0.1903 0.0869
vn -0.4022 0.2517 -0.8803
vn 0.9058 -0.0307 -0.4227
vn -0.4221 0.0243 -0.9062
vn -0.4231 -0.0082 -0.9061
vn -0.4232 -0.1159 -0.8986
vn -0.4115 -0.3023 -0.8598
vn -0.3970 -0.4102 -0.8211
# 31 vertex normals

vt 0.1388 0.1376 0.0000
vt 0.1388 0.2623 0.0000
vt 0.0506 0.2258 0.0000
vt 0.0141 0.1376 0.0000
vt 0.0506 0.0495 0.0000
vt 0.1388 0.0129 0.0000
vt 0.2270 0.0495 0.0000
vt 0.2635 0.1376 0.0000
vt 0.2270 0.2258 0.0000
vt 0.0971 0.4222 0.0000
vt 0.0971 0.3393 0.0000
vt 0.1557 0.3979 0.0000
vt 0.1800 0.3393 0.0000
vt 0.1557 0.2807 0.0000
vt 0.0971 0.2564 0.0000
vt 0.0384 0.2807 0.0000
vt 0.0141 0.3393 0.0000
vt 0.0384 0.3979 0.0000
vt 0.3988 0.8000 0.0000
vt 0.5567 0.7173 0.0000
vt 0.5714 0.7649 0.0000
vt 0.7274 0.3411 0.0000
vt 0.7201 0.5192 0.0000
vt 0.6715 0.5082 0.0000
vt 0.9605 0.8552 0.0000
vt 0.8100 0.7598 0.0000
vt 0.8438 0.7232 0.0000
vt 0.7650 0.7227 0.0000
vt 0.6113 0.6969 0.0000
vt 0.7105 0.5767 0.0000
vt 0.5366 0.6716 0.0000
vt 0.6034 0.5894 0.0000
vt 0.7697 0.5247 0.0000
vt 0.8075 0.6236 0.0000
vt 0.7804 0.8000 0.0000
vt 0.6758 0.7833 0.0000
vt 0.3832 0.7583 0.0000
vt 0.7714 0.3485 0.0000
vt 0.9322 0.8895 0.0000
vt 0.9456 0.7001 0.0000
vt 0.8776 0.7000 0.0000
vt 0.8784 0.3548 0.0000
vt 0.9464 0.3549 0.0000
vt 0.8792 0.0096 0.0000
vt 0.9471 0.0098 0.0000
# 45 texture coords

o Object015
g Object015
usemtl Material__59
s 1
f 1/1/1 2/2/2 3/3/3 
f 1/1/1 3/3/3 4/4/4 
f 1/1/1 4/4/4 5/5/5 
f 1/1/1 5/5/5 6/6/6 
f 1/1/1 6/6/6 7/7/7 
f 1/1/1 7/7/7 8/8/8 
f 1/1/1 8/8/8 9/9/9 
f 1/1/1 9/9/9 2/2/2 
f 2/10/2 10/11/10 3/12/3 
f 3/12/3 10/11/10 4/13/4 
f 4/13/4 10/11/10 5/14/5 
f 5/14/5 10/11/10 6/15/6 
f 6/15/6 10/11/10 7/16/7 
f 7/16/7 10/11/10 8/17/8 
f 8/17/8 10/11/10 9/18/9 
f 9/18/9 10/11/10 2/10/2 
s 8
f 11/19/11 12/20/12 13/21/13 
f 14/22/14 15/23/15 16/24/16 
f 17/25/17 18/26/18 19/27/19 
s 1
f 20/28/20 21/29/21 22/30/22 
s 8
f 16/31/16 23/32/23 21/29/21 12/20/12 
f 19/33/19 24/34/24 22/30/22 15/23/15 
f 13/35/13 25/36/25 20/28/20 18/26/18 
s 1
f 21/29/21 23/32/23 22/30/22 
f 20/28/20 25/36/25 21/29/21 
f 22/30/22 24/34/24 20/28/20 
s 8
f 21/29/21 25/36/25 13/21/13 12/20/12 
f 22/30/22 23/32/23 16/24/16 15/23/15 
f 20/28/20 24/34/24 19/27/19 18/26/18 
f 14/37/14 16/31/16 12/20/12 
f 11/19/11 14/37/14 12/20/12 
f 17/38/17 19/33/19 15/23/15 
f 14/22/14 17/38/17 15/23/15 
f 11/39/11 13/35/13 18/26/18 
f 17/25/17 11/39/11 18/26/18 
s 1
f 26/40/26 27/41/26 28/42/26 29/43/26 
f 30/41/26 31/42/26 32/43/26 33/40/26 
f 28/42/26 30/44/26 33/45/26 29/43/26 
f 31/42/26 34/44/26 35/45/26 32/43/26 
f 36/40/27 37/41/27 38/42/28 39/43/28 
f 40/41/29 41/42/30 42/43/30 43/40/29 
f 38/42/28 40/44/29 43/45/29 39/43/28 
f 41/42/30 44/44/31 45/45/31 42/43/30 
# 14 polygons - 29 triangles

