# 3ds Max Wavefront OBJ Exporter v0.99 - (c)2007 guruware
# File Created: 13.08.2021 18:28:02

mtllib Object050.mtl

#
# object Object050
#

v  0.1216 10.6497 8.7297
v  1.6884 12.1362 5.9618
v  0.2436 13.4458 6.3993
v  -1.4487 12.5673 8.7564
v  2.5494 6.5016 7.7319
v  2.6820 8.2086 6.9273
v  1.4906 8.6086 8.4079
v  2.4371 10.2314 6.2481
v  -1.1823 13.9649 7.1546
v  -3.1036 14.1154 8.4021
v  -3.2780 10.5117 10.0287
v  -2.4170 8.7157 10.1929
v  0.9521 6.7673 8.7102
v  -0.8459 7.4961 9.6316
v  -3.4183 12.1020 9.4591
# 15 vertices

vn 0.5331 0.3260 0.7808
vn 0.6667 0.4304 0.6085
vn 0.5979 0.5092 0.6191
vn 0.4210 0.4610 0.7812
vn 0.6715 0.1019 0.7340
vn 0.7864 0.2481 0.5658
vn 0.6240 0.1890 0.7582
vn 0.7345 0.3474 0.5829
vn 0.5061 0.6064 0.6133
vn 0.3415 0.5409 0.7686
vn 0.3192 0.2769 0.9063
vn 0.3778 0.1897 0.9062
vn 0.4889 0.0002 0.8723
vn 0.4274 0.0916 0.8994
vn 0.2309 0.3771 0.8969
# 15 vertex normals

vt 0.4626 0.3218 0.0000
vt 0.6854 0.3243 0.0000
vt 0.6544 0.4514 0.0000
vt 0.4639 0.4763 0.0000
vt 0.4616 0.0121 0.0000
vt 0.5564 0.0894 0.0000
vt 0.4610 0.1670 0.0000
vt 0.6395 0.1991 0.0000
vt 0.5844 0.5372 0.0000
vt 0.4618 0.6212 0.0000
vt 0.2733 0.4519 0.0000
vt 0.2398 0.3278 0.0000
vt 0.3664 0.0894 0.0000
vt 0.2828 0.2004 0.0000
vt 0.3420 0.5352 0.0000
# 15 texture coords

o Object050
g Object050
usemtl Material__81
s 1
f 1/1/1 2/2/2 3/3/3 4/4/4 
f 5/5/5 6/6/6 7/7/7 
f 8/8/8 2/2/2 1/1/1 7/7/7 
f 3/3/3 9/9/9 4/4/4 
f 6/6/6 8/8/8 7/7/7 
f 9/9/9 10/10/10 4/4/4 
f 1/1/1 4/4/4 11/11/11 12/12/12 
f 5/5/5 7/7/7 13/13/13 
f 14/14/14 7/7/7 1/1/1 12/12/12 
f 11/11/11 4/4/4 15/15/15 
f 13/13/13 7/7/7 14/14/14 
f 15/15/15 4/4/4 10/10/10 
# 4 polygons - 8 triangles

