# 3ds Max Wavefront OBJ Exporter v0.99 - (c)2007 guruware
# File Created: 13.08.2021 18:27:33

mtllib Object010.mtl

#
# object Object010
#

v  -2.7715 2.3405 6.4163
v  -3.7912 2.6290 8.8929
v  -3.7454 3.1614 8.7991
v  -2.7702 2.3373 6.4171
v  -2.9196 2.5293 9.1000
v  -3.4004 2.2843 9.0441
v  -2.7681 2.3401 6.4171
v  -3.2389 3.3411 8.8732
v  -2.8038 3.0537 9.0229
v  -3.2477 4.2590 9.3518
v  -4.6691 2.4258 9.4023
v  -2.4255 2.1692 9.9354
v  -3.6693 1.4992 9.7979
v  -2.0907 3.5350 9.7418
v  -4.5823 3.8200 9.1498
v  -3.3271 2.8177 8.0113
v  -2.9393 2.5209 8.1525
v  -2.4053 2.0385 5.6725
v  -2.7931 2.3353 5.5312
v  -2.0097 1.6909 4.1898
v  -1.0609 0.8921 1.9006
v  -1.3679 1.1209 1.5662
v  -2.3381 1.9373 3.8901
v  0.1275 -0.0768 0.1831
v  -0.1558 0.1328 -0.1834
v  -3.2889 2.4685 8.0874
v  -2.9775 2.8701 8.0764
v  -2.4435 2.3877 5.5963
v  -2.7549 1.9861 5.6074
v  -2.0182 2.0149 4.0344
v  -1.0587 1.2073 1.7279
v  -1.3701 0.8057 1.7389
v  -2.3296 1.6133 4.0454
v  0.1416 0.2288 -0.0057
v  -0.1699 -0.1728 0.0054
v  -3.6354 3.0996 10.2906
v  -4.1658 3.4963 9.7614
v  -4.3301 2.9248 9.8372
v  -4.0481 2.4201 9.9961
v  -3.4851 2.2780 10.1450
v  -2.9708 2.5817 10.1967
v  -2.8065 3.1532 10.1209
v  -3.0884 3.6578 9.9620
v  -3.6515 3.7999 9.8131
v  -3.1273 2.6406 7.9311
# 45 vertices

vn -0.6472 0.4858 -0.5875
vn -0.6268 -0.4283 -0.6509
vn -0.4637 0.3370 -0.8194
vn -0.0702 -0.9816 -0.1778
vn 0.7429 -0.5850 -0.3255
vn 0.0138 -0.8769 -0.4804
vn 0.9281 0.3053 -0.2131
vn 0.2410 0.6908 -0.6817
vn 0.8396 0.1879 -0.5097
vn 0.0890 0.9907 0.1025
vn -0.9342 -0.3287 0.1388
vn 0.6807 -0.5134 0.5225
vn -0.1924 -0.9078 0.3728
vn 0.8407 0.4246 0.3361
vn -0.7899 0.6111 -0.0514
vn 0.6126 0.7901 -0.0218
vn -0.7628 0.5839 -0.2778
vn -0.7628 0.5839 -0.2779
vn -0.7557 0.5775 -0.3090
vn -0.7263 0.5519 -0.4096
vn -0.6540 0.4912 -0.5753
vn -0.6539 0.4912 -0.5754
vn -0.5984 0.4456 -0.6658
vn -0.2068 0.1868 0.9604
vn -0.7869 0.6123 0.0760
vn -0.9834 -0.0712 0.1667
vn -0.6463 -0.6746 0.3567
vn 0.0271 -0.8446 0.5347
vn 0.6421 -0.4815 0.5965
vn 0.8386 0.2020 0.5059
vn 0.5014 0.8055 0.3159
vn -0.1719 0.9754 0.1378
vn 0.2068 -0.1868 -0.9604
# 33 vertex normals

vt 0.3988 0.8000 0.0000
vt 0.5567 0.7173 0.0000
vt 0.5714 0.7649 0.0000
vt 0.7274 0.3411 0.0000
vt 0.7201 0.5192 0.0000
vt 0.6715 0.5082 0.0000
vt 0.9605 0.8552 0.0000
vt 0.8100 0.7598 0.0000
vt 0.8438 0.7232 0.0000
vt 0.7650 0.7227 0.0000
vt 0.6113 0.6969 0.0000
vt 0.7105 0.5767 0.0000
vt 0.5366 0.6716 0.0000
vt 0.6034 0.5894 0.0000
vt 0.7697 0.5247 0.0000
vt 0.8075 0.6236 0.0000
vt 0.7804 0.8000 0.0000
vt 0.6758 0.7833 0.0000
vt 0.3832 0.7583 0.0000
vt 0.7714 0.3485 0.0000
vt 0.9322 0.8895 0.0000
vt 0.9456 0.7001 0.0000
vt 0.8776 0.7000 0.0000
vt 0.8784 0.3548 0.0000
vt 0.9464 0.3549 0.0000
vt 0.8792 0.0096 0.0000
vt 0.9471 0.0098 0.0000
vt 0.1388 0.1376 0.0000
vt 0.1388 0.2623 0.0000
vt 0.0506 0.2258 0.0000
vt 0.0141 0.1376 0.0000
vt 0.0506 0.0495 0.0000
vt 0.1388 0.0129 0.0000
vt 0.2270 0.0495 0.0000
vt 0.2635 0.1376 0.0000
vt 0.2270 0.2258 0.0000
vt 0.0971 0.4222 0.0000
vt 0.0971 0.3393 0.0000
vt 0.1557 0.3979 0.0000
vt 0.1800 0.3393 0.0000
vt 0.1557 0.2807 0.0000
vt 0.0971 0.2564 0.0000
vt 0.0384 0.2807 0.0000
vt 0.0141 0.3393 0.0000
vt 0.0384 0.3979 0.0000
# 45 texture coords

o Object010
g Object010
usemtl Material__73
s 8
f 1/1/1 2/2/2 3/3/3 
f 4/4/4 5/5/5 6/6/6 
f 7/7/7 8/8/8 9/9/9 
s 1
f 10/10/10 11/11/11 12/12/12 
s 8
f 6/13/6 13/14/13 11/11/11 2/2/2 
f 9/15/9 14/16/14 12/12/12 5/5/5 
f 3/17/3 15/18/15 10/10/10 8/8/8 
s 1
f 11/11/11 13/14/13 12/12/12 
f 10/10/10 15/18/15 11/11/11 
f 12/12/12 14/16/14 10/10/10 
s 8
f 11/11/11 15/18/15 3/3/3 2/2/2 
f 12/12/12 13/14/13 6/6/6 5/5/5 
f 10/10/10 14/16/14 9/9/9 8/8/8 
f 4/19/4 6/13/6 2/2/2 
f 1/1/1 4/19/4 2/2/2 
f 7/20/7 9/15/9 5/5/5 
f 4/4/4 7/20/7 5/5/5 
f 1/21/1 3/17/3 8/8/8 
f 7/7/7 1/21/1 8/8/8 
s 1
f 16/22/16 17/23/16 18/24/16 19/25/16 
f 20/23/16 21/24/16 22/25/16 23/22/16 
f 18/24/16 20/26/16 23/27/16 19/25/16 
f 21/24/16 24/26/16 25/27/16 22/25/16 
f 26/22/17 27/23/18 28/24/19 29/25/19 
f 30/23/20 31/24/21 32/25/22 33/22/20 
f 28/24/19 30/26/20 33/27/20 29/25/19 
f 31/24/21 34/26/23 35/27/23 32/25/22 
f 36/28/24 37/29/25 38/30/26 
f 36/28/24 38/30/26 39/31/27 
f 36/28/24 39/31/27 40/32/28 
f 36/28/24 40/32/28 41/33/29 
f 36/28/24 41/33/29 42/34/30 
f 36/28/24 42/34/30 43/35/31 
f 36/28/24 43/35/31 44/36/32 
f 36/28/24 44/36/32 37/29/25 
f 37/37/25 45/38/33 38/39/26 
f 38/39/26 45/38/33 39/40/27 
f 39/40/27 45/38/33 40/41/28 
f 40/41/28 45/38/33 41/42/29 
f 41/42/29 45/38/33 42/43/30 
f 42/43/30 45/38/33 43/44/31 
f 43/44/31 45/38/33 44/45/32 
f 44/45/32 45/38/33 37/37/25 
# 14 polygons - 29 triangles

