# 3ds Max Wavefront OBJ Exporter v0.99 - (c)2007 guruware
# File Created: 13.08.2021 18:28:41

mtllib Object109.mtl

#
# object Object109
#

v  -11.0350 17.6582 2.0111
v  -12.8018 15.5590 4.2015
v  -11.6790 16.6436 5.4491
v  -9.9064 18.6266 3.9941
v  -12.5033 14.8177 -1.7133
v  -12.9706 14.7539 0.1186
v  -11.9327 16.3947 0.0767
v  -13.1392 14.9730 2.2487
v  -10.4166 17.6990 5.8566
v  -8.6063 19.1102 5.8207
v  -7.7208 19.1675 1.9638
v  -8.1875 18.5013 0.1384
v  -11.0263 15.9936 -1.5934
v  -9.4493 17.3259 -1.0005
v  -7.9035 19.3015 3.6437
# 15 vertices

vn -0.6116 0.7805 -0.1294
vn -0.7594 0.6506 0.0110
vn -0.7091 0.6994 0.0893
vn -0.5306 0.8475 0.0111
vn -0.6983 0.6327 -0.3348
vn -0.8366 0.5252 -0.1555
vn -0.6709 0.6950 -0.2587
vn -0.8074 0.5864 -0.0646
vn -0.6398 0.7434 0.1950
vn -0.4695 0.8770 0.1020
vn -0.3958 0.8992 -0.1866
vn -0.4347 0.8576 -0.2749
vn -0.5023 0.7384 -0.4499
vn -0.4623 0.8065 -0.3686
vn -0.3305 0.9406 -0.0774
# 15 vertex normals

vt 0.4626 0.3218 0.0000
vt 0.6854 0.3243 0.0000
vt 0.6544 0.4514 0.0000
vt 0.4639 0.4763 0.0000
vt 0.4616 0.0121 0.0000
vt 0.5564 0.0894 0.0000
vt 0.4610 0.1670 0.0000
vt 0.6395 0.1991 0.0000
vt 0.5844 0.5372 0.0000
vt 0.4618 0.6212 0.0000
vt 0.2733 0.4519 0.0000
vt 0.2398 0.3278 0.0000
vt 0.3664 0.0894 0.0000
vt 0.2828 0.2004 0.0000
vt 0.3420 0.5352 0.0000
# 15 texture coords

o Object109
g Object109
usemtl Material__84
s 1
f 1/1/1 2/2/2 3/3/3 4/4/4 
f 5/5/5 6/6/6 7/7/7 
f 8/8/8 2/2/2 1/1/1 7/7/7 
f 3/3/3 9/9/9 4/4/4 
f 6/6/6 8/8/8 7/7/7 
f 9/9/9 10/10/10 4/4/4 
f 1/1/1 4/4/4 11/11/11 12/12/12 
f 5/5/5 7/7/7 13/13/13 
f 14/14/14 7/7/7 1/1/1 12/12/12 
f 11/11/11 4/4/4 15/15/15 
f 13/13/13 7/7/7 14/14/14 
f 15/15/15 4/4/4 10/10/10 
# 4 polygons - 8 triangles

