# 3ds Max Wavefront OBJ Exporter v0.99 - (c)2007 guruware
# File Created: 13.08.2021 18:28:43

mtllib Object112.mtl

#
# object Object112
#

v  -15.8508 5.0427 1.8937
v  -16.3381 5.5886 -0.8833
v  -17.5698 4.5859 -0.4961
v  -17.4874 3.8462 1.8694
v  -12.1922 6.6418 1.4698
v  -13.3634 6.5623 0.4617
v  -14.0718 6.0076 1.7709
v  -14.8380 6.2233 -0.4312
v  -18.2417 3.6689 0.2976
v  -18.7612 2.4848 1.6594
v  -16.2657 2.7169 3.7085
v  -14.8180 3.4098 4.0183
v  -12.7229 5.6443 2.5270
v  -13.6224 4.4810 3.4885
v  -17.4138 2.4822 2.9673
# 15 vertices

vn -0.4597 0.7498 0.4759
vn -0.5049 0.8259 0.2509
vn -0.5899 0.7646 0.2596
vn -0.6004 0.6449 0.4729
vn -0.2192 0.8645 0.4523
vn -0.3074 0.9245 0.2254
vn -0.3136 0.8278 0.4652
vn -0.4123 0.8816 0.2298
vn -0.6907 0.6767 0.2551
vn -0.6817 0.5664 0.4632
vn -0.4637 0.5838 0.6665
vn -0.3742 0.6385 0.6726
vn -0.1727 0.7315 0.6596
vn -0.2733 0.6824 0.6780
vn -0.5661 0.4981 0.6568
# 15 vertex normals

vt 0.4626 0.3218 0.0000
vt 0.6854 0.3243 0.0000
vt 0.6544 0.4514 0.0000
vt 0.4639 0.4763 0.0000
vt 0.4616 0.0121 0.0000
vt 0.5564 0.0894 0.0000
vt 0.4610 0.1670 0.0000
vt 0.6395 0.1991 0.0000
vt 0.5844 0.5372 0.0000
vt 0.4618 0.6212 0.0000
vt 0.2733 0.4519 0.0000
vt 0.2398 0.3278 0.0000
vt 0.3664 0.0894 0.0000
vt 0.2828 0.2004 0.0000
vt 0.3420 0.5352 0.0000
# 15 texture coords

o Object112
g Object112
usemtl Material__74
s 1
f 1/1/1 2/2/2 3/3/3 4/4/4 
f 5/5/5 6/6/6 7/7/7 
f 8/8/8 2/2/2 1/1/1 7/7/7 
f 3/3/3 9/9/9 4/4/4 
f 6/6/6 8/8/8 7/7/7 
f 9/9/9 10/10/10 4/4/4 
f 1/1/1 4/4/4 11/11/11 12/12/12 
f 5/5/5 7/7/7 13/13/13 
f 14/14/14 7/7/7 1/1/1 12/12/12 
f 11/11/11 4/4/4 15/15/15 
f 13/13/13 7/7/7 14/14/14 
f 15/15/15 4/4/4 10/10/10 
# 4 polygons - 8 triangles

