# 3ds Max Wavefront OBJ Exporter v0.99 - (c)2007 guruware
# File Created: 13.08.2021 18:27:47

mtllib Object028.mtl

#
# object Object028
#

v  0.6455 0.1934 0.4589
v  0.0806 -3.1910 1.2023
v  1.3999 -3.2888 -0.2956
v  2.1903 -0.5511 -1.3308
v  -3.2641 1.3303 3.2008
v  -2.4222 -0.3406 2.9220
v  -1.1761 0.8381 2.0114
v  -1.2494 -2.0129 2.2578
v  2.2944 -2.6743 -1.5977
v  3.2103 -1.3414 -3.2270
v  1.3869 2.1054 -2.5508
v  0.0654 3.0974 -1.4269
v  -2.4286 2.3091 1.8142
v  -1.2616 3.0158 0.1553
v  2.2861 0.7507 -3.0296
# 15 vertices

vn 0.7316 0.2645 0.6283
vn 0.7054 0.0377 0.7078
vn 0.7747 0.0154 0.6322
vn 0.8395 0.2113 0.5005
vn 0.5248 0.3294 0.7849
vn 0.5340 0.0853 0.8412
vn 0.6088 0.3073 0.7314
vn 0.6234 0.0514 0.7802
vn 0.8488 -0.0248 0.5281
vn 0.8957 0.1734 0.4095
vn 0.7737 0.4423 0.4536
vn 0.7043 0.4802 0.5228
vn 0.5329 0.5410 0.6507
vn 0.6223 0.5218 0.5836
vn 0.8478 0.3968 0.3519
# 15 vertex normals

vt 0.4626 0.3218 0.0000
vt 0.6854 0.3243 0.0000
vt 0.6544 0.4514 0.0000
vt 0.4639 0.4763 0.0000
vt 0.4616 0.0121 0.0000
vt 0.5564 0.0894 0.0000
vt 0.4610 0.1670 0.0000
vt 0.6395 0.1991 0.0000
vt 0.5844 0.5372 0.0000
vt 0.4618 0.6212 0.0000
vt 0.2733 0.4519 0.0000
vt 0.2398 0.3278 0.0000
vt 0.3664 0.0894 0.0000
vt 0.2828 0.2004 0.0000
vt 0.3420 0.5352 0.0000
# 15 texture coords

o Object028
g Object028
usemtl Material__65
s 1
f 1/1/1 2/2/2 3/3/3 4/4/4 
f 5/5/5 6/6/6 7/7/7 
f 8/8/8 2/2/2 1/1/1 7/7/7 
f 3/3/3 9/9/9 4/4/4 
f 6/6/6 8/8/8 7/7/7 
f 9/9/9 10/10/10 4/4/4 
f 1/1/1 4/4/4 11/11/11 12/12/12 
f 5/5/5 7/7/7 13/13/13 
f 14/14/14 7/7/7 1/1/1 12/12/12 
f 11/11/11 4/4/4 15/15/15 
f 13/13/13 7/7/7 14/14/14 
f 15/15/15 4/4/4 10/10/10 
# 4 polygons - 8 triangles

