# 3ds Max Wavefront OBJ Exporter v0.99 - (c)2007 guruware
# File Created: 13.08.2021 18:28:12

mtllib Object066.mtl

#
# object Object066
#

v  -13.5812 -6.3752 7.0420
v  -10.7156 -7.2312 8.3039
v  -11.4511 -6.1927 9.6435
v  -13.9766 -5.1861 8.9608
v  -12.1279 -7.8579 3.0061
v  -11.3638 -7.9503 4.5767
v  -12.9738 -7.3009 5.0354
v  -10.8019 -7.7713 6.4731
v  -12.4718 -5.1691 10.2489
v  -14.0565 -3.7907 10.5557
v  -15.5795 -3.6714 7.2306
v  -15.5284 -4.2919 5.4909
v  -13.3917 -6.7118 3.3914
v  -14.6506 -5.4208 4.2236
v  -15.0931 -3.5682 8.7169
# 15 vertices

vn -0.6070 -0.7543 0.2503
vn -0.4043 -0.8478 0.3432
vn -0.4321 -0.7934 0.4287
vn -0.6361 -0.6619 0.3966
vn -0.5269 -0.8498 0.0136
vn -0.3328 -0.9310 0.1499
vn -0.5622 -0.8203 0.1048
vn -0.3623 -0.8968 0.2539
vn -0.4502 -0.7146 0.5354
vn -0.6445 -0.5912 0.4849
vn -0.7855 -0.5776 0.2221
vn -0.7706 -0.6241 0.1291
vn -0.7100 -0.7007 -0.0706
vn -0.7517 -0.6590 0.0263
vn -0.7991 -0.5015 0.3314
# 15 vertex normals

vt 0.4626 0.3218 0.0000
vt 0.6854 0.3243 0.0000
vt 0.6544 0.4514 0.0000
vt 0.4639 0.4763 0.0000
vt 0.4616 0.0121 0.0000
vt 0.5564 0.0894 0.0000
vt 0.4610 0.1670 0.0000
vt 0.6395 0.1991 0.0000
vt 0.5844 0.5372 0.0000
vt 0.4618 0.6212 0.0000
vt 0.2733 0.4519 0.0000
vt 0.2398 0.3278 0.0000
vt 0.3664 0.0894 0.0000
vt 0.2828 0.2004 0.0000
vt 0.3420 0.5352 0.0000
# 15 texture coords

o Object066
g Object066
usemtl Material__52
s 1
f 1/1/1 2/2/2 3/3/3 4/4/4 
f 5/5/5 6/6/6 7/7/7 
f 8/8/8 2/2/2 1/1/1 7/7/7 
f 3/3/3 9/9/9 4/4/4 
f 6/6/6 8/8/8 7/7/7 
f 9/9/9 10/10/10 4/4/4 
f 1/1/1 4/4/4 11/11/11 12/12/12 
f 5/5/5 7/7/7 13/13/13 
f 14/14/14 7/7/7 1/1/1 12/12/12 
f 11/11/11 4/4/4 15/15/15 
f 13/13/13 7/7/7 14/14/14 
f 15/15/15 4/4/4 10/10/10 
# 4 polygons - 8 triangles

