# 3ds Max Wavefront OBJ Exporter v0.99 - (c)2007 guruware
# File Created: 13.08.2021 18:28:23

mtllib Object083.mtl

#
# object Object083
#

v  4.7274 1.8087 9.4354
v  6.6009 0.4930 7.7391
v  7.3830 1.8565 8.1386
v  6.0520 3.3126 9.6089
v  1.9465 -0.7647 8.2049
v  3.4512 -0.7223 7.9033
v  3.3438 0.4200 8.9838
v  5.1376 -0.3260 7.7099
v  7.4876 3.1312 8.6451
v  7.1549 4.7984 9.4072
v  4.0036 4.6180 10.0009
v  2.6613 3.7123 9.9101
v  1.7912 0.6342 8.8181
v  1.9871 2.2484 9.4460
v  5.3420 4.8846 9.8276
# 15 vertices

vn 0.1917 -0.3766 0.9063
vn 0.3515 -0.5109 0.7845
vn 0.4157 -0.4295 0.8017
vn 0.3068 -0.2448 0.9197
vn 0.0059 -0.5542 0.8324
vn 0.2023 -0.6629 0.7209
vn 0.0774 -0.4906 0.8679
vn 0.2869 -0.5939 0.7517
vn 0.4986 -0.3244 0.8038
vn 0.3764 -0.1554 0.9133
vn 0.0861 -0.1602 0.9833
vn 0.0100 -0.2318 0.9727
vn -0.1494 -0.3754 0.9147
vn -0.0762 -0.2972 0.9518
vn 0.1732 -0.0585 0.9831
# 15 vertex normals

vt 0.4626 0.3218 0.0000
vt 0.6854 0.3243 0.0000
vt 0.6544 0.4514 0.0000
vt 0.4639 0.4763 0.0000
vt 0.4616 0.0121 0.0000
vt 0.5564 0.0894 0.0000
vt 0.4610 0.1670 0.0000
vt 0.6395 0.1991 0.0000
vt 0.5844 0.5372 0.0000
vt 0.4618 0.6212 0.0000
vt 0.2733 0.4519 0.0000
vt 0.2398 0.3278 0.0000
vt 0.3664 0.0894 0.0000
vt 0.2828 0.2004 0.0000
vt 0.3420 0.5352 0.0000
# 15 texture coords

o Object083
g Object083
usemtl Material__75
s 1
f 1/1/1 2/2/2 3/3/3 4/4/4 
f 5/5/5 6/6/6 7/7/7 
f 8/8/8 2/2/2 1/1/1 7/7/7 
f 3/3/3 9/9/9 4/4/4 
f 6/6/6 8/8/8 7/7/7 
f 9/9/9 10/10/10 4/4/4 
f 1/1/1 4/4/4 11/11/11 12/12/12 
f 5/5/5 7/7/7 13/13/13 
f 14/14/14 7/7/7 1/1/1 12/12/12 
f 11/11/11 4/4/4 15/15/15 
f 13/13/13 7/7/7 14/14/14 
f 15/15/15 4/4/4 10/10/10 
# 4 polygons - 8 triangles

