# 3ds Max Wavefront OBJ Exporter v0.99 - (c)2007 guruware
# File Created: 13.08.2021 18:27:48

mtllib Object030.mtl

#
# object Object030
#

v  0.6294 0.1895 0.2825
v  -1.6883 1.0058 2.7900
v  -1.1597 -0.8590 3.2764
v  0.8497 -2.0420 1.3388
v  -0.8548 4.1444 -2.2179
v  -1.3357 3.5525 -0.4867
v  0.0805 2.2925 -0.9091
v  -1.6722 2.4843 1.3461
v  -0.4549 -2.3765 3.0049
v  0.6246 -4.1919 2.1055
v  1.5786 -2.8460 -1.4920
v  1.5038 -1.3106 -2.7689
v  0.0094 2.5765 -2.8290
v  0.8805 0.6319 -3.0992
v  1.2837 -3.6381 -0.0227
# 15 vertices

vn 0.8696 0.3407 0.3574
vn 0.7306 0.4192 0.5389
vn 0.7486 0.3237 0.5787
vn 0.8835 0.1822 0.4315
vn 0.7970 0.5609 0.2240
vn 0.6676 0.6048 0.4341
vn 0.8318 0.4810 0.2772
vn 0.6971 0.5158 0.4979
vn 0.7517 0.1995 0.6286
vn 0.8781 0.0765 0.4724
vn 0.9653 0.1664 0.2013
vn 0.9553 0.2562 0.1478
vn 0.8989 0.4370 0.0313
vn 0.9359 0.3426 0.0821
vn 0.9657 0.0442 0.2560
# 15 vertex normals

vt 0.4626 0.3218 0.0000
vt 0.6854 0.3243 0.0000
vt 0.6544 0.4514 0.0000
vt 0.4639 0.4763 0.0000
vt 0.4616 0.0121 0.0000
vt 0.5564 0.0894 0.0000
vt 0.4610 0.1670 0.0000
vt 0.6395 0.1991 0.0000
vt 0.5844 0.5372 0.0000
vt 0.4618 0.6212 0.0000
vt 0.2733 0.4519 0.0000
vt 0.2398 0.3278 0.0000
vt 0.3664 0.0894 0.0000
vt 0.2828 0.2004 0.0000
vt 0.3420 0.5352 0.0000
# 15 texture coords

o Object030
g Object030
usemtl Material__65
s 1
f 1/1/1 2/2/2 3/3/3 4/4/4 
f 5/5/5 6/6/6 7/7/7 
f 8/8/8 2/2/2 1/1/1 7/7/7 
f 3/3/3 9/9/9 4/4/4 
f 6/6/6 8/8/8 7/7/7 
f 9/9/9 10/10/10 4/4/4 
f 1/1/1 4/4/4 11/11/11 12/12/12 
f 5/5/5 7/7/7 13/13/13 
f 14/14/14 7/7/7 1/1/1 12/12/12 
f 11/11/11 4/4/4 15/15/15 
f 13/13/13 7/7/7 14/14/14 
f 15/15/15 4/4/4 10/10/10 
# 4 polygons - 8 triangles

