# 3ds Max Wavefront OBJ Exporter v0.99 - (c)2007 guruware
# File Created: 13.08.2021 18:28:05

mtllib Object056.mtl

#
# object Object056
#

v  10.2275 -0.1939 4.4236
v  10.4183 -1.1076 1.6087
v  11.4809 0.2037 1.6423
v  11.5889 1.3227 3.9433
v  6.8725 -2.5889 4.8724
v  7.8713 -2.4459 3.6333
v  8.6504 -1.5317 4.7506
v  9.1320 -1.9640 2.4207
v  12.0655 1.3864 2.1987
v  12.5238 2.9009 3.3197
v  10.3949 2.5169 5.8686
v  9.1524 1.5891 6.5356
v  7.3378 -1.3096 5.7093
v  8.1196 0.1926 6.3607
v  11.3760 2.8552 4.8821
# 15 vertices

vn 0.6749 -0.5603 0.4801
vn 0.7023 -0.6617 0.2624
vn 0.7724 -0.5847 0.2481
vn 0.7877 -0.4323 0.4390
vn 0.4641 -0.7213 0.5141
vn 0.5292 -0.7993 0.2849
vn 0.5492 -0.6656 0.5054
vn 0.6218 -0.7369 0.2652
vn 0.8501 -0.4809 0.2147
vn 0.8478 -0.3422 0.4051
vn 0.6706 -0.3680 0.6441
vn 0.5969 -0.4371 0.6728
vn 0.4206 -0.5679 0.7075
vn 0.5097 -0.4981 0.7015
vn 0.7496 -0.2669 0.6057
# 15 vertex normals

vt 0.4626 0.3218 0.0000
vt 0.6854 0.3243 0.0000
vt 0.6544 0.4514 0.0000
vt 0.4639 0.4763 0.0000
vt 0.4616 0.0121 0.0000
vt 0.5564 0.0894 0.0000
vt 0.4610 0.1670 0.0000
vt 0.6395 0.1991 0.0000
vt 0.5844 0.5372 0.0000
vt 0.4618 0.6212 0.0000
vt 0.2733 0.4519 0.0000
vt 0.2398 0.3278 0.0000
vt 0.3664 0.0894 0.0000
vt 0.2828 0.2004 0.0000
vt 0.3420 0.5352 0.0000
# 15 texture coords

o Object056
g Object056
usemtl Material__80
s 1
f 1/1/1 2/2/2 3/3/3 4/4/4 
f 5/5/5 6/6/6 7/7/7 
f 8/8/8 2/2/2 1/1/1 7/7/7 
f 3/3/3 9/9/9 4/4/4 
f 6/6/6 8/8/8 7/7/7 
f 9/9/9 10/10/10 4/4/4 
f 1/1/1 4/4/4 11/11/11 12/12/12 
f 5/5/5 7/7/7 13/13/13 
f 14/14/14 7/7/7 1/1/1 12/12/12 
f 11/11/11 4/4/4 15/15/15 
f 13/13/13 7/7/7 14/14/14 
f 15/15/15 4/4/4 10/10/10 
# 4 polygons - 8 triangles

