# 3ds Max Wavefront OBJ Exporter v0.99 - (c)2007 guruware
# File Created: 13.08.2021 18:27:39

mtllib Object017.mtl

#
# object Object017
#

v  -5.2350 14.3371 7.4140
v  -5.8612 13.7764 7.3031
v  -5.4523 13.5644 7.6869
v  -4.8705 13.6685 7.7868
v  -4.4564 14.0278 7.5442
v  -4.4527 14.4318 7.1012
v  -4.8616 14.6438 6.7175
v  -5.4434 14.5396 6.6176
v  -5.8575 14.1804 6.8602
v  -4.6439 12.5727 5.8098
v  -4.2447 11.4532 4.7615
v  -4.9479 12.9929 6.8571
v  -5.3842 13.1171 6.5597
v  -4.2413 11.4535 4.7624
v  -4.4108 13.5701 6.4201
v  -4.4480 13.1992 6.8144
v  -4.2426 11.4555 4.7598
v  -5.2776 13.4941 6.1844
v  -4.8041 13.7407 6.0876
v  -6.0575 14.1718 6.1209
v  -5.2089 12.8815 7.8526
v  -3.8266 14.3673 6.7278
v  -3.8910 13.4016 7.7662
v  -4.8334 14.8345 5.8430
v  -6.3686 13.1845 7.0922
v  -4.8962 12.5924 5.9270
v  -4.4391 12.8051 5.8614
v  -3.8179 10.9506 4.1752
v  -4.2749 10.7379 4.2407
v  -3.3566 9.8614 3.1376
v  -2.2464 8.2662 1.4051
v  -2.6090 7.9192 1.3242
v  -3.7443 9.5366 3.0857
v  -0.8524 7.1914 -0.0789
v  -1.1870 6.8247 -0.1881
v  -4.5747 12.5574 6.0839
v  -4.7606 12.8401 5.7045
v  -4.1394 10.9856 4.0183
v  -3.9534 10.7029 4.3977
v  -3.6434 9.8403 2.9219
v  -2.5207 8.2341 1.1749
v  -2.3347 7.9514 1.5543
v  -3.4575 9.5577 3.3013
v  -1.1127 7.1494 -0.3232
v  -0.9267 6.8667 0.0562
# 45 vertices

vn -0.2406 0.7182 0.6530
vn -0.9264 -0.1404 0.3494
vn -0.4375 -0.3939 0.8083
vn 0.2583 -0.2694 0.9277
vn 0.7535 0.1603 0.6376
vn 0.7579 0.6433 0.1079
vn 0.2690 0.8969 -0.3510
vn -0.4268 0.7723 -0.4704
vn -0.9220 0.3427 -0.1803
vn 0.2406 -0.7182 -0.6530
vn -0.7643 -0.6369 -0.1009
vn 0.0298 -0.9782 0.2055
vn -0.5485 -0.7766 -0.3098
vn 0.8023 -0.5004 0.3253
vn 0.8737 -0.0712 -0.4812
vn 0.7474 -0.6630 0.0427
vn 0.2072 0.4059 -0.8901
vn -0.4882 -0.1905 -0.8517
vn 0.2544 0.0865 -0.9632
vn -0.8026 0.4530 -0.3880
vn -0.1918 -0.4756 0.8585
vn 0.8031 0.5938 0.0489
vn 0.6912 -0.1013 0.7156
vn 0.0744 0.8364 -0.5430
vn -0.9303 -0.2434 0.2745
vn -0.3657 0.5561 -0.7463
vn -0.8991 -0.4184 0.1289
vn -0.8908 -0.4415 0.1076
vn -0.8565 -0.5148 0.0361
vn -0.7718 -0.6294 -0.0907
vn -0.7066 -0.6878 -0.1662
# 31 vertex normals

vt 0.1388 0.1376 0.0000
vt 0.1388 0.2623 0.0000
vt 0.0506 0.2258 0.0000
vt 0.0141 0.1376 0.0000
vt 0.0506 0.0495 0.0000
vt 0.1388 0.0129 0.0000
vt 0.2270 0.0495 0.0000
vt 0.2635 0.1376 0.0000
vt 0.2270 0.2258 0.0000
vt 0.0971 0.4222 0.0000
vt 0.0971 0.3393 0.0000
vt 0.1557 0.3979 0.0000
vt 0.1800 0.3393 0.0000
vt 0.1557 0.2807 0.0000
vt 0.0971 0.2564 0.0000
vt 0.0384 0.2807 0.0000
vt 0.0141 0.3393 0.0000
vt 0.0384 0.3979 0.0000
vt 0.3988 0.8000 0.0000
vt 0.5567 0.7173 0.0000
vt 0.5714 0.7649 0.0000
vt 0.7274 0.3411 0.0000
vt 0.7201 0.5192 0.0000
vt 0.6715 0.5082 0.0000
vt 0.9605 0.8552 0.0000
vt 0.8100 0.7598 0.0000
vt 0.8438 0.7232 0.0000
vt 0.7650 0.7227 0.0000
vt 0.6113 0.6969 0.0000
vt 0.7105 0.5767 0.0000
vt 0.5366 0.6716 0.0000
vt 0.6034 0.5894 0.0000
vt 0.7697 0.5247 0.0000
vt 0.8075 0.6236 0.0000
vt 0.7804 0.8000 0.0000
vt 0.6758 0.7833 0.0000
vt 0.3832 0.7583 0.0000
vt 0.7714 0.3485 0.0000
vt 0.9322 0.8895 0.0000
vt 0.9456 0.7001 0.0000
vt 0.8776 0.7000 0.0000
vt 0.8784 0.3548 0.0000
vt 0.9464 0.3549 0.0000
vt 0.8792 0.0096 0.0000
vt 0.9471 0.0098 0.0000
# 45 texture coords

o Object017
g Object017
usemtl Material__82
s 1
f 1/1/1 2/2/2 3/3/3 
f 1/1/1 3/3/3 4/4/4 
f 1/1/1 4/4/4 5/5/5 
f 1/1/1 5/5/5 6/6/6 
f 1/1/1 6/6/6 7/7/7 
f 1/1/1 7/7/7 8/8/8 
f 1/1/1 8/8/8 9/9/9 
f 1/1/1 9/9/9 2/2/2 
f 2/10/2 10/11/10 3/12/3 
f 3/12/3 10/11/10 4/13/4 
f 4/13/4 10/11/10 5/14/5 
f 5/14/5 10/11/10 6/15/6 
f 6/15/6 10/11/10 7/16/7 
f 7/16/7 10/11/10 8/17/8 
f 8/17/8 10/11/10 9/18/9 
f 9/18/9 10/11/10 2/10/2 
s 8
f 11/19/11 12/20/12 13/21/13 
f 14/22/14 15/23/15 16/24/16 
f 17/25/17 18/26/18 19/27/19 
s 1
f 20/28/20 21/29/21 22/30/22 
s 8
f 16/31/16 23/32/23 21/29/21 12/20/12 
f 19/33/19 24/34/24 22/30/22 15/23/15 
f 13/35/13 25/36/25 20/28/20 18/26/18 
s 1
f 21/29/21 23/32/23 22/30/22 
f 20/28/20 25/36/25 21/29/21 
f 22/30/22 24/34/24 20/28/20 
s 8
f 21/29/21 25/36/25 13/21/13 12/20/12 
f 22/30/22 23/32/23 16/24/16 15/23/15 
f 20/28/20 24/34/24 19/27/19 18/26/18 
f 14/37/14 16/31/16 12/20/12 
f 11/19/11 14/37/14 12/20/12 
f 17/38/17 19/33/19 15/23/15 
f 14/22/14 17/38/17 15/23/15 
f 11/39/11 13/35/13 18/26/18 
f 17/25/17 11/39/11 18/26/18 
s 1
f 26/40/26 27/41/26 28/42/26 29/43/26 
f 30/41/26 31/42/26 32/43/26 33/40/26 
f 28/42/26 30/44/26 33/45/26 29/43/26 
f 31/42/26 34/44/26 35/45/26 32/43/26 
f 36/40/27 37/41/27 38/42/28 39/43/28 
f 40/41/29 41/42/30 42/43/30 43/40/29 
f 38/42/28 40/44/29 43/45/29 39/43/28 
f 41/42/30 44/44/31 45/45/31 42/43/30 
# 14 polygons - 29 triangles

