# 3ds Max Wavefront OBJ Exporter v0.99 - (c)2007 guruware
# File Created: 13.08.2021 18:27:52

mtllib Object036.mtl

#
# object Object036
#

v  4.0389 -12.1316 3.2735
v  1.2431 -13.3113 1.5079
v  2.7643 -14.1737 0.5405
v  5.4608 -13.4142 1.6997
v  1.1299 -8.8286 5.4469
v  0.6916 -10.2434 4.2700
v  2.5774 -10.6015 4.5645
v  0.6551 -11.8620 2.8586
v  4.3921 -14.3924 0.1214
v  6.6752 -14.2383 -0.0629
v  7.4737 -11.2668 2.4261
v  6.7331 -9.9226 3.7061
v  3.0048 -8.8155 5.1963
v  5.0454 -9.1520 4.6164
v  7.3822 -12.5468 1.3186
# 15 vertices

vn 0.1041 -0.6545 0.7489
vn -0.0967 -0.7500 0.6543
vn -0.0292 -0.8037 0.5943
vn 0.2045 -0.7440 0.6361
vn -0.0542 -0.4801 0.8756
vn -0.2340 -0.6091 0.7578
vn 0.0062 -0.5513 0.8343
vn -0.1734 -0.6886 0.7041
vn 0.0480 -0.8632 0.5025
vn 0.2662 -0.7898 0.5526
vn 0.3436 -0.5736 0.7436
vn 0.2896 -0.5116 0.8090
vn 0.1638 -0.3636 0.9170
vn 0.2373 -0.4351 0.8686
vn 0.4160 -0.6361 0.6499
# 15 vertex normals

vt 0.4626 0.3218 0.0000
vt 0.6854 0.3243 0.0000
vt 0.6544 0.4514 0.0000
vt 0.4639 0.4763 0.0000
vt 0.4616 0.0121 0.0000
vt 0.5564 0.0894 0.0000
vt 0.4610 0.1670 0.0000
vt 0.6395 0.1991 0.0000
vt 0.5844 0.5372 0.0000
vt 0.4618 0.6212 0.0000
vt 0.2733 0.4519 0.0000
vt 0.2398 0.3278 0.0000
vt 0.3664 0.0894 0.0000
vt 0.2828 0.2004 0.0000
vt 0.3420 0.5352 0.0000
# 15 texture coords

o Object036
g Object036
usemtl Material__68
s 1
f 1/1/1 2/2/2 3/3/3 4/4/4 
f 5/5/5 6/6/6 7/7/7 
f 8/8/8 2/2/2 1/1/1 7/7/7 
f 3/3/3 9/9/9 4/4/4 
f 6/6/6 8/8/8 7/7/7 
f 9/9/9 10/10/10 4/4/4 
f 1/1/1 4/4/4 11/11/11 12/12/12 
f 5/5/5 7/7/7 13/13/13 
f 14/14/14 7/7/7 1/1/1 12/12/12 
f 11/11/11 4/4/4 15/15/15 
f 13/13/13 7/7/7 14/14/14 
f 15/15/15 4/4/4 10/10/10 
# 4 polygons - 8 triangles

