# 3ds Max Wavefront OBJ Exporter v0.99 - (c)2007 guruware
# File Created: 13.08.2021 18:28:13

mtllib Object067.mtl

#
# object Object067
#

v  -16.4159 -7.1886 2.1278
v  -16.4937 -4.7324 4.2487
v  -18.0616 -4.4948 3.3003
v  -18.4050 -6.4179 1.2899
v  -12.0573 -7.8455 3.2093
v  -13.2316 -6.7488 3.9004
v  -14.2813 -7.6936 2.7915
v  -14.7966 -5.6061 4.3349
v  -19.0510 -4.7338 2.1086
v  -19.9881 -5.3918 0.3213
v  -17.4634 -7.6660 -1.0367
v  -15.7964 -8.4292 -0.8072
v  -12.9377 -8.3065 1.7700
v  -14.2390 -8.5624 0.2918
v  -18.6712 -6.7472 -0.6451
# 15 vertices

vn -0.4159 -0.7605 0.4987
vn -0.4231 -0.5998 0.6791
vn -0.5155 -0.5735 0.6367
vn -0.5673 -0.7001 0.4337
vn -0.1618 -0.8071 0.5678
vn -0.2130 -0.6349 0.7427
vn -0.2609 -0.7961 0.5461
vn -0.3222 -0.6129 0.7215
vn -0.6254 -0.5219 0.5801
vn -0.6561 -0.6495 0.3844
vn -0.4643 -0.8450 0.2654
vn -0.3700 -0.8812 0.2944
vn -0.1583 -0.9246 0.3464
vn -0.2658 -0.9120 0.3124
vn -0.5748 -0.7899 0.2135
# 15 vertex normals

vt 0.4626 0.3218 0.0000
vt 0.6854 0.3243 0.0000
vt 0.6544 0.4514 0.0000
vt 0.4639 0.4763 0.0000
vt 0.4616 0.0121 0.0000
vt 0.5564 0.0894 0.0000
vt 0.4610 0.1670 0.0000
vt 0.6395 0.1991 0.0000
vt 0.5844 0.5372 0.0000
vt 0.4618 0.6212 0.0000
vt 0.2733 0.4519 0.0000
vt 0.2398 0.3278 0.0000
vt 0.3664 0.0894 0.0000
vt 0.2828 0.2004 0.0000
vt 0.3420 0.5352 0.0000
# 15 texture coords

o Object067
g Object067
usemtl Material__52
s 1
f 1/1/1 2/2/2 3/3/3 4/4/4 
f 5/5/5 6/6/6 7/7/7 
f 8/8/8 2/2/2 1/1/1 7/7/7 
f 3/3/3 9/9/9 4/4/4 
f 6/6/6 8/8/8 7/7/7 
f 9/9/9 10/10/10 4/4/4 
f 1/1/1 4/4/4 11/11/11 12/12/12 
f 5/5/5 7/7/7 13/13/13 
f 14/14/14 7/7/7 1/1/1 12/12/12 
f 11/11/11 4/4/4 15/15/15 
f 13/13/13 7/7/7 14/14/14 
f 15/15/15 4/4/4 10/10/10 
# 4 polygons - 8 triangles

