# 3ds Max Wavefront OBJ Exporter v0.99 - (c)2007 guruware
# File Created: 13.08.2021 18:28:33

mtllib Object098.mtl

#
# object Object098
#

v  -7.0722 17.5542 4.9467
v  -3.9188 18.5637 3.7792
v  -5.1602 19.7627 2.7716
v  -8.0732 19.2372 3.4270
v  -4.9467 13.5953 6.9227
v  -4.1674 15.0864 6.0580
v  -6.0192 15.6635 6.1550
v  -3.7220 16.8678 4.9437
v  -6.6669 20.2683 2.1824
v  -8.8971 20.4685 1.6760
v  -10.4168 17.3166 3.5252
v  -10.0469 15.7121 4.6576
v  -6.7495 13.8848 6.4281
v  -8.6226 14.5875 5.6462
v  -10.0046 18.7152 2.6608
# 15 vertices

vn -0.1374 0.5491 0.8244
vn 0.0856 0.6276 0.7738
vn 0.0349 0.6983 0.7149
vn -0.2079 0.6671 0.7153
vn -0.0223 0.3377 0.9410
vn 0.1875 0.4553 0.8703
vn -0.0667 0.4219 0.9042
vn 0.1458 0.5494 0.8227
vn -0.0197 0.7807 0.6245
vn -0.2502 0.7327 0.6329
vn -0.3812 0.5047 0.7745
vn -0.3456 0.4270 0.8356
vn -0.2565 0.2487 0.9340
vn -0.3126 0.3361 0.8884
vn -0.4305 0.5896 0.6834
# 15 vertex normals

vt 0.4626 0.3218 0.0000
vt 0.6854 0.3243 0.0000
vt 0.6544 0.4514 0.0000
vt 0.4639 0.4763 0.0000
vt 0.4616 0.0121 0.0000
vt 0.5564 0.0894 0.0000
vt 0.4610 0.1670 0.0000
vt 0.6395 0.1991 0.0000
vt 0.5844 0.5372 0.0000
vt 0.4618 0.6212 0.0000
vt 0.2733 0.4519 0.0000
vt 0.2398 0.3278 0.0000
vt 0.3664 0.0894 0.0000
vt 0.2828 0.2004 0.0000
vt 0.3420 0.5352 0.0000
# 15 texture coords

o Object098
g Object098
usemtl Material__82
s 1
f 1/1/1 2/2/2 3/3/3 4/4/4 
f 5/5/5 6/6/6 7/7/7 
f 8/8/8 2/2/2 1/1/1 7/7/7 
f 3/3/3 9/9/9 4/4/4 
f 6/6/6 8/8/8 7/7/7 
f 9/9/9 10/10/10 4/4/4 
f 1/1/1 4/4/4 11/11/11 12/12/12 
f 5/5/5 7/7/7 13/13/13 
f 14/14/14 7/7/7 1/1/1 12/12/12 
f 11/11/11 4/4/4 15/15/15 
f 13/13/13 7/7/7 14/14/14 
f 15/15/15 4/4/4 10/10/10 
# 4 polygons - 8 triangles

