# 3ds Max Wavefront OBJ Exporter v0.99 - (c)2007 guruware
# File Created: 13.08.2021 18:28:32

mtllib Object097.mtl

#
# object Object097
#

v  0.6144 18.8603 2.4510
v  -2.4154 18.1430 4.0733
v  -1.1578 18.4181 5.6018
v  1.6647 19.0433 4.6887
v  -1.3975 17.3056 -1.7479
v  -2.1782 17.5338 -0.0400
v  -0.4224 18.3039 0.2694
v  -2.6206 17.8303 2.0408
v  0.3649 18.5824 6.3282
v  2.6166 18.7275 6.7514
v  4.1380 18.2389 3.1307
v  3.7583 17.9340 1.1925
v  0.4232 17.4458 -1.2538
v  2.3163 17.6632 -0.2629
v  3.7274 18.4686 4.7592
# 15 vertices

vn -0.0362 0.9881 -0.1492
vn -0.2557 0.9654 -0.0506
vn -0.2038 0.9782 0.0398
vn 0.0382 0.9992 0.0094
vn -0.1468 0.9129 -0.3808
vn -0.3541 0.9038 -0.2402
vn -0.1055 0.9497 -0.2950
vn -0.3148 0.9388 -0.1397
vn -0.1446 0.9765 0.1599
vn 0.0858 0.9900 0.1120
vn 0.2154 0.9640 -0.1558
vn 0.1787 0.9507 -0.2533
vn 0.0932 0.8887 -0.4489
vn 0.1469 0.9232 -0.3552
vn 0.2693 0.9625 -0.0332
# 15 vertex normals

vt 0.4626 0.3218 0.0000
vt 0.6854 0.3243 0.0000
vt 0.6544 0.4514 0.0000
vt 0.4639 0.4763 0.0000
vt 0.4616 0.0121 0.0000
vt 0.5564 0.0894 0.0000
vt 0.4610 0.1670 0.0000
vt 0.6395 0.1991 0.0000
vt 0.5844 0.5372 0.0000
vt 0.4618 0.6212 0.0000
vt 0.2733 0.4519 0.0000
vt 0.2398 0.3278 0.0000
vt 0.3664 0.0894 0.0000
vt 0.2828 0.2004 0.0000
vt 0.3420 0.5352 0.0000
# 15 texture coords

o Object097
g Object097
usemtl Material__59
s 1
f 1/1/1 2/2/2 3/3/3 4/4/4 
f 5/5/5 6/6/6 7/7/7 
f 8/8/8 2/2/2 1/1/1 7/7/7 
f 3/3/3 9/9/9 4/4/4 
f 6/6/6 8/8/8 7/7/7 
f 9/9/9 10/10/10 4/4/4 
f 1/1/1 4/4/4 11/11/11 12/12/12 
f 5/5/5 7/7/7 13/13/13 
f 14/14/14 7/7/7 1/1/1 12/12/12 
f 11/11/11 4/4/4 15/15/15 
f 13/13/13 7/7/7 14/14/14 
f 15/15/15 4/4/4 10/10/10 
# 4 polygons - 8 triangles

