# 3ds Max Wavefront OBJ Exporter v0.99 - (c)2007 guruware
# File Created: 13.08.2021 18:28:24

mtllib Object085.mtl

#
# object Object085
#

v  0.0987 1.1018 11.1210
v  1.3702 3.5433 10.3857
v  0.1977 4.0437 11.3882
v  -1.1757 2.1870 12.2368
v  2.0690 -0.7060 8.1680
v  2.1766 0.7352 8.6858
v  1.2097 0.1151 9.7650
v  1.9778 2.2859 9.4569
v  -0.9595 3.9081 12.1196
v  -2.5187 3.2786 12.9218
v  -2.6603 0.2771 11.7872
v  -1.9616 -0.8477 10.8508
v  0.7727 -1.1149 8.8818
v  -0.6865 -1.2255 9.8289
v  -2.7741 1.5166 12.3729
# 15 vertices

vn 0.5331 -0.3216 0.7826
vn 0.6667 -0.1259 0.7346
vn 0.5979 -0.0777 0.7978
vn 0.4210 -0.2264 0.8784
vn 0.6715 -0.4469 0.5911
vn 0.7864 -0.2246 0.5755
vn 0.6240 -0.4025 0.6698
vn 0.7345 -0.1665 0.6579
vn 0.5061 -0.0049 0.8625
vn 0.3415 -0.1610 0.9260
vn 0.3192 -0.4451 0.8367
vn 0.3778 -0.5067 0.7750
vn 0.4889 -0.6167 0.6170
vn 0.4274 -0.5712 0.7007
vn 0.2309 -0.3676 0.9009
# 15 vertex normals

vt 0.4626 0.3218 0.0000
vt 0.6854 0.3243 0.0000
vt 0.6544 0.4514 0.0000
vt 0.4639 0.4763 0.0000
vt 0.4616 0.0121 0.0000
vt 0.5564 0.0894 0.0000
vt 0.4610 0.1670 0.0000
vt 0.6395 0.1991 0.0000
vt 0.5844 0.5372 0.0000
vt 0.4618 0.6212 0.0000
vt 0.2733 0.4519 0.0000
vt 0.2398 0.3278 0.0000
vt 0.3664 0.0894 0.0000
vt 0.2828 0.2004 0.0000
vt 0.3420 0.5352 0.0000
# 15 texture coords

o Object085
g Object085
usemtl Material__75
s 1
f 1/1/1 2/2/2 3/3/3 4/4/4 
f 5/5/5 6/6/6 7/7/7 
f 8/8/8 2/2/2 1/1/1 7/7/7 
f 3/3/3 9/9/9 4/4/4 
f 6/6/6 8/8/8 7/7/7 
f 9/9/9 10/10/10 4/4/4 
f 1/1/1 4/4/4 11/11/11 12/12/12 
f 5/5/5 7/7/7 13/13/13 
f 14/14/14 7/7/7 1/1/1 12/12/12 
f 11/11/11 4/4/4 15/15/15 
f 13/13/13 7/7/7 14/14/14 
f 15/15/15 4/4/4 10/10/10 
# 4 polygons - 8 triangles

