# 3ds Max Wavefront OBJ Exporter v0.99 - (c)2007 guruware
# File Created: 13.08.2021 18:28:00

mtllib Object048.mtl

#
# object Object048
#

v  6.2423 4.3547 9.5829
v  4.0438 2.0732 11.0950
v  5.8169 1.1767 11.3101
v  8.0868 2.7821 10.1012
v  2.3530 6.6636 7.6756
v  2.4289 5.2191 8.8947
v  4.3104 5.6876 8.7859
v  2.9647 3.5623 10.1522
v  7.4658 0.9382 10.9981
v  9.6158 1.0757 10.2053
v  9.3385 4.1109 7.6807
v  8.1492 5.4937 6.8639
v  4.1587 6.6604 7.1119
v  6.2478 6.2976 6.7687
v  9.7018 2.8012 8.6936
# 15 vertices

vn 0.2307 0.6351 0.7372
vn 0.0734 0.5008 0.8624
vn 0.1578 0.4419 0.8831
vn 0.3607 0.5226 0.7725
vn 0.0199 0.7680 0.6401
vn -0.1059 0.6082 0.7867
vn 0.1011 0.7234 0.6830
vn -0.0212 0.5501 0.8348
vn 0.2555 0.3519 0.9005
vn 0.4391 0.4412 0.7827
vn 0.4366 0.6741 0.5958
vn 0.3623 0.7415 0.5647
vn 0.1916 0.8560 0.4801
vn 0.2859 0.8060 0.5183
vn 0.5307 0.5812 0.6168
# 15 vertex normals

vt 0.4626 0.3218 0.0000
vt 0.6854 0.3243 0.0000
vt 0.6544 0.4514 0.0000
vt 0.4639 0.4763 0.0000
vt 0.4616 0.0121 0.0000
vt 0.5564 0.0894 0.0000
vt 0.4610 0.1670 0.0000
vt 0.6395 0.1991 0.0000
vt 0.5844 0.5372 0.0000
vt 0.4618 0.6212 0.0000
vt 0.2733 0.4519 0.0000
vt 0.2398 0.3278 0.0000
vt 0.3664 0.0894 0.0000
vt 0.2828 0.2004 0.0000
vt 0.3420 0.5352 0.0000
# 15 texture coords

o Object048
g Object048
usemtl Material__81
s 1
f 1/1/1 2/2/2 3/3/3 4/4/4 
f 5/5/5 6/6/6 7/7/7 
f 8/8/8 2/2/2 1/1/1 7/7/7 
f 3/3/3 9/9/9 4/4/4 
f 6/6/6 8/8/8 7/7/7 
f 9/9/9 10/10/10 4/4/4 
f 1/1/1 4/4/4 11/11/11 12/12/12 
f 5/5/5 7/7/7 13/13/13 
f 14/14/14 7/7/7 1/1/1 12/12/12 
f 11/11/11 4/4/4 15/15/15 
f 13/13/13 7/7/7 14/14/14 
f 15/15/15 4/4/4 10/10/10 
# 4 polygons - 8 triangles

