# 3ds Max Wavefront OBJ Exporter v0.99 - (c)2007 guruware
# File Created: 13.08.2021 18:27:58

mtllib Object045.mtl

#
# object Object045
#

v  -7.1954 -2.5556 11.4601
v  -5.1560 0.0592 12.6132
v  -6.9852 0.6710 13.1360
v  -9.1483 -1.2832 12.3033
v  -3.3711 -4.2537 8.8935
v  -3.4647 -2.8237 10.1284
v  -5.2416 -3.5809 10.3308
v  -4.0326 -1.2552 11.4814
v  -8.6799 0.6458 13.1091
v  -10.8847 0.1653 12.6872
v  -10.5671 -2.8207 10.1092
v  -9.3317 -4.0113 9.0846
v  -5.2242 -4.5388 8.6415
v  -7.3718 -4.5103 8.6596
v  -10.9542 -1.5712 11.1872
# 15 vertices

vn -0.0016 -0.6541 0.7564
vn 0.1516 -0.4955 0.8553
vn 0.0637 -0.4501 0.8907
vn -0.1398 -0.5628 0.8147
vn 0.2079 -0.7537 0.6234
vn 0.3301 -0.5745 0.7490
vn 0.1291 -0.7218 0.6799
vn 0.2467 -0.5297 0.8115
vn -0.0424 -0.3763 0.9255
vn -0.2270 -0.4945 0.8390
vn -0.2198 -0.7265 0.6511
vn -0.1422 -0.7819 0.6070
vn 0.0276 -0.8694 0.4933
vn -0.0656 -0.8342 0.5475
vn -0.3223 -0.6492 0.6890
# 15 vertex normals

vt 0.4626 0.3218 0.0000
vt 0.6854 0.3243 0.0000
vt 0.6544 0.4514 0.0000
vt 0.4639 0.4763 0.0000
vt 0.4616 0.0121 0.0000
vt 0.5564 0.0894 0.0000
vt 0.4610 0.1670 0.0000
vt 0.6395 0.1991 0.0000
vt 0.5844 0.5372 0.0000
vt 0.4618 0.6212 0.0000
vt 0.2733 0.4519 0.0000
vt 0.2398 0.3278 0.0000
vt 0.3664 0.0894 0.0000
vt 0.2828 0.2004 0.0000
vt 0.3420 0.5352 0.0000
# 15 texture coords

o Object045
g Object045
usemtl Material__52
s 1
f 1/1/1 2/2/2 3/3/3 4/4/4 
f 5/5/5 6/6/6 7/7/7 
f 8/8/8 2/2/2 1/1/1 7/7/7 
f 3/3/3 9/9/9 4/4/4 
f 6/6/6 8/8/8 7/7/7 
f 9/9/9 10/10/10 4/4/4 
f 1/1/1 4/4/4 11/11/11 12/12/12 
f 5/5/5 7/7/7 13/13/13 
f 14/14/14 7/7/7 1/1/1 12/12/12 
f 11/11/11 4/4/4 15/15/15 
f 13/13/13 7/7/7 14/14/14 
f 15/15/15 4/4/4 10/10/10 
# 4 polygons - 8 triangles

