# 3ds Max Wavefront OBJ Exporter v0.99 - (c)2007 guruware
# File Created: 13.08.2021 18:27:50

mtllib Object033.mtl

#
# object Object033
#

v  7.8469 -9.6752 4.3457
v  8.0456 -7.0010 6.6117
v  7.4565 -8.5148 7.7757
v  7.1007 -11.0997 6.2320
v  8.1830 -6.4376 0.6714
v  8.3176 -6.1711 2.5394
v  8.2423 -8.1103 2.4646
v  8.2970 -6.3021 4.6832
v  6.8409 -10.0629 8.0887
v  5.9874 -12.1870 7.9169
v  5.7506 -12.6323 3.9915
v  6.0570 -11.8010 2.2002
v  7.4796 -8.1936 0.6806
v  6.7067 -10.1406 1.1554
v  5.7578 -12.6772 5.6859
# 15 vertices

vn 0.9284 -0.3713 -0.0145
vn 0.9731 -0.1868 0.1351
vn 0.9440 -0.2550 0.2095
vn 0.8739 -0.4714 0.1190
vn 0.9562 -0.1976 -0.2160
vn 0.9989 -0.0377 -0.0277
vn 0.9537 -0.2661 -0.1403
vn 0.9924 -0.1064 0.0622
vn 0.8925 -0.3289 0.3085
vn 0.8242 -0.5285 0.2035
vn 0.8090 -0.5809 -0.0901
vn 0.8331 -0.5245 -0.1753
vn 0.8548 -0.3855 -0.3474
vn 0.8436 -0.4654 -0.2677
vn 0.7592 -0.6507 0.0128
# 15 vertex normals

vt 0.4626 0.3218 0.0000
vt 0.6854 0.3243 0.0000
vt 0.6544 0.4514 0.0000
vt 0.4639 0.4763 0.0000
vt 0.4616 0.0121 0.0000
vt 0.5564 0.0894 0.0000
vt 0.4610 0.1670 0.0000
vt 0.6395 0.1991 0.0000
vt 0.5844 0.5372 0.0000
vt 0.4618 0.6212 0.0000
vt 0.2733 0.4519 0.0000
vt 0.2398 0.3278 0.0000
vt 0.3664 0.0894 0.0000
vt 0.2828 0.2004 0.0000
vt 0.3420 0.5352 0.0000
# 15 texture coords

o Object033
g Object033
usemtl Material__58
s 1
f 1/1/1 2/2/2 3/3/3 4/4/4 
f 5/5/5 6/6/6 7/7/7 
f 8/8/8 2/2/2 1/1/1 7/7/7 
f 3/3/3 9/9/9 4/4/4 
f 6/6/6 8/8/8 7/7/7 
f 9/9/9 10/10/10 4/4/4 
f 1/1/1 4/4/4 11/11/11 12/12/12 
f 5/5/5 7/7/7 13/13/13 
f 14/14/14 7/7/7 1/1/1 12/12/12 
f 11/11/11 4/4/4 15/15/15 
f 13/13/13 7/7/7 14/14/14 
f 15/15/15 4/4/4 10/10/10 
# 4 polygons - 8 triangles

