# 3ds Max Wavefront OBJ Exporter v0.99 - (c)2007 guruware
# File Created: 13.08.2021 18:28:03

mtllib Object053.mtl

#
# object Object053
#

v  -7.5064 10.8421 6.9375
v  -5.8765 12.3971 4.9337
v  -7.4588 13.0146 4.6881
v  -9.2225 11.8890 6.2375
v  -4.2303 8.2362 7.4332
v  -4.3498 9.6072 6.5700
v  -5.8159 9.6213 7.3647
v  -4.8789 11.1190 5.6554
v  -8.9084 13.0197 4.8205
v  -10.7820 12.5976 5.2652
v  -10.4281 9.7327 7.0591
v  -9.3381 8.5712 7.6978
v  -5.8083 7.9951 7.7347
v  -7.6470 8.0595 7.8658
v  -10.7937 10.9359 6.3260
# 15 vertices

vn 0.0794 0.5356 0.8407
vn 0.2253 0.6724 0.7051
vn 0.1361 0.7214 0.6790
vn -0.0621 0.6208 0.7815
vn 0.2893 0.3747 0.8809
vn 0.4040 0.5438 0.7356
vn 0.2110 0.4398 0.8730
vn 0.3205 0.6184 0.7175
vn 0.0267 0.7785 0.6271
vn -0.1528 0.6658 0.7303
vn -0.1376 0.4189 0.8975
vn -0.0583 0.3589 0.9315
vn 0.1119 0.2209 0.9688
vn 0.0190 0.2851 0.9583
vn -0.2436 0.4798 0.8429
# 15 vertex normals

vt 0.4626 0.3218 0.0000
vt 0.6854 0.3243 0.0000
vt 0.6544 0.4514 0.0000
vt 0.4639 0.4763 0.0000
vt 0.4616 0.0121 0.0000
vt 0.5564 0.0894 0.0000
vt 0.4610 0.1670 0.0000
vt 0.6395 0.1991 0.0000
vt 0.5844 0.5372 0.0000
vt 0.4618 0.6212 0.0000
vt 0.2733 0.4519 0.0000
vt 0.2398 0.3278 0.0000
vt 0.3664 0.0894 0.0000
vt 0.2828 0.2004 0.0000
vt 0.3420 0.5352 0.0000
# 15 texture coords

o Object053
g Object053
usemtl Material__79
s 1
f 1/1/1 2/2/2 3/3/3 4/4/4 
f 5/5/5 6/6/6 7/7/7 
f 8/8/8 2/2/2 1/1/1 7/7/7 
f 3/3/3 9/9/9 4/4/4 
f 6/6/6 8/8/8 7/7/7 
f 9/9/9 10/10/10 4/4/4 
f 1/1/1 4/4/4 11/11/11 12/12/12 
f 5/5/5 7/7/7 13/13/13 
f 14/14/14 7/7/7 1/1/1 12/12/12 
f 11/11/11 4/4/4 15/15/15 
f 13/13/13 7/7/7 14/14/14 
f 15/15/15 4/4/4 10/10/10 
# 4 polygons - 8 triangles

