# 3ds Max Wavefront OBJ Exporter v0.99 - (c)2007 guruware
# File Created: 13.08.2021 18:28:19

mtllib Object077.mtl

#
# object Object077
#

v  -17.8393 0.0534 7.4390
v  -19.1068 -1.2553 4.4380
v  -18.9999 -2.8725 5.6071
v  -17.9020 -2.2459 8.3627
v  -16.7286 4.1864 5.0347
v  -17.6576 2.6493 4.4405
v  -17.4682 2.2384 6.3291
v  -18.5454 0.7139 4.1588
v  -18.5054 -3.7552 6.9671
v  -17.5628 -4.4381 8.9458
v  -15.6575 -1.1631 10.0893
v  -15.2104 0.7374 9.6632
v  -16.0158 3.4890 6.6422
v  -15.4295 2.3075 8.3374
v  -16.3832 -2.6699 9.8130
# 15 vertices

vn -0.8157 0.3033 0.4926
vn -0.9283 0.2315 0.2911
vn -0.9305 0.1382 0.3393
vn -0.8186 0.1400 0.5570
vn -0.7631 0.5328 0.3658
vn -0.8892 0.4204 0.1806
vn -0.7898 0.4491 0.4177
vn -0.9184 0.3223 0.2294
vn -0.9227 0.0127 0.3852
vn -0.8070 0.0320 0.5896
vn -0.6659 0.2735 0.6941
vn -0.6541 0.3717 0.6588
vn -0.6068 0.5648 0.5592
vn -0.6270 0.4714 0.6203
vn -0.6615 0.1463 0.7355
# 15 vertex normals

vt 0.4626 0.3218 0.0000
vt 0.6854 0.3243 0.0000
vt 0.6544 0.4514 0.0000
vt 0.4639 0.4763 0.0000
vt 0.4616 0.0121 0.0000
vt 0.5564 0.0894 0.0000
vt 0.4610 0.1670 0.0000
vt 0.6395 0.1991 0.0000
vt 0.5844 0.5372 0.0000
vt 0.4618 0.6212 0.0000
vt 0.2733 0.4519 0.0000
vt 0.2398 0.3278 0.0000
vt 0.3664 0.0894 0.0000
vt 0.2828 0.2004 0.0000
vt 0.3420 0.5352 0.0000
# 15 texture coords

o Object077
g Object077
usemtl Material__77
s 1
f 1/1/1 2/2/2 3/3/3 4/4/4 
f 5/5/5 6/6/6 7/7/7 
f 8/8/8 2/2/2 1/1/1 7/7/7 
f 3/3/3 9/9/9 4/4/4 
f 6/6/6 8/8/8 7/7/7 
f 9/9/9 10/10/10 4/4/4 
f 1/1/1 4/4/4 11/11/11 12/12/12 
f 5/5/5 7/7/7 13/13/13 
f 14/14/14 7/7/7 1/1/1 12/12/12 
f 11/11/11 4/4/4 15/15/15 
f 13/13/13 7/7/7 14/14/14 
f 15/15/15 4/4/4 10/10/10 
# 4 polygons - 8 triangles

