# 3ds Max Wavefront OBJ Exporter v0.99 - (c)2007 guruware
# File Created: 13.08.2021 18:28:14

mtllib Object069.mtl

#
# object Object069
#

v  -10.3342 -10.9082 5.6734
v  -9.3201 -12.3898 2.9690
v  -8.3425 -13.2417 4.2853
v  -8.8828 -12.2386 6.8464
v  -12.2650 -7.7240 3.0789
v  -11.4656 -9.2109 2.6214
v  -11.5018 -9.3965 4.4070
v  -10.4235 -10.8980 2.5128
v  -7.7539 -13.4201 5.7268
v  -7.2280 -13.1901 7.7703
v  -8.9407 -10.0706 8.6222
v  -10.0175 -8.6930 8.0249
v  -11.7594 -7.6532 4.7518
v  -10.9812 -7.9417 6.5559
v  -8.1337 -11.4066 8.4805
# 15 vertices

vn -0.8125 -0.5183 0.2669
vn -0.7668 -0.6388 0.0625
vn -0.7056 -0.6976 0.1244
vn -0.6999 -0.6191 0.3561
vn -0.9352 -0.3348 0.1158
vn -0.8685 -0.4909 -0.0686
vn -0.8960 -0.4082 0.1749
vn -0.8185 -0.5745 -0.0106
vn -0.6126 -0.7668 0.1914
vn -0.6155 -0.6742 0.4081
vn -0.7568 -0.4261 0.4956
vn -0.8199 -0.3575 0.4472
vn -0.9232 -0.2012 0.3276
vn -0.8749 -0.2754 0.3984
vn -0.6632 -0.4988 0.5580
# 15 vertex normals

vt 0.4626 0.3218 0.0000
vt 0.6854 0.3243 0.0000
vt 0.6544 0.4514 0.0000
vt 0.4639 0.4763 0.0000
vt 0.4616 0.0121 0.0000
vt 0.5564 0.0894 0.0000
vt 0.4610 0.1670 0.0000
vt 0.6395 0.1991 0.0000
vt 0.5844 0.5372 0.0000
vt 0.4618 0.6212 0.0000
vt 0.2733 0.4519 0.0000
vt 0.2398 0.3278 0.0000
vt 0.3664 0.0894 0.0000
vt 0.2828 0.2004 0.0000
vt 0.3420 0.5352 0.0000
# 15 texture coords

o Object069
g Object069
usemtl Material__52
s 1
f 1/1/1 2/2/2 3/3/3 4/4/4 
f 5/5/5 6/6/6 7/7/7 
f 8/8/8 2/2/2 1/1/1 7/7/7 
f 3/3/3 9/9/9 4/4/4 
f 6/6/6 8/8/8 7/7/7 
f 9/9/9 10/10/10 4/4/4 
f 1/1/1 4/4/4 11/11/11 12/12/12 
f 5/5/5 7/7/7 13/13/13 
f 14/14/14 7/7/7 1/1/1 12/12/12 
f 11/11/11 4/4/4 15/15/15 
f 13/13/13 7/7/7 14/14/14 
f 15/15/15 4/4/4 10/10/10 
# 4 polygons - 8 triangles

