# 3ds Max Wavefront OBJ Exporter v0.99 - (c)2007 guruware
# File Created: 13.08.2021 18:28:36

mtllib Object102.mtl

#
# object Object102
#

v  -7.9628 14.7866 7.5952
v  -6.0581 12.5649 9.5348
v  -4.8112 14.1072 9.2893
v  -6.0179 16.3231 7.6085
v  -11.1427 11.1437 6.7507
v  -9.6230 11.1911 7.8763
v  -9.7124 13.0515 7.3265
v  -7.8010 11.6388 8.9218
v  -4.2723 15.5494 8.5801
v  -4.0371 17.4358 7.2932
v  -7.2511 17.2328 4.9926
v  -8.9024 16.2087 4.5259
v  -10.8215 12.7264 5.7657
v  -10.0755 14.5527 4.9163
v  -5.8214 17.5339 5.8520
# 15 vertices

vn -0.5175 0.5249 0.6757
vn -0.4083 0.3761 0.8318
vn -0.3322 0.4485 0.8298
vn -0.3790 0.6326 0.6754
vn -0.6970 0.3306 0.6363
vn -0.5549 0.2112 0.8047
vn -0.6340 0.4081 0.6569
vn -0.4775 0.2904 0.8293
vn -0.2235 0.5261 0.8205
vn -0.2830 0.6920 0.6641
vn -0.5253 0.6959 0.4897
vn -0.6085 0.6325 0.4793
vn -0.7610 0.4752 0.4418
vn -0.6903 0.5629 0.4546
vn -0.4142 0.7704 0.4847
# 15 vertex normals

vt 0.4626 0.3218 0.0000
vt 0.6854 0.3243 0.0000
vt 0.6544 0.4514 0.0000
vt 0.4639 0.4763 0.0000
vt 0.4616 0.0121 0.0000
vt 0.5564 0.0894 0.0000
vt 0.4610 0.1670 0.0000
vt 0.6395 0.1991 0.0000
vt 0.5844 0.5372 0.0000
vt 0.4618 0.6212 0.0000
vt 0.2733 0.4519 0.0000
vt 0.2398 0.3278 0.0000
vt 0.3664 0.0894 0.0000
vt 0.2828 0.2004 0.0000
vt 0.3420 0.5352 0.0000
# 15 texture coords

o Object102
g Object102
usemtl Material__55
s 1
f 1/1/1 2/2/2 3/3/3 4/4/4 
f 5/5/5 6/6/6 7/7/7 
f 8/8/8 2/2/2 1/1/1 7/7/7 
f 3/3/3 9/9/9 4/4/4 
f 6/6/6 8/8/8 7/7/7 
f 9/9/9 10/10/10 4/4/4 
f 1/1/1 4/4/4 11/11/11 12/12/12 
f 5/5/5 7/7/7 13/13/13 
f 14/14/14 7/7/7 1/1/1 12/12/12 
f 11/11/11 4/4/4 15/15/15 
f 13/13/13 7/7/7 14/14/14 
f 15/15/15 4/4/4 10/10/10 
# 4 polygons - 8 triangles

