# 3ds Max Wavefront OBJ Exporter v0.99 - (c)2007 guruware
# File Created: 13.08.2021 18:28:25

mtllib Object086.mtl

#
# object Object086
#

v  3.3374 15.3292 4.7767
v  5.8068 14.7228 2.6449
v  5.1447 16.3868 2.0448
v  2.9270 17.3151 3.6037
v  3.6233 10.9210 6.1946
v  4.6545 11.8260 5.0482
v  3.5864 13.1803 5.6759
v  5.4987 13.1506 3.7622
v  4.0806 17.5814 1.9610
v  2.3551 18.8732 2.2092
v  0.2772 16.8964 4.6105
v  0.1324 15.3169 5.6360
v  2.2636 12.0763 6.3085
v  0.9610 13.6257 6.1541
v  0.9900 17.9050 3.5901
# 15 vertices

vn 0.4520 0.4555 0.7670
vn 0.6511 0.4130 0.6368
vn 0.6277 0.5052 0.5922
vn 0.4204 0.6033 0.6777
vn 0.4731 0.2045 0.8569
vn 0.6753 0.2041 0.7087
vn 0.4690 0.3028 0.8297
vn 0.6748 0.3105 0.6695
vn 0.5967 0.6125 0.5184
vn 0.3931 0.6891 0.6088
vn 0.2201 0.5479 0.8071
vn 0.2287 0.4572 0.8594
vn 0.2403 0.2496 0.9381
vn 0.2257 0.3575 0.9062
vn 0.1943 0.6547 0.7305
# 15 vertex normals

vt 0.4626 0.3218 0.0000
vt 0.6854 0.3243 0.0000
vt 0.6544 0.4514 0.0000
vt 0.4639 0.4763 0.0000
vt 0.4616 0.0121 0.0000
vt 0.5564 0.0894 0.0000
vt 0.4610 0.1670 0.0000
vt 0.6395 0.1991 0.0000
vt 0.5844 0.5372 0.0000
vt 0.4618 0.6212 0.0000
vt 0.2733 0.4519 0.0000
vt 0.2398 0.3278 0.0000
vt 0.3664 0.0894 0.0000
vt 0.2828 0.2004 0.0000
vt 0.3420 0.5352 0.0000
# 15 texture coords

o Object086
g Object086
usemtl Material__70
s 1
f 1/1/1 2/2/2 3/3/3 4/4/4 
f 5/5/5 6/6/6 7/7/7 
f 8/8/8 2/2/2 1/1/1 7/7/7 
f 3/3/3 9/9/9 4/4/4 
f 6/6/6 8/8/8 7/7/7 
f 9/9/9 10/10/10 4/4/4 
f 1/1/1 4/4/4 11/11/11 12/12/12 
f 5/5/5 7/7/7 13/13/13 
f 14/14/14 7/7/7 1/1/1 12/12/12 
f 11/11/11 4/4/4 15/15/15 
f 13/13/13 7/7/7 14/14/14 
f 15/15/15 4/4/4 10/10/10 
# 4 polygons - 8 triangles

