# 3ds Max Wavefront OBJ Exporter v0.99 - (c)2007 guruware
# File Created: 13.08.2021 18:28:08

mtllib Object060.mtl

#
# object Object060
#

v  -0.3872 0.6325 12.2152
v  -2.1466 -2.3347 11.5625
v  -0.4629 -3.0037 12.4058
v  1.4442 -0.7623 13.1341
v  -3.5639 3.0163 9.3304
v  -3.5627 1.2136 9.9040
v  -2.0916 1.9195 10.9572
v  -3.1237 -0.7370 10.6886
v  1.1330 -2.8750 12.9625
v  3.2364 -2.1414 13.5170
v  3.1190 1.6156 12.2785
v  2.0290 3.0504 11.4141
v  -1.8032 3.4827 9.8415
v  0.2155 3.5693 10.5699
v  3.4072 0.0580 12.8817
# 15 vertices

vn -0.3367 0.2858 0.8972
vn -0.4795 0.0924 0.8727
vn -0.3986 0.0415 0.9162
vn -0.2066 0.1866 0.9605
vn -0.5142 0.4194 0.7481
vn -0.6316 0.1979 0.7496
vn -0.4504 0.3716 0.8118
vn -0.5628 0.1362 0.8153
vn -0.2950 -0.0341 0.9549
vn -0.1188 0.1193 0.9857
vn -0.1151 0.4071 0.9061
vn -0.1857 0.4713 0.8622
vn -0.3290 0.5881 0.7388
vn -0.2504 0.5390 0.8042
vn -0.0151 0.3269 0.9449
# 15 vertex normals

vt 0.4626 0.3218 0.0000
vt 0.6854 0.3243 0.0000
vt 0.6544 0.4514 0.0000
vt 0.4639 0.4763 0.0000
vt 0.4616 0.0121 0.0000
vt 0.5564 0.0894 0.0000
vt 0.4610 0.1670 0.0000
vt 0.6395 0.1991 0.0000
vt 0.5844 0.5372 0.0000
vt 0.4618 0.6212 0.0000
vt 0.2733 0.4519 0.0000
vt 0.2398 0.3278 0.0000
vt 0.3664 0.0894 0.0000
vt 0.2828 0.2004 0.0000
vt 0.3420 0.5352 0.0000
# 15 texture coords

o Object060
g Object060
usemtl Material__73
s 1
f 1/1/1 2/2/2 3/3/3 4/4/4 
f 5/5/5 6/6/6 7/7/7 
f 8/8/8 2/2/2 1/1/1 7/7/7 
f 3/3/3 9/9/9 4/4/4 
f 6/6/6 8/8/8 7/7/7 
f 9/9/9 10/10/10 4/4/4 
f 1/1/1 4/4/4 11/11/11 12/12/12 
f 5/5/5 7/7/7 13/13/13 
f 14/14/14 7/7/7 1/1/1 12/12/12 
f 11/11/11 4/4/4 15/15/15 
f 13/13/13 7/7/7 14/14/14 
f 15/15/15 4/4/4 10/10/10 
# 4 polygons - 8 triangles

