# 3ds Max Wavefront OBJ Exporter v0.99 - (c)2007 guruware
# File Created: 13.08.2021 18:28:15

mtllib Object071.mtl

#
# object Object071
#

v  -19.7324 -3.3965 -0.6922
v  -19.9552 -0.8352 -3.0830
v  -20.6177 -2.4292 -4.0899
v  -20.5809 -4.9588 -2.4193
v  -17.0181 -0.4031 2.0949
v  -17.9142 -0.0619 0.4642
v  -18.5550 -1.8541 0.8501
v  -18.9697 -0.1400 -1.4048
v  -20.8666 -4.0849 -4.3544
v  -20.9143 -6.3744 -4.1930
v  -19.0241 -6.9682 -0.7669
v  -18.0974 -6.1266 0.7908
v  -17.1314 -2.2915 2.0965
v  -17.4841 -4.3714 1.6930
v  -19.8548 -6.9668 -2.2445
# 15 vertices

vn -0.8701 0.0532 0.4899
vn -0.9068 0.2428 0.3446
vn -0.9451 0.1704 0.2789
vn -0.9285 -0.0574 0.3669
vn -0.7302 0.2178 0.6476
vn -0.7930 0.3852 0.4719
vn -0.7902 0.1563 0.5925
vn -0.8568 0.3222 0.4025
vn -0.9796 0.0840 0.1826
vn -0.9511 -0.1281 0.2811
vn -0.8190 -0.1889 0.5419
vn -0.7761 -0.1295 0.6172
vn -0.6584 0.0017 0.7526
vn -0.7179 -0.0736 0.6923
vn -0.8551 -0.2707 0.4423
# 15 vertex normals

vt 0.4626 0.3218 0.0000
vt 0.6854 0.3243 0.0000
vt 0.6544 0.4514 0.0000
vt 0.4639 0.4763 0.0000
vt 0.4616 0.0121 0.0000
vt 0.5564 0.0894 0.0000
vt 0.4610 0.1670 0.0000
vt 0.6395 0.1991 0.0000
vt 0.5844 0.5372 0.0000
vt 0.4618 0.6212 0.0000
vt 0.2733 0.4519 0.0000
vt 0.2398 0.3278 0.0000
vt 0.3664 0.0894 0.0000
vt 0.2828 0.2004 0.0000
vt 0.3420 0.5352 0.0000
# 15 texture coords

o Object071
g Object071
usemtl Material__69
s 1
f 1/1/1 2/2/2 3/3/3 4/4/4 
f 5/5/5 6/6/6 7/7/7 
f 8/8/8 2/2/2 1/1/1 7/7/7 
f 3/3/3 9/9/9 4/4/4 
f 6/6/6 8/8/8 7/7/7 
f 9/9/9 10/10/10 4/4/4 
f 1/1/1 4/4/4 11/11/11 12/12/12 
f 5/5/5 7/7/7 13/13/13 
f 14/14/14 7/7/7 1/1/1 12/12/12 
f 11/11/11 4/4/4 15/15/15 
f 13/13/13 7/7/7 14/14/14 
f 15/15/15 4/4/4 10/10/10 
# 4 polygons - 8 triangles

