# 3ds Max Wavefront OBJ Exporter v0.99 - (c)2007 guruware
# File Created: 13.08.2021 18:28:45

mtllib Object116.mtl

#
# object Object116
#

v  -4.3673 8.0683 10.4770
v  -3.8027 5.1611 11.0419
v  -2.5516 5.9591 11.9039
v  -2.6571 8.5481 11.6500
v  -7.0330 6.8600 7.4433
v  -6.2126 5.9682 8.5253
v  -5.8651 7.5045 9.0736
v  -5.0787 5.2968 9.8159
v  -1.7127 7.0931 12.2632
v  -0.8633 8.8671 12.3984
v  -2.6379 10.6485 10.1119
v  -3.9033 10.6279 8.9528
v  -6.2550 8.2717 7.6451
v  -5.1591 9.6685 8.1453
v  -1.7674 10.0706 11.1254
# 15 vertices

vn -0.6553 0.2591 0.7095
vn -0.6381 0.0256 0.7696
vn -0.5574 0.0585 0.8282
vn -0.5132 0.2981 0.8048
vn -0.8320 0.1846 0.5231
vn -0.7853 -0.0428 0.6177
vn -0.7712 0.2148 0.5993
vn -0.7127 -0.0181 0.7012
vn -0.4434 0.0881 0.8920
vn -0.4127 0.3185 0.8534
vn -0.5653 0.4907 0.6630
vn -0.6463 0.4735 0.5984
vn -0.7937 0.4185 0.4414
vn -0.7214 0.4581 0.5193
vn -0.4513 0.5149 0.7289
# 15 vertex normals

vt 0.4626 0.3218 0.0000
vt 0.6854 0.3243 0.0000
vt 0.6544 0.4514 0.0000
vt 0.4639 0.4763 0.0000
vt 0.4616 0.0121 0.0000
vt 0.5564 0.0894 0.0000
vt 0.4610 0.1670 0.0000
vt 0.6395 0.1991 0.0000
vt 0.5844 0.5372 0.0000
vt 0.4618 0.6212 0.0000
vt 0.2733 0.4519 0.0000
vt 0.2398 0.3278 0.0000
vt 0.3664 0.0894 0.0000
vt 0.2828 0.2004 0.0000
vt 0.3420 0.5352 0.0000
# 15 texture coords

o Object116
g Object116
usemtl Material__67
s 1
f 1/1/1 2/2/2 3/3/3 4/4/4 
f 5/5/5 6/6/6 7/7/7 
f 8/8/8 2/2/2 1/1/1 7/7/7 
f 3/3/3 9/9/9 4/4/4 
f 6/6/6 8/8/8 7/7/7 
f 9/9/9 10/10/10 4/4/4 
f 1/1/1 4/4/4 11/11/11 12/12/12 
f 5/5/5 7/7/7 13/13/13 
f 14/14/14 7/7/7 1/1/1 12/12/12 
f 11/11/11 4/4/4 15/15/15 
f 13/13/13 7/7/7 14/14/14 
f 15/15/15 4/4/4 10/10/10 
# 4 polygons - 8 triangles

