# 3ds Max Wavefront OBJ Exporter v0.99 - (c)2007 guruware
# File Created: 13.08.2021 18:27:59

mtllib Object046.mtl

#
# object Object046
#

v  -6.5106 -7.8242 8.4023
v  -9.1168 -5.4775 8.2397
v  -9.9982 -7.1519 7.5969
v  -8.0976 -9.5127 7.5225
v  -3.3552 -4.1095 8.9858
v  -5.2453 -4.0951 8.9081
v  -4.9080 -6.0075 8.9270
v  -7.3373 -4.5163 8.6645
v  -10.0338 -8.7455 7.0204
v  -9.4896 -10.8509 6.2846
v  -5.5381 -10.7662 6.4884
v  -3.9174 -9.6909 6.9474
v  -3.0545 -5.8705 8.3636
v  -3.1795 -7.8857 7.6311
v  -7.2020 -11.0403 6.3166
# 15 vertices

vn -0.0406 -0.3385 0.9401
vn -0.2172 -0.1747 0.9604
vn -0.2783 -0.2532 0.9265
vn -0.1528 -0.4573 0.8761
vn 0.1319 -0.1383 0.9816
vn -0.0794 -0.0042 0.9968
vn 0.0666 -0.2165 0.9740
vn -0.1582 -0.0846 0.9838
vn -0.3604 -0.3414 0.8681
vn -0.2230 -0.5268 0.8202
vn 0.0748 -0.5393 0.8388
vn 0.1486 -0.4712 0.8694
vn 0.2974 -0.3095 0.9032
vn 0.2307 -0.3998 0.8871
vn -0.0118 -0.6238 0.7815
# 15 vertex normals

vt 0.4626 0.3218 0.0000
vt 0.6854 0.3243 0.0000
vt 0.6544 0.4514 0.0000
vt 0.4639 0.4763 0.0000
vt 0.4616 0.0121 0.0000
vt 0.5564 0.0894 0.0000
vt 0.4610 0.1670 0.0000
vt 0.6395 0.1991 0.0000
vt 0.5844 0.5372 0.0000
vt 0.4618 0.6212 0.0000
vt 0.2733 0.4519 0.0000
vt 0.2398 0.3278 0.0000
vt 0.3664 0.0894 0.0000
vt 0.2828 0.2004 0.0000
vt 0.3420 0.5352 0.0000
# 15 texture coords

o Object046
g Object046
usemtl Material__52
s 1
f 1/1/1 2/2/2 3/3/3 4/4/4 
f 5/5/5 6/6/6 7/7/7 
f 8/8/8 2/2/2 1/1/1 7/7/7 
f 3/3/3 9/9/9 4/4/4 
f 6/6/6 8/8/8 7/7/7 
f 9/9/9 10/10/10 4/4/4 
f 1/1/1 4/4/4 11/11/11 12/12/12 
f 5/5/5 7/7/7 13/13/13 
f 14/14/14 7/7/7 1/1/1 12/12/12 
f 11/11/11 4/4/4 15/15/15 
f 13/13/13 7/7/7 14/14/14 
f 15/15/15 4/4/4 10/10/10 
# 4 polygons - 8 triangles

