# 3ds Max Wavefront OBJ Exporter v0.99 - (c)2007 guruware
# File Created: 13.08.2021 18:27:56

mtllib Object042.mtl

#
# object Object042
#

v  -11.2164 -11.3609 6.2434
v  -13.2789 -8.6504 7.0951
v  -14.5812 -9.9714 6.3518
v  -13.2431 -12.5282 5.4225
v  -7.3204 -8.4323 6.8267
v  -9.1515 -8.0968 7.1627
v  -9.2115 -9.9925 6.7450
v  -11.2949 -8.1096 7.3006
v  -15.0409 -11.3659 5.5048
v  -15.0741 -13.3092 4.2831
v  -11.2152 -13.9098 3.6420
v  -9.3549 -13.2416 3.9362
v  -7.4981 -10.0314 5.8317
v  -8.1569 -11.7811 4.7745
v  -12.9037 -13.8665 3.7843
# 15 vertices

vn 0.0582 -0.5316 0.8450
vn -0.0750 -0.3505 0.9336
vn -0.1557 -0.4084 0.8994
vn -0.0852 -0.6132 0.7853
vn 0.2723 -0.3765 0.8855
vn 0.0988 -0.2171 0.9711
vn 0.1923 -0.4394 0.8775
vn 0.0042 -0.2787 0.9604
vn -0.2630 -0.4666 0.8444
vn -0.1768 -0.6560 0.7338
vn 0.1107 -0.7201 0.6849
vn 0.2011 -0.6735 0.7113
vn 0.3832 -0.5498 0.7422
vn 0.2977 -0.6221 0.7241
vn 0.0000 -0.7744 0.6327
# 15 vertex normals

vt 0.4626 0.3218 0.0000
vt 0.6854 0.3243 0.0000
vt 0.6544 0.4514 0.0000
vt 0.4639 0.4763 0.0000
vt 0.4616 0.0121 0.0000
vt 0.5564 0.0894 0.0000
vt 0.4610 0.1670 0.0000
vt 0.6395 0.1991 0.0000
vt 0.5844 0.5372 0.0000
vt 0.4618 0.6212 0.0000
vt 0.2733 0.4519 0.0000
vt 0.2398 0.3278 0.0000
vt 0.3664 0.0894 0.0000
vt 0.2828 0.2004 0.0000
vt 0.3420 0.5352 0.0000
# 15 texture coords

o Object042
g Object042
usemtl Material__78
s 1
f 1/1/1 2/2/2 3/3/3 4/4/4 
f 5/5/5 6/6/6 7/7/7 
f 8/8/8 2/2/2 1/1/1 7/7/7 
f 3/3/3 9/9/9 4/4/4 
f 6/6/6 8/8/8 7/7/7 
f 9/9/9 10/10/10 4/4/4 
f 1/1/1 4/4/4 11/11/11 12/12/12 
f 5/5/5 7/7/7 13/13/13 
f 14/14/14 7/7/7 1/1/1 12/12/12 
f 11/11/11 4/4/4 15/15/15 
f 13/13/13 7/7/7 14/14/14 
f 15/15/15 4/4/4 10/10/10 
# 4 polygons - 8 triangles

