# 3ds Max Wavefront OBJ Exporter v0.99 - (c)2007 guruware
# File Created: 13.08.2021 18:28:01

mtllib Object049.mtl

#
# object Object049
#

v  0.6302 5.4831 11.9893
v  -2.2522 7.2750 11.0911
v  -2.8542 6.2636 12.7062
v  -0.6724 4.4995 13.8547
v  2.5686 6.6389 7.6301
v  0.9443 7.1980 8.4223
v  1.7423 6.2267 9.9026
v  -0.8132 7.4861 9.6230
v  -2.7374 5.0680 13.9021
v  -2.0753 3.3170 15.2309
v  1.3099 2.2349 13.4897
v  2.6021 2.5784 12.0045
v  2.9897 5.2191 8.8071
v  3.0688 3.7304 10.3534
v  -0.0935 2.5101 14.3996
# 15 vertices

vn 0.5045 0.6352 0.5848
vn 0.3229 0.7847 0.5292
vn 0.2764 0.7406 0.6124
vn 0.4114 0.5644 0.7156
vn 0.6159 0.7050 0.3518
vn 0.4107 0.8480 0.3350
vn 0.5783 0.6842 0.4444
vn 0.3597 0.8261 0.4339
vn 0.2031 0.6787 0.7058
vn 0.3444 0.5093 0.7887
vn 0.6060 0.4217 0.6745
vn 0.6645 0.4542 0.5934
vn 0.7624 0.5077 0.4012
vn 0.7228 0.4748 0.5022
vn 0.5285 0.3639 0.7670
# 15 vertex normals

vt 0.4626 0.3218 0.0000
vt 0.6854 0.3243 0.0000
vt 0.6544 0.4514 0.0000
vt 0.4639 0.4763 0.0000
vt 0.4616 0.0121 0.0000
vt 0.5564 0.0894 0.0000
vt 0.4610 0.1670 0.0000
vt 0.6395 0.1991 0.0000
vt 0.5844 0.5372 0.0000
vt 0.4618 0.6212 0.0000
vt 0.2733 0.4519 0.0000
vt 0.2398 0.3278 0.0000
vt 0.3664 0.0894 0.0000
vt 0.2828 0.2004 0.0000
vt 0.3420 0.5352 0.0000
# 15 texture coords

o Object049
g Object049
usemtl Material__81
s 1
f 1/1/1 2/2/2 3/3/3 4/4/4 
f 5/5/5 6/6/6 7/7/7 
f 8/8/8 2/2/2 1/1/1 7/7/7 
f 3/3/3 9/9/9 4/4/4 
f 6/6/6 8/8/8 7/7/7 
f 9/9/9 10/10/10 4/4/4 
f 1/1/1 4/4/4 11/11/11 12/12/12 
f 5/5/5 7/7/7 13/13/13 
f 14/14/14 7/7/7 1/1/1 12/12/12 
f 11/11/11 4/4/4 15/15/15 
f 13/13/13 7/7/7 14/14/14 
f 15/15/15 4/4/4 10/10/10 
# 4 polygons - 8 triangles

