# 3ds Max Wavefront OBJ Exporter v0.99 - (c)2007 guruware
# File Created: 13.08.2021 18:28:38

mtllib Object105.mtl

#
# object Object105
#

v  -15.3367 10.4584 8.6185
v  -16.7545 11.5993 5.6161
v  -18.3083 10.7383 6.5315
v  -17.5613 9.5426 9.2155
v  -10.8942 11.2986 6.7070
v  -12.6089 11.6839 6.0070
v  -13.0842 11.0772 7.7895
v  -14.7029 11.8399 5.5551
v  -19.0558 9.7589 7.6957
v  -19.5048 8.3472 9.4495
v  -15.8685 7.6126 10.8282
v  -13.9102 7.9555 10.6250
v  -11.4104 10.1486 8.1176
v  -12.4284 8.9260 9.5606
v  -17.5067 7.7743 10.4238
# 15 vertices

vn -0.0732 0.7863 0.6135
vn -0.1639 0.8940 0.4171
vn -0.2550 0.8549 0.4518
vn -0.2304 0.7200 0.6546
vn 0.1696 0.8403 0.5150
vn 0.0348 0.9432 0.3304
vn 0.0777 0.8267 0.5573
vn -0.0710 0.9272 0.3679
vn -0.3718 0.7953 0.4788
vn -0.3285 0.6653 0.6705
vn -0.0618 0.6075 0.7919
vn 0.0363 0.6376 0.7695
vn 0.2409 0.6792 0.6933
vn 0.1418 0.6546 0.7426
vn -0.1811 0.5510 0.8146
# 15 vertex normals

vt 0.4626 0.3218 0.0000
vt 0.6854 0.3243 0.0000
vt 0.6544 0.4514 0.0000
vt 0.4639 0.4763 0.0000
vt 0.4616 0.0121 0.0000
vt 0.5564 0.0894 0.0000
vt 0.4610 0.1670 0.0000
vt 0.6395 0.1991 0.0000
vt 0.5844 0.5372 0.0000
vt 0.4618 0.6212 0.0000
vt 0.2733 0.4519 0.0000
vt 0.2398 0.3278 0.0000
vt 0.3664 0.0894 0.0000
vt 0.2828 0.2004 0.0000
vt 0.3420 0.5352 0.0000
# 15 texture coords

o Object105
g Object105
usemtl Material__55
s 1
f 1/1/1 2/2/2 3/3/3 4/4/4 
f 5/5/5 6/6/6 7/7/7 
f 8/8/8 2/2/2 1/1/1 7/7/7 
f 3/3/3 9/9/9 4/4/4 
f 6/6/6 8/8/8 7/7/7 
f 9/9/9 10/10/10 4/4/4 
f 1/1/1 4/4/4 11/11/11 12/12/12 
f 5/5/5 7/7/7 13/13/13 
f 14/14/14 7/7/7 1/1/1 12/12/12 
f 11/11/11 4/4/4 15/15/15 
f 13/13/13 7/7/7 14/14/14 
f 15/15/15 4/4/4 10/10/10 
# 4 polygons - 8 triangles

