# 3ds Max Wavefront OBJ Exporter v0.99 - (c)2007 guruware
# File Created: 13.08.2021 18:28:26

mtllib Object087.mtl

#
# object Object087
#

v  0.8366 12.6211 9.3301
v  -0.4128 14.7440 7.1069
v  -1.6729 14.8303 8.5112
v  -1.0099 13.0940 10.6921
v  3.7239 11.0565 6.0530
v  2.5652 12.4172 6.0057
v  2.4566 11.9487 7.7771
v  1.0954 13.7808 6.3243
v  -2.3771 14.3362 9.8627
v  -2.9430 13.2591 11.6592
v  -0.4712 10.4516 11.6607
v  0.9881 9.6395 10.7784
v  3.1555 10.2664 7.5528
v  2.2157 9.6988 9.2603
v  -1.6141 11.5560 11.8624
# 15 vertices

vn 0.6348 0.5584 0.5341
vn 0.5700 0.7301 0.3769
vn 0.4925 0.7476 0.4455
vn 0.4954 0.5927 0.6350
vn 0.8086 0.4733 0.3495
vn 0.7133 0.6655 0.2197
vn 0.7487 0.5101 0.4235
vn 0.6403 0.7093 0.2946
vn 0.3814 0.7656 0.5181
vn 0.3969 0.6052 0.6900
vn 0.5931 0.3809 0.7093
vn 0.6743 0.3501 0.6502
vn 0.8207 0.2741 0.5012
vn 0.7512 0.3054 0.5852
vn 0.4807 0.4036 0.7785
# 15 vertex normals

vt 0.4626 0.3218 0.0000
vt 0.6854 0.3243 0.0000
vt 0.6544 0.4514 0.0000
vt 0.4639 0.4763 0.0000
vt 0.4616 0.0121 0.0000
vt 0.5564 0.0894 0.0000
vt 0.4610 0.1670 0.0000
vt 0.6395 0.1991 0.0000
vt 0.5844 0.5372 0.0000
vt 0.4618 0.6212 0.0000
vt 0.2733 0.4519 0.0000
vt 0.2398 0.3278 0.0000
vt 0.3664 0.0894 0.0000
vt 0.2828 0.2004 0.0000
vt 0.3420 0.5352 0.0000
# 15 texture coords

o Object087
g Object087
usemtl Material__70
s 1
f 1/1/1 2/2/2 3/3/3 4/4/4 
f 5/5/5 6/6/6 7/7/7 
f 8/8/8 2/2/2 1/1/1 7/7/7 
f 3/3/3 9/9/9 4/4/4 
f 6/6/6 8/8/8 7/7/7 
f 9/9/9 10/10/10 4/4/4 
f 1/1/1 4/4/4 11/11/11 12/12/12 
f 5/5/5 7/7/7 13/13/13 
f 14/14/14 7/7/7 1/1/1 12/12/12 
f 11/11/11 4/4/4 15/15/15 
f 13/13/13 7/7/7 14/14/14 
f 15/15/15 4/4/4 10/10/10 
# 4 polygons - 8 triangles

