# 3ds Max Wavefront OBJ Exporter v0.99 - (c)2007 guruware
# File Created: 13.08.2021 18:27:42

mtllib Object021.mtl

#
# object Object021
#

v  2.8136 7.0494 8.4327
v  2.1388 7.4195 8.0771
v  1.9686 6.9835 8.4517
v  2.2248 6.4867 8.6683
v  2.7575 6.2202 8.6001
v  3.2545 6.3401 8.2870
v  3.4247 6.7761 7.9125
v  3.1684 7.2729 7.6958
v  2.6357 7.5394 7.7640
v  1.9279 5.7649 6.5348
v  1.3833 4.9257 5.3057
v  1.8809 6.2594 7.5927
v  1.9373 6.6937 7.2725
v  1.3845 4.9227 5.3072
v  2.7083 5.9477 7.4176
v  2.2446 5.8683 7.6877
v  1.3866 4.9245 5.3051
v  2.4238 6.7118 7.0332
v  2.8312 6.3569 7.0833
v  2.7876 7.6809 7.0268
v  1.3900 6.5165 8.4671
v  3.5199 5.7141 8.0162
v  2.3196 5.4781 8.7362
v  3.8716 6.7712 7.1366
v  1.5063 7.6623 7.6374
v  1.8256 6.0130 6.6107
v  2.1876 5.6627 6.6788
v  1.2567 4.3126 4.6840
v  0.8946 4.6628 4.6159
v  0.7565 3.4274 3.4832
v  0.2341 1.7156 1.5923
v  -0.1715 1.9207 1.3646
v  0.3536 3.6657 3.2848
v  0.1942 -0.0556 0.1219
v  -0.2109 0.1149 -0.1335
v  1.8535 5.7103 6.8025
v  2.1597 5.9654 6.4870
v  1.2288 4.6152 4.4922
v  0.9226 4.3601 4.8078
v  0.7082 3.6741 3.2262
v  0.1844 1.9457 1.3207
v  -0.1218 1.6906 1.6363
v  0.4020 3.4190 3.5418
v  0.1447 0.1572 -0.1636
v  -0.1615 -0.0979 0.1520
# 45 vertices

vn 0.3605 0.5228 0.7725
vn -0.5409 0.8285 0.1450
vn -0.7444 0.3071 0.5929
vn -0.4380 -0.2870 0.8520
vn 0.1990 -0.6057 0.7704
vn 0.7934 -0.4624 0.3960
vn 0.9969 0.0591 -0.0519
vn 0.6904 0.6531 -0.3110
vn 0.0535 0.9719 -0.2294
vn -0.3605 -0.5228 -0.7725
vn -0.7924 0.4704 -0.3883
vn -0.9253 -0.3746 -0.0597
vn -0.7806 0.2078 -0.5894
vn -0.2780 -0.9105 0.3062
vn 0.3750 -0.8644 -0.3350
vn -0.3552 -0.9347 -0.0147
vn 0.7031 -0.0927 -0.7050
vn -0.0721 0.3363 -0.9390
vn 0.4566 -0.2583 -0.8514
vn 0.2552 0.8899 -0.3782
vn -0.7507 0.0518 0.6586
vn 0.7823 -0.5258 0.3340
vn -0.0789 -0.6393 0.7649
vn 0.9368 0.2070 -0.2819
vn -0.6112 0.7902 0.0458
vn 0.6023 0.5018 -0.6208
vn -0.7122 0.6891 -0.1340
vn -0.7236 0.6717 -0.1591
vn -0.7557 0.6090 -0.2409
vn -0.7908 0.4813 -0.3782
vn -0.7981 0.3952 -0.4549
# 31 vertex normals

vt 0.1388 0.1376 0.0000
vt 0.1388 0.2623 0.0000
vt 0.0506 0.2258 0.0000
vt 0.0141 0.1376 0.0000
vt 0.0506 0.0495 0.0000
vt 0.1388 0.0129 0.0000
vt 0.2270 0.0495 0.0000
vt 0.2635 0.1376 0.0000
vt 0.2270 0.2258 0.0000
vt 0.0971 0.4222 0.0000
vt 0.0971 0.3393 0.0000
vt 0.1557 0.3979 0.0000
vt 0.1800 0.3393 0.0000
vt 0.1557 0.2807 0.0000
vt 0.0971 0.2564 0.0000
vt 0.0384 0.2807 0.0000
vt 0.0141 0.3393 0.0000
vt 0.0384 0.3979 0.0000
vt 0.3988 0.8000 0.0000
vt 0.5567 0.7173 0.0000
vt 0.5714 0.7649 0.0000
vt 0.7274 0.3411 0.0000
vt 0.7201 0.5192 0.0000
vt 0.6715 0.5082 0.0000
vt 0.9605 0.8552 0.0000
vt 0.8100 0.7598 0.0000
vt 0.8438 0.7232 0.0000
vt 0.7650 0.7227 0.0000
vt 0.6113 0.6969 0.0000
vt 0.7105 0.5767 0.0000
vt 0.5366 0.6716 0.0000
vt 0.6034 0.5894 0.0000
vt 0.7697 0.5247 0.0000
vt 0.8075 0.6236 0.0000
vt 0.7804 0.8000 0.0000
vt 0.6758 0.7833 0.0000
vt 0.3832 0.7583 0.0000
vt 0.7714 0.3485 0.0000
vt 0.9322 0.8895 0.0000
vt 0.9456 0.7001 0.0000
vt 0.8776 0.7000 0.0000
vt 0.8784 0.3548 0.0000
vt 0.9464 0.3549 0.0000
vt 0.8792 0.0096 0.0000
vt 0.9471 0.0098 0.0000
# 45 texture coords

o Object021
g Object021
usemtl Material__81
s 1
f 1/1/1 2/2/2 3/3/3 
f 1/1/1 3/3/3 4/4/4 
f 1/1/1 4/4/4 5/5/5 
f 1/1/1 5/5/5 6/6/6 
f 1/1/1 6/6/6 7/7/7 
f 1/1/1 7/7/7 8/8/8 
f 1/1/1 8/8/8 9/9/9 
f 1/1/1 9/9/9 2/2/2 
f 2/10/2 10/11/10 3/12/3 
f 3/12/3 10/11/10 4/13/4 
f 4/13/4 10/11/10 5/14/5 
f 5/14/5 10/11/10 6/15/6 
f 6/15/6 10/11/10 7/16/7 
f 7/16/7 10/11/10 8/17/8 
f 8/17/8 10/11/10 9/18/9 
f 9/18/9 10/11/10 2/10/2 
s 8
f 11/19/11 12/20/12 13/21/13 
f 14/22/14 15/23/15 16/24/16 
f 17/25/17 18/26/18 19/27/19 
s 1
f 20/28/20 21/29/21 22/30/22 
s 8
f 16/31/16 23/32/23 21/29/21 12/20/12 
f 19/33/19 24/34/24 22/30/22 15/23/15 
f 13/35/13 25/36/25 20/28/20 18/26/18 
s 1
f 21/29/21 23/32/23 22/30/22 
f 20/28/20 25/36/25 21/29/21 
f 22/30/22 24/34/24 20/28/20 
s 8
f 21/29/21 25/36/25 13/21/13 12/20/12 
f 22/30/22 23/32/23 16/24/16 15/23/15 
f 20/28/20 24/34/24 19/27/19 18/26/18 
f 14/37/14 16/31/16 12/20/12 
f 11/19/11 14/37/14 12/20/12 
f 17/38/17 19/33/19 15/23/15 
f 14/22/14 17/38/17 15/23/15 
f 11/39/11 13/35/13 18/26/18 
f 17/25/17 11/39/11 18/26/18 
s 1
f 26/40/26 27/41/26 28/42/26 29/43/26 
f 30/41/26 31/42/26 32/43/26 33/40/26 
f 28/42/26 30/44/26 33/45/26 29/43/26 
f 31/42/26 34/44/26 35/45/26 32/43/26 
f 36/40/27 37/41/27 38/42/28 39/43/28 
f 40/41/29 41/42/30 42/43/30 43/40/29 
f 38/42/28 40/44/29 43/45/29 39/43/28 
f 41/42/30 44/44/31 45/45/31 42/43/30 
# 14 polygons - 29 triangles

