# 3ds Max Wavefront OBJ Exporter v0.99 - (c)2007 guruware
# File Created: 13.08.2021 18:28:36

mtllib Object103.mtl

#
# object Object103
#

v  -9.8320 10.2870 11.3149
v  -12.3884 7.8819 11.3971
v  -11.3456 7.4653 13.0502
v  -8.9552 9.2949 13.4104
v  -11.0592 11.2665 6.6641
v  -11.8891 10.1242 7.9230
v  -10.5564 10.9789 9.0477
v  -12.4360 8.8900 9.5937
v  -10.0058 7.5538 14.0847
v  -7.9798 8.0278 15.0547
v  -6.3423 10.4081 12.3498
v  -6.5556 11.3125 10.5806
v  -9.4314 11.5697 7.5790
v  -7.7716 11.6334 8.9408
v  -6.8290 9.4223 13.6400
# 15 vertices

vn -0.4037 0.7944 0.4538
vn -0.5997 0.6532 0.4622
vn -0.5575 0.6197 0.5524
vn -0.3409 0.7227 0.6012
vn -0.4750 0.8561 0.2035
vn -0.6654 0.7015 0.2554
vn -0.4517 0.8397 0.3015
vn -0.6434 0.6739 0.3632
vn -0.5035 0.5590 0.6588
vn -0.2946 0.6644 0.6868
vn -0.1615 0.8526 0.4970
vn -0.1893 0.8946 0.4048
vn -0.2427 0.9500 0.1963
vn -0.2071 0.9305 0.3021
vn -0.1125 0.7889 0.6041
# 15 vertex normals

vt 0.4626 0.3218 0.0000
vt 0.6854 0.3243 0.0000
vt 0.6544 0.4514 0.0000
vt 0.4639 0.4763 0.0000
vt 0.4616 0.0121 0.0000
vt 0.5564 0.0894 0.0000
vt 0.4610 0.1670 0.0000
vt 0.6395 0.1991 0.0000
vt 0.5844 0.5372 0.0000
vt 0.4618 0.6212 0.0000
vt 0.2733 0.4519 0.0000
vt 0.2398 0.3278 0.0000
vt 0.3664 0.0894 0.0000
vt 0.2828 0.2004 0.0000
vt 0.3420 0.5352 0.0000
# 15 texture coords

o Object103
g Object103
usemtl Material__55
s 1
f 1/1/1 2/2/2 3/3/3 4/4/4 
f 5/5/5 6/6/6 7/7/7 
f 8/8/8 2/2/2 1/1/1 7/7/7 
f 3/3/3 9/9/9 4/4/4 
f 6/6/6 8/8/8 7/7/7 
f 9/9/9 10/10/10 4/4/4 
f 1/1/1 4/4/4 11/11/11 12/12/12 
f 5/5/5 7/7/7 13/13/13 
f 14/14/14 7/7/7 1/1/1 12/12/12 
f 11/11/11 4/4/4 15/15/15 
f 13/13/13 7/7/7 14/14/14 
f 15/15/15 4/4/4 10/10/10 
# 4 polygons - 8 triangles

