# 3ds Max Wavefront OBJ Exporter v0.99 - (c)2007 guruware
# File Created: 13.08.2021 18:28:05

mtllib Object055.mtl

#
# object Object055
#

v  7.5811 -1.3904 8.7126
v  8.4215 1.2827 7.7413
v  8.2207 1.5398 9.3975
v  7.4509 -0.5670 10.6333
v  6.9528 -2.5183 4.7723
v  7.5691 -1.1689 5.3662
v  7.4357 -2.0630 6.7351
v  8.1243 0.2280 6.3823
v  7.7696 1.2125 10.7164
v  6.9821 0.3589 12.2694
v  5.7270 -2.4369 10.9334
v  5.5144 -3.3533 9.5317
v  6.3442 -3.1223 6.1207
v  5.7995 -3.4793 7.8141
v  6.1863 -1.3124 11.6916
# 15 vertices

vn 0.8632 -0.4728 0.1772
vn 0.9590 -0.2688 0.0900
vn 0.9528 -0.2368 0.1898
vn 0.8506 -0.4030 0.3377
vn 0.8311 -0.5508 -0.0767
vn 0.9366 -0.3281 -0.1231
vn 0.8505 -0.5255 0.0203
vn 0.9567 -0.2904 -0.0181
vn 0.9332 -0.1816 0.3102
vn 0.8286 -0.3511 0.4361
vn 0.7192 -0.6094 0.3338
vn 0.7168 -0.6550 0.2391
vn 0.6872 -0.7258 0.0305
vn 0.6993 -0.7009 0.1405
vn 0.7024 -0.5495 0.4523
# 15 vertex normals

vt 0.4626 0.3218 0.0000
vt 0.6854 0.3243 0.0000
vt 0.6544 0.4514 0.0000
vt 0.4639 0.4763 0.0000
vt 0.4616 0.0121 0.0000
vt 0.5564 0.0894 0.0000
vt 0.4610 0.1670 0.0000
vt 0.6395 0.1991 0.0000
vt 0.5844 0.5372 0.0000
vt 0.4618 0.6212 0.0000
vt 0.2733 0.4519 0.0000
vt 0.2398 0.3278 0.0000
vt 0.3664 0.0894 0.0000
vt 0.2828 0.2004 0.0000
vt 0.3420 0.5352 0.0000
# 15 texture coords

o Object055
g Object055
usemtl Material__80
s 1
f 1/1/1 2/2/2 3/3/3 4/4/4 
f 5/5/5 6/6/6 7/7/7 
f 8/8/8 2/2/2 1/1/1 7/7/7 
f 3/3/3 9/9/9 4/4/4 
f 6/6/6 8/8/8 7/7/7 
f 9/9/9 10/10/10 4/4/4 
f 1/1/1 4/4/4 11/11/11 12/12/12 
f 5/5/5 7/7/7 13/13/13 
f 14/14/14 7/7/7 1/1/1 12/12/12 
f 11/11/11 4/4/4 15/15/15 
f 13/13/13 7/7/7 14/14/14 
f 15/15/15 4/4/4 10/10/10 
# 4 polygons - 8 triangles

