# 3ds Max Wavefront OBJ Exporter v0.99 - (c)2007 guruware
# File Created: 13.08.2021 18:27:42

mtllib Object020.mtl

#
# object Object020
#

v  -7.3055 7.1237 8.1441
v  -6.5789 7.1507 8.1800
v  -6.7642 7.5614 7.9309
v  -7.1954 7.6644 7.6692
v  -7.6198 7.3993 7.5481
v  -7.7888 6.9216 7.6385
v  -7.6035 6.5109 7.8876
v  -7.1723 6.4079 8.1493
v  -6.7479 6.6729 8.2705
v  -6.3841 6.4609 6.3656
v  -5.8095 6.0187 5.2139
v  -6.6081 7.1309 7.0785
v  -6.3682 6.8136 7.3210
v  -5.8119 6.0196 5.2123
v  -7.2044 6.6552 6.9468
v  -7.0267 7.0807 6.8803
v  -5.8118 6.0168 5.2134
v  -6.5948 6.4079 7.3548
v  -7.0124 6.2997 7.1788
v  -6.5053 6.0696 8.1720
v  -6.5395 7.9306 7.4608
v  -8.0745 6.7061 7.1218
v  -7.6333 7.8266 6.9328
v  -7.5953 5.7599 7.7226
v  -5.8907 7.1197 8.0991
v  -6.2602 6.5233 6.5608
v  -6.6528 6.4489 6.3851
v  -5.6843 5.7523 4.5157
v  -5.2917 5.8267 4.6914
v  -5.1669 5.3151 3.3466
v  -4.6407 4.5478 1.3135
v  -4.2043 4.5573 1.3172
v  -4.7327 5.3381 3.3858
v  -4.6305 3.8422 -0.5335
v  -4.1952 3.8380 -0.5653
v  -6.4603 6.6900 6.3950
v  -6.4528 6.2822 6.5508
v  -5.4842 5.5857 4.6814
v  -5.4917 5.9934 4.5256
v  -4.9460 5.1227 3.4441
v  -4.4188 4.3487 1.3932
v  -4.4263 4.7564 1.2374
v  -4.9535 5.5304 3.2883
v  -4.4091 3.6363 -0.4715
v  -4.4166 4.0440 -0.6273
# 45 vertices

vn -0.4367 0.3141 0.8430
vn 0.6896 0.2696 0.6722
vn 0.4314 0.8414 0.3254
vn -0.1690 0.9848 -0.0391
vn -0.7600 0.6158 -0.2078
vn -0.9954 -0.0496 -0.0818
vn -0.7373 -0.6215 0.2650
vn -0.1368 -0.7649 0.6295
vn 0.4542 -0.3958 0.7982
vn 0.4367 -0.3141 -0.8430
vn 0.9943 0.0538 0.0924
vn 0.6070 0.5504 -0.5733
vn 0.9742 -0.0647 -0.2162
vn -0.2888 0.5739 -0.7663
vn -0.4842 -0.3201 -0.8143
vn -0.0872 0.3659 -0.9266
vn -0.2605 -0.9476 -0.1851
vn 0.6313 -0.7726 -0.0678
vn -0.0641 -0.8930 -0.4455
vn 0.3322 -0.6145 0.7156
vn 0.3035 0.9453 0.1195
vn -0.9830 -0.0810 -0.1646
vn -0.5520 0.7763 -0.3045
vn -0.5230 -0.7988 0.2974
vn 0.7760 0.2375 0.5842
vn 0.0172 -0.9340 0.3569
vn 0.8994 0.1704 0.4025
vn 0.9132 0.1600 0.3749
vn 0.9517 0.1247 0.2804
vn 0.9926 0.0588 0.1062
vn 0.9926 0.0588 0.1061
vn 0.9517 0.1247 0.2805
vn 0.9998 0.0178 -0.0016
# 33 vertex normals

vt 0.1388 0.1376 0.0000
vt 0.1388 0.2623 0.0000
vt 0.0506 0.2258 0.0000
vt 0.0141 0.1376 0.0000
vt 0.0506 0.0495 0.0000
vt 0.1388 0.0129 0.0000
vt 0.2270 0.0495 0.0000
vt 0.2635 0.1376 0.0000
vt 0.2270 0.2258 0.0000
vt 0.0971 0.4222 0.0000
vt 0.0971 0.3393 0.0000
vt 0.1557 0.3979 0.0000
vt 0.1800 0.3393 0.0000
vt 0.1557 0.2807 0.0000
vt 0.0971 0.2564 0.0000
vt 0.0384 0.2807 0.0000
vt 0.0141 0.3393 0.0000
vt 0.0384 0.3979 0.0000
vt 0.3988 0.8000 0.0000
vt 0.5567 0.7173 0.0000
vt 0.5714 0.7649 0.0000
vt 0.7274 0.3411 0.0000
vt 0.7201 0.5192 0.0000
vt 0.6715 0.5082 0.0000
vt 0.9605 0.8552 0.0000
vt 0.8100 0.7598 0.0000
vt 0.8438 0.7232 0.0000
vt 0.7650 0.7227 0.0000
vt 0.6113 0.6969 0.0000
vt 0.7105 0.5767 0.0000
vt 0.5366 0.6716 0.0000
vt 0.6034 0.5894 0.0000
vt 0.7697 0.5247 0.0000
vt 0.8075 0.6236 0.0000
vt 0.7804 0.8000 0.0000
vt 0.6758 0.7833 0.0000
vt 0.3832 0.7583 0.0000
vt 0.7714 0.3485 0.0000
vt 0.9322 0.8895 0.0000
vt 0.9456 0.7001 0.0000
vt 0.8776 0.7000 0.0000
vt 0.8784 0.3548 0.0000
vt 0.9464 0.3549 0.0000
vt 0.8792 0.0096 0.0000
vt 0.9471 0.0098 0.0000
# 45 texture coords

o Object020
g Object020
usemtl Material__67
s 1
f 1/1/1 2/2/2 3/3/3 
f 1/1/1 3/3/3 4/4/4 
f 1/1/1 4/4/4 5/5/5 
f 1/1/1 5/5/5 6/6/6 
f 1/1/1 6/6/6 7/7/7 
f 1/1/1 7/7/7 8/8/8 
f 1/1/1 8/8/8 9/9/9 
f 1/1/1 9/9/9 2/2/2 
f 2/10/2 10/11/10 3/12/3 
f 3/12/3 10/11/10 4/13/4 
f 4/13/4 10/11/10 5/14/5 
f 5/14/5 10/11/10 6/15/6 
f 6/15/6 10/11/10 7/16/7 
f 7/16/7 10/11/10 8/17/8 
f 8/17/8 10/11/10 9/18/9 
f 9/18/9 10/11/10 2/10/2 
s 8
f 11/19/11 12/20/12 13/21/13 
f 14/22/14 15/23/15 16/24/16 
f 17/25/17 18/26/18 19/27/19 
s 1
f 20/28/20 21/29/21 22/30/22 
s 8
f 16/31/16 23/32/23 21/29/21 12/20/12 
f 19/33/19 24/34/24 22/30/22 15/23/15 
f 13/35/13 25/36/25 20/28/20 18/26/18 
s 1
f 21/29/21 23/32/23 22/30/22 
f 20/28/20 25/36/25 21/29/21 
f 22/30/22 24/34/24 20/28/20 
s 8
f 21/29/21 25/36/25 13/21/13 12/20/12 
f 22/30/22 23/32/23 16/24/16 15/23/15 
f 20/28/20 24/34/24 19/27/19 18/26/18 
f 14/37/14 16/31/16 12/20/12 
f 11/19/11 14/37/14 12/20/12 
f 17/38/17 19/33/19 15/23/15 
f 14/22/14 17/38/17 15/23/15 
f 11/39/11 13/35/13 18/26/18 
f 17/25/17 11/39/11 18/26/18 
s 1
f 26/40/26 27/41/26 28/42/26 29/43/26 
f 30/41/26 31/42/26 32/43/26 33/40/26 
f 28/42/26 30/44/26 33/45/26 29/43/26 
f 31/42/26 34/44/26 35/45/26 32/43/26 
f 36/40/27 37/41/27 38/42/28 39/43/28 
f 40/41/29 41/42/30 42/43/31 43/40/32 
f 38/42/28 40/44/29 43/45/32 39/43/28 
f 41/42/30 44/44/33 45/45/33 42/43/31 
# 14 polygons - 29 triangles

