# 3ds Max Wavefront OBJ Exporter v0.99 - (c)2007 guruware
# File Created: 13.08.2021 18:28:28

mtllib Object090.mtl

#
# object Object090
#

v  11.0999 12.1557 0.9942
v  10.5447 11.3282 4.2240
v  12.2749 10.5578 3.8856
v  13.1802 10.9964 1.1457
v  6.5456 13.3653 0.6358
v  7.5039 12.8421 2.0934
v  8.8687 12.9846 0.8234
v  8.8984 12.1261 3.4421
v  13.5097 10.0489 2.9478
v  14.8377 9.5415 1.2556
v  12.7464 10.6714 -1.7223
v  11.0944 11.4606 -2.3135
v  7.7355 12.8978 -0.6613
v  9.3379 12.2319 -1.7859
v  13.8091 10.1209 -0.6128
# 15 vertices

vn 0.4141 0.9087 0.0532
vn 0.3747 0.8806 0.2900
vn 0.4691 0.8347 0.2886
vn 0.5661 0.8218 0.0642
vn 0.1590 0.9867 0.0333
vn 0.1624 0.9460 0.2807
vn 0.2585 0.9651 0.0413
vn 0.2705 0.9157 0.2971
vn 0.5801 0.7599 0.2935
vn 0.6554 0.7520 0.0703
vn 0.5079 0.8440 -0.1725
vn 0.4148 0.8903 -0.1878
vn 0.2038 0.9559 -0.2114
vn 0.3132 0.9260 -0.2108
vn 0.6183 0.7691 -0.1618
# 15 vertex normals

vt 0.4626 0.3218 0.0000
vt 0.6854 0.3243 0.0000
vt 0.6544 0.4514 0.0000
vt 0.4639 0.4763 0.0000
vt 0.4616 0.0121 0.0000
vt 0.5564 0.0894 0.0000
vt 0.4610 0.1670 0.0000
vt 0.6395 0.1991 0.0000
vt 0.5844 0.5372 0.0000
vt 0.4618 0.6212 0.0000
vt 0.2733 0.4519 0.0000
vt 0.2398 0.3278 0.0000
vt 0.3664 0.0894 0.0000
vt 0.2828 0.2004 0.0000
vt 0.3420 0.5352 0.0000
# 15 texture coords

o Object090
g Object090
usemtl Material__52
s 1
f 1/1/1 2/2/2 3/3/3 4/4/4 
f 5/5/5 6/6/6 7/7/7 
f 8/8/8 2/2/2 1/1/1 7/7/7 
f 3/3/3 9/9/9 4/4/4 
f 6/6/6 8/8/8 7/7/7 
f 9/9/9 10/10/10 4/4/4 
f 1/1/1 4/4/4 11/11/11 12/12/12 
f 5/5/5 7/7/7 13/13/13 
f 14/14/14 7/7/7 1/1/1 12/12/12 
f 11/11/11 4/4/4 15/15/15 
f 13/13/13 7/7/7 14/14/14 
f 15/15/15 4/4/4 10/10/10 
# 4 polygons - 8 triangles

