# 3ds Max Wavefront OBJ Exporter v0.99 - (c)2007 guruware
# File Created: 13.08.2021 18:28:35

mtllib Object101.mtl

#
# object Object101
#

v  -3.9328 12.7609 11.3751
v  -6.7032 10.6081 11.5030
v  -5.7033 10.1299 13.1659
v  -3.1518 11.7346 13.4918
v  -5.0651 13.7550 6.7034
v  -5.9978 12.7217 7.9843
v  -4.5902 13.4708 9.0931
v  -6.6570 11.5789 9.6792
v  -4.3605 10.1138 14.2003
v  -2.2985 10.4158 15.1632
v  -0.4466 12.5759 12.4124
v  -0.5751 13.4597 10.6246
v  -3.4156 13.9232 7.6142
v  -1.7565 13.8592 8.9768
v  -1.0228 11.6669 13.7218
# 15 vertices

vn -0.3273 0.8379 0.4368
vn -0.5356 0.7159 0.4478
vn -0.4968 0.6804 0.5387
vn -0.2714 0.7637 0.5857
vn -0.3926 0.9009 0.1852
vn -0.5966 0.7658 0.2400
vn -0.3709 0.8843 0.2835
vn -0.5773 0.7385 0.3483
vn -0.4486 0.6171 0.6465
vn -0.2308 0.7031 0.6726
vn -0.0807 0.8740 0.4791
vn -0.1045 0.9166 0.3860
vn -0.1526 0.9724 0.1763
vn -0.1189 0.9518 0.2826
vn -0.0378 0.8083 0.5876
# 15 vertex normals

vt 0.4626 0.3218 0.0000
vt 0.6854 0.3243 0.0000
vt 0.6544 0.4514 0.0000
vt 0.4639 0.4763 0.0000
vt 0.4616 0.0121 0.0000
vt 0.5564 0.0894 0.0000
vt 0.4610 0.1670 0.0000
vt 0.6395 0.1991 0.0000
vt 0.5844 0.5372 0.0000
vt 0.4618 0.6212 0.0000
vt 0.2733 0.4519 0.0000
vt 0.2398 0.3278 0.0000
vt 0.3664 0.0894 0.0000
vt 0.2828 0.2004 0.0000
vt 0.3420 0.5352 0.0000
# 15 texture coords

o Object101
g Object101
usemtl Material__82
s 1
f 1/1/1 2/2/2 3/3/3 4/4/4 
f 5/5/5 6/6/6 7/7/7 
f 8/8/8 2/2/2 1/1/1 7/7/7 
f 3/3/3 9/9/9 4/4/4 
f 6/6/6 8/8/8 7/7/7 
f 9/9/9 10/10/10 4/4/4 
f 1/1/1 4/4/4 11/11/11 12/12/12 
f 5/5/5 7/7/7 13/13/13 
f 14/14/14 7/7/7 1/1/1 12/12/12 
f 11/11/11 4/4/4 15/15/15 
f 13/13/13 7/7/7 14/14/14 
f 15/15/15 4/4/4 10/10/10 
# 4 polygons - 8 triangles

