# 3ds Max Wavefront OBJ Exporter v0.99 - (c)2007 guruware
# File Created: 13.08.2021 18:28:30

mtllib Object094.mtl

#
# object Object094
#

v  2.6543 19.2616 -3.3885
v  4.3154 18.3748 -0.4253
v  5.8262 18.8306 -1.6515
v  4.8784 19.6437 -4.4140
v  -1.4582 17.3355 -1.5249
v  0.2375 17.5826 -0.7234
v  0.5050 18.5118 -2.4076
v  2.3015 17.9447 -0.2523
v  6.5410 19.1581 -3.1532
v  6.9528 19.5126 -5.3836
v  3.3586 18.9727 -6.9500
v  1.4388 18.5405 -6.6022
v  -0.9747 17.6524 -3.3261
v  0.0011 18.0772 -5.1918
v  4.9742 19.2483 -6.5174
# 15 vertices

vn -0.1984 0.9729 0.1185
vn -0.0985 0.9368 0.3356
vn -0.0089 0.9584 0.2852
vn -0.0408 0.9981 0.0458
vn -0.4258 0.8772 0.2218
vn -0.2846 0.8578 0.4280
vn -0.3420 0.9215 0.1840
vn -0.1860 0.9009 0.3921
vn 0.1110 0.9677 0.2263
vn 0.0621 0.9981 -0.0022
vn -0.2042 0.9697 -0.1342
vn -0.3009 0.9485 -0.0990
vn -0.4930 0.8698 -0.0196
vn -0.4012 0.9133 -0.0699
vn -0.0818 0.9788 -0.1877
# 15 vertex normals

vt 0.4626 0.3218 0.0000
vt 0.6854 0.3243 0.0000
vt 0.6544 0.4514 0.0000
vt 0.4639 0.4763 0.0000
vt 0.4616 0.0121 0.0000
vt 0.5564 0.0894 0.0000
vt 0.4610 0.1670 0.0000
vt 0.6395 0.1991 0.0000
vt 0.5844 0.5372 0.0000
vt 0.4618 0.6212 0.0000
vt 0.2733 0.4519 0.0000
vt 0.2398 0.3278 0.0000
vt 0.3664 0.0894 0.0000
vt 0.2828 0.2004 0.0000
vt 0.3420 0.5352 0.0000
# 15 texture coords

o Object094
g Object094
usemtl Material__59
s 1
f 1/1/1 2/2/2 3/3/3 4/4/4 
f 5/5/5 6/6/6 7/7/7 
f 8/8/8 2/2/2 1/1/1 7/7/7 
f 3/3/3 9/9/9 4/4/4 
f 6/6/6 8/8/8 7/7/7 
f 9/9/9 10/10/10 4/4/4 
f 1/1/1 4/4/4 11/11/11 12/12/12 
f 5/5/5 7/7/7 13/13/13 
f 14/14/14 7/7/7 1/1/1 12/12/12 
f 11/11/11 4/4/4 15/15/15 
f 13/13/13 7/7/7 14/14/14 
f 15/15/15 4/4/4 10/10/10 
# 4 polygons - 8 triangles

