# 3ds Max Wavefront OBJ Exporter v0.99 - (c)2007 guruware
# File Created: 13.08.2021 18:28:23

mtllib Object082.mtl

#
# object Object082
#

v  5.0660 -3.0002 7.9982
v  3.2818 -5.1773 7.5567
v  4.7207 -5.8151 7.1657
v  6.5629 -4.2001 7.3932
v  1.9096 -0.5808 8.2287
v  1.9712 -2.1093 8.0993
v  3.4982 -1.7780 8.3057
v  2.4061 -3.7817 7.8702
v  6.0589 -5.7729 6.8497
v  7.8038 -5.2391 6.4737
v  7.5787 -2.0486 6.7667
v  6.6135 -0.7863 7.0915
v  3.3751 -0.2591 7.9033
v  5.0704 -0.2703 7.4982
v  7.8735 -3.3814 6.5964
# 15 vertices

vn 0.2307 -0.0723 0.9703
vn 0.0734 -0.2557 0.9640
vn 0.1578 -0.3120 0.9369
vn 0.3607 -0.1767 0.9158
vn 0.0199 0.0904 0.9957
vn -0.1059 -0.1262 0.9863
vn 0.1011 0.0286 0.9945
vn -0.0212 -0.2013 0.9793
vn 0.2555 -0.3879 0.8856
vn 0.4391 -0.2415 0.8654
vn 0.4366 0.0553 0.8980
vn 0.3623 0.1250 0.9236
vn 0.1916 0.2658 0.9448
vn 0.2859 0.2034 0.9364
vn 0.5307 -0.0252 0.8472
# 15 vertex normals

vt 0.4626 0.3218 0.0000
vt 0.6854 0.3243 0.0000
vt 0.6544 0.4514 0.0000
vt 0.4639 0.4763 0.0000
vt 0.4616 0.0121 0.0000
vt 0.5564 0.0894 0.0000
vt 0.4610 0.1670 0.0000
vt 0.6395 0.1991 0.0000
vt 0.5844 0.5372 0.0000
vt 0.4618 0.6212 0.0000
vt 0.2733 0.4519 0.0000
vt 0.2398 0.3278 0.0000
vt 0.3664 0.0894 0.0000
vt 0.2828 0.2004 0.0000
vt 0.3420 0.5352 0.0000
# 15 texture coords

o Object082
g Object082
usemtl Material__75
s 1
f 1/1/1 2/2/2 3/3/3 4/4/4 
f 5/5/5 6/6/6 7/7/7 
f 8/8/8 2/2/2 1/1/1 7/7/7 
f 3/3/3 9/9/9 4/4/4 
f 6/6/6 8/8/8 7/7/7 
f 9/9/9 10/10/10 4/4/4 
f 1/1/1 4/4/4 11/11/11 12/12/12 
f 5/5/5 7/7/7 13/13/13 
f 14/14/14 7/7/7 1/1/1 12/12/12 
f 11/11/11 4/4/4 15/15/15 
f 13/13/13 7/7/7 14/14/14 
f 15/15/15 4/4/4 10/10/10 
# 4 polygons - 8 triangles

