# 3ds Max Wavefront OBJ Exporter v0.99 - (c)2007 guruware
# File Created: 13.08.2021 18:28:16

mtllib Object072.mtl

#
# object Object072
#

v  -20.1853 2.6613 0.1298
v  -18.9263 5.0812 2.3400
v  -19.9945 6.1783 1.0560
v  -21.2822 4.5015 -1.1169
v  -17.0168 -0.5656 2.0386
v  -17.3979 1.2130 2.5580
v  -18.7694 0.9378 1.2109
v  -18.0512 3.2514 2.7360
v  -20.8460 6.4658 -0.3812
v  -21.8494 6.2883 -2.4384
v  -20.9919 2.5514 -3.4200
v  -20.0890 0.8530 -2.8779
v  -17.8878 -0.5686 0.3594
v  -18.9810 -0.1299 -1.4367
v  -21.4793 4.1629 -3.2232
# 15 vertices

vn -0.8436 -0.3095 0.4387
vn -0.7740 -0.1574 0.6133
vn -0.8264 -0.0863 0.5564
vn -0.9196 -0.1787 0.3497
vn -0.6785 -0.4894 0.5478
vn -0.6362 -0.3027 0.7096
vn -0.7478 -0.4244 0.5105
vn -0.7070 -0.2229 0.6712
vn -0.8758 0.0138 0.4824
vn -0.9538 -0.0910 0.2863
vn -0.9054 -0.3734 0.2021
vn -0.8559 -0.4549 0.2461
vn -0.7205 -0.6091 0.3315
vn -0.7940 -0.5392 0.2809
vn -0.9538 -0.2697 0.1326
# 15 vertex normals

vt 0.4626 0.3218 0.0000
vt 0.6854 0.3243 0.0000
vt 0.6544 0.4514 0.0000
vt 0.4639 0.4763 0.0000
vt 0.4616 0.0121 0.0000
vt 0.5564 0.0894 0.0000
vt 0.4610 0.1670 0.0000
vt 0.6395 0.1991 0.0000
vt 0.5844 0.5372 0.0000
vt 0.4618 0.6212 0.0000
vt 0.2733 0.4519 0.0000
vt 0.2398 0.3278 0.0000
vt 0.3664 0.0894 0.0000
vt 0.2828 0.2004 0.0000
vt 0.3420 0.5352 0.0000
# 15 texture coords

o Object072
g Object072
usemtl Material__69
s 1
f 1/1/1 2/2/2 3/3/3 4/4/4 
f 5/5/5 6/6/6 7/7/7 
f 8/8/8 2/2/2 1/1/1 7/7/7 
f 3/3/3 9/9/9 4/4/4 
f 6/6/6 8/8/8 7/7/7 
f 9/9/9 10/10/10 4/4/4 
f 1/1/1 4/4/4 11/11/11 12/12/12 
f 5/5/5 7/7/7 13/13/13 
f 14/14/14 7/7/7 1/1/1 12/12/12 
f 11/11/11 4/4/4 15/15/15 
f 13/13/13 7/7/7 14/14/14 
f 15/15/15 4/4/4 10/10/10 
# 4 polygons - 8 triangles

