# 3ds Max Wavefront OBJ Exporter v0.99 - (c)2007 guruware
# File Created: 13.08.2021 18:27:27

mtllib Object002.mtl

#
# object Object002
#

v  8.8817 -6.9959 0.9452
v  8.3817 -7.3802 0.3786
v  8.7052 -6.9484 0.1173
v  8.9731 -6.4464 0.3061
v  9.0284 -6.1683 0.8343
v  8.8388 -6.2770 1.3925
v  8.5152 -6.7088 1.6537
v  8.2473 -7.2108 1.4649
v  8.1920 -7.4889 0.9368
v  6.8258 -5.7288 0.4933
v  5.5011 -4.9003 0.2288
v  7.8464 -6.2254 0.2144
v  7.5495 -6.6580 0.3524
v  5.5028 -4.8973 0.2295
v  7.8653 -5.8956 1.0531
v  8.0211 -5.8266 0.5380
v  5.5011 -4.8990 0.2320
v  7.4287 -6.6653 0.8813
v  7.5699 -6.3017 1.2584
v  7.5101 -7.6263 1.2574
v  8.5852 -6.4941 -0.4591
v  8.6339 -5.6451 1.6997
v  9.0570 -5.4360 0.3610
v  7.8632 -6.6933 2.2672
v  7.8090 -7.6362 -0.1302
v  6.8771 -5.9791 0.3816
v  7.0254 -5.6212 0.7106
v  4.8645 -4.2894 0.2357
v  4.7162 -4.6474 -0.0933
v  3.5772 -3.4140 0.0068
v  1.6102 -1.7118 -0.1024
v  1.2960 -1.9255 -0.4401
v  3.2924 -3.6607 -0.3343
v  0.1631 0.0596 0.1597
v  -0.1780 -0.1193 -0.1720
v  7.0690 -5.6761 0.3581
v  6.8335 -5.9242 0.7342
v  4.6726 -4.5924 0.2592
v  4.9081 -4.3444 -0.1169
v  3.3170 -3.6614 0.0243
v  1.3353 -1.9427 -0.0833
v  1.5708 -1.6946 -0.4593
v  3.5525 -3.4134 -0.3518
v  -0.1252 -0.1539 0.1819
v  0.1103 0.0942 -0.1942
# 45 vertices

vn 0.8368 -0.5157 0.1839
vn 0.0197 -0.8402 -0.5419
vn 0.4066 -0.3238 -0.8543
vn 0.7270 0.2765 -0.6285
vn 0.7931 0.6090 0.0031
vn 0.5663 0.4791 0.6707
vn 0.1794 -0.0373 0.9831
vn -0.1410 -0.6376 0.7573
vn -0.2071 -0.9702 0.1257
vn -0.8368 0.5157 -0.1839
vn -0.5587 -0.4873 -0.6711
vn -0.2727 0.3544 -0.8944
vn -0.7526 -0.2241 -0.6192
vn 0.2304 0.9038 -0.3607
vn -0.2430 0.8727 0.4235
vn -0.0998 0.9267 -0.3622
vn -0.5242 0.1091 0.8446
vn -0.9290 -0.3367 0.1534
vn -0.7243 0.2691 0.6349
vn -0.3057 -0.8837 0.3544
vn 0.4681 -0.0688 -0.8810
vn 0.5032 0.5423 0.6728
vn 0.7236 0.6366 -0.2667
vn -0.0577 -0.1863 0.9808
vn -0.0931 -0.8033 -0.5882
vn -0.4633 -0.4879 0.7398
vn -0.2918 -0.7042 -0.6472
vn -0.3188 -0.6871 -0.6529
vn -0.4061 -0.6251 -0.6666
vn -0.5483 -0.4980 -0.6719
vn -0.6249 -0.4120 -0.6631
# 31 vertex normals

vt 0.1388 0.1376 0.0000
vt 0.1388 0.2623 0.0000
vt 0.0506 0.2258 0.0000
vt 0.0141 0.1376 0.0000
vt 0.0506 0.0495 0.0000
vt 0.1388 0.0129 0.0000
vt 0.2270 0.0495 0.0000
vt 0.2635 0.1376 0.0000
vt 0.2270 0.2258 0.0000
vt 0.0971 0.4222 0.0000
vt 0.0971 0.3393 0.0000
vt 0.1557 0.3979 0.0000
vt 0.1800 0.3393 0.0000
vt 0.1557 0.2807 0.0000
vt 0.0971 0.2564 0.0000
vt 0.0384 0.2807 0.0000
vt 0.0141 0.3393 0.0000
vt 0.0384 0.3979 0.0000
vt 0.3988 0.8000 0.0000
vt 0.5567 0.7173 0.0000
vt 0.5714 0.7649 0.0000
vt 0.7274 0.3411 0.0000
vt 0.7201 0.5192 0.0000
vt 0.6715 0.5082 0.0000
vt 0.9605 0.8552 0.0000
vt 0.8100 0.7598 0.0000
vt 0.8438 0.7232 0.0000
vt 0.7650 0.7227 0.0000
vt 0.6113 0.6969 0.0000
vt 0.7105 0.5767 0.0000
vt 0.5366 0.6716 0.0000
vt 0.6034 0.5894 0.0000
vt 0.7697 0.5247 0.0000
vt 0.8075 0.6236 0.0000
vt 0.7804 0.8000 0.0000
vt 0.6758 0.7833 0.0000
vt 0.3832 0.7583 0.0000
vt 0.7714 0.3485 0.0000
vt 0.9322 0.8895 0.0000
vt 0.9456 0.7001 0.0000
vt 0.8776 0.7000 0.0000
vt 0.8784 0.3548 0.0000
vt 0.9464 0.3549 0.0000
vt 0.8792 0.0096 0.0000
vt 0.9471 0.0098 0.0000
# 45 texture coords

o Object002
g Object002
usemtl Material__58
s 1
f 1/1/1 2/2/2 3/3/3 
f 1/1/1 3/3/3 4/4/4 
f 1/1/1 4/4/4 5/5/5 
f 1/1/1 5/5/5 6/6/6 
f 1/1/1 6/6/6 7/7/7 
f 1/1/1 7/7/7 8/8/8 
f 1/1/1 8/8/8 9/9/9 
f 1/1/1 9/9/9 2/2/2 
f 2/10/2 10/11/10 3/12/3 
f 3/12/3 10/11/10 4/13/4 
f 4/13/4 10/11/10 5/14/5 
f 5/14/5 10/11/10 6/15/6 
f 6/15/6 10/11/10 7/16/7 
f 7/16/7 10/11/10 8/17/8 
f 8/17/8 10/11/10 9/18/9 
f 9/18/9 10/11/10 2/10/2 
s 8
f 11/19/11 12/20/12 13/21/13 
f 14/22/14 15/23/15 16/24/16 
f 17/25/17 18/26/18 19/27/19 
s 1
f 20/28/20 21/29/21 22/30/22 
s 8
f 16/31/16 23/32/23 21/29/21 12/20/12 
f 19/33/19 24/34/24 22/30/22 15/23/15 
f 13/35/13 25/36/25 20/28/20 18/26/18 
s 1
f 21/29/21 23/32/23 22/30/22 
f 20/28/20 25/36/25 21/29/21 
f 22/30/22 24/34/24 20/28/20 
s 8
f 21/29/21 25/36/25 13/21/13 12/20/12 
f 22/30/22 23/32/23 16/24/16 15/23/15 
f 20/28/20 24/34/24 19/27/19 18/26/18 
f 14/37/14 16/31/16 12/20/12 
f 11/19/11 14/37/14 12/20/12 
f 17/38/17 19/33/19 15/23/15 
f 14/22/14 17/38/17 15/23/15 
f 11/39/11 13/35/13 18/26/18 
f 17/25/17 11/39/11 18/26/18 
s 1
f 26/40/26 27/41/26 28/42/26 29/43/26 
f 30/41/26 31/42/26 32/43/26 33/40/26 
f 28/42/26 30/44/26 33/45/26 29/43/26 
f 31/42/26 34/44/26 35/45/26 32/43/26 
f 36/40/27 37/41/27 38/42/28 39/43/28 
f 40/41/29 41/42/30 42/43/30 43/40/29 
f 38/42/28 40/44/29 43/45/29 39/43/28 
f 41/42/30 44/44/31 45/45/31 42/43/30 
# 14 polygons - 29 triangles

