# 3ds Max Wavefront OBJ Exporter v0.99 - (c)2007 guruware
# File Created: 13.08.2021 18:27:30

mtllib Object005.mtl

#
# object Object005
#

v  2.2834 -0.7938 8.8845
v  1.7357 -0.3774 8.8929
v  1.5976 -0.8425 8.8576
v  1.8056 -1.2519 8.6968
v  2.2378 -1.3657 8.5048
v  2.6412 -1.1173 8.3939
v  2.7793 -0.6521 8.4292
v  2.5713 -0.2427 8.5899
v  2.1391 -0.1289 8.7820
v  1.5646 -0.4418 7.0583
v  1.1227 -0.2181 5.8714
v  1.5264 -0.7651 7.9492
v  1.5722 -0.3321 8.0146
v  1.1236 -0.2206 5.8706
v  2.1980 -0.8435 7.6697
v  1.8216 -1.0441 7.7792
v  1.1253 -0.2184 5.8703
v  1.9671 -0.1844 7.8876
v  2.2976 -0.4168 7.7128
v  2.2623 0.3754 8.4401
v  1.1281 -1.1194 8.5985
v  2.8566 -1.3211 7.8793
v  1.8825 -1.8697 8.1569
v  3.1420 -0.2097 7.9811
v  1.2224 0.0143 8.7798
v  1.4816 -0.3430 7.2442
v  1.7754 -0.5831 7.0823
v  1.0199 -0.2132 5.1628
v  0.7261 0.0269 5.3247
v  0.6139 -0.0320 3.9657
v  0.1900 0.0707 1.8983
v  -0.1392 0.3191 1.8853
v  0.2870 0.2185 3.9886
v  0.1576 -0.1018 0.0380
v  -0.1712 0.1425 -0.0107
v  1.5042 -0.6268 7.1806
v  1.7527 -0.2993 7.1459
v  0.9972 0.0706 5.2264
v  0.7487 -0.2569 5.2611
v  0.5747 0.2570 3.9598
v  0.1496 0.3586 1.8744
v  -0.0989 0.0312 1.9091
v  0.3262 -0.0705 3.9945
v  0.1175 0.1841 -0.0037
v  -0.1310 -0.1434 0.0310
# 45 vertices

vn 0.3605 -0.1765 0.9159
vn -0.5409 0.4833 0.6883
vn -0.7444 -0.2021 0.6364
vn -0.4380 -0.8054 0.3995
vn 0.1990 -0.9731 0.1165
vn 0.7934 -0.6070 -0.0469
vn 0.9969 0.0785 0.0051
vn 0.6904 0.6817 0.2419
vn 0.0535 0.8494 0.5250
vn -0.3605 0.1765 -0.9159
vn -0.7923 0.6074 0.0581
vn -0.9253 -0.2226 -0.3071
vn -0.7806 0.5637 -0.2698
vn -0.2781 -0.8603 -0.4273
vn 0.3750 -0.3744 -0.8481
vn -0.3552 -0.6505 -0.6713
vn 0.7031 0.4330 -0.5640
vn -0.0721 0.9018 -0.4262
vn 0.4566 0.4194 -0.7846
vn 0.2552 0.8966 0.3618
vn -0.7507 -0.4291 0.5023
vn 0.7823 -0.6080 -0.1356
vn -0.0789 -0.9929 0.0888
vn 0.9368 0.3457 -0.0530
vn -0.6112 0.5264 0.5911
vn 0.6023 0.7938 -0.0841
vn -0.7122 0.5820 0.3925
vn -0.7236 0.5874 0.3625
vn -0.7557 0.6010 0.2603
vn -0.7908 0.6078 0.0729
vn -0.7981 0.6011 -0.0422
# 31 vertex normals

vt 0.1388 0.1376 0.0000
vt 0.1388 0.2623 0.0000
vt 0.0506 0.2258 0.0000
vt 0.0141 0.1376 0.0000
vt 0.0506 0.0495 0.0000
vt 0.1388 0.0129 0.0000
vt 0.2270 0.0495 0.0000
vt 0.2635 0.1376 0.0000
vt 0.2270 0.2258 0.0000
vt 0.0971 0.4222 0.0000
vt 0.0971 0.3393 0.0000
vt 0.1557 0.3979 0.0000
vt 0.1800 0.3393 0.0000
vt 0.1557 0.2807 0.0000
vt 0.0971 0.2564 0.0000
vt 0.0384 0.2807 0.0000
vt 0.0141 0.3393 0.0000
vt 0.0384 0.3979 0.0000
vt 0.3988 0.8000 0.0000
vt 0.5567 0.7173 0.0000
vt 0.5714 0.7649 0.0000
vt 0.7274 0.3411 0.0000
vt 0.7201 0.5192 0.0000
vt 0.6715 0.5082 0.0000
vt 0.9605 0.8552 0.0000
vt 0.8100 0.7598 0.0000
vt 0.8438 0.7232 0.0000
vt 0.7650 0.7227 0.0000
vt 0.6113 0.6969 0.0000
vt 0.7105 0.5767 0.0000
vt 0.5366 0.6716 0.0000
vt 0.6034 0.5894 0.0000
vt 0.7697 0.5247 0.0000
vt 0.8075 0.6236 0.0000
vt 0.7804 0.8000 0.0000
vt 0.6758 0.7833 0.0000
vt 0.3832 0.7583 0.0000
vt 0.7714 0.3485 0.0000
vt 0.9322 0.8895 0.0000
vt 0.9456 0.7001 0.0000
vt 0.8776 0.7000 0.0000
vt 0.8784 0.3548 0.0000
vt 0.9464 0.3549 0.0000
vt 0.8792 0.0096 0.0000
vt 0.9471 0.0098 0.0000
# 45 texture coords

o Object005
g Object005
usemtl Material__75
s 1
f 1/1/1 2/2/2 3/3/3 
f 1/1/1 3/3/3 4/4/4 
f 1/1/1 4/4/4 5/5/5 
f 1/1/1 5/5/5 6/6/6 
f 1/1/1 6/6/6 7/7/7 
f 1/1/1 7/7/7 8/8/8 
f 1/1/1 8/8/8 9/9/9 
f 1/1/1 9/9/9 2/2/2 
f 2/10/2 10/11/10 3/12/3 
f 3/12/3 10/11/10 4/13/4 
f 4/13/4 10/11/10 5/14/5 
f 5/14/5 10/11/10 6/15/6 
f 6/15/6 10/11/10 7/16/7 
f 7/16/7 10/11/10 8/17/8 
f 8/17/8 10/11/10 9/18/9 
f 9/18/9 10/11/10 2/10/2 
s 8
f 11/19/11 12/20/12 13/21/13 
f 14/22/14 15/23/15 16/24/16 
f 17/25/17 18/26/18 19/27/19 
s 1
f 20/28/20 21/29/21 22/30/22 
s 8
f 16/31/16 23/32/23 21/29/21 12/20/12 
f 19/33/19 24/34/24 22/30/22 15/23/15 
f 13/35/13 25/36/25 20/28/20 18/26/18 
s 1
f 21/29/21 23/32/23 22/30/22 
f 20/28/20 25/36/25 21/29/21 
f 22/30/22 24/34/24 20/28/20 
s 8
f 21/29/21 25/36/25 13/21/13 12/20/12 
f 22/30/22 23/32/23 16/24/16 15/23/15 
f 20/28/20 24/34/24 19/27/19 18/26/18 
f 14/37/14 16/31/16 12/20/12 
f 11/19/11 14/37/14 12/20/12 
f 17/38/17 19/33/19 15/23/15 
f 14/22/14 17/38/17 15/23/15 
f 11/39/11 13/35/13 18/26/18 
f 17/25/17 11/39/11 18/26/18 
s 1
f 26/40/26 27/41/26 28/42/26 29/43/26 
f 30/41/26 31/42/26 32/43/26 33/40/26 
f 28/42/26 30/44/26 33/45/26 29/43/26 
f 31/42/26 34/44/26 35/45/26 32/43/26 
f 36/40/27 37/41/27 38/42/28 39/43/28 
f 40/41/29 41/42/30 42/43/30 43/40/29 
f 38/42/28 40/44/29 43/45/29 39/43/28 
f 41/42/30 44/44/31 45/45/31 42/43/30 
# 14 polygons - 29 triangles

