# 3ds Max Wavefront OBJ Exporter v0.99 - (c)2007 guruware
# File Created: 13.08.2021 18:28:17

mtllib Object074.mtl

#
# object Object074
#

v  -15.9263 5.4746 9.5670
v  -14.6905 2.2575 10.2369
v  -14.0880 3.2963 11.8342
v  -14.9042 6.2131 11.7010
v  -16.7988 4.0542 4.9501
v  -16.1957 3.0494 6.4351
v  -16.5965 4.7438 7.2954
v  -15.4446 2.3293 8.3141
v  -13.7720 4.7065 12.7200
v  -13.5441 6.8799 13.4233
v  -14.8269 8.8775 10.2567
v  -15.5519 8.7638 8.3979
v  -16.5587 5.7910 5.6602
v  -16.1335 7.5324 6.8435
v  -14.2411 8.2502 11.7184
# 15 vertices

vn -0.9313 -0.0205 0.3636
vn -0.8765 -0.2512 0.4106
vn -0.8393 -0.2120 0.5006
vn -0.8573 0.0317 0.5139
vn -0.9885 -0.0986 0.1143
vn -0.9238 -0.3229 0.2056
vn -0.9750 -0.0694 0.2111
vn -0.9016 -0.2977 0.3139
vn -0.7743 -0.1695 0.6097
vn -0.7952 0.0651 0.6028
vn -0.8978 0.2298 0.3758
vn -0.9371 0.2066 0.2812
vn -0.9863 0.1486 0.0723
vn -0.9660 0.1890 0.1763
vn -0.8320 0.2667 0.4864
# 15 vertex normals

vt 0.4626 0.3218 0.0000
vt 0.6854 0.3243 0.0000
vt 0.6544 0.4514 0.0000
vt 0.4639 0.4763 0.0000
vt 0.4616 0.0121 0.0000
vt 0.5564 0.0894 0.0000
vt 0.4610 0.1670 0.0000
vt 0.6395 0.1991 0.0000
vt 0.5844 0.5372 0.0000
vt 0.4618 0.6212 0.0000
vt 0.2733 0.4519 0.0000
vt 0.2398 0.3278 0.0000
vt 0.3664 0.0894 0.0000
vt 0.2828 0.2004 0.0000
vt 0.3420 0.5352 0.0000
# 15 texture coords

o Object074
g Object074
usemtl Material__77
s 1
f 1/1/1 2/2/2 3/3/3 4/4/4 
f 5/5/5 6/6/6 7/7/7 
f 8/8/8 2/2/2 1/1/1 7/7/7 
f 3/3/3 9/9/9 4/4/4 
f 6/6/6 8/8/8 7/7/7 
f 9/9/9 10/10/10 4/4/4 
f 1/1/1 4/4/4 11/11/11 12/12/12 
f 5/5/5 7/7/7 13/13/13 
f 14/14/14 7/7/7 1/1/1 12/12/12 
f 11/11/11 4/4/4 15/15/15 
f 13/13/13 7/7/7 14/14/14 
f 15/15/15 4/4/4 10/10/10 
# 4 polygons - 8 triangles

