# 3ds Max Wavefront OBJ Exporter v0.99 - (c)2007 guruware
# File Created: 13.08.2021 18:28:02

mtllib Object051.mtl

#
# object Object051
#

v  -1.4465 7.7912 10.3073
v  -2.9420 5.3500 11.2528
v  -1.4296 5.1931 12.0484
v  0.2113 7.1289 11.4666
v  -4.4118 8.3471 7.3633
v  -4.3367 7.2686 8.5758
v  -3.0173 8.2225 8.9371
v  -3.8694 6.1648 9.9777
v  -0.0274 5.5008 12.2895
v  1.7976 6.2437 12.2280
v  1.5397 8.4749 9.6773
v  0.5195 9.1759 8.4886
v  -2.8781 8.8807 7.4111
v  -1.1013 9.2243 7.7673
v  1.8579 7.5845 10.7840
# 15 vertices

vn -0.2685 0.7118 0.6490
vn -0.4085 0.5363 0.7385
vn -0.3232 0.5130 0.7952
vn -0.1314 0.6559 0.7433
vn -0.4604 0.7545 0.4677
vn -0.5724 0.5676 0.5917
vn -0.3906 0.7445 0.5414
vn -0.4971 0.5466 0.6738
vn -0.2152 0.4655 0.8585
vn -0.0405 0.6089 0.7922
vn -0.0495 0.8155 0.5767
vn -0.1249 0.8498 0.5121
vn -0.2804 0.8904 0.3585
vn -0.1956 0.8799 0.4331
vn 0.0550 0.7641 0.6427
# 15 vertex normals

vt 0.4626 0.3218 0.0000
vt 0.6854 0.3243 0.0000
vt 0.6544 0.4514 0.0000
vt 0.4639 0.4763 0.0000
vt 0.4616 0.0121 0.0000
vt 0.5564 0.0894 0.0000
vt 0.4610 0.1670 0.0000
vt 0.6395 0.1991 0.0000
vt 0.5844 0.5372 0.0000
vt 0.4618 0.6212 0.0000
vt 0.2733 0.4519 0.0000
vt 0.2398 0.3278 0.0000
vt 0.3664 0.0894 0.0000
vt 0.2828 0.2004 0.0000
vt 0.3420 0.5352 0.0000
# 15 texture coords

o Object051
g Object051
usemtl Material__79
s 1
f 1/1/1 2/2/2 3/3/3 4/4/4 
f 5/5/5 6/6/6 7/7/7 
f 8/8/8 2/2/2 1/1/1 7/7/7 
f 3/3/3 9/9/9 4/4/4 
f 6/6/6 8/8/8 7/7/7 
f 9/9/9 10/10/10 4/4/4 
f 1/1/1 4/4/4 11/11/11 12/12/12 
f 5/5/5 7/7/7 13/13/13 
f 14/14/14 7/7/7 1/1/1 12/12/12 
f 11/11/11 4/4/4 15/15/15 
f 13/13/13 7/7/7 14/14/14 
f 15/15/15 4/4/4 10/10/10 
# 4 polygons - 8 triangles

