# 3ds Max Wavefront OBJ Exporter v0.99 - (c)2007 guruware
# File Created: 13.08.2021 18:28:15

mtllib Object070.mtl

#
# object Object070
#

v  -17.3811 -4.1329 5.0077
v  -17.1315 -6.3179 2.2711
v  -16.8472 -7.5371 3.8287
v  -16.9389 -6.0750 6.4830
v  -17.0597 -0.3625 1.8809
v  -17.1766 -2.2187 1.5354
v  -17.4529 -2.2001 3.4576
v  -17.2179 -4.3652 1.5998
v  -16.5282 -7.9074 5.4518
v  -16.0711 -7.8150 7.6996
v  -15.8499 -3.9101 8.3047
v  -15.9688 -2.0896 7.4890
v  -16.6867 -0.4371 3.7340
v  -16.2881 -0.9840 5.7725
v  -15.8950 -5.6045 8.2937
# 15 vertices

vn -0.9799 0.0255 0.1977
vn -0.9930 -0.1178 0.0035
vn -0.9781 -0.1947 0.0735
vn -0.9468 -0.1119 0.3017
vn -0.9722 0.2324 0.0283
vn -0.9885 0.0497 -0.1426
vn -0.9835 0.1548 0.0937
vn -0.9962 -0.0423 -0.0767
vn -0.9427 -0.2970 0.1523
vn -0.9098 -0.1992 0.3641
vn -0.8992 0.0924 0.4277
vn -0.9112 0.1797 0.3706
vn -0.9043 0.3561 0.2355
vn -0.9092 0.2740 0.3136
vn -0.8647 -0.0135 0.5021
# 15 vertex normals

vt 0.4626 0.3218 0.0000
vt 0.6854 0.3243 0.0000
vt 0.6544 0.4514 0.0000
vt 0.4639 0.4763 0.0000
vt 0.4616 0.0121 0.0000
vt 0.5564 0.0894 0.0000
vt 0.4610 0.1670 0.0000
vt 0.6395 0.1991 0.0000
vt 0.5844 0.5372 0.0000
vt 0.4618 0.6212 0.0000
vt 0.2733 0.4519 0.0000
vt 0.2398 0.3278 0.0000
vt 0.3664 0.0894 0.0000
vt 0.2828 0.2004 0.0000
vt 0.3420 0.5352 0.0000
# 15 texture coords

o Object070
g Object070
usemtl Material__69
s 1
f 1/1/1 2/2/2 3/3/3 4/4/4 
f 5/5/5 6/6/6 7/7/7 
f 8/8/8 2/2/2 1/1/1 7/7/7 
f 3/3/3 9/9/9 4/4/4 
f 6/6/6 8/8/8 7/7/7 
f 9/9/9 10/10/10 4/4/4 
f 1/1/1 4/4/4 11/11/11 12/12/12 
f 5/5/5 7/7/7 13/13/13 
f 14/14/14 7/7/7 1/1/1 12/12/12 
f 11/11/11 4/4/4 15/15/15 
f 13/13/13 7/7/7 14/14/14 
f 15/15/15 4/4/4 10/10/10 
# 4 polygons - 8 triangles

