# 3ds Max Wavefront OBJ Exporter v0.99 - (c)2007 guruware
# File Created: 13.08.2021 18:27:32

mtllib Object008.mtl

#
# object Object008
#

v  -17.9169 -0.5953 2.2620
v  -17.8232 0.0491 1.7190
v  -17.8551 -0.4726 1.4254
v  -17.7433 -1.0449 1.5645
v  -17.5532 -1.3326 2.0549
v  -17.3962 -1.1671 2.6093
v  -17.3643 -0.6454 2.9029
v  -17.4761 -0.0731 2.7638
v  -17.6662 0.2145 2.2734
v  -15.5905 -0.3208 1.5212
v  -14.0808 -0.1552 1.0687
v  -16.7309 -0.5296 1.3739
v  -16.7364 -0.0156 1.5473
v  -14.0803 -0.1587 1.0691
v  -16.4413 -0.8561 2.1626
v  -16.5896 -0.9723 1.6538
v  -14.0797 -0.1565 1.0718
v  -16.5772 0.0296 2.0640
v  -16.4235 -0.3682 2.3993
v  -17.1671 0.7169 2.5651
v  -17.5629 -0.7224 0.7888
v  -16.8173 -1.5627 2.8190
v  -17.1995 -1.8995 1.4941
v  -16.7599 -0.3010 3.4667
v  -17.5879 0.6322 1.2121
v  -15.7948 -0.1466 1.4462
v  -15.6563 -0.5412 1.7351
v  -13.2111 -0.2528 0.9565
v  -13.3496 0.1419 0.6675
v  -11.6985 -0.1493 0.5356
v  -9.1386 -0.2953 0.0835
v  -9.0608 0.0863 -0.2432
v  -11.6640 0.2410 0.2117
v  -6.9014 -0.8358 0.0229
v  -6.7808 -0.4657 -0.3039
v  -15.7689 -0.5016 1.3960
v  -15.6822 -0.1862 1.7852
v  -13.2370 0.1022 1.0066
v  -13.3237 -0.2131 0.6174
v  -11.6379 0.2035 0.5682
v  -9.0563 0.0532 0.1147
v  -9.1430 -0.2622 -0.2744
v  -11.7246 -0.1119 0.1790
v  -6.7977 -0.4931 0.0541
v  -6.8845 -0.8084 -0.3351
# 45 vertices

vn -0.9469 -0.1117 0.3015
vn -0.5869 0.6881 -0.4268
vn -0.6251 0.0642 -0.7779
vn -0.4914 -0.6202 -0.6115
vn -0.2640 -0.9642 -0.0250
vn -0.0763 -0.7663 0.6379
vn -0.0381 -0.1424 0.9891
vn -0.1718 0.5420 0.8227
vn -0.3991 0.8860 0.2362
vn 0.9469 0.1117 -0.3015
vn 0.0653 0.7683 -0.6367
vn 0.3127 -0.0576 -0.9481
vn 0.3826 0.6743 -0.6316
vn 0.3105 -0.8324 -0.4590
vn 0.7678 -0.5706 0.2913
vn 0.5858 -0.6500 -0.4841
vn 0.5890 0.1780 0.7883
vn 0.5543 0.8211 0.1363
vn 0.8157 0.1862 0.5477
vn -0.2400 0.8627 0.4452
vn -0.5249 -0.1734 -0.8333
vn 0.0118 -0.7782 0.6279
vn -0.2272 -0.9265 -0.3000
vn 0.0604 0.1196 0.9910
vn -0.4814 0.7304 -0.4845
vn 0.1706 0.6203 0.7656
vn 0.1706 0.6203 0.7655
vn -0.2726 0.7763 -0.5683
vn -0.2416 0.7796 -0.5779
vn -0.1372 0.7843 -0.6050
vn 0.0505 0.7704 -0.6355
vn 0.1637 0.7483 -0.6428
# 32 vertex normals

vt 0.1388 0.1376 0.0000
vt 0.1388 0.2623 0.0000
vt 0.0506 0.2258 0.0000
vt 0.0141 0.1376 0.0000
vt 0.0506 0.0495 0.0000
vt 0.1388 0.0129 0.0000
vt 0.2270 0.0495 0.0000
vt 0.2635 0.1376 0.0000
vt 0.2270 0.2258 0.0000
vt 0.0971 0.4222 0.0000
vt 0.0971 0.3393 0.0000
vt 0.1557 0.3979 0.0000
vt 0.1800 0.3393 0.0000
vt 0.1557 0.2807 0.0000
vt 0.0971 0.2564 0.0000
vt 0.0384 0.2807 0.0000
vt 0.0141 0.3393 0.0000
vt 0.0384 0.3979 0.0000
vt 0.3988 0.8000 0.0000
vt 0.5567 0.7173 0.0000
vt 0.5714 0.7649 0.0000
vt 0.7274 0.3411 0.0000
vt 0.7201 0.5192 0.0000
vt 0.6715 0.5082 0.0000
vt 0.9605 0.8552 0.0000
vt 0.8100 0.7598 0.0000
vt 0.8438 0.7232 0.0000
vt 0.7650 0.7227 0.0000
vt 0.6113 0.6969 0.0000
vt 0.7105 0.5767 0.0000
vt 0.5366 0.6716 0.0000
vt 0.6034 0.5894 0.0000
vt 0.7697 0.5247 0.0000
vt 0.8075 0.6236 0.0000
vt 0.7804 0.8000 0.0000
vt 0.6758 0.7833 0.0000
vt 0.3832 0.7583 0.0000
vt 0.7714 0.3485 0.0000
vt 0.9322 0.8895 0.0000
vt 0.9456 0.7001 0.0000
vt 0.8776 0.7000 0.0000
vt 0.8784 0.3548 0.0000
vt 0.9464 0.3549 0.0000
vt 0.8792 0.0096 0.0000
vt 0.9471 0.0098 0.0000
# 45 texture coords

o Object008
g Object008
usemtl Material__69
s 1
f 1/1/1 2/2/2 3/3/3 
f 1/1/1 3/3/3 4/4/4 
f 1/1/1 4/4/4 5/5/5 
f 1/1/1 5/5/5 6/6/6 
f 1/1/1 6/6/6 7/7/7 
f 1/1/1 7/7/7 8/8/8 
f 1/1/1 8/8/8 9/9/9 
f 1/1/1 9/9/9 2/2/2 
f 2/10/2 10/11/10 3/12/3 
f 3/12/3 10/11/10 4/13/4 
f 4/13/4 10/11/10 5/14/5 
f 5/14/5 10/11/10 6/15/6 
f 6/15/6 10/11/10 7/16/7 
f 7/16/7 10/11/10 8/17/8 
f 8/17/8 10/11/10 9/18/9 
f 9/18/9 10/11/10 2/10/2 
s 8
f 11/19/11 12/20/12 13/21/13 
f 14/22/14 15/23/15 16/24/16 
f 17/25/17 18/26/18 19/27/19 
s 1
f 20/28/20 21/29/21 22/30/22 
s 8
f 16/31/16 23/32/23 21/29/21 12/20/12 
f 19/33/19 24/34/24 22/30/22 15/23/15 
f 13/35/13 25/36/25 20/28/20 18/26/18 
s 1
f 21/29/21 23/32/23 22/30/22 
f 20/28/20 25/36/25 21/29/21 
f 22/30/22 24/34/24 20/28/20 
s 8
f 21/29/21 25/36/25 13/21/13 12/20/12 
f 22/30/22 23/32/23 16/24/16 15/23/15 
f 20/28/20 24/34/24 19/27/19 18/26/18 
f 14/37/14 16/31/16 12/20/12 
f 11/19/11 14/37/14 12/20/12 
f 17/38/17 19/33/19 15/23/15 
f 14/22/14 17/38/17 15/23/15 
f 11/39/11 13/35/13 18/26/18 
f 17/25/17 11/39/11 18/26/18 
s 1
f 26/40/26 27/41/26 28/42/27 29/43/27 
f 30/41/26 31/42/26 32/43/26 33/40/26 
f 28/42/27 30/44/26 33/45/26 29/43/27 
f 31/42/26 34/44/26 35/45/26 32/43/26 
f 36/40/28 37/41/28 38/42/29 39/43/29 
f 40/41/30 41/42/31 42/43/31 43/40/30 
f 38/42/29 40/44/30 43/45/30 39/43/29 
f 41/42/31 44/44/32 45/45/32 42/43/31 
# 14 polygons - 29 triangles

