# 3ds Max Wavefront OBJ Exporter v0.99 - (c)2007 guruware
# File Created: 13.08.2021 18:27:58

mtllib Object044.mtl

#
# object Object044
#

v  -0.3872 -7.7861 9.4333
v  -2.1466 -9.5328 6.9475
v  -0.4629 -10.5957 7.1173
v  1.4442 -9.4352 9.1685
v  -3.5639 -4.0797 8.9168
v  -3.5627 -5.7963 8.1219
v  -2.0916 -5.9874 9.3753
v  -3.1237 -7.7645 7.3825
v  1.1330 -10.8770 7.6147
v  3.2364 -10.7108 8.5191
v  3.1190 -7.1041 10.1441
v  2.0290 -5.4623 10.4761
v  -1.8032 -4.0811 9.6087
v  0.2155 -4.5094 10.2043
v  3.4072 -8.6600 9.5365
# 15 vertices

vn -0.3368 -0.3954 0.8546
vn -0.4795 -0.5215 0.7058
vn -0.3986 -0.5884 0.7035
vn -0.2066 -0.5113 0.8342
vn -0.5142 -0.1962 0.8349
vn -0.6316 -0.3605 0.6863
vn -0.4504 -0.2745 0.8496
vn -0.5628 -0.4504 0.6931
vn -0.2950 -0.6702 0.6810
vn -0.1188 -0.5780 0.8073
vn -0.1151 -0.3120 0.9431
vn -0.1857 -0.2350 0.9541
vn -0.3291 -0.0656 0.9420
vn -0.2504 -0.1459 0.9571
vn -0.0151 -0.3974 0.9175
# 15 vertex normals

vt 0.4626 0.3218 0.0000
vt 0.6854 0.3243 0.0000
vt 0.6544 0.4514 0.0000
vt 0.4639 0.4763 0.0000
vt 0.4616 0.0121 0.0000
vt 0.5564 0.0894 0.0000
vt 0.4610 0.1670 0.0000
vt 0.6395 0.1991 0.0000
vt 0.5844 0.5372 0.0000
vt 0.4618 0.6212 0.0000
vt 0.2733 0.4519 0.0000
vt 0.2398 0.3278 0.0000
vt 0.3664 0.0894 0.0000
vt 0.2828 0.2004 0.0000
vt 0.3420 0.5352 0.0000
# 15 texture coords

o Object044
g Object044
usemtl Material__52
s 1
f 1/1/1 2/2/2 3/3/3 4/4/4 
f 5/5/5 6/6/6 7/7/7 
f 8/8/8 2/2/2 1/1/1 7/7/7 
f 3/3/3 9/9/9 4/4/4 
f 6/6/6 8/8/8 7/7/7 
f 9/9/9 10/10/10 4/4/4 
f 1/1/1 4/4/4 11/11/11 12/12/12 
f 5/5/5 7/7/7 13/13/13 
f 14/14/14 7/7/7 1/1/1 12/12/12 
f 11/11/11 4/4/4 15/15/15 
f 13/13/13 7/7/7 14/14/14 
f 15/15/15 4/4/4 10/10/10 
# 4 polygons - 8 triangles

