# 3ds Max Wavefront OBJ Exporter v0.99 - (c)2007 guruware
# File Created: 13.08.2021 18:28:40

mtllib Object108.mtl

#
# object Object108
#

v  -16.2201 14.3633 1.1862
v  -17.8542 12.7635 -1.4777
v  -19.0413 12.3460 0.0748
v  -18.0077 13.5102 2.6763
v  -12.2867 14.9029 -1.7006
v  -14.0071 14.2296 -2.1075
v  -14.2966 14.8638 -0.2949
v  -16.0114 13.4574 -2.1048
v  -19.4386 12.2351 1.7189
v  -19.4243 12.2996 4.0136
v  -15.8012 13.7143 4.7453
v  -14.0770 14.3587 3.9671
v  -12.4156 14.9017 0.1867
v  -12.9909 14.7331 2.2493
v  -17.3814 13.1039 4.6844
# 15 vertices

vn -0.3588 0.9331 -0.0245
vn -0.4752 0.8519 -0.2201
vn -0.5482 0.8227 -0.1504
vn -0.4846 0.8710 0.0810
vn -0.1468 0.9721 -0.1829
vn -0.3033 0.8833 -0.3575
vn -0.2296 0.9654 -0.1236
vn -0.3981 0.8679 -0.2972
vn -0.6380 0.7671 -0.0682
vn -0.5581 0.8165 0.1480
vn -0.2917 0.9310 0.2193
vn -0.2094 0.9641 0.1630
vn -0.0296 0.9989 0.0370
vn -0.1156 0.9872 0.1101
vn -0.3847 0.8740 0.2968
# 15 vertex normals

vt 0.4626 0.3218 0.0000
vt 0.6854 0.3243 0.0000
vt 0.6544 0.4514 0.0000
vt 0.4639 0.4763 0.0000
vt 0.4616 0.0121 0.0000
vt 0.5564 0.0894 0.0000
vt 0.4610 0.1670 0.0000
vt 0.6395 0.1991 0.0000
vt 0.5844 0.5372 0.0000
vt 0.4618 0.6212 0.0000
vt 0.2733 0.4519 0.0000
vt 0.2398 0.3278 0.0000
vt 0.3664 0.0894 0.0000
vt 0.2828 0.2004 0.0000
vt 0.3420 0.5352 0.0000
# 15 texture coords

o Object108
g Object108
usemtl Material__84
s 1
f 1/1/1 2/2/2 3/3/3 4/4/4 
f 5/5/5 6/6/6 7/7/7 
f 8/8/8 2/2/2 1/1/1 7/7/7 
f 3/3/3 9/9/9 4/4/4 
f 6/6/6 8/8/8 7/7/7 
f 9/9/9 10/10/10 4/4/4 
f 1/1/1 4/4/4 11/11/11 12/12/12 
f 5/5/5 7/7/7 13/13/13 
f 14/14/14 7/7/7 1/1/1 12/12/12 
f 11/11/11 4/4/4 15/15/15 
f 13/13/13 7/7/7 14/14/14 
f 15/15/15 4/4/4 10/10/10 
# 4 polygons - 8 triangles

