# 3ds Max Wavefront OBJ Exporter v0.99 - (c)2007 guruware
# File Created: 13.08.2021 18:27:56

mtllib Object041.mtl

#
# object Object041
#

v  -10.2524 -6.5544 10.0368
v  -7.5099 -4.6656 11.1492
v  -9.0505 -3.7706 12.0543
v  -11.7103 -5.0500 11.3616
v  -7.3351 -8.5853 6.6515
v  -6.9139 -7.3929 8.0583
v  -8.7743 -7.7739 8.4646
v  -6.8993 -5.9848 9.6803
v  -10.6894 -3.4268 12.3170
v  -12.9817 -3.3465 12.2232
v  -13.7437 -5.8627 9.2649
v  -12.9812 -7.1045 7.8974
v  -9.2192 -8.4205 6.6882
v  -11.2746 -7.9351 7.0799
v  -13.6693 -4.7551 10.5459
# 15 vertices

vn -0.0527 -0.7543 0.6544
vn 0.1461 -0.6509 0.7450
vn 0.0773 -0.5942 0.8006
vn -0.1557 -0.6465 0.7469
vn 0.1067 -0.8732 0.4755
vn 0.2842 -0.7477 0.6002
vn 0.0463 -0.8350 0.5483
vn 0.2233 -0.6970 0.6814
vn -0.0024 -0.5061 0.8624
vn -0.2199 -0.5660 0.7945
vn -0.2942 -0.7598 0.5798
vn -0.2389 -0.8225 0.5162
vn -0.1123 -0.9244 0.3646
vn -0.1859 -0.8795 0.4381
vn -0.3691 -0.6696 0.6445
# 15 vertex normals

vt 0.4626 0.3218 0.0000
vt 0.6854 0.3243 0.0000
vt 0.6544 0.4514 0.0000
vt 0.4639 0.4763 0.0000
vt 0.4616 0.0121 0.0000
vt 0.5564 0.0894 0.0000
vt 0.4610 0.1670 0.0000
vt 0.6395 0.1991 0.0000
vt 0.5844 0.5372 0.0000
vt 0.4618 0.6212 0.0000
vt 0.2733 0.4519 0.0000
vt 0.2398 0.3278 0.0000
vt 0.3664 0.0894 0.0000
vt 0.2828 0.2004 0.0000
vt 0.3420 0.5352 0.0000
# 15 texture coords

o Object041
g Object041
usemtl Material__78
s 1
f 1/1/1 2/2/2 3/3/3 4/4/4 
f 5/5/5 6/6/6 7/7/7 
f 8/8/8 2/2/2 1/1/1 7/7/7 
f 3/3/3 9/9/9 4/4/4 
f 6/6/6 8/8/8 7/7/7 
f 9/9/9 10/10/10 4/4/4 
f 1/1/1 4/4/4 11/11/11 12/12/12 
f 5/5/5 7/7/7 13/13/13 
f 14/14/14 7/7/7 1/1/1 12/12/12 
f 11/11/11 4/4/4 15/15/15 
f 13/13/13 7/7/7 14/14/14 
f 15/15/15 4/4/4 10/10/10 
# 4 polygons - 8 triangles

