# 3ds Max Wavefront OBJ Exporter v0.99 - (c)2007 guruware
# File Created: 13.08.2021 18:28:39

mtllib Object107.mtl

#
# object Object107
#

v  -15.7996 15.6477 -4.8746
v  -13.2617 16.3600 -7.1936
v  -14.8706 16.1497 -8.3602
v  -17.3710 15.4758 -6.7838
v  -12.3317 14.8918 -1.4837
v  -12.1731 15.5109 -3.2642
v  -14.1055 15.4788 -3.0731
v  -12.4352 16.0665 -5.3224
v  -16.4631 15.6882 -8.7126
v  -18.6121 14.8861 -8.6202
v  -18.8287 13.6258 -4.8749
v  -17.8759 13.4177 -3.1306
v  -14.1174 14.2712 -1.5522
v  -16.1251 13.7136 -2.0732
v  -18.9762 14.0857 -6.4997
# 15 vertices

vn -0.3238 0.9020 0.2854
vn -0.1468 0.9792 0.1401
vn -0.2208 0.9731 0.0658
vn -0.4344 0.8882 0.1499
vn -0.1371 0.8697 0.4741
vn 0.0130 0.9561 0.2929
vn -0.2101 0.8896 0.4056
vn -0.0612 0.9759 0.2095
vn -0.3030 0.9522 -0.0378
vn -0.4989 0.8646 0.0595
vn -0.5340 0.7733 0.3417
vn -0.4714 0.7722 0.4260
vn -0.3213 0.7429 0.5873
vn -0.4064 0.7558 0.5134
vn -0.6123 0.7550 0.2346
# 15 vertex normals

vt 0.4626 0.3218 0.0000
vt 0.6854 0.3243 0.0000
vt 0.6544 0.4514 0.0000
vt 0.4639 0.4763 0.0000
vt 0.4616 0.0121 0.0000
vt 0.5564 0.0894 0.0000
vt 0.4610 0.1670 0.0000
vt 0.6395 0.1991 0.0000
vt 0.5844 0.5372 0.0000
vt 0.4618 0.6212 0.0000
vt 0.2733 0.4519 0.0000
vt 0.2398 0.3278 0.0000
vt 0.3664 0.0894 0.0000
vt 0.2828 0.2004 0.0000
vt 0.3420 0.5352 0.0000
# 15 texture coords

o Object107
g Object107
usemtl Material__84
s 1
f 1/1/1 2/2/2 3/3/3 4/4/4 
f 5/5/5 6/6/6 7/7/7 
f 8/8/8 2/2/2 1/1/1 7/7/7 
f 3/3/3 9/9/9 4/4/4 
f 6/6/6 8/8/8 7/7/7 
f 9/9/9 10/10/10 4/4/4 
f 1/1/1 4/4/4 11/11/11 12/12/12 
f 5/5/5 7/7/7 13/13/13 
f 14/14/14 7/7/7 1/1/1 12/12/12 
f 11/11/11 4/4/4 15/15/15 
f 13/13/13 7/7/7 14/14/14 
f 15/15/15 4/4/4 10/10/10 
# 4 polygons - 8 triangles

