# 3ds Max Wavefront OBJ Exporter v0.99 - (c)2007 guruware
# File Created: 13.08.2021 18:28:10

mtllib Object063.mtl

#
# object Object063
#

v  -14.7264 2.1437 10.0532
v  -12.7767 5.0299 10.4940
v  -14.6032 5.7810 10.1890
v  -16.6825 3.6271 9.7112
v  -10.5825 -0.4476 9.5958
v  -10.8310 1.3767 10.0303
v  -12.6716 0.7575 10.0437
v  -11.5508 3.3701 10.3793
v  -16.2298 5.7211 9.7159
v  -18.2965 5.0714 8.9564
v  -17.6602 1.2642 8.0827
v  -16.3404 -0.2358 8.0385
v  -12.3326 -0.8420 8.9957
v  -14.4007 -0.8408 8.4157
v  -18.1708 2.8532 8.3786
# 15 vertices

vn -0.2604 -0.2577 0.9305
vn -0.1210 -0.0695 0.9902
vn -0.2096 -0.0146 0.9777
vn -0.3983 -0.1522 0.9045
vn -0.0359 -0.4023 0.9148
vn 0.0691 -0.1843 0.9804
vn -0.1226 -0.3501 0.9287
vn -0.0221 -0.1181 0.9928
vn -0.3127 0.0654 0.9476
vn -0.4811 -0.0814 0.8729
vn -0.4516 -0.3721 0.8110
vn -0.3717 -0.4400 0.8174
vn -0.1891 -0.5659 0.8025
vn -0.2886 -0.5119 0.8091
vn -0.5516 -0.2876 0.7830
# 15 vertex normals

vt 0.4626 0.3218 0.0000
vt 0.6854 0.3243 0.0000
vt 0.6544 0.4514 0.0000
vt 0.4639 0.4763 0.0000
vt 0.4616 0.0121 0.0000
vt 0.5564 0.0894 0.0000
vt 0.4610 0.1670 0.0000
vt 0.6395 0.1991 0.0000
vt 0.5844 0.5372 0.0000
vt 0.4618 0.6212 0.0000
vt 0.2733 0.4519 0.0000
vt 0.2398 0.3278 0.0000
vt 0.3664 0.0894 0.0000
vt 0.2828 0.2004 0.0000
vt 0.3420 0.5352 0.0000
# 15 texture coords

o Object063
g Object063
usemtl Material__83
s 1
f 1/1/1 2/2/2 3/3/3 4/4/4 
f 5/5/5 6/6/6 7/7/7 
f 8/8/8 2/2/2 1/1/1 7/7/7 
f 3/3/3 9/9/9 4/4/4 
f 6/6/6 8/8/8 7/7/7 
f 9/9/9 10/10/10 4/4/4 
f 1/1/1 4/4/4 11/11/11 12/12/12 
f 5/5/5 7/7/7 13/13/13 
f 14/14/14 7/7/7 1/1/1 12/12/12 
f 11/11/11 4/4/4 15/15/15 
f 13/13/13 7/7/7 14/14/14 
f 15/15/15 4/4/4 10/10/10 
# 4 polygons - 8 triangles

