# 3ds Max Wavefront OBJ Exporter v0.99 - (c)2007 guruware
# File Created: 13.08.2021 18:27:44

mtllib Object023.mtl

#
# object Object023
#

v  -12.2359 -3.8630 7.0841
v  -9.4985 -5.2163 7.9464
v  -9.8987 -4.1912 9.3786
v  -12.2266 -2.7842 9.0475
v  -11.4946 -5.2483 2.9350
v  -10.6167 -5.5603 4.3686
v  -12.0082 -4.7154 5.0249
v  -9.8555 -5.6013 6.1540
v  -10.6498 -3.0872 10.1297
v  -11.9146 -1.5342 10.6715
v  -13.6948 -0.9618 7.6222
v  -13.9238 -1.4516 5.8988
v  -12.4814 -3.9740 3.5058
v  -13.3944 -2.5907 4.5165
v  -13.0600 -1.0367 9.0145
v  -12.0535 -5.6379 3.4240
v  -11.7596 -5.0659 3.8405
v  -12.1466 -4.8821 3.5088
v  -12.3618 -5.0503 3.0409
v  -12.2791 -5.4719 2.7108
v  -11.9470 -5.9000 2.7119
v  -11.5600 -6.0838 3.0436
v  -11.3447 -5.9156 3.5115
v  -11.4274 -5.4939 3.8416
v  -10.5370 -4.4642 2.3045
v  -9.9661 -8.5660 5.2278
v  -9.7011 -10.1548 2.4939
v  -8.7370 -11.1708 3.6342
v  -8.6666 -10.1301 6.1680
v  -11.5835 -5.1199 2.9493
v  -11.1797 -6.6939 2.4174
v  -10.9768 -6.8817 4.1507
v  -10.5311 -8.5094 2.1896
v  -7.9938 -11.4680 4.9405
v  -7.1403 -11.3674 6.8290
v  -8.0374 -8.0575 7.8463
v  -8.8856 -6.5253 7.4042
v  -10.8361 -5.1646 4.4864
v  -9.8789 -5.6070 6.1163
v  -7.5496 -9.4912 7.6149
v  -15.5558 -3.8036 2.6489
v  -14.8380 -1.4543 4.6574
v  -16.4216 -0.9177 3.9744
v  -17.4197 -2.6764 2.1253
v  -11.3901 -5.2773 3.0463
v  -12.1873 -4.0079 3.8687
v  -13.5301 -4.7024 2.9768
v  -13.3848 -2.6173 4.5016
v  -17.5856 -0.9462 2.9787
v  -18.8707 -1.3809 1.4088
v  -17.1212 -4.0310 -0.2377
v  -15.6536 -5.0837 -0.2529
v  -12.5309 -5.5372 1.7997
v  -14.0370 -5.5197 0.5749
v  -18.0298 -2.9230 0.3043
v  -13.0288 -8.3504 0.5418
v  -14.7620 -6.1888 -1.0050
v  -14.8836 -7.6340 -2.0815
v  -13.4741 -9.7800 -1.1246
v  -11.4467 -5.0951 3.1075
v  -12.6561 -5.0499 1.8999
v  -12.3618 -6.7779 1.9913
v  -13.8798 -5.3811 0.4297
v  -14.4871 -9.0233 -2.5910
v  -13.5859 -10.8690 -2.8849
v  -11.0876 -10.8634 -0.3251
v  -10.3367 -9.9535 1.0426
v  -10.7915 -6.6362 2.7627
v  -10.3410 -8.3917 2.0671
v  -12.0768 -11.0738 -1.4758
v  -9.5530 -3.7285 1.5682
v  -11.4464 -4.6049 2.8232
v  -11.1176 -4.6931 3.1762
v  -9.5545 -3.7292 1.5655
v  -11.2472 -5.2696 2.3962
v  -11.5346 -4.8732 2.4224
v  -9.5523 -3.7311 1.5665
v  -10.8611 -5.1028 3.0940
v  -10.9024 -5.4111 2.7149
v  -10.7421 -5.5789 3.8906
v  -12.2486 -4.2973 3.1935
v  -11.7358 -6.0081 2.0944
v  -12.5010 -4.9793 2.1366
v  -10.8280 -6.4025 2.9107
v  -11.3975 -4.5026 4.1313
v  -10.5923 -4.4208 2.5466
v  -10.6531 -4.6915 2.1804
v  -9.0591 -3.4578 1.0037
v  -8.9983 -3.1871 1.3699
v  -8.1006 -2.7568 0.2212
v  -6.5966 -1.8365 -1.3371
v  -6.4089 -1.4885 -1.1031
v  -7.9361 -2.4193 0.4861
v  -5.4341 -1.3744 -3.0000
v  -5.2245 -1.0185 -2.7986
v  -10.7877 -4.4158 2.2871
v  -10.4576 -4.6966 2.4398
v  -8.8636 -3.4628 1.2632
v  -9.1937 -3.1821 1.1105
v  -7.8534 -2.7284 0.4300
v  -6.3378 -1.8029 -1.1438
v  -6.6678 -1.5221 -1.2965
v  -8.1834 -2.4477 0.2773
v  -5.1643 -1.3368 -2.8229
v  -5.4944 -1.0560 -2.9757
# 105 vertices

vn -0.6939 -0.6635 0.2799
vn -0.5010 -0.7941 0.3442
vn -0.5103 -0.7419 0.4349
vn -0.6919 -0.5778 0.4330
vn -0.6560 -0.7541 0.0311
vn -0.4648 -0.8743 0.1401
vn -0.6762 -0.7257 0.1271
vn -0.4772 -0.8430 0.2484
vn -0.5038 -0.6687 0.5468
vn -0.6792 -0.5128 0.5251
vn -0.8427 -0.4591 0.2811
vn -0.8455 -0.5010 0.1848
vn -0.8196 -0.5724 -0.0241
vn -0.8434 -0.5314 0.0789
vn -0.8321 -0.3894 0.3950
vn -0.6830 -0.5286 0.5041
vn -0.1151 0.3668 0.9232
vn -0.6273 0.6099 0.4843
vn -0.9120 0.3873 -0.1348
vn -0.8026 -0.1705 -0.5716
vn -0.3632 -0.7370 -0.5701
vn 0.1490 -0.9801 -0.1313
vn 0.4337 -0.7575 0.4879
vn 0.3243 -0.1996 0.9246
vn 0.6830 0.5286 -0.5041
vn -0.8461 -0.3518 0.4005
vn -0.8572 -0.4770 0.1941
vn -0.7997 -0.5472 0.2470
vn -0.7428 -0.4735 0.4734
vn -0.9527 -0.1464 0.2664
vn -0.9473 -0.3108 0.0772
vn -0.9198 -0.2266 0.3203
vn -0.9061 -0.4031 0.1286
vn -0.7127 -0.6339 0.3003
vn -0.6636 -0.5446 0.5128
vn -0.7385 -0.2746 0.6159
vn -0.7937 -0.1944 0.5764
vn -0.8820 -0.0198 0.4709
vn -0.8386 -0.1027 0.5350
vn -0.6522 -0.3647 0.6645
vn -0.4730 -0.6691 0.5732
vn -0.4205 -0.5119 0.7491
vn -0.5115 -0.4676 0.7209
vn -0.6180 -0.5797 0.5311
vn -0.2252 -0.7653 0.6030
vn -0.2140 -0.5881 0.7800
vn -0.3224 -0.7348 0.5967
vn -0.3187 -0.5449 0.7755
vn -0.6166 -0.3950 0.6810
vn -0.7018 -0.5122 0.4951
vn -0.5728 -0.7403 0.3520
vn -0.4840 -0.7945 0.3668
vn -0.2794 -0.8790 0.3863
vn -0.3862 -0.8453 0.3691
vn -0.6771 -0.6642 0.3168
vn -0.6494 -0.4177 0.6355
vn -0.8007 -0.2536 0.5428
vn -0.8190 -0.3279 0.4709
vn -0.6830 -0.5288 0.5039
vn -0.5600 -0.2245 0.7975
vn -0.7320 -0.0890 0.6755
vn -0.5992 -0.3007 0.7420
vn -0.7774 -0.1668 0.6065
vn -0.8357 -0.4094 0.3660
vn -0.6936 -0.5921 0.4103
vn -0.4865 -0.6107 0.6247
vn -0.4562 -0.5467 0.7022
vn -0.3772 -0.3908 0.8396
vn -0.4111 -0.4783 0.7760
vn -0.5075 -0.6887 0.5179
vn 0.3564 0.7337 0.5785
vn -0.0616 0.9779 -0.1996
vn 0.5320 0.7905 0.3036
vn -0.4154 0.4002 -0.8168
vn 0.2848 -0.1776 -0.9420
vn -0.1067 0.5146 -0.8508
vn 0.7550 -0.5952 -0.2752
vn 0.9560 0.1123 0.2712
vn 0.8615 -0.3091 -0.4028
vn 0.4826 -0.3664 0.7955
vn -0.7171 0.6542 0.2404
vn -0.3087 -0.7082 -0.6349
vn -0.8260 0.1079 -0.5533
vn 0.3854 -0.9227 0.0073
vn -0.0269 0.4530 0.8911
vn 0.7184 -0.6111 0.3324
vn 0.1324 0.5892 0.7971
vn 0.1546 0.6061 0.7803
vn 0.2267 0.6574 0.7186
vn 0.3475 0.7291 0.5896
vn 0.2268 0.6574 0.7186
vn 0.4147 0.7598 0.5007
# 92 vertex normals

vt 0.4626 0.3218 0.0000
vt 0.6854 0.3243 0.0000
vt 0.6544 0.4514 0.0000
vt 0.4639 0.4763 0.0000
vt 0.4616 0.0121 0.0000
vt 0.5564 0.0894 0.0000
vt 0.4610 0.1670 0.0000
vt 0.6395 0.1991 0.0000
vt 0.5844 0.5372 0.0000
vt 0.4618 0.6212 0.0000
vt 0.2733 0.4519 0.0000
vt 0.2398 0.3278 0.0000
vt 0.3664 0.0894 0.0000
vt 0.2828 0.2004 0.0000
vt 0.3420 0.5352 0.0000
vt 0.1388 0.1376 0.0000
vt 0.1388 0.2623 0.0000
vt 0.0506 0.2258 0.0000
vt 0.0141 0.1376 0.0000
vt 0.0506 0.0495 0.0000
vt 0.1388 0.0129 0.0000
vt 0.2270 0.0495 0.0000
vt 0.2635 0.1376 0.0000
vt 0.2270 0.2258 0.0000
vt 0.0971 0.4222 0.0000
vt 0.0971 0.3393 0.0000
vt 0.1557 0.3979 0.0000
vt 0.1800 0.3393 0.0000
vt 0.1557 0.2807 0.0000
vt 0.0971 0.2564 0.0000
vt 0.0384 0.2807 0.0000
vt 0.0141 0.3393 0.0000
vt 0.0384 0.3979 0.0000
vt 0.3988 0.8000 0.0000
vt 0.5567 0.7173 0.0000
vt 0.5714 0.7649 0.0000
vt 0.7274 0.3411 0.0000
vt 0.7201 0.5192 0.0000
vt 0.6715 0.5082 0.0000
vt 0.9605 0.8552 0.0000
vt 0.8100 0.7598 0.0000
vt 0.8438 0.7232 0.0000
vt 0.7650 0.7227 0.0000
vt 0.6113 0.6969 0.0000
vt 0.7105 0.5767 0.0000
vt 0.5366 0.6716 0.0000
vt 0.6034 0.5894 0.0000
vt 0.7697 0.5247 0.0000
vt 0.8075 0.6236 0.0000
vt 0.7804 0.8000 0.0000
vt 0.6758 0.7833 0.0000
vt 0.3832 0.7583 0.0000
vt 0.7714 0.3485 0.0000
vt 0.9322 0.8895 0.0000
vt 0.9456 0.7001 0.0000
vt 0.8776 0.7000 0.0000
vt 0.8784 0.3548 0.0000
vt 0.9464 0.3549 0.0000
vt 0.8792 0.0096 0.0000
vt 0.9471 0.0098 0.0000
# 60 texture coords

o Object023
g Object023
usemtl Material__52
s 1
f 1/1/1 2/2/2 3/3/3 4/4/4 
f 5/5/5 6/6/6 7/7/7 
f 8/8/8 2/2/2 1/1/1 7/7/7 
f 3/3/3 9/9/9 4/4/4 
f 6/6/6 8/8/8 7/7/7 
f 9/9/9 10/10/10 4/4/4 
f 1/1/1 4/4/4 11/11/11 12/12/12 
f 5/5/5 7/7/7 13/13/13 
f 14/14/14 7/7/7 1/1/1 12/12/12 
f 11/11/11 4/4/4 15/15/15 
f 13/13/13 7/7/7 14/14/14 
f 15/15/15 4/4/4 10/10/10 
f 16/16/16 17/17/17 18/18/18 
f 16/16/16 18/18/18 19/19/19 
f 16/16/16 19/19/19 20/20/20 
f 16/16/16 20/20/20 21/21/21 
f 16/16/16 21/21/21 22/22/22 
f 16/16/16 22/22/22 23/23/23 
f 16/16/16 23/23/23 24/24/24 
f 16/16/16 24/24/24 17/17/17 
f 17/25/17 25/26/25 18/27/18 
f 18/27/18 25/26/25 19/28/19 
f 19/28/19 25/26/25 20/29/20 
f 20/29/20 25/26/25 21/30/21 
f 21/30/21 25/26/25 22/31/22 
f 22/31/22 25/26/25 23/32/23 
f 23/32/23 25/26/25 24/33/24 
f 24/33/24 25/26/25 17/25/17 
f 26/1/26 27/2/27 28/3/28 29/4/29 
f 30/5/30 31/6/31 32/7/32 
f 33/8/33 27/2/27 26/1/26 32/7/32 
f 28/3/28 34/9/34 29/4/29 
f 31/6/31 33/8/33 32/7/32 
f 34/9/34 35/10/35 29/4/29 
f 26/1/26 29/4/29 36/11/36 37/12/37 
f 30/5/30 32/7/32 38/13/38 
f 39/14/39 32/7/32 26/1/26 37/12/37 
f 36/11/36 29/4/29 40/15/40 
f 38/13/38 32/7/32 39/14/39 
f 40/15/40 29/4/29 35/10/35 
f 41/1/41 42/2/42 43/3/43 44/4/44 
f 45/5/45 46/6/46 47/7/47 
f 48/8/48 42/2/42 41/1/41 47/7/47 
f 43/3/43 49/9/49 44/4/44 
f 46/6/46 48/8/48 47/7/47 
f 49/9/49 50/10/50 44/4/44 
f 41/1/41 44/4/44 51/11/51 52/12/52 
f 45/5/45 47/7/47 53/13/53 
f 54/14/54 47/7/47 41/1/41 52/12/52 
f 51/11/51 44/4/44 55/15/55 
f 53/13/53 47/7/47 54/14/54 
f 55/15/55 44/4/44 50/10/50 
f 56/1/56 57/2/57 58/3/58 59/4/59 
f 60/5/60 61/6/61 62/7/62 
f 63/8/63 57/2/57 56/1/56 62/7/62 
f 58/3/58 64/9/64 59/4/59 
f 61/6/61 63/8/63 62/7/62 
f 64/9/64 65/10/65 59/4/59 
f 56/1/56 59/4/59 66/11/66 67/12/67 
f 60/5/60 62/7/62 68/13/68 
f 69/14/69 62/7/62 56/1/56 67/12/67 
f 66/11/66 59/4/59 70/15/70 
f 68/13/68 62/7/62 69/14/69 
f 70/15/70 59/4/59 65/10/65 
s 8
f 71/34/71 72/35/72 73/36/73 
f 74/37/74 75/38/75 76/39/76 
f 77/40/77 78/41/78 79/42/79 
s 1
f 80/43/80 81/44/81 82/45/82 
s 8
f 76/46/76 83/47/83 81/44/81 72/35/72 
f 79/48/79 84/49/84 82/45/82 75/38/75 
f 73/50/73 85/51/85 80/43/80 78/41/78 
s 1
f 81/44/81 83/47/83 82/45/82 
f 80/43/80 85/51/85 81/44/81 
f 82/45/82 84/49/84 80/43/80 
s 8
f 81/44/81 85/51/85 73/36/73 72/35/72 
f 82/45/82 83/47/83 76/39/76 75/38/75 
f 80/43/80 84/49/84 79/42/79 78/41/78 
f 74/52/74 76/46/76 72/35/72 
f 71/34/71 74/52/74 72/35/72 
f 77/53/77 79/48/79 75/38/75 
f 74/37/74 77/53/77 75/38/75 
f 71/54/71 73/50/73 78/41/78 
f 77/40/77 71/54/71 78/41/78 
s 1
f 86/55/86 87/56/86 88/57/86 89/58/86 
f 90/56/86 91/57/86 92/58/86 93/55/86 
f 88/57/86 90/59/86 93/60/86 89/58/86 
f 91/57/86 94/59/86 95/60/86 92/58/86 
f 96/55/87 97/56/87 98/57/88 99/58/88 
f 100/56/89 101/57/90 102/58/90 103/55/91 
f 98/57/88 100/59/89 103/60/91 99/58/88 
f 101/57/90 104/59/92 105/60/92 102/58/90 
# 30 polygons - 61 triangles

