# 3ds Max Wavefront OBJ Exporter v0.99 - (c)2007 guruware
# File Created: 13.08.2021 18:27:54

mtllib Object039.mtl

#
# object Object039
#

v  -5.2475 -12.7656 6.2700
v  -7.6985 -13.6584 3.9202
v  -6.3094 -15.0710 3.6582
v  -3.9161 -14.7023 5.4823
v  -7.4905 -8.4307 6.7927
v  -8.0079 -9.9519 5.7943
v  -6.4659 -10.6588 6.7398
v  -8.1567 -11.8185 4.7421
v  -4.7734 -15.7664 3.8323
v  -2.5866 -16.2074 4.3741
v  -1.6161 -12.9790 6.4475
v  -2.2272 -11.2196 7.1720
v  -5.7025 -8.9243 7.1645
v  -3.7814 -9.8682 7.3425
v  -1.7935 -14.4381 5.6033
# 15 vertices

vn -0.2997 -0.4496 0.8415
vn -0.4875 -0.5158 0.7045
vn -0.4260 -0.5972 0.6796
vn -0.2049 -0.5858 0.7841
vn -0.4256 -0.2166 0.8786
vn -0.5981 -0.3250 0.7325
vn -0.3808 -0.3081 0.8718
vn -0.5524 -0.4274 0.7157
vn -0.3490 -0.6944 0.6292
vn -0.1402 -0.6644 0.7341
vn -0.0545 -0.4316 0.9004
vn -0.1026 -0.3441 0.9333
vn -0.2017 -0.1483 0.9682
vn -0.1432 -0.2450 0.9589
vn 0.0178 -0.5310 0.8472
# 15 vertex normals

vt 0.4626 0.3218 0.0000
vt 0.6854 0.3243 0.0000
vt 0.6544 0.4514 0.0000
vt 0.4639 0.4763 0.0000
vt 0.4616 0.0121 0.0000
vt 0.5564 0.0894 0.0000
vt 0.4610 0.1670 0.0000
vt 0.6395 0.1991 0.0000
vt 0.5844 0.5372 0.0000
vt 0.4618 0.6212 0.0000
vt 0.2733 0.4519 0.0000
vt 0.2398 0.3278 0.0000
vt 0.3664 0.0894 0.0000
vt 0.2828 0.2004 0.0000
vt 0.3420 0.5352 0.0000
# 15 texture coords

o Object039
g Object039
usemtl Material__78
s 1
f 1/1/1 2/2/2 3/3/3 4/4/4 
f 5/5/5 6/6/6 7/7/7 
f 8/8/8 2/2/2 1/1/1 7/7/7 
f 3/3/3 9/9/9 4/4/4 
f 6/6/6 8/8/8 7/7/7 
f 9/9/9 10/10/10 4/4/4 
f 1/1/1 4/4/4 11/11/11 12/12/12 
f 5/5/5 7/7/7 13/13/13 
f 14/14/14 7/7/7 1/1/1 12/12/12 
f 11/11/11 4/4/4 15/15/15 
f 13/13/13 7/7/7 14/14/14 
f 15/15/15 4/4/4 10/10/10 
# 4 polygons - 8 triangles

