# 3ds Max Wavefront OBJ Exporter v0.99 - (c)2007 guruware
# File Created: 13.08.2021 18:28:29

mtllib Object092.mtl

#
# object Object092
#

v  8.2254 14.9196 -3.3564
v  10.2801 12.2401 -3.5078
v  10.3798 12.9461 -5.2948
v  8.7014 15.3055 -5.6627
v  6.6038 13.3044 0.7783
v  7.9561 12.6806 -0.2701
v  7.5340 14.2653 -1.1681
v  9.3148 12.2494 -1.7681
v  9.9020 13.8793 -6.5453
v  8.8491 15.3049 -7.8659
v  6.0582 16.5409 -5.5854
v  5.2421 16.4309 -3.8466
v  5.8333 14.4464 -0.4129
v  5.2860 15.6007 -2.0390
v  7.1580 16.1618 -6.7298
# 15 vertices

vn 0.5917 0.7376 0.3253
vn 0.7566 0.5612 0.3357
vn 0.7742 0.5875 0.2356
vn 0.6256 0.7646 0.1552
vn 0.5054 0.6531 0.5640
vn 0.6907 0.4869 0.5346
vn 0.5429 0.6912 0.4770
vn 0.7350 0.5197 0.4355
vn 0.7916 0.6022 0.1036
vn 0.6372 0.7695 0.0425
vn 0.4189 0.8830 0.2117
vn 0.3883 0.8675 0.3110
vn 0.3115 0.8023 0.5091
vn 0.3436 0.8453 0.4092
vn 0.4408 0.8941 0.0800
# 15 vertex normals

vt 0.4626 0.3218 0.0000
vt 0.6854 0.3243 0.0000
vt 0.6544 0.4514 0.0000
vt 0.4639 0.4763 0.0000
vt 0.4616 0.0121 0.0000
vt 0.5564 0.0894 0.0000
vt 0.4610 0.1670 0.0000
vt 0.6395 0.1991 0.0000
vt 0.5844 0.5372 0.0000
vt 0.4618 0.6212 0.0000
vt 0.2733 0.4519 0.0000
vt 0.2398 0.3278 0.0000
vt 0.3664 0.0894 0.0000
vt 0.2828 0.2004 0.0000
vt 0.3420 0.5352 0.0000
# 15 texture coords

o Object092
g Object092
usemtl Material__52
s 1
f 1/1/1 2/2/2 3/3/3 4/4/4 
f 5/5/5 6/6/6 7/7/7 
f 8/8/8 2/2/2 1/1/1 7/7/7 
f 3/3/3 9/9/9 4/4/4 
f 6/6/6 8/8/8 7/7/7 
f 9/9/9 10/10/10 4/4/4 
f 1/1/1 4/4/4 11/11/11 12/12/12 
f 5/5/5 7/7/7 13/13/13 
f 14/14/14 7/7/7 1/1/1 12/12/12 
f 11/11/11 4/4/4 15/15/15 
f 13/13/13 7/7/7 14/14/14 
f 15/15/15 4/4/4 10/10/10 
# 4 polygons - 8 triangles

