# 3ds Max Wavefront OBJ Exporter v0.99 - (c)2007 guruware
# File Created: 13.08.2021 18:28:21

mtllib Object080.mtl

#
# object Object080
#

v  -19.7180 10.0181 0.1106
v  -19.9248 7.0722 2.0092
v  -19.9405 8.4957 3.4116
v  -19.7398 11.2851 2.2409
v  -18.5221 7.2859 -3.7883
v  -19.0451 6.7554 -2.0494
v  -19.3363 8.6722 -1.9356
v  -19.5647 6.6027 0.0291
v  -19.7340 10.0699 4.0053
v  -19.2982 12.3112 4.2440
v  -18.2204 13.3062 0.5683
v  -17.9195 12.6800 -1.3055
v  -18.2002 9.1184 -3.4461
v  -17.9611 11.0873 -2.6216
v  -18.6419 13.1242 2.2000
# 15 vertices

vn -0.9522 0.2084 -0.2234
vn -0.9943 0.0008 -0.1070
vn -0.9978 0.0625 -0.0221
vn -0.9519 0.2976 -0.0723
vn -0.8963 0.0608 -0.4394
vn -0.9506 -0.1276 -0.2831
vn -0.9254 0.1181 -0.3601
vn -0.9794 -0.0713 -0.1890
vn -0.9871 0.1302 0.0929
vn -0.9361 0.3506 0.0268
vn -0.8616 0.4433 -0.2471
vn -0.8532 0.3954 -0.3403
vn -0.8053 0.2788 -0.5233
vn -0.8294 0.3481 -0.4369
vn -0.8527 0.5062 -0.1293
# 15 vertex normals

vt 0.4626 0.3218 0.0000
vt 0.6854 0.3243 0.0000
vt 0.6544 0.4514 0.0000
vt 0.4639 0.4763 0.0000
vt 0.4616 0.0121 0.0000
vt 0.5564 0.0894 0.0000
vt 0.4610 0.1670 0.0000
vt 0.6395 0.1991 0.0000
vt 0.5844 0.5372 0.0000
vt 0.4618 0.6212 0.0000
vt 0.2733 0.4519 0.0000
vt 0.2398 0.3278 0.0000
vt 0.3664 0.0894 0.0000
vt 0.2828 0.2004 0.0000
vt 0.3420 0.5352 0.0000
# 15 texture coords

o Object080
g Object080
usemtl Material__54
s 1
f 1/1/1 2/2/2 3/3/3 4/4/4 
f 5/5/5 6/6/6 7/7/7 
f 8/8/8 2/2/2 1/1/1 7/7/7 
f 3/3/3 9/9/9 4/4/4 
f 6/6/6 8/8/8 7/7/7 
f 9/9/9 10/10/10 4/4/4 
f 1/1/1 4/4/4 11/11/11 12/12/12 
f 5/5/5 7/7/7 13/13/13 
f 14/14/14 7/7/7 1/1/1 12/12/12 
f 11/11/11 4/4/4 15/15/15 
f 13/13/13 7/7/7 14/14/14 
f 15/15/15 4/4/4 10/10/10 
# 4 polygons - 8 triangles

