# 3ds Max Wavefront OBJ Exporter v0.99 - (c)2007 guruware
# File Created: 13.08.2021 18:28:34

mtllib Object099.mtl

#
# object Object099
#

v  -9.4283 13.3339 8.7203
v  -10.7344 14.5404 5.6930
v  -12.3616 13.8478 6.6237
v  -11.7286 12.6430 9.3327
v  -4.9276 13.7147 6.7984
v  -6.5989 14.2445 6.0881
v  -7.1281 13.7217 7.8820
v  -8.6693 14.5865 5.6300
v  -13.1970 12.9670 7.8067
v  -13.7754 11.6400 9.5885
v  -10.2233 10.5966 10.9873
v  -8.2416 10.7503 10.7799
v  -5.5485 12.6474 8.2315
v  -6.6758 11.5556 9.6980
v  -11.8393 10.9027 10.5773
# 15 vertices

vn 0.0011 0.8021 0.5971
vn -0.0792 0.9138 0.3984
vn -0.1735 0.8842 0.4338
vn -0.1616 0.7518 0.6393
vn 0.2478 0.8311 0.4978
vn 0.1232 0.9424 0.3109
vn 0.1550 0.8271 0.5403
vn 0.0164 0.9371 0.3487
vn -0.2954 0.8363 0.4618
vn -0.2644 0.7068 0.6562
vn -0.0043 0.6268 0.7792
vn 0.0962 0.6471 0.7563
vn 0.3038 0.6678 0.6795
vn 0.2028 0.6536 0.7291
vn -0.1283 0.5823 0.8028
# 15 vertex normals

vt 0.4626 0.3218 0.0000
vt 0.6854 0.3243 0.0000
vt 0.6544 0.4514 0.0000
vt 0.4639 0.4763 0.0000
vt 0.4616 0.0121 0.0000
vt 0.5564 0.0894 0.0000
vt 0.4610 0.1670 0.0000
vt 0.6395 0.1991 0.0000
vt 0.5844 0.5372 0.0000
vt 0.4618 0.6212 0.0000
vt 0.2733 0.4519 0.0000
vt 0.2398 0.3278 0.0000
vt 0.3664 0.0894 0.0000
vt 0.2828 0.2004 0.0000
vt 0.3420 0.5352 0.0000
# 15 texture coords

o Object099
g Object099
usemtl Material__82
s 1
f 1/1/1 2/2/2 3/3/3 4/4/4 
f 5/5/5 6/6/6 7/7/7 
f 8/8/8 2/2/2 1/1/1 7/7/7 
f 3/3/3 9/9/9 4/4/4 
f 6/6/6 8/8/8 7/7/7 
f 9/9/9 10/10/10 4/4/4 
f 1/1/1 4/4/4 11/11/11 12/12/12 
f 5/5/5 7/7/7 13/13/13 
f 14/14/14 7/7/7 1/1/1 12/12/12 
f 11/11/11 4/4/4 15/15/15 
f 13/13/13 7/7/7 14/14/14 
f 15/15/15 4/4/4 10/10/10 
# 4 polygons - 8 triangles

